G75*
%MOIN*%
%OFA0B0*%
%FSLAX25Y25*%
%IPPOS*%
%LPD*%
%AMOC8*
5,1,8,0,0,1.08239X$1,22.5*
%
%ADD10C,0.00000*%
%ADD11C,0.07000*%
%ADD12C,0.06400*%
%ADD13R,0.05912X0.04337*%
%ADD14R,0.11030X0.06699*%
%ADD15R,0.05124X0.05124*%
%ADD16R,0.05518X0.06306*%
%ADD17R,0.03550X0.07093*%
%ADD18R,0.06900X0.04337*%
%ADD19R,0.02400X0.05400*%
%ADD20R,0.05518X0.13392*%
%ADD21C,0.05400*%
D10*
X0002550Y0001800D02*
X0002550Y0151761D01*
X0233751Y0151761D01*
X0233751Y0001800D01*
X0002550Y0001800D01*
D11*
X0097550Y0037676D03*
X0118800Y0037676D03*
X0118800Y0053424D03*
X0097550Y0053424D03*
D12*
X0096300Y0022300D02*
X0096300Y0016300D01*
X0086300Y0016300D02*
X0086300Y0022300D01*
X0076300Y0022300D02*
X0076300Y0016300D01*
X0066300Y0016300D02*
X0066300Y0022300D01*
X0056300Y0022300D02*
X0056300Y0016300D01*
X0046300Y0016300D02*
X0046300Y0022300D01*
X0036300Y0022300D02*
X0036300Y0016300D01*
X0026300Y0016300D02*
X0026300Y0022300D01*
X0106300Y0022300D02*
X0106300Y0016300D01*
X0116300Y0016300D02*
X0116300Y0022300D01*
X0147550Y0022300D02*
X0147550Y0016300D01*
X0157550Y0016300D02*
X0157550Y0022300D01*
X0167550Y0022300D02*
X0167550Y0016300D01*
X0177550Y0016300D02*
X0177550Y0022300D01*
X0183300Y0031800D02*
X0189300Y0031800D01*
X0189300Y0041800D02*
X0183300Y0041800D01*
X0183300Y0051800D02*
X0189300Y0051800D01*
X0189300Y0061800D02*
X0183300Y0061800D01*
X0212050Y0044300D02*
X0218050Y0044300D01*
X0218050Y0034300D02*
X0212050Y0034300D01*
X0212050Y0024300D02*
X0218050Y0024300D01*
X0218050Y0014300D02*
X0212050Y0014300D01*
X0067550Y0095050D02*
X0067550Y0101050D01*
X0057550Y0101050D02*
X0057550Y0095050D01*
X0047550Y0095050D02*
X0047550Y0101050D01*
X0037550Y0101050D02*
X0037550Y0095050D01*
X0024300Y0094300D02*
X0018300Y0094300D01*
X0018300Y0104300D02*
X0024300Y0104300D01*
X0024300Y0114300D02*
X0018300Y0114300D01*
X0018300Y0124300D02*
X0024300Y0124300D01*
X0037550Y0130050D02*
X0037550Y0136050D01*
X0047550Y0136050D02*
X0047550Y0130050D01*
X0057550Y0130050D02*
X0057550Y0136050D01*
X0067550Y0136050D02*
X0067550Y0130050D01*
X0024300Y0134300D02*
X0018300Y0134300D01*
D13*
X0093219Y0070540D03*
X0101881Y0066800D03*
X0093219Y0063060D03*
X0061881Y0049300D03*
X0053219Y0045560D03*
X0053219Y0053040D03*
X0035719Y0039290D03*
X0044381Y0035550D03*
X0035719Y0031810D03*
D14*
X0022550Y0031288D03*
X0022550Y0042312D03*
X0017550Y0062538D03*
X0017550Y0073562D03*
X0040050Y0073562D03*
X0040050Y0062538D03*
X0132550Y0028562D03*
X0132550Y0017538D03*
D15*
X0182166Y0074300D03*
X0190434Y0074300D03*
D16*
X0203810Y0084300D03*
X0211290Y0084300D03*
X0121290Y0074300D03*
X0113810Y0074300D03*
X0083790Y0055550D03*
X0076310Y0055550D03*
X0066290Y0085550D03*
X0058810Y0085550D03*
X0048790Y0085550D03*
X0041310Y0085550D03*
D17*
X0100857Y0134300D03*
X0114243Y0134300D03*
D18*
X0199904Y0071849D03*
X0199904Y0059251D03*
X0220196Y0059251D03*
X0220196Y0071849D03*
D19*
X0197550Y0118550D03*
X0192550Y0118550D03*
X0187550Y0118550D03*
X0182550Y0118550D03*
X0177550Y0118550D03*
X0177550Y0137550D03*
X0182550Y0137550D03*
X0187550Y0137550D03*
X0192550Y0137550D03*
X0197550Y0137550D03*
D20*
X0160050Y0057853D03*
X0160050Y0033247D03*
D21*
X0140050Y0080550D03*
X0125050Y0106800D03*
X0113800Y0106800D03*
X0078800Y0104300D03*
X0078800Y0114300D03*
X0076300Y0075550D03*
X0076300Y0065550D03*
M02*
