G75*
%MOIN*%
%OFA0B0*%
%FSLAX25Y25*%
%IPPOS*%
%LPD*%
%AMOC8*
5,1,8,0,0,1.08239X$1,22.5*
%
%ADD10C,0.00000*%
%ADD11C,0.06600*%
%ADD12C,0.06000*%
%ADD13R,0.05512X0.03937*%
%ADD14R,0.10630X0.06299*%
%ADD15R,0.04724X0.04724*%
%ADD16R,0.05118X0.05906*%
%ADD17R,0.03150X0.06693*%
%ADD18R,0.06500X0.03937*%
%ADD19R,0.02000X0.05000*%
%ADD20R,0.05118X0.12992*%
%ADD21C,0.05000*%
%ADD22C,0.02400*%
%ADD23C,0.00600*%
%ADD24C,0.03200*%
%ADD25C,0.02000*%
%ADD26C,0.02578*%
%ADD27C,0.01000*%
%ADD28C,0.03000*%
D10*
X0002550Y0001800D02*
X0002550Y0151761D01*
X0233751Y0151761D01*
X0233751Y0001800D01*
X0002550Y0001800D01*
D11*
X0097550Y0037676D03*
X0118800Y0037676D03*
X0118800Y0053424D03*
X0097550Y0053424D03*
D12*
X0096300Y0022300D02*
X0096300Y0016300D01*
X0086300Y0016300D02*
X0086300Y0022300D01*
X0076300Y0022300D02*
X0076300Y0016300D01*
X0066300Y0016300D02*
X0066300Y0022300D01*
X0056300Y0022300D02*
X0056300Y0016300D01*
X0046300Y0016300D02*
X0046300Y0022300D01*
X0036300Y0022300D02*
X0036300Y0016300D01*
X0026300Y0016300D02*
X0026300Y0022300D01*
X0106300Y0022300D02*
X0106300Y0016300D01*
X0116300Y0016300D02*
X0116300Y0022300D01*
X0147550Y0022300D02*
X0147550Y0016300D01*
X0157550Y0016300D02*
X0157550Y0022300D01*
X0167550Y0022300D02*
X0167550Y0016300D01*
X0177550Y0016300D02*
X0177550Y0022300D01*
X0183300Y0031800D02*
X0189300Y0031800D01*
X0189300Y0041800D02*
X0183300Y0041800D01*
X0183300Y0051800D02*
X0189300Y0051800D01*
X0189300Y0061800D02*
X0183300Y0061800D01*
X0212050Y0044300D02*
X0218050Y0044300D01*
X0218050Y0034300D02*
X0212050Y0034300D01*
X0212050Y0024300D02*
X0218050Y0024300D01*
X0218050Y0014300D02*
X0212050Y0014300D01*
X0067550Y0095050D02*
X0067550Y0101050D01*
X0057550Y0101050D02*
X0057550Y0095050D01*
X0047550Y0095050D02*
X0047550Y0101050D01*
X0037550Y0101050D02*
X0037550Y0095050D01*
X0024300Y0094300D02*
X0018300Y0094300D01*
X0018300Y0104300D02*
X0024300Y0104300D01*
X0024300Y0114300D02*
X0018300Y0114300D01*
X0018300Y0124300D02*
X0024300Y0124300D01*
X0037550Y0130050D02*
X0037550Y0136050D01*
X0047550Y0136050D02*
X0047550Y0130050D01*
X0057550Y0130050D02*
X0057550Y0136050D01*
X0067550Y0136050D02*
X0067550Y0130050D01*
X0024300Y0134300D02*
X0018300Y0134300D01*
D13*
X0093219Y0070540D03*
X0101881Y0066800D03*
X0093219Y0063060D03*
X0061881Y0049300D03*
X0053219Y0045560D03*
X0053219Y0053040D03*
X0035719Y0039290D03*
X0044381Y0035550D03*
X0035719Y0031810D03*
D14*
X0022550Y0031288D03*
X0022550Y0042312D03*
X0017550Y0062538D03*
X0017550Y0073562D03*
X0040050Y0073562D03*
X0040050Y0062538D03*
X0132550Y0028562D03*
X0132550Y0017538D03*
D15*
X0182166Y0074300D03*
X0190434Y0074300D03*
D16*
X0203810Y0084300D03*
X0211290Y0084300D03*
X0121290Y0074300D03*
X0113810Y0074300D03*
X0083790Y0055550D03*
X0076310Y0055550D03*
X0066290Y0085550D03*
X0058810Y0085550D03*
X0048790Y0085550D03*
X0041310Y0085550D03*
D17*
X0100857Y0134300D03*
X0114243Y0134300D03*
D18*
X0199904Y0071849D03*
X0199904Y0059251D03*
X0220196Y0059251D03*
X0220196Y0071849D03*
D19*
X0197550Y0118550D03*
X0192550Y0118550D03*
X0187550Y0118550D03*
X0182550Y0118550D03*
X0177550Y0118550D03*
X0177550Y0137550D03*
X0182550Y0137550D03*
X0187550Y0137550D03*
X0192550Y0137550D03*
X0197550Y0137550D03*
D20*
X0160050Y0057853D03*
X0160050Y0033247D03*
D21*
X0140050Y0080550D03*
X0125050Y0106800D03*
X0113800Y0106800D03*
X0078800Y0104300D03*
X0078800Y0114300D03*
X0076300Y0075550D03*
X0076300Y0065550D03*
D22*
X0091300Y0089300D03*
X0095924Y0093426D03*
X0067550Y0112240D03*
X0097550Y0125550D03*
X0103800Y0123050D03*
X0140050Y0125750D03*
X0163800Y0131800D03*
X0182550Y0111800D03*
X0163800Y0104300D03*
X0190050Y0084300D03*
X0193800Y0084300D03*
X0197550Y0084300D03*
X0197550Y0080550D03*
X0193800Y0080550D03*
X0190050Y0080550D03*
X0201300Y0076800D03*
X0205050Y0076800D03*
X0208800Y0076800D03*
X0208800Y0073050D03*
X0208800Y0069300D03*
D23*
X0208800Y0073050D01*
X0208800Y0076800D01*
X0205050Y0076800D01*
X0203810Y0076800D01*
X0201300Y0076800D01*
X0197550Y0080550D01*
X0193800Y0080550D01*
X0192967Y0077962D02*
X0190734Y0077962D01*
X0190734Y0074600D01*
X0194096Y0074600D01*
X0194096Y0076833D01*
X0194007Y0077164D01*
X0193836Y0077460D01*
X0193594Y0077702D01*
X0193298Y0077874D01*
X0192967Y0077962D01*
X0193453Y0077784D02*
X0209700Y0077784D01*
X0209700Y0078382D02*
X0143256Y0078382D01*
X0143271Y0078397D02*
X0143850Y0079794D01*
X0143850Y0081306D01*
X0143271Y0082703D01*
X0142203Y0083771D01*
X0141650Y0084000D01*
X0141650Y0084963D01*
X0140713Y0085900D01*
X0128889Y0097724D01*
X0128889Y0098565D01*
X0128495Y0099517D01*
X0127767Y0100245D01*
X0126815Y0100639D01*
X0125785Y0100639D01*
X0124833Y0100245D01*
X0124105Y0099517D01*
X0123711Y0098565D01*
X0123711Y0097724D01*
X0123137Y0097150D01*
X0122200Y0096213D01*
X0122200Y0091213D01*
X0119387Y0088400D01*
X0108137Y0088400D01*
X0100281Y0080543D01*
X0100281Y0070068D01*
X0099150Y0070068D01*
X0099150Y0079887D01*
X0109463Y0090200D01*
X0114030Y0090200D01*
X0114105Y0090019D01*
X0114833Y0089291D01*
X0115785Y0088896D01*
X0116815Y0088896D01*
X0117767Y0089291D01*
X0118495Y0090019D01*
X0118889Y0090970D01*
X0118889Y0092000D01*
X0118495Y0092952D01*
X0117767Y0093680D01*
X0116815Y0094074D01*
X0115785Y0094074D01*
X0114833Y0093680D01*
X0114553Y0093400D01*
X0108137Y0093400D01*
X0107200Y0092463D01*
X0095950Y0081213D01*
X0095950Y0073809D01*
X0089925Y0073809D01*
X0089163Y0073047D01*
X0089163Y0071926D01*
X0088440Y0071203D01*
X0085950Y0068713D01*
X0085950Y0064963D01*
X0084387Y0063400D01*
X0082811Y0063400D01*
X0083495Y0064083D01*
X0083889Y0065035D01*
X0083889Y0066065D01*
X0083495Y0067017D01*
X0082767Y0067745D01*
X0081815Y0068139D01*
X0080785Y0068139D01*
X0079833Y0067745D01*
X0079600Y0067512D01*
X0079521Y0067703D01*
X0078453Y0068771D01*
X0077056Y0069350D01*
X0075544Y0069350D01*
X0074147Y0068771D01*
X0073079Y0067703D01*
X0072500Y0066306D01*
X0072500Y0064794D01*
X0073079Y0063397D01*
X0074147Y0062329D01*
X0075544Y0061750D01*
X0076487Y0061750D01*
X0074710Y0059973D01*
X0074710Y0059803D01*
X0073212Y0059803D01*
X0072451Y0059041D01*
X0072451Y0053954D01*
X0072200Y0053703D01*
X0072200Y0038861D01*
X0071605Y0038267D01*
X0071211Y0037315D01*
X0071211Y0036285D01*
X0071605Y0035333D01*
X0072088Y0034851D01*
X0070637Y0033400D01*
X0048437Y0033400D01*
X0048437Y0038057D01*
X0047675Y0038818D01*
X0041086Y0038818D01*
X0040325Y0038057D01*
X0040325Y0037150D01*
X0039775Y0037150D01*
X0039775Y0037150D01*
X0039775Y0038990D01*
X0036019Y0038990D01*
X0036019Y0039590D01*
X0035419Y0039590D01*
X0035419Y0038990D01*
X0031663Y0038990D01*
X0031663Y0037150D01*
X0031664Y0037150D02*
X0012325Y0037150D01*
X0012325Y0053212D01*
X0017202Y0058089D01*
X0023403Y0058089D01*
X0024165Y0058850D01*
X0024165Y0059562D01*
X0031097Y0052630D01*
X0032163Y0052189D01*
X0040560Y0052189D01*
X0049163Y0043585D01*
X0049163Y0043053D01*
X0049925Y0042291D01*
X0056514Y0042291D01*
X0057275Y0043053D01*
X0057275Y0048067D01*
X0056514Y0048828D01*
X0052123Y0048828D01*
X0051180Y0049772D01*
X0052919Y0049772D01*
X0052919Y0052740D01*
X0049163Y0052740D01*
X0049163Y0051788D01*
X0043404Y0057547D01*
X0042338Y0057989D01*
X0033941Y0057989D01*
X0026933Y0064997D01*
X0025867Y0065438D01*
X0024165Y0065438D01*
X0024165Y0066226D01*
X0023403Y0066988D01*
X0011697Y0066988D01*
X0010935Y0066226D01*
X0010935Y0060024D01*
X0007782Y0056872D01*
X0006966Y0056056D01*
X0006525Y0054990D01*
X0006525Y0011848D01*
X0006966Y0010782D01*
X0007782Y0009966D01*
X0010907Y0006841D01*
X0011973Y0006400D01*
X0223127Y0006400D01*
X0223248Y0006450D01*
X0224463Y0006450D01*
X0225400Y0007387D01*
X0225400Y0008049D01*
X0227943Y0010591D01*
X0228758Y0011407D01*
X0229200Y0012473D01*
X0229200Y0134877D01*
X0228758Y0135943D01*
X0227943Y0136758D01*
X0218758Y0145943D01*
X0217943Y0146758D01*
X0216877Y0147200D01*
X0078223Y0147200D01*
X0077157Y0146758D01*
X0076341Y0145943D01*
X0070040Y0139641D01*
X0069986Y0139695D01*
X0068405Y0140350D01*
X0066695Y0140350D01*
X0065114Y0139695D01*
X0063905Y0138486D01*
X0063250Y0136905D01*
X0063250Y0129613D01*
X0061850Y0131013D01*
X0061850Y0136905D01*
X0061195Y0138486D01*
X0059986Y0139695D01*
X0058405Y0140350D01*
X0056695Y0140350D01*
X0055114Y0139695D01*
X0053905Y0138486D01*
X0053250Y0136905D01*
X0053250Y0129613D01*
X0051850Y0131013D01*
X0051850Y0136905D01*
X0051195Y0138486D01*
X0049986Y0139695D01*
X0048405Y0140350D01*
X0046695Y0140350D01*
X0045114Y0139695D01*
X0043905Y0138486D01*
X0043250Y0136905D01*
X0043250Y0129195D01*
X0043905Y0127614D01*
X0045114Y0126405D01*
X0046695Y0125750D01*
X0048405Y0125750D01*
X0049986Y0126405D01*
X0050959Y0127378D01*
X0055950Y0122387D01*
X0056887Y0121450D01*
X0101864Y0121450D01*
X0102384Y0120931D01*
X0103303Y0120550D01*
X0104297Y0120550D01*
X0105216Y0120931D01*
X0105919Y0121634D01*
X0106300Y0122553D01*
X0106300Y0123547D01*
X0105919Y0124466D01*
X0105216Y0125169D01*
X0104297Y0125550D01*
X0103303Y0125550D01*
X0102384Y0125169D01*
X0101864Y0124650D01*
X0099883Y0124650D01*
X0100050Y0125053D01*
X0100050Y0126047D01*
X0099669Y0126966D01*
X0098966Y0127669D01*
X0098047Y0128050D01*
X0097053Y0128050D01*
X0096134Y0127669D01*
X0095614Y0127150D01*
X0070731Y0127150D01*
X0071195Y0127614D01*
X0071850Y0129195D01*
X0071850Y0133249D01*
X0080001Y0141400D01*
X0215099Y0141400D01*
X0223400Y0133099D01*
X0223400Y0086600D01*
X0215149Y0086600D01*
X0215149Y0087791D01*
X0214388Y0088553D01*
X0212800Y0088553D01*
X0211100Y0090253D01*
X0209753Y0091600D01*
X0168503Y0091600D01*
X0166100Y0094003D01*
X0166100Y0102700D01*
X0168213Y0102700D01*
X0178213Y0112700D01*
X0179150Y0113637D01*
X0179150Y0114812D01*
X0179850Y0115512D01*
X0179850Y0121588D01*
X0179088Y0122350D01*
X0176012Y0122350D01*
X0175250Y0121588D01*
X0175250Y0115512D01*
X0175874Y0114887D01*
X0166887Y0105900D01*
X0165736Y0105900D01*
X0165216Y0106419D01*
X0164297Y0106800D01*
X0163303Y0106800D01*
X0162384Y0106419D01*
X0161681Y0105716D01*
X0161300Y0104797D01*
X0161300Y0103803D01*
X0161500Y0103320D01*
X0161500Y0092097D01*
X0162847Y0090750D01*
X0166597Y0087000D01*
X0199951Y0087000D01*
X0199951Y0084600D01*
X0203510Y0084600D01*
X0203510Y0084000D01*
X0204110Y0084000D01*
X0204110Y0080047D01*
X0206540Y0080047D01*
X0206871Y0080136D01*
X0207167Y0080307D01*
X0207409Y0080549D01*
X0207512Y0080728D01*
X0208193Y0080047D01*
X0209700Y0080047D01*
X0209700Y0067484D01*
X0210034Y0067150D01*
X0194268Y0067150D01*
X0193955Y0067463D01*
X0193018Y0068400D01*
X0119463Y0068400D01*
X0119150Y0068713D01*
X0119150Y0070047D01*
X0124388Y0070047D01*
X0125149Y0070809D01*
X0125149Y0072700D01*
X0178504Y0072700D01*
X0178504Y0071399D01*
X0179265Y0070638D01*
X0185067Y0070638D01*
X0185828Y0071399D01*
X0185828Y0077201D01*
X0185067Y0077962D01*
X0179265Y0077962D01*
X0178504Y0077201D01*
X0178504Y0075900D01*
X0125149Y0075900D01*
X0125149Y0077791D01*
X0124388Y0078553D01*
X0119150Y0078553D01*
X0119150Y0079963D01*
X0118889Y0080224D01*
X0118889Y0081065D01*
X0118495Y0082017D01*
X0117767Y0082745D01*
X0116815Y0083139D01*
X0115785Y0083139D01*
X0114833Y0082745D01*
X0114425Y0082336D01*
X0114017Y0082745D01*
X0113065Y0083139D01*
X0112035Y0083139D01*
X0111083Y0082745D01*
X0110355Y0082017D01*
X0109961Y0081065D01*
X0109961Y0080035D01*
X0110355Y0079083D01*
X0110886Y0078553D01*
X0110712Y0078553D01*
X0109951Y0077791D01*
X0109951Y0070809D01*
X0110712Y0070047D01*
X0115950Y0070047D01*
X0115950Y0067387D01*
X0116887Y0066450D01*
X0117200Y0066137D01*
X0118137Y0065200D01*
X0124700Y0065200D01*
X0124700Y0012200D01*
X0117638Y0012200D01*
X0118736Y0012655D01*
X0119945Y0013864D01*
X0120600Y0015445D01*
X0120600Y0023155D01*
X0119945Y0024736D01*
X0118736Y0025945D01*
X0117155Y0026600D01*
X0115445Y0026600D01*
X0113864Y0025945D01*
X0112655Y0024736D01*
X0112000Y0023155D01*
X0112000Y0015445D01*
X0112655Y0013864D01*
X0113864Y0012655D01*
X0114962Y0012200D01*
X0107597Y0012200D01*
X0107951Y0012315D01*
X0108554Y0012622D01*
X0109101Y0013020D01*
X0109580Y0013499D01*
X0109978Y0014046D01*
X0110285Y0014649D01*
X0110494Y0015293D01*
X0110600Y0015962D01*
X0110600Y0019000D01*
X0106600Y0019000D01*
X0106600Y0019600D01*
X0106000Y0019600D01*
X0106000Y0026600D01*
X0105962Y0026600D01*
X0105293Y0026494D01*
X0104649Y0026285D01*
X0104046Y0025978D01*
X0103499Y0025580D01*
X0103100Y0025181D01*
X0103100Y0034672D01*
X0102046Y0035726D01*
X0101816Y0035955D01*
X0102150Y0036761D01*
X0102150Y0038591D01*
X0101450Y0040282D01*
X0100156Y0041576D01*
X0098465Y0042276D01*
X0096635Y0042276D01*
X0094944Y0041576D01*
X0093650Y0040282D01*
X0092950Y0038591D01*
X0092950Y0036761D01*
X0093650Y0035070D01*
X0094944Y0033776D01*
X0096635Y0033076D01*
X0098465Y0033076D01*
X0099271Y0033410D01*
X0099500Y0033180D01*
X0099500Y0025181D01*
X0098736Y0025945D01*
X0097155Y0026600D01*
X0095445Y0026600D01*
X0093864Y0025945D01*
X0092655Y0024736D01*
X0092000Y0023155D01*
X0092000Y0015445D01*
X0092655Y0013864D01*
X0093864Y0012655D01*
X0094962Y0012200D01*
X0087638Y0012200D01*
X0088736Y0012655D01*
X0089945Y0013864D01*
X0090600Y0015445D01*
X0090600Y0023155D01*
X0089945Y0024736D01*
X0088736Y0025945D01*
X0087155Y0026600D01*
X0085445Y0026600D01*
X0083864Y0025945D01*
X0082655Y0024736D01*
X0082000Y0023155D01*
X0082000Y0015445D01*
X0082655Y0013864D01*
X0083864Y0012655D01*
X0084962Y0012200D01*
X0077638Y0012200D01*
X0078736Y0012655D01*
X0079945Y0013864D01*
X0080600Y0015445D01*
X0080600Y0023155D01*
X0079945Y0024736D01*
X0078736Y0025945D01*
X0077155Y0026600D01*
X0075445Y0026600D01*
X0073864Y0025945D01*
X0072655Y0024736D01*
X0072000Y0023155D01*
X0072000Y0015445D01*
X0072655Y0013864D01*
X0073864Y0012655D01*
X0074962Y0012200D01*
X0067638Y0012200D01*
X0068736Y0012655D01*
X0069945Y0013864D01*
X0070600Y0015445D01*
X0070600Y0023155D01*
X0069945Y0024736D01*
X0068736Y0025945D01*
X0067517Y0026450D01*
X0073213Y0026450D01*
X0085390Y0038627D01*
X0085390Y0051297D01*
X0086888Y0051297D01*
X0087649Y0052059D01*
X0087649Y0053950D01*
X0091963Y0053950D01*
X0093373Y0055360D01*
X0092950Y0054339D01*
X0092950Y0052509D01*
X0093650Y0050818D01*
X0094944Y0049524D01*
X0096635Y0048824D01*
X0098465Y0048824D01*
X0100156Y0049524D01*
X0101450Y0050818D01*
X0102150Y0052509D01*
X0102150Y0054339D01*
X0101450Y0056030D01*
X0100156Y0057324D01*
X0099150Y0057740D01*
X0099150Y0063531D01*
X0105175Y0063531D01*
X0105937Y0064293D01*
X0105937Y0069307D01*
X0105175Y0070068D01*
X0103481Y0070068D01*
X0103481Y0079218D01*
X0109463Y0085200D01*
X0120713Y0085200D01*
X0124463Y0088950D01*
X0125400Y0089887D01*
X0125400Y0094887D01*
X0125974Y0095461D01*
X0126626Y0095461D01*
X0138193Y0083894D01*
X0137897Y0083771D01*
X0136829Y0082703D01*
X0136250Y0081306D01*
X0136250Y0079794D01*
X0136829Y0078397D01*
X0137897Y0077329D01*
X0139294Y0076750D01*
X0140806Y0076750D01*
X0142203Y0077329D01*
X0143271Y0078397D01*
X0143513Y0078981D02*
X0209700Y0078981D01*
X0209700Y0079579D02*
X0143761Y0079579D01*
X0143850Y0080178D02*
X0200676Y0080178D01*
X0200749Y0080136D02*
X0201080Y0080047D01*
X0203510Y0080047D01*
X0203510Y0084000D01*
X0199951Y0084000D01*
X0199951Y0081176D01*
X0200039Y0080845D01*
X0200211Y0080549D01*
X0200453Y0080307D01*
X0200749Y0080136D01*
X0200079Y0080776D02*
X0143850Y0080776D01*
X0143821Y0081375D02*
X0199951Y0081375D01*
X0199951Y0081973D02*
X0143574Y0081973D01*
X0143326Y0082572D02*
X0199951Y0082572D01*
X0199951Y0083170D02*
X0142804Y0083170D01*
X0142205Y0083769D02*
X0199951Y0083769D01*
X0199951Y0084966D02*
X0141647Y0084966D01*
X0141650Y0084367D02*
X0203510Y0084367D01*
X0203810Y0084300D02*
X0203810Y0076800D01*
X0203810Y0075755D01*
X0200578Y0072522D01*
X0215050Y0058050D01*
X0215050Y0044300D01*
X0211234Y0048400D02*
X0209728Y0047776D01*
X0208952Y0047000D01*
X0206168Y0047000D01*
X0196986Y0056182D01*
X0203610Y0056182D01*
X0204254Y0056827D01*
X0204254Y0061675D01*
X0203610Y0062319D01*
X0198816Y0062319D01*
X0195585Y0065550D01*
X0205570Y0065550D01*
X0213650Y0057470D01*
X0213650Y0048400D01*
X0211234Y0048400D01*
X0209927Y0047858D02*
X0205310Y0047858D01*
X0205909Y0047260D02*
X0209211Y0047260D01*
X0213650Y0048457D02*
X0204712Y0048457D01*
X0204113Y0049055D02*
X0213650Y0049055D01*
X0213650Y0049654D02*
X0203515Y0049654D01*
X0202916Y0050252D02*
X0213650Y0050252D01*
X0213650Y0050851D02*
X0202318Y0050851D01*
X0201719Y0051449D02*
X0213650Y0051449D01*
X0213650Y0052048D02*
X0201121Y0052048D01*
X0200522Y0052646D02*
X0213650Y0052646D01*
X0213650Y0053245D02*
X0199924Y0053245D01*
X0199325Y0053843D02*
X0213650Y0053843D01*
X0213650Y0054442D02*
X0198727Y0054442D01*
X0198128Y0055040D02*
X0213650Y0055040D01*
X0213650Y0055639D02*
X0197529Y0055639D01*
X0195554Y0057614D02*
X0195554Y0061621D01*
X0191775Y0065400D01*
X0191323Y0065400D01*
X0191622Y0065276D01*
X0192776Y0064122D01*
X0193400Y0062616D01*
X0193400Y0060984D01*
X0193044Y0060125D01*
X0195554Y0057614D01*
X0195554Y0058033D02*
X0195135Y0058033D01*
X0195554Y0058631D02*
X0194537Y0058631D01*
X0193938Y0059230D02*
X0195554Y0059230D01*
X0195554Y0059828D02*
X0193340Y0059828D01*
X0193169Y0060427D02*
X0195554Y0060427D01*
X0195554Y0061025D02*
X0193400Y0061025D01*
X0193400Y0061624D02*
X0195551Y0061624D01*
X0194953Y0062222D02*
X0193400Y0062222D01*
X0193315Y0062821D02*
X0194354Y0062821D01*
X0193756Y0063420D02*
X0193067Y0063420D01*
X0193157Y0064018D02*
X0192819Y0064018D01*
X0192559Y0064617D02*
X0192282Y0064617D01*
X0191960Y0065215D02*
X0191683Y0065215D01*
X0192355Y0066800D02*
X0118800Y0066800D01*
X0117550Y0068050D01*
X0117550Y0079300D01*
X0116300Y0080550D01*
X0118761Y0081375D02*
X0136279Y0081375D01*
X0136250Y0080776D02*
X0118889Y0080776D01*
X0118935Y0080178D02*
X0136250Y0080178D01*
X0136339Y0079579D02*
X0119150Y0079579D01*
X0119150Y0078981D02*
X0136587Y0078981D01*
X0136844Y0078382D02*
X0124558Y0078382D01*
X0125149Y0077784D02*
X0137442Y0077784D01*
X0138243Y0077185D02*
X0125149Y0077185D01*
X0125149Y0076587D02*
X0178504Y0076587D01*
X0178504Y0077185D02*
X0141857Y0077185D01*
X0142658Y0077784D02*
X0179087Y0077784D01*
X0178504Y0075988D02*
X0125149Y0075988D01*
X0121290Y0074300D02*
X0182166Y0074300D01*
X0185828Y0074193D02*
X0190134Y0074193D01*
X0190134Y0074000D02*
X0186772Y0074000D01*
X0186772Y0071767D01*
X0186860Y0071436D01*
X0187031Y0071140D01*
X0187273Y0070898D01*
X0187570Y0070726D01*
X0187900Y0070638D01*
X0190134Y0070638D01*
X0190134Y0074000D01*
X0190734Y0074000D01*
X0190734Y0074600D01*
X0190134Y0074600D01*
X0190134Y0077962D01*
X0187900Y0077962D01*
X0187570Y0077874D01*
X0187273Y0077702D01*
X0187031Y0077460D01*
X0186860Y0077164D01*
X0186772Y0076833D01*
X0186772Y0074600D01*
X0190134Y0074600D01*
X0190134Y0074000D01*
X0190134Y0073594D02*
X0190734Y0073594D01*
X0190734Y0074000D02*
X0190734Y0070638D01*
X0192967Y0070638D01*
X0193298Y0070726D01*
X0193594Y0070898D01*
X0193836Y0071140D01*
X0194007Y0071436D01*
X0194096Y0071767D01*
X0194096Y0074000D01*
X0190734Y0074000D01*
X0190734Y0074193D02*
X0195409Y0074193D01*
X0195443Y0074319D02*
X0195354Y0073989D01*
X0195354Y0072149D01*
X0199604Y0072149D01*
X0199604Y0071549D01*
X0195354Y0071549D01*
X0195354Y0069710D01*
X0195443Y0069379D01*
X0195614Y0069082D01*
X0195856Y0068840D01*
X0196153Y0068669D01*
X0196483Y0068581D01*
X0199604Y0068581D01*
X0199604Y0071549D01*
X0200204Y0071549D01*
X0200204Y0068581D01*
X0203325Y0068581D01*
X0203656Y0068669D01*
X0203953Y0068840D01*
X0204195Y0069082D01*
X0204366Y0069379D01*
X0204454Y0069710D01*
X0204454Y0071549D01*
X0200204Y0071549D01*
X0200204Y0072149D01*
X0199604Y0072149D01*
X0199604Y0075118D01*
X0196483Y0075118D01*
X0196153Y0075029D01*
X0195856Y0074858D01*
X0195614Y0074616D01*
X0195443Y0074319D01*
X0195789Y0074791D02*
X0194096Y0074791D01*
X0194096Y0075390D02*
X0209700Y0075390D01*
X0209700Y0075988D02*
X0194096Y0075988D01*
X0194096Y0076587D02*
X0209700Y0076587D01*
X0209700Y0077185D02*
X0193995Y0077185D01*
X0190734Y0077185D02*
X0190134Y0077185D01*
X0190134Y0076587D02*
X0190734Y0076587D01*
X0190734Y0075988D02*
X0190134Y0075988D01*
X0190134Y0075390D02*
X0190734Y0075390D01*
X0190734Y0074791D02*
X0190134Y0074791D01*
X0190434Y0074300D02*
X0197454Y0074300D01*
X0199904Y0071849D01*
X0200578Y0072522D01*
X0200204Y0072397D02*
X0199604Y0072397D01*
X0199604Y0071799D02*
X0194096Y0071799D01*
X0194096Y0072397D02*
X0195354Y0072397D01*
X0195354Y0072996D02*
X0194096Y0072996D01*
X0194096Y0073594D02*
X0195354Y0073594D01*
X0195354Y0071200D02*
X0193871Y0071200D01*
X0195354Y0070602D02*
X0124942Y0070602D01*
X0125149Y0071200D02*
X0178703Y0071200D01*
X0178504Y0071799D02*
X0125149Y0071799D01*
X0125149Y0072397D02*
X0178504Y0072397D01*
X0185629Y0071200D02*
X0186996Y0071200D01*
X0186772Y0071799D02*
X0185828Y0071799D01*
X0185828Y0072397D02*
X0186772Y0072397D01*
X0186772Y0072996D02*
X0185828Y0072996D01*
X0185828Y0073594D02*
X0186772Y0073594D01*
X0186772Y0074791D02*
X0185828Y0074791D01*
X0185828Y0075390D02*
X0186772Y0075390D01*
X0186772Y0075988D02*
X0185828Y0075988D01*
X0185828Y0076587D02*
X0186772Y0076587D01*
X0186873Y0077185D02*
X0185828Y0077185D01*
X0185245Y0077784D02*
X0187414Y0077784D01*
X0190134Y0077784D02*
X0190734Y0077784D01*
X0190050Y0080550D02*
X0190050Y0084300D01*
X0193800Y0084300D01*
X0197550Y0084300D01*
X0197550Y0080550D01*
X0199951Y0085564D02*
X0141048Y0085564D01*
X0140450Y0086163D02*
X0199951Y0086163D01*
X0199951Y0086761D02*
X0139851Y0086761D01*
X0139253Y0087360D02*
X0166237Y0087360D01*
X0165639Y0087958D02*
X0138654Y0087958D01*
X0138056Y0088557D02*
X0165040Y0088557D01*
X0164442Y0089155D02*
X0137457Y0089155D01*
X0136859Y0089754D02*
X0163843Y0089754D01*
X0163245Y0090353D02*
X0136260Y0090353D01*
X0135662Y0090951D02*
X0162646Y0090951D01*
X0162048Y0091550D02*
X0135063Y0091550D01*
X0134465Y0092148D02*
X0161500Y0092148D01*
X0161500Y0092747D02*
X0133866Y0092747D01*
X0133268Y0093345D02*
X0161500Y0093345D01*
X0161500Y0093944D02*
X0132669Y0093944D01*
X0132071Y0094542D02*
X0161500Y0094542D01*
X0161500Y0095141D02*
X0131472Y0095141D01*
X0130874Y0095739D02*
X0161500Y0095739D01*
X0161500Y0096338D02*
X0130275Y0096338D01*
X0129677Y0096936D02*
X0161500Y0096936D01*
X0161500Y0097535D02*
X0129078Y0097535D01*
X0128889Y0098133D02*
X0161500Y0098133D01*
X0161500Y0098732D02*
X0128820Y0098732D01*
X0128572Y0099330D02*
X0161500Y0099330D01*
X0161500Y0099929D02*
X0128083Y0099929D01*
X0127085Y0100527D02*
X0161500Y0100527D01*
X0161500Y0101126D02*
X0081000Y0101126D01*
X0080953Y0101079D02*
X0081717Y0101843D01*
X0082035Y0101711D01*
X0083065Y0101711D01*
X0084017Y0102105D01*
X0084745Y0102833D01*
X0085139Y0103785D01*
X0085139Y0104815D01*
X0084745Y0105767D01*
X0084017Y0106495D01*
X0083065Y0106889D01*
X0082035Y0106889D01*
X0081717Y0106757D01*
X0080953Y0107521D01*
X0079556Y0108100D01*
X0078044Y0108100D01*
X0076647Y0107521D01*
X0075579Y0106453D01*
X0075000Y0105056D01*
X0075000Y0103544D01*
X0075579Y0102147D01*
X0076647Y0101079D01*
X0078044Y0100500D01*
X0079556Y0100500D01*
X0080953Y0101079D01*
X0081598Y0101724D02*
X0082003Y0101724D01*
X0083097Y0101724D02*
X0118253Y0101724D01*
X0118285Y0101711D02*
X0119315Y0101711D01*
X0120267Y0102105D01*
X0120861Y0102700D01*
X0123213Y0102700D01*
X0123742Y0103229D01*
X0124294Y0103000D01*
X0125806Y0103000D01*
X0127203Y0103579D01*
X0128271Y0104647D01*
X0128850Y0106044D01*
X0128850Y0107556D01*
X0128271Y0108953D01*
X0127203Y0110021D01*
X0125806Y0110600D01*
X0124294Y0110600D01*
X0122897Y0110021D01*
X0121829Y0108953D01*
X0121250Y0107556D01*
X0121250Y0106044D01*
X0121310Y0105900D01*
X0120861Y0105900D01*
X0120267Y0106495D01*
X0119315Y0106889D01*
X0118285Y0106889D01*
X0117600Y0106605D01*
X0117600Y0107556D01*
X0117021Y0108953D01*
X0115953Y0110021D01*
X0114556Y0110600D01*
X0113044Y0110600D01*
X0111647Y0110021D01*
X0110883Y0109257D01*
X0110565Y0109389D01*
X0109535Y0109389D01*
X0108583Y0108995D01*
X0107855Y0108267D01*
X0107461Y0107315D01*
X0107461Y0106285D01*
X0107855Y0105333D01*
X0108583Y0104605D01*
X0109535Y0104211D01*
X0110565Y0104211D01*
X0110883Y0104343D01*
X0111647Y0103579D01*
X0113044Y0103000D01*
X0114556Y0103000D01*
X0115953Y0103579D01*
X0116211Y0103837D01*
X0116211Y0103785D01*
X0116605Y0102833D01*
X0117333Y0102105D01*
X0118285Y0101711D01*
X0119347Y0101724D02*
X0161500Y0101724D01*
X0161500Y0102323D02*
X0120484Y0102323D01*
X0118800Y0104300D02*
X0122550Y0104300D01*
X0125050Y0106800D01*
X0121561Y0108308D02*
X0117289Y0108308D01*
X0117536Y0107709D02*
X0121314Y0107709D01*
X0121250Y0107111D02*
X0117600Y0107111D01*
X0117041Y0108906D02*
X0121809Y0108906D01*
X0122381Y0109505D02*
X0116469Y0109505D01*
X0115755Y0110103D02*
X0123095Y0110103D01*
X0127005Y0110103D02*
X0171091Y0110103D01*
X0170492Y0109505D02*
X0127719Y0109505D01*
X0128291Y0108906D02*
X0169894Y0108906D01*
X0169295Y0108308D02*
X0128539Y0108308D01*
X0128786Y0107709D02*
X0168697Y0107709D01*
X0168098Y0107111D02*
X0128850Y0107111D01*
X0128850Y0106512D02*
X0162608Y0106512D01*
X0161878Y0105914D02*
X0128796Y0105914D01*
X0128548Y0105315D02*
X0161515Y0105315D01*
X0161300Y0104717D02*
X0128300Y0104717D01*
X0127742Y0104118D02*
X0161300Y0104118D01*
X0161417Y0103520D02*
X0127061Y0103520D01*
X0123434Y0102921D02*
X0161500Y0102921D01*
X0163800Y0104300D02*
X0167550Y0104300D01*
X0177550Y0114300D01*
X0177550Y0118550D01*
X0179850Y0118483D02*
X0182350Y0118483D01*
X0182350Y0118350D02*
X0180250Y0118350D01*
X0180250Y0115879D01*
X0180339Y0115548D01*
X0180510Y0115252D01*
X0180752Y0115010D01*
X0181048Y0114839D01*
X0181379Y0114750D01*
X0182350Y0114750D01*
X0182350Y0118350D01*
X0182750Y0118350D01*
X0182750Y0118750D01*
X0184850Y0118750D01*
X0184850Y0121221D01*
X0184761Y0121552D01*
X0184590Y0121848D01*
X0184348Y0122090D01*
X0184052Y0122261D01*
X0183721Y0122350D01*
X0182750Y0122350D01*
X0182750Y0118750D01*
X0182350Y0118750D01*
X0182350Y0122350D01*
X0181379Y0122350D01*
X0181048Y0122261D01*
X0180752Y0122090D01*
X0180510Y0121848D01*
X0180339Y0121552D01*
X0180250Y0121221D01*
X0180250Y0118750D01*
X0182350Y0118750D01*
X0182350Y0118350D01*
X0182550Y0118550D02*
X0187550Y0118550D01*
X0187750Y0118483D02*
X0190250Y0118483D01*
X0189850Y0118350D02*
X0187750Y0118350D01*
X0187750Y0118750D01*
X0189850Y0118750D01*
X0189850Y0121221D01*
X0189761Y0121552D01*
X0189590Y0121848D01*
X0189348Y0122090D01*
X0189052Y0122261D01*
X0188721Y0122350D01*
X0187750Y0122350D01*
X0187750Y0118750D01*
X0187350Y0118750D01*
X0187350Y0122350D01*
X0186379Y0122350D01*
X0186048Y0122261D01*
X0185752Y0122090D01*
X0185510Y0121848D01*
X0185339Y0121552D01*
X0185250Y0121221D01*
X0185250Y0118750D01*
X0187350Y0118750D01*
X0187350Y0118350D01*
X0187750Y0118350D01*
X0187750Y0114750D01*
X0188721Y0114750D01*
X0189052Y0114839D01*
X0189348Y0115010D01*
X0189590Y0115252D01*
X0189761Y0115548D01*
X0189850Y0115879D01*
X0189850Y0118350D01*
X0189850Y0117884D02*
X0190250Y0117884D01*
X0190250Y0117286D02*
X0189850Y0117286D01*
X0189850Y0116687D02*
X0190250Y0116687D01*
X0190250Y0116089D02*
X0189850Y0116089D01*
X0189728Y0115490D02*
X0190272Y0115490D01*
X0190250Y0115512D02*
X0191012Y0114750D01*
X0194088Y0114750D01*
X0194850Y0115512D01*
X0194850Y0121588D01*
X0194088Y0122350D01*
X0191012Y0122350D01*
X0190250Y0121588D01*
X0190250Y0115512D01*
X0190870Y0114891D02*
X0189143Y0114891D01*
X0187750Y0114891D02*
X0187350Y0114891D01*
X0187350Y0114750D02*
X0187350Y0118350D01*
X0185250Y0118350D01*
X0185250Y0115879D01*
X0185339Y0115548D01*
X0185510Y0115252D01*
X0185752Y0115010D01*
X0186048Y0114839D01*
X0186379Y0114750D01*
X0187350Y0114750D01*
X0187350Y0115490D02*
X0187750Y0115490D01*
X0187750Y0116089D02*
X0187350Y0116089D01*
X0187350Y0116687D02*
X0187750Y0116687D01*
X0187750Y0117286D02*
X0187350Y0117286D01*
X0187350Y0117884D02*
X0187750Y0117884D01*
X0187350Y0118483D02*
X0182750Y0118483D01*
X0182750Y0118350D02*
X0184850Y0118350D01*
X0184850Y0115879D01*
X0184761Y0115548D01*
X0184590Y0115252D01*
X0184348Y0115010D01*
X0184052Y0114839D01*
X0183721Y0114750D01*
X0182750Y0114750D01*
X0182750Y0118350D01*
X0182550Y0118550D02*
X0182550Y0111800D01*
X0182350Y0114891D02*
X0182750Y0114891D01*
X0182750Y0115490D02*
X0182350Y0115490D01*
X0182350Y0116089D02*
X0182750Y0116089D01*
X0182750Y0116687D02*
X0182350Y0116687D01*
X0182350Y0117286D02*
X0182750Y0117286D01*
X0182750Y0117884D02*
X0182350Y0117884D01*
X0182350Y0119081D02*
X0182750Y0119081D01*
X0182750Y0119680D02*
X0182350Y0119680D01*
X0182350Y0120278D02*
X0182750Y0120278D01*
X0182750Y0120877D02*
X0182350Y0120877D01*
X0182350Y0121475D02*
X0182750Y0121475D01*
X0182750Y0122074D02*
X0182350Y0122074D01*
X0180735Y0122074D02*
X0179365Y0122074D01*
X0179850Y0121475D02*
X0180318Y0121475D01*
X0180250Y0120877D02*
X0179850Y0120877D01*
X0179850Y0120278D02*
X0180250Y0120278D01*
X0180250Y0119680D02*
X0179850Y0119680D01*
X0179850Y0119081D02*
X0180250Y0119081D01*
X0180250Y0117884D02*
X0179850Y0117884D01*
X0179850Y0117286D02*
X0180250Y0117286D01*
X0180250Y0116687D02*
X0179850Y0116687D01*
X0179850Y0116089D02*
X0180250Y0116089D01*
X0180372Y0115490D02*
X0179828Y0115490D01*
X0179230Y0114891D02*
X0180957Y0114891D01*
X0179150Y0114293D02*
X0223400Y0114293D01*
X0223400Y0114891D02*
X0199230Y0114891D01*
X0199088Y0114750D02*
X0199850Y0115512D01*
X0199850Y0121588D01*
X0199088Y0122350D01*
X0196012Y0122350D01*
X0195250Y0121588D01*
X0195250Y0115512D01*
X0196012Y0114750D01*
X0199088Y0114750D01*
X0199828Y0115490D02*
X0223400Y0115490D01*
X0223400Y0116089D02*
X0199850Y0116089D01*
X0199850Y0116687D02*
X0223400Y0116687D01*
X0223400Y0117286D02*
X0199850Y0117286D01*
X0199850Y0117884D02*
X0223400Y0117884D01*
X0223400Y0118483D02*
X0199850Y0118483D01*
X0199850Y0119081D02*
X0223400Y0119081D01*
X0223400Y0119680D02*
X0199850Y0119680D01*
X0199850Y0120278D02*
X0223400Y0120278D01*
X0223400Y0120877D02*
X0199850Y0120877D01*
X0199850Y0121475D02*
X0223400Y0121475D01*
X0223400Y0122074D02*
X0199365Y0122074D01*
X0195735Y0122074D02*
X0194365Y0122074D01*
X0194850Y0121475D02*
X0195250Y0121475D01*
X0195250Y0120877D02*
X0194850Y0120877D01*
X0194850Y0120278D02*
X0195250Y0120278D01*
X0195250Y0119680D02*
X0194850Y0119680D01*
X0194850Y0119081D02*
X0195250Y0119081D01*
X0195250Y0118483D02*
X0194850Y0118483D01*
X0194850Y0117884D02*
X0195250Y0117884D01*
X0195250Y0117286D02*
X0194850Y0117286D01*
X0194850Y0116687D02*
X0195250Y0116687D01*
X0195250Y0116089D02*
X0194850Y0116089D01*
X0194828Y0115490D02*
X0195272Y0115490D01*
X0195870Y0114891D02*
X0194230Y0114891D01*
X0190250Y0119081D02*
X0189850Y0119081D01*
X0189850Y0119680D02*
X0190250Y0119680D01*
X0190250Y0120278D02*
X0189850Y0120278D01*
X0189850Y0120877D02*
X0190250Y0120877D01*
X0190250Y0121475D02*
X0189782Y0121475D01*
X0189365Y0122074D02*
X0190735Y0122074D01*
X0187750Y0122074D02*
X0187350Y0122074D01*
X0187350Y0121475D02*
X0187750Y0121475D01*
X0187750Y0120877D02*
X0187350Y0120877D01*
X0187350Y0120278D02*
X0187750Y0120278D01*
X0187750Y0119680D02*
X0187350Y0119680D01*
X0187350Y0119081D02*
X0187750Y0119081D01*
X0185250Y0119081D02*
X0184850Y0119081D01*
X0184850Y0119680D02*
X0185250Y0119680D01*
X0185250Y0120278D02*
X0184850Y0120278D01*
X0184850Y0120877D02*
X0185250Y0120877D01*
X0185318Y0121475D02*
X0184782Y0121475D01*
X0184365Y0122074D02*
X0185735Y0122074D01*
X0185250Y0117884D02*
X0184850Y0117884D01*
X0184850Y0117286D02*
X0185250Y0117286D01*
X0185250Y0116687D02*
X0184850Y0116687D01*
X0184850Y0116089D02*
X0185250Y0116089D01*
X0185372Y0115490D02*
X0184728Y0115490D01*
X0184143Y0114891D02*
X0185957Y0114891D01*
X0179150Y0113694D02*
X0223400Y0113694D01*
X0223400Y0113096D02*
X0178609Y0113096D01*
X0178010Y0112497D02*
X0223400Y0112497D01*
X0223400Y0111899D02*
X0177412Y0111899D01*
X0176813Y0111300D02*
X0223400Y0111300D01*
X0223400Y0110702D02*
X0176215Y0110702D01*
X0175616Y0110103D02*
X0223400Y0110103D01*
X0223400Y0109505D02*
X0175018Y0109505D01*
X0174419Y0108906D02*
X0223400Y0108906D01*
X0223400Y0108308D02*
X0173821Y0108308D01*
X0173222Y0107709D02*
X0223400Y0107709D01*
X0223400Y0107111D02*
X0172624Y0107111D01*
X0172025Y0106512D02*
X0223400Y0106512D01*
X0223400Y0105914D02*
X0171427Y0105914D01*
X0170828Y0105315D02*
X0223400Y0105315D01*
X0223400Y0104717D02*
X0170230Y0104717D01*
X0169631Y0104118D02*
X0223400Y0104118D01*
X0223400Y0103520D02*
X0169033Y0103520D01*
X0168434Y0102921D02*
X0223400Y0102921D01*
X0223400Y0102323D02*
X0166100Y0102323D01*
X0166100Y0101724D02*
X0223400Y0101724D01*
X0223400Y0101126D02*
X0166100Y0101126D01*
X0166100Y0100527D02*
X0223400Y0100527D01*
X0223400Y0099929D02*
X0166100Y0099929D01*
X0166100Y0099330D02*
X0223400Y0099330D01*
X0223400Y0098732D02*
X0166100Y0098732D01*
X0166100Y0098133D02*
X0223400Y0098133D01*
X0223400Y0097535D02*
X0166100Y0097535D01*
X0166100Y0096936D02*
X0223400Y0096936D01*
X0223400Y0096338D02*
X0166100Y0096338D01*
X0166100Y0095739D02*
X0223400Y0095739D01*
X0223400Y0095141D02*
X0166100Y0095141D01*
X0166100Y0094542D02*
X0223400Y0094542D01*
X0223400Y0093944D02*
X0166159Y0093944D01*
X0166758Y0093345D02*
X0223400Y0093345D01*
X0223400Y0092747D02*
X0167356Y0092747D01*
X0167955Y0092148D02*
X0223400Y0092148D01*
X0223400Y0091550D02*
X0209803Y0091550D01*
X0210402Y0090951D02*
X0223400Y0090951D01*
X0223400Y0090353D02*
X0211000Y0090353D01*
X0211599Y0089754D02*
X0223400Y0089754D01*
X0223400Y0089155D02*
X0212197Y0089155D01*
X0212796Y0088557D02*
X0223400Y0088557D01*
X0223400Y0087958D02*
X0214982Y0087958D01*
X0215149Y0087360D02*
X0223400Y0087360D01*
X0223400Y0086761D02*
X0215149Y0086761D01*
X0211300Y0084290D02*
X0211300Y0068146D01*
X0220196Y0059251D01*
X0219107Y0062319D02*
X0223600Y0062319D01*
X0223600Y0065550D01*
X0215876Y0065550D01*
X0219107Y0062319D01*
X0218605Y0062821D02*
X0223600Y0062821D01*
X0223600Y0063420D02*
X0218007Y0063420D01*
X0217408Y0064018D02*
X0223600Y0064018D01*
X0223600Y0064617D02*
X0216810Y0064617D01*
X0216211Y0065215D02*
X0223600Y0065215D01*
X0229200Y0065215D02*
X0232451Y0065215D01*
X0232451Y0064617D02*
X0229200Y0064617D01*
X0229200Y0064018D02*
X0232451Y0064018D01*
X0232451Y0063420D02*
X0229200Y0063420D01*
X0229200Y0062821D02*
X0232451Y0062821D01*
X0232451Y0062222D02*
X0229200Y0062222D01*
X0229200Y0061624D02*
X0232451Y0061624D01*
X0232451Y0061025D02*
X0229200Y0061025D01*
X0229200Y0060427D02*
X0232451Y0060427D01*
X0232451Y0059828D02*
X0229200Y0059828D01*
X0229200Y0059230D02*
X0232451Y0059230D01*
X0232451Y0058631D02*
X0229200Y0058631D01*
X0229200Y0058033D02*
X0232451Y0058033D01*
X0232451Y0057434D02*
X0229200Y0057434D01*
X0229200Y0056836D02*
X0232451Y0056836D01*
X0232451Y0056237D02*
X0229200Y0056237D01*
X0229200Y0055639D02*
X0232451Y0055639D01*
X0232451Y0055040D02*
X0229200Y0055040D01*
X0229200Y0054442D02*
X0232451Y0054442D01*
X0232451Y0053843D02*
X0229200Y0053843D01*
X0229200Y0053245D02*
X0232451Y0053245D01*
X0232451Y0052646D02*
X0229200Y0052646D01*
X0229200Y0052048D02*
X0232451Y0052048D01*
X0232451Y0051449D02*
X0229200Y0051449D01*
X0229200Y0050851D02*
X0232451Y0050851D01*
X0232451Y0050252D02*
X0229200Y0050252D01*
X0229200Y0049654D02*
X0232451Y0049654D01*
X0232451Y0049055D02*
X0229200Y0049055D01*
X0229200Y0048457D02*
X0232451Y0048457D01*
X0232451Y0047858D02*
X0229200Y0047858D01*
X0229200Y0047260D02*
X0232451Y0047260D01*
X0232451Y0046661D02*
X0229200Y0046661D01*
X0229200Y0046063D02*
X0232451Y0046063D01*
X0232451Y0045464D02*
X0229200Y0045464D01*
X0229200Y0044866D02*
X0232451Y0044866D01*
X0232451Y0044267D02*
X0229200Y0044267D01*
X0229200Y0043669D02*
X0232451Y0043669D01*
X0232451Y0043070D02*
X0229200Y0043070D01*
X0229200Y0042472D02*
X0232451Y0042472D01*
X0232451Y0041873D02*
X0229200Y0041873D01*
X0229200Y0041275D02*
X0232451Y0041275D01*
X0232451Y0040676D02*
X0229200Y0040676D01*
X0229200Y0040078D02*
X0232451Y0040078D01*
X0232451Y0039479D02*
X0229200Y0039479D01*
X0229200Y0038881D02*
X0232451Y0038881D01*
X0232451Y0038282D02*
X0229200Y0038282D01*
X0229200Y0037684D02*
X0232451Y0037684D01*
X0232451Y0037085D02*
X0229200Y0037085D01*
X0229200Y0036487D02*
X0232451Y0036487D01*
X0232451Y0035888D02*
X0229200Y0035888D01*
X0229200Y0035289D02*
X0232451Y0035289D01*
X0232451Y0034691D02*
X0229200Y0034691D01*
X0229200Y0034092D02*
X0232451Y0034092D01*
X0232451Y0033494D02*
X0229200Y0033494D01*
X0229200Y0032895D02*
X0232451Y0032895D01*
X0232451Y0032297D02*
X0229200Y0032297D01*
X0229200Y0031698D02*
X0232451Y0031698D01*
X0232451Y0031100D02*
X0229200Y0031100D01*
X0229200Y0030501D02*
X0232451Y0030501D01*
X0232451Y0029903D02*
X0229200Y0029903D01*
X0229200Y0029304D02*
X0232451Y0029304D01*
X0232451Y0028706D02*
X0229200Y0028706D01*
X0229200Y0028107D02*
X0232451Y0028107D01*
X0232451Y0027509D02*
X0229200Y0027509D01*
X0229200Y0026910D02*
X0232451Y0026910D01*
X0232451Y0026312D02*
X0229200Y0026312D01*
X0229200Y0025713D02*
X0232451Y0025713D01*
X0232451Y0025115D02*
X0229200Y0025115D01*
X0229200Y0024516D02*
X0232451Y0024516D01*
X0232451Y0023918D02*
X0229200Y0023918D01*
X0229200Y0023319D02*
X0232451Y0023319D01*
X0232451Y0022721D02*
X0229200Y0022721D01*
X0229200Y0022122D02*
X0232451Y0022122D01*
X0232451Y0021524D02*
X0229200Y0021524D01*
X0229200Y0020925D02*
X0232451Y0020925D01*
X0232451Y0020327D02*
X0229200Y0020327D01*
X0229200Y0019728D02*
X0232451Y0019728D01*
X0232451Y0019130D02*
X0229200Y0019130D01*
X0229200Y0018531D02*
X0232451Y0018531D01*
X0232451Y0017933D02*
X0229200Y0017933D01*
X0229200Y0017334D02*
X0232451Y0017334D01*
X0232451Y0016736D02*
X0229200Y0016736D01*
X0229200Y0016137D02*
X0232451Y0016137D01*
X0232451Y0015539D02*
X0229200Y0015539D01*
X0229200Y0014940D02*
X0232451Y0014940D01*
X0232451Y0014342D02*
X0229200Y0014342D01*
X0229200Y0013743D02*
X0232451Y0013743D01*
X0232451Y0013145D02*
X0229200Y0013145D01*
X0229200Y0012546D02*
X0232451Y0012546D01*
X0232451Y0011948D02*
X0228982Y0011948D01*
X0228700Y0011349D02*
X0232451Y0011349D01*
X0232451Y0010751D02*
X0228102Y0010751D01*
X0227503Y0010152D02*
X0232451Y0010152D01*
X0232451Y0009553D02*
X0226905Y0009553D01*
X0226306Y0008955D02*
X0232451Y0008955D01*
X0232451Y0008356D02*
X0225708Y0008356D01*
X0225400Y0007758D02*
X0232451Y0007758D01*
X0232451Y0007159D02*
X0225172Y0007159D01*
X0224574Y0006561D02*
X0232451Y0006561D01*
X0232451Y0005962D02*
X0003850Y0005962D01*
X0003850Y0005364D02*
X0232451Y0005364D01*
X0232451Y0004765D02*
X0003850Y0004765D01*
X0003850Y0004167D02*
X0232451Y0004167D01*
X0232451Y0003568D02*
X0003850Y0003568D01*
X0003850Y0003100D02*
X0003850Y0150461D01*
X0232451Y0150461D01*
X0232451Y0003100D01*
X0003850Y0003100D01*
X0006300Y0005050D02*
X0006300Y0008800D01*
X0005050Y0010050D01*
X0005050Y0010550D01*
X0003850Y0010751D02*
X0006998Y0010751D01*
X0006732Y0011349D02*
X0003850Y0011349D01*
X0003850Y0011948D02*
X0006525Y0011948D01*
X0006525Y0012546D02*
X0003850Y0012546D01*
X0003850Y0013145D02*
X0006525Y0013145D01*
X0006525Y0013743D02*
X0003850Y0013743D01*
X0003850Y0014342D02*
X0006525Y0014342D01*
X0006525Y0014940D02*
X0003850Y0014940D01*
X0003850Y0015539D02*
X0006525Y0015539D01*
X0006525Y0016137D02*
X0003850Y0016137D01*
X0003850Y0016736D02*
X0006525Y0016736D01*
X0006525Y0017334D02*
X0003850Y0017334D01*
X0003850Y0017933D02*
X0006525Y0017933D01*
X0006525Y0018531D02*
X0003850Y0018531D01*
X0003850Y0019130D02*
X0006525Y0019130D01*
X0006525Y0019728D02*
X0003850Y0019728D01*
X0003850Y0020327D02*
X0006525Y0020327D01*
X0006525Y0020925D02*
X0003850Y0020925D01*
X0003850Y0021524D02*
X0006525Y0021524D01*
X0006525Y0022122D02*
X0003850Y0022122D01*
X0003850Y0022721D02*
X0006525Y0022721D01*
X0006525Y0023319D02*
X0003850Y0023319D01*
X0003850Y0023918D02*
X0006525Y0023918D01*
X0006525Y0024516D02*
X0003850Y0024516D01*
X0003850Y0025115D02*
X0006525Y0025115D01*
X0006525Y0025713D02*
X0003850Y0025713D01*
X0003850Y0026312D02*
X0006525Y0026312D01*
X0006525Y0026910D02*
X0003850Y0026910D01*
X0003850Y0027509D02*
X0006525Y0027509D01*
X0006525Y0028107D02*
X0003850Y0028107D01*
X0003850Y0028706D02*
X0006525Y0028706D01*
X0006525Y0029304D02*
X0003850Y0029304D01*
X0003850Y0029903D02*
X0006525Y0029903D01*
X0006525Y0030501D02*
X0003850Y0030501D01*
X0003850Y0031100D02*
X0006525Y0031100D01*
X0006525Y0031698D02*
X0003850Y0031698D01*
X0003850Y0032297D02*
X0006525Y0032297D01*
X0006525Y0032895D02*
X0003850Y0032895D01*
X0003850Y0033494D02*
X0006525Y0033494D01*
X0006525Y0034092D02*
X0003850Y0034092D01*
X0003850Y0034691D02*
X0006525Y0034691D01*
X0006525Y0035289D02*
X0003850Y0035289D01*
X0003850Y0035888D02*
X0006525Y0035888D01*
X0006525Y0036487D02*
X0003850Y0036487D01*
X0003850Y0037085D02*
X0006525Y0037085D01*
X0006525Y0037684D02*
X0003850Y0037684D01*
X0003850Y0038282D02*
X0006525Y0038282D01*
X0006525Y0038881D02*
X0003850Y0038881D01*
X0003850Y0039479D02*
X0006525Y0039479D01*
X0006525Y0040078D02*
X0003850Y0040078D01*
X0003850Y0040676D02*
X0006525Y0040676D01*
X0006525Y0041275D02*
X0003850Y0041275D01*
X0003850Y0041873D02*
X0006525Y0041873D01*
X0006525Y0042472D02*
X0003850Y0042472D01*
X0003850Y0043070D02*
X0006525Y0043070D01*
X0006525Y0043669D02*
X0003850Y0043669D01*
X0003850Y0044267D02*
X0006525Y0044267D01*
X0006525Y0044866D02*
X0003850Y0044866D01*
X0003850Y0045464D02*
X0006525Y0045464D01*
X0006525Y0046063D02*
X0003850Y0046063D01*
X0003850Y0046661D02*
X0006525Y0046661D01*
X0006525Y0047260D02*
X0003850Y0047260D01*
X0003850Y0047858D02*
X0006525Y0047858D01*
X0006525Y0048457D02*
X0003850Y0048457D01*
X0003850Y0049055D02*
X0006525Y0049055D01*
X0006525Y0049654D02*
X0003850Y0049654D01*
X0003850Y0050252D02*
X0006525Y0050252D01*
X0006525Y0050851D02*
X0003850Y0050851D01*
X0003850Y0051449D02*
X0006525Y0051449D01*
X0006525Y0052048D02*
X0003850Y0052048D01*
X0003850Y0052646D02*
X0006525Y0052646D01*
X0006525Y0053245D02*
X0003850Y0053245D01*
X0003850Y0053843D02*
X0006525Y0053843D01*
X0006525Y0054442D02*
X0003850Y0054442D01*
X0003850Y0055040D02*
X0006546Y0055040D01*
X0006794Y0055639D02*
X0003850Y0055639D01*
X0003850Y0056237D02*
X0007148Y0056237D01*
X0007746Y0056836D02*
X0003850Y0056836D01*
X0003850Y0057434D02*
X0008345Y0057434D01*
X0007782Y0056872D02*
X0007782Y0056872D01*
X0008944Y0058033D02*
X0003850Y0058033D01*
X0003850Y0058631D02*
X0009542Y0058631D01*
X0010141Y0059230D02*
X0003850Y0059230D01*
X0003850Y0059828D02*
X0010739Y0059828D01*
X0010935Y0060427D02*
X0003850Y0060427D01*
X0003850Y0061025D02*
X0010935Y0061025D01*
X0010935Y0061624D02*
X0003850Y0061624D01*
X0003850Y0062222D02*
X0010935Y0062222D01*
X0010935Y0062821D02*
X0003850Y0062821D01*
X0003850Y0063420D02*
X0010935Y0063420D01*
X0010935Y0064018D02*
X0003850Y0064018D01*
X0003850Y0064617D02*
X0010935Y0064617D01*
X0010935Y0065215D02*
X0003850Y0065215D01*
X0003850Y0065814D02*
X0010935Y0065814D01*
X0011121Y0066412D02*
X0003850Y0066412D01*
X0003850Y0067011D02*
X0055738Y0067011D01*
X0055140Y0067609D02*
X0003850Y0067609D01*
X0003850Y0068208D02*
X0054541Y0068208D01*
X0053943Y0068806D02*
X0003850Y0068806D01*
X0003850Y0069405D02*
X0011404Y0069405D01*
X0011437Y0069372D02*
X0011733Y0069201D01*
X0012064Y0069112D01*
X0017250Y0069112D01*
X0017250Y0073262D01*
X0010935Y0073262D01*
X0010935Y0070241D01*
X0011024Y0069910D01*
X0011195Y0069614D01*
X0011437Y0069372D01*
X0010999Y0070003D02*
X0003850Y0070003D01*
X0003850Y0070602D02*
X0010935Y0070602D01*
X0010935Y0071200D02*
X0003850Y0071200D01*
X0003850Y0071799D02*
X0010935Y0071799D01*
X0010935Y0072397D02*
X0003850Y0072397D01*
X0003850Y0072996D02*
X0010935Y0072996D01*
X0010935Y0073862D02*
X0010935Y0076883D01*
X0011024Y0077213D01*
X0011195Y0077510D01*
X0011437Y0077752D01*
X0011733Y0077923D01*
X0012064Y0078011D01*
X0017250Y0078011D01*
X0017250Y0073862D01*
X0017850Y0073862D01*
X0017850Y0078011D01*
X0023036Y0078011D01*
X0023367Y0077923D01*
X0023663Y0077752D01*
X0023905Y0077510D01*
X0024076Y0077213D01*
X0024165Y0076883D01*
X0024165Y0073862D01*
X0017850Y0073862D01*
X0017850Y0073262D01*
X0024165Y0073262D01*
X0024165Y0070241D01*
X0024076Y0069910D01*
X0023905Y0069614D01*
X0023663Y0069372D01*
X0023367Y0069201D01*
X0023036Y0069112D01*
X0017850Y0069112D01*
X0017850Y0073262D01*
X0017250Y0073262D01*
X0017250Y0073862D01*
X0010935Y0073862D01*
X0010935Y0074193D02*
X0003850Y0074193D01*
X0003850Y0074791D02*
X0010935Y0074791D01*
X0010935Y0075390D02*
X0003850Y0075390D01*
X0003850Y0075988D02*
X0010935Y0075988D01*
X0010935Y0076587D02*
X0003850Y0076587D01*
X0003850Y0077185D02*
X0011016Y0077185D01*
X0011492Y0077784D02*
X0003850Y0077784D01*
X0003850Y0078382D02*
X0025616Y0078382D01*
X0025018Y0078981D02*
X0003850Y0078981D01*
X0003850Y0079579D02*
X0024419Y0079579D01*
X0023821Y0080178D02*
X0003850Y0080178D01*
X0003850Y0080776D02*
X0023222Y0080776D01*
X0022624Y0081375D02*
X0003850Y0081375D01*
X0003850Y0081973D02*
X0022025Y0081973D01*
X0021427Y0082572D02*
X0003850Y0082572D01*
X0003850Y0083170D02*
X0020828Y0083170D01*
X0020230Y0083769D02*
X0003850Y0083769D01*
X0003850Y0084367D02*
X0019631Y0084367D01*
X0019657Y0084341D02*
X0019657Y0084341D01*
X0018841Y0085157D01*
X0018400Y0086223D01*
X0018400Y0090000D01*
X0017445Y0090000D01*
X0015864Y0090655D01*
X0014655Y0091864D01*
X0014000Y0093445D01*
X0014000Y0095155D01*
X0014655Y0096736D01*
X0015864Y0097945D01*
X0017445Y0098600D01*
X0025155Y0098600D01*
X0026736Y0097945D01*
X0027945Y0096736D01*
X0028600Y0095155D01*
X0028600Y0093445D01*
X0027945Y0091864D01*
X0026736Y0090655D01*
X0025155Y0090000D01*
X0024200Y0090000D01*
X0024200Y0088001D01*
X0034193Y0078008D01*
X0034197Y0078011D01*
X0045903Y0078011D01*
X0046665Y0077250D01*
X0046665Y0075950D01*
X0054377Y0075950D01*
X0055443Y0075508D01*
X0063523Y0067428D01*
X0064339Y0066612D01*
X0064781Y0065546D01*
X0064781Y0052568D01*
X0065175Y0052568D01*
X0065937Y0051807D01*
X0065937Y0046793D01*
X0065175Y0046031D01*
X0058586Y0046031D01*
X0057825Y0046793D01*
X0057825Y0051807D01*
X0058586Y0052568D01*
X0058981Y0052568D01*
X0058981Y0063768D01*
X0052599Y0070150D01*
X0046665Y0070150D01*
X0046665Y0069874D01*
X0045903Y0069112D01*
X0034197Y0069112D01*
X0033435Y0069874D01*
X0033435Y0070880D01*
X0032895Y0071103D01*
X0032080Y0071919D01*
X0032080Y0071919D01*
X0019657Y0084341D01*
X0019033Y0084966D02*
X0003850Y0084966D01*
X0003850Y0085564D02*
X0018673Y0085564D01*
X0018425Y0086163D02*
X0003850Y0086163D01*
X0003850Y0086761D02*
X0018400Y0086761D01*
X0018400Y0087360D02*
X0003850Y0087360D01*
X0003850Y0087958D02*
X0018400Y0087958D01*
X0018400Y0088557D02*
X0003850Y0088557D01*
X0003850Y0089155D02*
X0018400Y0089155D01*
X0018400Y0089754D02*
X0003850Y0089754D01*
X0003850Y0090353D02*
X0016594Y0090353D01*
X0015568Y0090951D02*
X0003850Y0090951D01*
X0003850Y0091550D02*
X0014969Y0091550D01*
X0014537Y0092148D02*
X0003850Y0092148D01*
X0003850Y0092747D02*
X0014289Y0092747D01*
X0014041Y0093345D02*
X0003850Y0093345D01*
X0003850Y0093944D02*
X0014000Y0093944D01*
X0014000Y0094542D02*
X0003850Y0094542D01*
X0003850Y0095141D02*
X0014000Y0095141D01*
X0014242Y0095739D02*
X0003850Y0095739D01*
X0003850Y0096338D02*
X0014490Y0096338D01*
X0014855Y0096936D02*
X0003850Y0096936D01*
X0003850Y0097535D02*
X0015454Y0097535D01*
X0016318Y0098133D02*
X0003850Y0098133D01*
X0003850Y0098732D02*
X0033250Y0098732D01*
X0033250Y0098350D02*
X0037250Y0098350D01*
X0037250Y0105350D01*
X0037212Y0105350D01*
X0036543Y0105244D01*
X0035899Y0105035D01*
X0035296Y0104728D01*
X0034749Y0104330D01*
X0034270Y0103851D01*
X0033872Y0103304D01*
X0033565Y0102701D01*
X0033356Y0102057D01*
X0033250Y0101388D01*
X0033250Y0098350D01*
X0033250Y0097750D02*
X0033250Y0094712D01*
X0033356Y0094043D01*
X0033565Y0093399D01*
X0033872Y0092796D01*
X0034270Y0092249D01*
X0034749Y0091770D01*
X0035296Y0091372D01*
X0035899Y0091065D01*
X0036543Y0090856D01*
X0037212Y0090750D01*
X0037250Y0090750D01*
X0037250Y0097750D01*
X0037850Y0097750D01*
X0037850Y0090750D01*
X0037888Y0090750D01*
X0038557Y0090856D01*
X0039201Y0091065D01*
X0039804Y0091372D01*
X0040351Y0091770D01*
X0040830Y0092249D01*
X0040950Y0092414D01*
X0040950Y0089803D01*
X0038212Y0089803D01*
X0037451Y0089041D01*
X0037451Y0082059D01*
X0038212Y0081297D01*
X0044407Y0081297D01*
X0045050Y0081940D01*
X0045693Y0081297D01*
X0051888Y0081297D01*
X0052649Y0082059D01*
X0052649Y0082380D01*
X0055595Y0079434D01*
X0056532Y0078497D01*
X0073873Y0078497D01*
X0073079Y0077703D01*
X0072500Y0076306D01*
X0072500Y0074794D01*
X0073079Y0073397D01*
X0074147Y0072329D01*
X0075544Y0071750D01*
X0077056Y0071750D01*
X0078453Y0072329D01*
X0079521Y0073397D01*
X0079600Y0073588D01*
X0079833Y0073355D01*
X0080785Y0072961D01*
X0081815Y0072961D01*
X0082767Y0073355D01*
X0083495Y0074083D01*
X0083889Y0075035D01*
X0083889Y0076065D01*
X0083495Y0077017D01*
X0082767Y0077745D01*
X0081815Y0078139D01*
X0080785Y0078139D01*
X0079833Y0077745D01*
X0079600Y0077512D01*
X0079521Y0077703D01*
X0078727Y0078497D01*
X0082760Y0078497D01*
X0091063Y0086800D01*
X0091797Y0086800D01*
X0092716Y0087181D01*
X0093419Y0087884D01*
X0093800Y0088803D01*
X0093800Y0089797D01*
X0093419Y0090716D01*
X0092716Y0091419D01*
X0091797Y0091800D01*
X0090803Y0091800D01*
X0089884Y0091419D01*
X0089181Y0090716D01*
X0088800Y0089797D01*
X0088800Y0089063D01*
X0081434Y0081697D01*
X0072707Y0081697D01*
X0082836Y0091826D01*
X0093988Y0091826D01*
X0094508Y0091307D01*
X0095426Y0090926D01*
X0096421Y0090926D01*
X0097340Y0091307D01*
X0098043Y0092010D01*
X0098424Y0092929D01*
X0098424Y0093924D01*
X0098043Y0094842D01*
X0097340Y0095546D01*
X0096421Y0095926D01*
X0095426Y0095926D01*
X0094508Y0095546D01*
X0093988Y0095026D01*
X0081511Y0095026D01*
X0070149Y0083665D01*
X0070149Y0089041D01*
X0069388Y0089803D01*
X0067890Y0089803D01*
X0067890Y0090750D01*
X0068405Y0090750D01*
X0069986Y0091405D01*
X0071195Y0092614D01*
X0071850Y0094195D01*
X0071850Y0101905D01*
X0071195Y0103486D01*
X0069986Y0104695D01*
X0069150Y0105042D01*
X0069150Y0110304D01*
X0069669Y0110824D01*
X0070050Y0111742D01*
X0070050Y0112737D01*
X0069669Y0113656D01*
X0068966Y0114359D01*
X0068047Y0114740D01*
X0067053Y0114740D01*
X0066134Y0114359D01*
X0065614Y0113840D01*
X0049827Y0113840D01*
X0041887Y0105900D01*
X0040950Y0104963D01*
X0040950Y0103686D01*
X0040830Y0103851D01*
X0040351Y0104330D01*
X0039804Y0104728D01*
X0039201Y0105035D01*
X0038557Y0105244D01*
X0037888Y0105350D01*
X0037850Y0105350D01*
X0037850Y0098350D01*
X0037250Y0098350D01*
X0037250Y0097750D01*
X0033250Y0097750D01*
X0033250Y0097535D02*
X0027146Y0097535D01*
X0027745Y0096936D02*
X0033250Y0096936D01*
X0033250Y0096338D02*
X0028110Y0096338D01*
X0028358Y0095739D02*
X0033250Y0095739D01*
X0033250Y0095141D02*
X0028600Y0095141D01*
X0028600Y0094542D02*
X0033277Y0094542D01*
X0033388Y0093944D02*
X0028600Y0093944D01*
X0028559Y0093345D02*
X0033593Y0093345D01*
X0033908Y0092747D02*
X0028311Y0092747D01*
X0028063Y0092148D02*
X0034371Y0092148D01*
X0035052Y0091550D02*
X0027631Y0091550D01*
X0027032Y0090951D02*
X0036250Y0090951D01*
X0037250Y0090951D02*
X0037850Y0090951D01*
X0037850Y0091550D02*
X0037250Y0091550D01*
X0037250Y0092148D02*
X0037850Y0092148D01*
X0037850Y0092747D02*
X0037250Y0092747D01*
X0037250Y0093345D02*
X0037850Y0093345D01*
X0037850Y0093944D02*
X0037250Y0093944D01*
X0037250Y0094542D02*
X0037850Y0094542D01*
X0037850Y0095141D02*
X0037250Y0095141D01*
X0037250Y0095739D02*
X0037850Y0095739D01*
X0037850Y0096338D02*
X0037250Y0096338D01*
X0037250Y0096936D02*
X0037850Y0096936D01*
X0037850Y0097535D02*
X0037250Y0097535D01*
X0037550Y0098050D02*
X0037550Y0133050D01*
X0036300Y0134300D01*
X0021300Y0134300D01*
X0021600Y0134044D02*
X0033250Y0134044D01*
X0033250Y0134642D02*
X0028599Y0134642D01*
X0028600Y0134638D02*
X0028494Y0135307D01*
X0028285Y0135951D01*
X0027978Y0136554D01*
X0027580Y0137101D01*
X0027101Y0137580D01*
X0026554Y0137978D01*
X0025951Y0138285D01*
X0025307Y0138494D01*
X0024638Y0138600D01*
X0021600Y0138600D01*
X0021600Y0134600D01*
X0021000Y0134600D01*
X0021000Y0138600D01*
X0017962Y0138600D01*
X0017293Y0138494D01*
X0016649Y0138285D01*
X0016046Y0137978D01*
X0015499Y0137580D01*
X0015020Y0137101D01*
X0014622Y0136554D01*
X0014315Y0135951D01*
X0014106Y0135307D01*
X0014000Y0134638D01*
X0014000Y0134600D01*
X0021000Y0134600D01*
X0021000Y0134000D01*
X0021600Y0134000D01*
X0021600Y0134600D01*
X0028600Y0134600D01*
X0028600Y0134638D01*
X0028505Y0135241D02*
X0033250Y0135241D01*
X0033250Y0135839D02*
X0028321Y0135839D01*
X0028037Y0136438D02*
X0033258Y0136438D01*
X0033250Y0136388D02*
X0033250Y0133350D01*
X0037250Y0133350D01*
X0037250Y0140350D01*
X0037212Y0140350D01*
X0036543Y0140244D01*
X0035899Y0140035D01*
X0035296Y0139728D01*
X0034749Y0139330D01*
X0034270Y0138851D01*
X0033872Y0138304D01*
X0033565Y0137701D01*
X0033356Y0137057D01*
X0033250Y0136388D01*
X0033353Y0137036D02*
X0027627Y0137036D01*
X0027025Y0137635D02*
X0033544Y0137635D01*
X0033837Y0138233D02*
X0026052Y0138233D01*
X0021600Y0138233D02*
X0021000Y0138233D01*
X0021000Y0137635D02*
X0021600Y0137635D01*
X0021600Y0137036D02*
X0021000Y0137036D01*
X0021000Y0136438D02*
X0021600Y0136438D01*
X0021600Y0135839D02*
X0021000Y0135839D01*
X0021000Y0135241D02*
X0021600Y0135241D01*
X0021600Y0134642D02*
X0021000Y0134642D01*
X0021000Y0134044D02*
X0003850Y0134044D01*
X0003850Y0134642D02*
X0014001Y0134642D01*
X0014095Y0135241D02*
X0003850Y0135241D01*
X0003850Y0135839D02*
X0014279Y0135839D01*
X0014563Y0136438D02*
X0003850Y0136438D01*
X0003850Y0137036D02*
X0014973Y0137036D01*
X0015575Y0137635D02*
X0003850Y0137635D01*
X0003850Y0138233D02*
X0016548Y0138233D01*
X0014000Y0134000D02*
X0014000Y0133962D01*
X0014106Y0133293D01*
X0014315Y0132649D01*
X0014622Y0132046D01*
X0015020Y0131499D01*
X0015499Y0131020D01*
X0016046Y0130622D01*
X0016649Y0130315D01*
X0017293Y0130106D01*
X0017962Y0130000D01*
X0021000Y0130000D01*
X0021000Y0134000D01*
X0014000Y0134000D01*
X0014082Y0133445D02*
X0003850Y0133445D01*
X0003850Y0132847D02*
X0014251Y0132847D01*
X0014519Y0132248D02*
X0003850Y0132248D01*
X0003850Y0131650D02*
X0014910Y0131650D01*
X0015468Y0131051D02*
X0003850Y0131051D01*
X0003850Y0130453D02*
X0016379Y0130453D01*
X0017445Y0128600D02*
X0015864Y0127945D01*
X0014655Y0126736D01*
X0014000Y0125155D01*
X0014000Y0123445D01*
X0014655Y0121864D01*
X0015864Y0120655D01*
X0017445Y0120000D01*
X0025155Y0120000D01*
X0026736Y0120655D01*
X0027945Y0121864D01*
X0028600Y0123445D01*
X0028600Y0125155D01*
X0027945Y0126736D01*
X0026736Y0127945D01*
X0025155Y0128600D01*
X0017445Y0128600D01*
X0016138Y0128059D02*
X0003850Y0128059D01*
X0003850Y0128657D02*
X0033481Y0128657D01*
X0033565Y0128399D02*
X0033872Y0127796D01*
X0034270Y0127249D01*
X0034749Y0126770D01*
X0035296Y0126372D01*
X0035899Y0126065D01*
X0036543Y0125856D01*
X0037212Y0125750D01*
X0037250Y0125750D01*
X0037250Y0132750D01*
X0033250Y0132750D01*
X0033250Y0129712D01*
X0033356Y0129043D01*
X0033565Y0128399D01*
X0033739Y0128059D02*
X0026462Y0128059D01*
X0027221Y0127460D02*
X0034116Y0127460D01*
X0034657Y0126862D02*
X0027819Y0126862D01*
X0028141Y0126263D02*
X0035510Y0126263D01*
X0037250Y0126263D02*
X0037850Y0126263D01*
X0037850Y0125750D02*
X0037888Y0125750D01*
X0038557Y0125856D01*
X0039201Y0126065D01*
X0039804Y0126372D01*
X0040351Y0126770D01*
X0040830Y0127249D01*
X0041228Y0127796D01*
X0041535Y0128399D01*
X0041744Y0129043D01*
X0041850Y0129712D01*
X0041850Y0132750D01*
X0037850Y0132750D01*
X0037850Y0133350D01*
X0037250Y0133350D01*
X0037250Y0132750D01*
X0037850Y0132750D01*
X0037850Y0125750D01*
X0037850Y0126862D02*
X0037250Y0126862D01*
X0037250Y0127460D02*
X0037850Y0127460D01*
X0037850Y0128059D02*
X0037250Y0128059D01*
X0037250Y0128657D02*
X0037850Y0128657D01*
X0037850Y0129256D02*
X0037250Y0129256D01*
X0037250Y0129854D02*
X0037850Y0129854D01*
X0037850Y0130453D02*
X0037250Y0130453D01*
X0037250Y0131051D02*
X0037850Y0131051D01*
X0037850Y0131650D02*
X0037250Y0131650D01*
X0037250Y0132248D02*
X0037850Y0132248D01*
X0037850Y0132847D02*
X0043250Y0132847D01*
X0043250Y0133445D02*
X0041850Y0133445D01*
X0041850Y0133350D02*
X0041850Y0136388D01*
X0041744Y0137057D01*
X0041535Y0137701D01*
X0041228Y0138304D01*
X0040830Y0138851D01*
X0040351Y0139330D01*
X0039804Y0139728D01*
X0039201Y0140035D01*
X0038557Y0140244D01*
X0037888Y0140350D01*
X0037850Y0140350D01*
X0037850Y0133350D01*
X0041850Y0133350D01*
X0041850Y0134044D02*
X0043250Y0134044D01*
X0043250Y0134642D02*
X0041850Y0134642D01*
X0041850Y0135241D02*
X0043250Y0135241D01*
X0043250Y0135839D02*
X0041850Y0135839D01*
X0041842Y0136438D02*
X0043250Y0136438D01*
X0043304Y0137036D02*
X0041747Y0137036D01*
X0041556Y0137635D02*
X0043552Y0137635D01*
X0043800Y0138233D02*
X0041263Y0138233D01*
X0040844Y0138832D02*
X0044251Y0138832D01*
X0044849Y0139430D02*
X0040213Y0139430D01*
X0039212Y0140029D02*
X0045920Y0140029D01*
X0049180Y0140029D02*
X0055920Y0140029D01*
X0054849Y0139430D02*
X0050251Y0139430D01*
X0050849Y0138832D02*
X0054251Y0138832D01*
X0053800Y0138233D02*
X0051300Y0138233D01*
X0051548Y0137635D02*
X0053552Y0137635D01*
X0053304Y0137036D02*
X0051796Y0137036D01*
X0051850Y0136438D02*
X0053250Y0136438D01*
X0053250Y0135839D02*
X0051850Y0135839D01*
X0051850Y0135241D02*
X0053250Y0135241D01*
X0053250Y0134642D02*
X0051850Y0134642D01*
X0051850Y0134044D02*
X0053250Y0134044D01*
X0053250Y0133445D02*
X0051850Y0133445D01*
X0051850Y0132847D02*
X0053250Y0132847D01*
X0053250Y0132248D02*
X0051850Y0132248D01*
X0051850Y0131650D02*
X0053250Y0131650D01*
X0053250Y0131051D02*
X0051850Y0131051D01*
X0052410Y0130453D02*
X0053250Y0130453D01*
X0053250Y0129854D02*
X0053008Y0129854D01*
X0051476Y0126862D02*
X0050443Y0126862D01*
X0049644Y0126263D02*
X0052074Y0126263D01*
X0052673Y0125665D02*
X0028389Y0125665D01*
X0028600Y0125066D02*
X0053271Y0125066D01*
X0053870Y0124468D02*
X0028600Y0124468D01*
X0028600Y0123869D02*
X0054468Y0123869D01*
X0055067Y0123271D02*
X0028528Y0123271D01*
X0028280Y0122672D02*
X0055665Y0122672D01*
X0056264Y0122074D02*
X0028032Y0122074D01*
X0027556Y0121475D02*
X0056862Y0121475D01*
X0057550Y0123050D02*
X0103800Y0123050D01*
X0106102Y0122074D02*
X0113450Y0122074D01*
X0113450Y0122672D02*
X0106300Y0122672D01*
X0106300Y0123271D02*
X0113450Y0123271D01*
X0113450Y0123713D02*
X0113450Y0116361D01*
X0112855Y0115767D01*
X0112461Y0114815D01*
X0112461Y0113785D01*
X0112855Y0112833D01*
X0113583Y0112105D01*
X0114535Y0111711D01*
X0115565Y0111711D01*
X0116517Y0112105D01*
X0117245Y0112833D01*
X0117639Y0113785D01*
X0117639Y0114626D01*
X0124463Y0121450D01*
X0160713Y0121450D01*
X0165713Y0126450D01*
X0193213Y0126450D01*
X0197550Y0130787D01*
X0198137Y0130200D01*
X0204239Y0130200D01*
X0204833Y0129605D01*
X0205785Y0129211D01*
X0206815Y0129211D01*
X0207767Y0129605D01*
X0208495Y0130333D01*
X0208889Y0131285D01*
X0208889Y0132315D01*
X0208495Y0133267D01*
X0207767Y0133995D01*
X0206815Y0134389D01*
X0205785Y0134389D01*
X0204833Y0133995D01*
X0204239Y0133400D01*
X0199463Y0133400D01*
X0199150Y0133713D01*
X0199150Y0133812D01*
X0199850Y0134512D01*
X0199850Y0140588D01*
X0199088Y0141350D01*
X0196012Y0141350D01*
X0195250Y0140588D01*
X0195250Y0134512D01*
X0195950Y0133812D01*
X0195950Y0133713D01*
X0191887Y0129650D01*
X0165142Y0129650D01*
X0165216Y0129681D01*
X0165736Y0130200D01*
X0181963Y0130200D01*
X0183213Y0131450D01*
X0184150Y0132387D01*
X0184150Y0133812D01*
X0184850Y0134512D01*
X0184850Y0140588D01*
X0184088Y0141350D01*
X0181012Y0141350D01*
X0180250Y0140588D01*
X0180250Y0134512D01*
X0180950Y0133812D01*
X0180950Y0133713D01*
X0180637Y0133400D01*
X0165736Y0133400D01*
X0165216Y0133919D01*
X0164297Y0134300D01*
X0163303Y0134300D01*
X0162384Y0133919D01*
X0161681Y0133216D01*
X0161300Y0132297D01*
X0161300Y0131303D01*
X0161681Y0130384D01*
X0162384Y0129681D01*
X0163303Y0129300D01*
X0164037Y0129300D01*
X0159387Y0124650D01*
X0143913Y0124650D01*
X0155213Y0135950D01*
X0175250Y0135950D01*
X0175250Y0134512D01*
X0176012Y0133750D01*
X0179088Y0133750D01*
X0179850Y0134512D01*
X0179850Y0140588D01*
X0179088Y0141350D01*
X0176012Y0141350D01*
X0175250Y0140588D01*
X0175250Y0139150D01*
X0153887Y0139150D01*
X0152950Y0138213D01*
X0142087Y0127350D01*
X0141986Y0127350D01*
X0141466Y0127869D01*
X0140547Y0128250D01*
X0139553Y0128250D01*
X0138634Y0127869D01*
X0137931Y0127166D01*
X0137550Y0126247D01*
X0137550Y0125253D01*
X0137800Y0124650D01*
X0123137Y0124650D01*
X0122200Y0123713D01*
X0116650Y0118163D01*
X0116650Y0122387D01*
X0118213Y0123950D01*
X0119150Y0124887D01*
X0119150Y0131656D01*
X0117118Y0133688D01*
X0117118Y0138185D01*
X0116356Y0138946D01*
X0112130Y0138946D01*
X0111368Y0138185D01*
X0111368Y0130415D01*
X0112130Y0129654D01*
X0115950Y0129654D01*
X0115950Y0126213D01*
X0113450Y0123713D01*
X0113606Y0123869D02*
X0106167Y0123869D01*
X0105918Y0124468D02*
X0114205Y0124468D01*
X0114803Y0125066D02*
X0105319Y0125066D01*
X0102281Y0125066D02*
X0100050Y0125066D01*
X0100050Y0125665D02*
X0115402Y0125665D01*
X0115950Y0126263D02*
X0099961Y0126263D01*
X0099713Y0126862D02*
X0115950Y0126862D01*
X0115950Y0127460D02*
X0099175Y0127460D01*
X0097550Y0125550D02*
X0065050Y0125550D01*
X0057550Y0133050D01*
X0061850Y0132847D02*
X0063250Y0132847D01*
X0063250Y0133445D02*
X0061850Y0133445D01*
X0061850Y0134044D02*
X0063250Y0134044D01*
X0063250Y0134642D02*
X0061850Y0134642D01*
X0061850Y0135241D02*
X0063250Y0135241D01*
X0063250Y0135839D02*
X0061850Y0135839D01*
X0061850Y0136438D02*
X0063250Y0136438D01*
X0063304Y0137036D02*
X0061796Y0137036D01*
X0061548Y0137635D02*
X0063552Y0137635D01*
X0063800Y0138233D02*
X0061300Y0138233D01*
X0060849Y0138832D02*
X0064251Y0138832D01*
X0064849Y0139430D02*
X0060251Y0139430D01*
X0059180Y0140029D02*
X0065920Y0140029D01*
X0069180Y0140029D02*
X0070428Y0140029D01*
X0071026Y0140627D02*
X0003850Y0140627D01*
X0003850Y0140029D02*
X0035888Y0140029D01*
X0034887Y0139430D02*
X0003850Y0139430D01*
X0003850Y0138832D02*
X0034256Y0138832D01*
X0037250Y0138832D02*
X0037850Y0138832D01*
X0037850Y0139430D02*
X0037250Y0139430D01*
X0037250Y0140029D02*
X0037850Y0140029D01*
X0037850Y0138233D02*
X0037250Y0138233D01*
X0037250Y0137635D02*
X0037850Y0137635D01*
X0037850Y0137036D02*
X0037250Y0137036D01*
X0037250Y0136438D02*
X0037850Y0136438D01*
X0037850Y0135839D02*
X0037250Y0135839D01*
X0037250Y0135241D02*
X0037850Y0135241D01*
X0037850Y0134642D02*
X0037250Y0134642D01*
X0037250Y0134044D02*
X0037850Y0134044D01*
X0037850Y0133445D02*
X0037250Y0133445D01*
X0037250Y0132847D02*
X0028349Y0132847D01*
X0028285Y0132649D02*
X0028494Y0133293D01*
X0028600Y0133962D01*
X0028600Y0134000D01*
X0021600Y0134000D01*
X0021600Y0130000D01*
X0024638Y0130000D01*
X0025307Y0130106D01*
X0025951Y0130315D01*
X0026554Y0130622D01*
X0027101Y0131020D01*
X0027580Y0131499D01*
X0027978Y0132046D01*
X0028285Y0132649D01*
X0028081Y0132248D02*
X0033250Y0132248D01*
X0033250Y0131650D02*
X0027690Y0131650D01*
X0027132Y0131051D02*
X0033250Y0131051D01*
X0033250Y0130453D02*
X0026221Y0130453D01*
X0028518Y0133445D02*
X0033250Y0133445D01*
X0033250Y0129854D02*
X0003850Y0129854D01*
X0003850Y0129256D02*
X0033322Y0129256D01*
X0039590Y0126263D02*
X0045456Y0126263D01*
X0044657Y0126862D02*
X0040443Y0126862D01*
X0040984Y0127460D02*
X0044059Y0127460D01*
X0043721Y0128059D02*
X0041361Y0128059D01*
X0041619Y0128657D02*
X0043473Y0128657D01*
X0043250Y0129256D02*
X0041778Y0129256D01*
X0041850Y0129854D02*
X0043250Y0129854D01*
X0043250Y0130453D02*
X0041850Y0130453D01*
X0041850Y0131051D02*
X0043250Y0131051D01*
X0043250Y0131650D02*
X0041850Y0131650D01*
X0041850Y0132248D02*
X0043250Y0132248D01*
X0047550Y0133050D02*
X0057550Y0123050D01*
X0063008Y0129854D02*
X0063250Y0129854D01*
X0063250Y0130453D02*
X0062410Y0130453D01*
X0061850Y0131051D02*
X0063250Y0131051D01*
X0063250Y0131650D02*
X0061850Y0131650D01*
X0061850Y0132248D02*
X0063250Y0132248D01*
X0071850Y0132248D02*
X0097982Y0132248D01*
X0097982Y0131650D02*
X0071850Y0131650D01*
X0071850Y0131051D02*
X0097982Y0131051D01*
X0097982Y0130782D02*
X0098071Y0130452D01*
X0098242Y0130155D01*
X0098484Y0129913D01*
X0098780Y0129742D01*
X0099111Y0129654D01*
X0100557Y0129654D01*
X0100557Y0134000D01*
X0097982Y0134000D01*
X0097982Y0130782D01*
X0098071Y0130453D02*
X0071850Y0130453D01*
X0071850Y0129854D02*
X0098586Y0129854D01*
X0100557Y0129854D02*
X0101157Y0129854D01*
X0101157Y0129654D02*
X0102603Y0129654D01*
X0102934Y0129742D01*
X0103230Y0129913D01*
X0103472Y0130155D01*
X0103643Y0130452D01*
X0103732Y0130782D01*
X0103732Y0134000D01*
X0101157Y0134000D01*
X0101157Y0129654D01*
X0101157Y0130453D02*
X0100557Y0130453D01*
X0100557Y0131051D02*
X0101157Y0131051D01*
X0101157Y0131650D02*
X0100557Y0131650D01*
X0100557Y0132248D02*
X0101157Y0132248D01*
X0101157Y0132847D02*
X0100557Y0132847D01*
X0100557Y0133445D02*
X0101157Y0133445D01*
X0101157Y0134000D02*
X0100557Y0134000D01*
X0100557Y0134600D01*
X0097982Y0134600D01*
X0097982Y0137818D01*
X0098071Y0138148D01*
X0098242Y0138445D01*
X0098484Y0138687D01*
X0098780Y0138858D01*
X0099111Y0138946D01*
X0100557Y0138946D01*
X0100557Y0134600D01*
X0101157Y0134600D01*
X0101157Y0138946D01*
X0102603Y0138946D01*
X0102934Y0138858D01*
X0103230Y0138687D01*
X0103472Y0138445D01*
X0103643Y0138148D01*
X0103732Y0137818D01*
X0103732Y0134600D01*
X0101157Y0134600D01*
X0101157Y0134000D01*
X0101157Y0134044D02*
X0111368Y0134044D01*
X0111368Y0134642D02*
X0103732Y0134642D01*
X0103732Y0135241D02*
X0111368Y0135241D01*
X0111368Y0135839D02*
X0103732Y0135839D01*
X0103732Y0136438D02*
X0111368Y0136438D01*
X0111368Y0137036D02*
X0103732Y0137036D01*
X0103732Y0137635D02*
X0111368Y0137635D01*
X0111417Y0138233D02*
X0103594Y0138233D01*
X0102979Y0138832D02*
X0112015Y0138832D01*
X0116471Y0138832D02*
X0153569Y0138832D01*
X0152971Y0138233D02*
X0117069Y0138233D01*
X0117118Y0137635D02*
X0152372Y0137635D01*
X0151774Y0137036D02*
X0117118Y0137036D01*
X0117118Y0136438D02*
X0151175Y0136438D01*
X0150577Y0135839D02*
X0117118Y0135839D01*
X0117118Y0135241D02*
X0149978Y0135241D01*
X0149380Y0134642D02*
X0117118Y0134642D01*
X0117118Y0134044D02*
X0148781Y0134044D01*
X0148183Y0133445D02*
X0117360Y0133445D01*
X0117959Y0132847D02*
X0147584Y0132847D01*
X0146986Y0132248D02*
X0118557Y0132248D01*
X0119150Y0131650D02*
X0146387Y0131650D01*
X0145789Y0131051D02*
X0119150Y0131051D01*
X0119150Y0130453D02*
X0145190Y0130453D01*
X0144592Y0129854D02*
X0119150Y0129854D01*
X0119150Y0129256D02*
X0143993Y0129256D01*
X0143395Y0128657D02*
X0119150Y0128657D01*
X0119150Y0128059D02*
X0139091Y0128059D01*
X0138225Y0127460D02*
X0119150Y0127460D01*
X0119150Y0126862D02*
X0137805Y0126862D01*
X0137557Y0126263D02*
X0119150Y0126263D01*
X0119150Y0125665D02*
X0137550Y0125665D01*
X0137627Y0125066D02*
X0119150Y0125066D01*
X0118730Y0124468D02*
X0122955Y0124468D01*
X0122356Y0123869D02*
X0118132Y0123869D01*
X0117533Y0123271D02*
X0121758Y0123271D01*
X0121159Y0122672D02*
X0116935Y0122672D01*
X0116650Y0122074D02*
X0120561Y0122074D01*
X0119962Y0121475D02*
X0116650Y0121475D01*
X0116650Y0120877D02*
X0119364Y0120877D01*
X0118765Y0120278D02*
X0116650Y0120278D01*
X0116650Y0119680D02*
X0118167Y0119680D01*
X0117568Y0119081D02*
X0116650Y0119081D01*
X0116650Y0118483D02*
X0116970Y0118483D01*
X0119101Y0116089D02*
X0175250Y0116089D01*
X0175250Y0116687D02*
X0119700Y0116687D01*
X0120298Y0117286D02*
X0175250Y0117286D01*
X0175250Y0117884D02*
X0120897Y0117884D01*
X0121495Y0118483D02*
X0175250Y0118483D01*
X0175250Y0119081D02*
X0122094Y0119081D01*
X0122692Y0119680D02*
X0175250Y0119680D01*
X0175250Y0120278D02*
X0123291Y0120278D01*
X0123889Y0120877D02*
X0175250Y0120877D01*
X0175250Y0121475D02*
X0160738Y0121475D01*
X0161336Y0122074D02*
X0175735Y0122074D01*
X0175272Y0115490D02*
X0118503Y0115490D01*
X0117904Y0114891D02*
X0175870Y0114891D01*
X0175280Y0114293D02*
X0117639Y0114293D01*
X0117601Y0113694D02*
X0174682Y0113694D01*
X0174083Y0113096D02*
X0117354Y0113096D01*
X0116909Y0112497D02*
X0173485Y0112497D01*
X0172886Y0111899D02*
X0116019Y0111899D01*
X0114081Y0111899D02*
X0083519Y0111899D01*
X0083065Y0111711D02*
X0084017Y0112105D01*
X0084745Y0112833D01*
X0085139Y0113785D01*
X0085139Y0114815D01*
X0084745Y0115767D01*
X0084017Y0116495D01*
X0083065Y0116889D01*
X0082035Y0116889D01*
X0081717Y0116757D01*
X0080953Y0117521D01*
X0079556Y0118100D01*
X0078044Y0118100D01*
X0076647Y0117521D01*
X0075579Y0116453D01*
X0075000Y0115056D01*
X0075000Y0113544D01*
X0075579Y0112147D01*
X0076647Y0111079D01*
X0078044Y0110500D01*
X0079556Y0110500D01*
X0080953Y0111079D01*
X0081717Y0111843D01*
X0082035Y0111711D01*
X0083065Y0111711D01*
X0084409Y0112497D02*
X0113191Y0112497D01*
X0112746Y0113096D02*
X0084854Y0113096D01*
X0085101Y0113694D02*
X0112499Y0113694D01*
X0112461Y0114293D02*
X0085139Y0114293D01*
X0085107Y0114891D02*
X0112493Y0114891D01*
X0112741Y0115490D02*
X0084859Y0115490D01*
X0084423Y0116089D02*
X0113177Y0116089D01*
X0113450Y0116687D02*
X0083553Y0116687D01*
X0081188Y0117286D02*
X0113450Y0117286D01*
X0113450Y0117884D02*
X0080077Y0117884D01*
X0077523Y0117884D02*
X0026797Y0117884D01*
X0026736Y0117945D02*
X0025155Y0118600D01*
X0017445Y0118600D01*
X0015864Y0117945D01*
X0014655Y0116736D01*
X0014000Y0115155D01*
X0014000Y0113445D01*
X0014655Y0111864D01*
X0015864Y0110655D01*
X0017445Y0110000D01*
X0025155Y0110000D01*
X0026736Y0110655D01*
X0027945Y0111864D01*
X0028600Y0113445D01*
X0028600Y0115155D01*
X0027945Y0116736D01*
X0026736Y0117945D01*
X0027396Y0117286D02*
X0076412Y0117286D01*
X0075813Y0116687D02*
X0027966Y0116687D01*
X0028213Y0116089D02*
X0075428Y0116089D01*
X0075180Y0115490D02*
X0028461Y0115490D01*
X0028600Y0114891D02*
X0075000Y0114891D01*
X0075000Y0114293D02*
X0069032Y0114293D01*
X0069631Y0113694D02*
X0075000Y0113694D01*
X0075186Y0113096D02*
X0069901Y0113096D01*
X0070050Y0112497D02*
X0075434Y0112497D01*
X0075827Y0111899D02*
X0070050Y0111899D01*
X0069867Y0111300D02*
X0076426Y0111300D01*
X0077557Y0110702D02*
X0069548Y0110702D01*
X0069150Y0110103D02*
X0111845Y0110103D01*
X0111131Y0109505D02*
X0069150Y0109505D01*
X0069150Y0108906D02*
X0108495Y0108906D01*
X0107896Y0108308D02*
X0069150Y0108308D01*
X0069150Y0107709D02*
X0077101Y0107709D01*
X0076237Y0107111D02*
X0069150Y0107111D01*
X0069150Y0106512D02*
X0075638Y0106512D01*
X0075355Y0105914D02*
X0069150Y0105914D01*
X0069150Y0105315D02*
X0075107Y0105315D01*
X0075000Y0104717D02*
X0069934Y0104717D01*
X0070563Y0104118D02*
X0075000Y0104118D01*
X0075010Y0103520D02*
X0071161Y0103520D01*
X0071429Y0102921D02*
X0075258Y0102921D01*
X0075506Y0102323D02*
X0071677Y0102323D01*
X0071850Y0101724D02*
X0076002Y0101724D01*
X0076600Y0101126D02*
X0071850Y0101126D01*
X0071850Y0100527D02*
X0077978Y0100527D01*
X0079622Y0100527D02*
X0125515Y0100527D01*
X0124517Y0099929D02*
X0071850Y0099929D01*
X0071850Y0099330D02*
X0124028Y0099330D01*
X0123780Y0098732D02*
X0071850Y0098732D01*
X0071850Y0098133D02*
X0123711Y0098133D01*
X0123522Y0097535D02*
X0071850Y0097535D01*
X0071850Y0096936D02*
X0122923Y0096936D01*
X0122325Y0096338D02*
X0071850Y0096338D01*
X0071850Y0095739D02*
X0094974Y0095739D01*
X0094102Y0095141D02*
X0071850Y0095141D01*
X0071850Y0094542D02*
X0081027Y0094542D01*
X0080428Y0093944D02*
X0071746Y0093944D01*
X0071498Y0093345D02*
X0079830Y0093345D01*
X0079231Y0092747D02*
X0071250Y0092747D01*
X0070729Y0092148D02*
X0078633Y0092148D01*
X0078034Y0091550D02*
X0070131Y0091550D01*
X0068891Y0090951D02*
X0077436Y0090951D01*
X0076837Y0090353D02*
X0067890Y0090353D01*
X0069436Y0089754D02*
X0076239Y0089754D01*
X0075640Y0089155D02*
X0070035Y0089155D01*
X0070149Y0088557D02*
X0075042Y0088557D01*
X0074443Y0087958D02*
X0070149Y0087958D01*
X0070149Y0087360D02*
X0073845Y0087360D01*
X0073246Y0086761D02*
X0070149Y0086761D01*
X0070149Y0086163D02*
X0072648Y0086163D01*
X0072049Y0085564D02*
X0070149Y0085564D01*
X0070149Y0084966D02*
X0071450Y0084966D01*
X0070852Y0084367D02*
X0070149Y0084367D01*
X0070149Y0083769D02*
X0070253Y0083769D01*
X0070245Y0081497D02*
X0082174Y0093426D01*
X0095924Y0093426D01*
X0098424Y0093345D02*
X0108082Y0093345D01*
X0107484Y0092747D02*
X0098348Y0092747D01*
X0098100Y0092148D02*
X0106885Y0092148D01*
X0106287Y0091550D02*
X0097582Y0091550D01*
X0096480Y0090951D02*
X0105688Y0090951D01*
X0105090Y0090353D02*
X0093570Y0090353D01*
X0093800Y0089754D02*
X0104491Y0089754D01*
X0103893Y0089155D02*
X0093800Y0089155D01*
X0093698Y0088557D02*
X0103294Y0088557D01*
X0102696Y0087958D02*
X0093450Y0087958D01*
X0092895Y0087360D02*
X0102097Y0087360D01*
X0101499Y0086761D02*
X0091024Y0086761D01*
X0090426Y0086163D02*
X0100900Y0086163D01*
X0100302Y0085564D02*
X0089827Y0085564D01*
X0089229Y0084966D02*
X0099703Y0084966D01*
X0099105Y0084367D02*
X0088630Y0084367D01*
X0088032Y0083769D02*
X0098506Y0083769D01*
X0097908Y0083170D02*
X0087433Y0083170D01*
X0086835Y0082572D02*
X0097309Y0082572D01*
X0096711Y0081973D02*
X0086236Y0081973D01*
X0085638Y0081375D02*
X0096112Y0081375D01*
X0095950Y0080776D02*
X0085039Y0080776D01*
X0084441Y0080178D02*
X0095950Y0080178D01*
X0095950Y0079579D02*
X0083842Y0079579D01*
X0083244Y0078981D02*
X0095950Y0078981D01*
X0095950Y0078382D02*
X0078842Y0078382D01*
X0079440Y0077784D02*
X0079928Y0077784D01*
X0081300Y0075550D02*
X0076300Y0075550D01*
X0072749Y0074193D02*
X0056758Y0074193D01*
X0056160Y0074791D02*
X0072501Y0074791D01*
X0072500Y0075390D02*
X0055561Y0075390D01*
X0057357Y0073594D02*
X0072997Y0073594D01*
X0073480Y0072996D02*
X0057956Y0072996D01*
X0058554Y0072397D02*
X0074079Y0072397D01*
X0075427Y0071799D02*
X0059153Y0071799D01*
X0059751Y0071200D02*
X0088437Y0071200D01*
X0087839Y0070602D02*
X0060350Y0070602D01*
X0060948Y0070003D02*
X0087240Y0070003D01*
X0086642Y0069405D02*
X0061547Y0069405D01*
X0062145Y0068806D02*
X0074231Y0068806D01*
X0073584Y0068208D02*
X0062744Y0068208D01*
X0063342Y0067609D02*
X0073040Y0067609D01*
X0072792Y0067011D02*
X0063941Y0067011D01*
X0064422Y0066412D02*
X0072544Y0066412D01*
X0072500Y0065814D02*
X0064670Y0065814D01*
X0064781Y0065215D02*
X0072500Y0065215D01*
X0072574Y0064617D02*
X0064781Y0064617D01*
X0064781Y0064018D02*
X0072821Y0064018D01*
X0073069Y0063420D02*
X0064781Y0063420D01*
X0064781Y0062821D02*
X0073655Y0062821D01*
X0074403Y0062222D02*
X0064781Y0062222D01*
X0064781Y0061624D02*
X0076361Y0061624D01*
X0075763Y0061025D02*
X0064781Y0061025D01*
X0064781Y0060427D02*
X0075164Y0060427D01*
X0074710Y0059828D02*
X0064781Y0059828D01*
X0064781Y0059230D02*
X0072639Y0059230D01*
X0072451Y0058631D02*
X0064781Y0058631D01*
X0064781Y0058033D02*
X0072451Y0058033D01*
X0072451Y0057434D02*
X0064781Y0057434D01*
X0064781Y0056836D02*
X0072451Y0056836D01*
X0072451Y0056237D02*
X0064781Y0056237D01*
X0064781Y0055639D02*
X0072451Y0055639D01*
X0072451Y0055040D02*
X0064781Y0055040D01*
X0064781Y0054442D02*
X0072451Y0054442D01*
X0072340Y0053843D02*
X0064781Y0053843D01*
X0064781Y0053245D02*
X0072200Y0053245D01*
X0072200Y0052646D02*
X0064781Y0052646D01*
X0065696Y0052048D02*
X0072200Y0052048D01*
X0072200Y0051449D02*
X0065937Y0051449D01*
X0065937Y0050851D02*
X0072200Y0050851D01*
X0072200Y0050252D02*
X0065937Y0050252D01*
X0065937Y0049654D02*
X0072200Y0049654D01*
X0072200Y0049055D02*
X0065937Y0049055D01*
X0065937Y0048457D02*
X0072200Y0048457D01*
X0072200Y0047858D02*
X0065937Y0047858D01*
X0065937Y0047260D02*
X0072200Y0047260D01*
X0072200Y0046661D02*
X0065805Y0046661D01*
X0065206Y0046063D02*
X0072200Y0046063D01*
X0072200Y0045464D02*
X0057275Y0045464D01*
X0057275Y0044866D02*
X0072200Y0044866D01*
X0072200Y0044267D02*
X0057275Y0044267D01*
X0057275Y0043669D02*
X0072200Y0043669D01*
X0072200Y0043070D02*
X0057275Y0043070D01*
X0056694Y0042472D02*
X0072200Y0042472D01*
X0072200Y0041873D02*
X0039622Y0041873D01*
X0039687Y0041760D02*
X0039515Y0042057D01*
X0039273Y0042299D01*
X0038977Y0042470D01*
X0038646Y0042559D01*
X0036019Y0042559D01*
X0036019Y0039590D01*
X0039775Y0039590D01*
X0039775Y0041430D01*
X0039687Y0041760D01*
X0039775Y0041275D02*
X0072200Y0041275D01*
X0072200Y0040676D02*
X0039775Y0040676D01*
X0039775Y0040078D02*
X0072200Y0040078D01*
X0072200Y0039479D02*
X0036019Y0039479D01*
X0035719Y0039290D02*
X0055040Y0039290D01*
X0057550Y0041800D01*
X0057550Y0048709D01*
X0053219Y0053040D01*
X0052919Y0053245D02*
X0047706Y0053245D01*
X0047108Y0053843D02*
X0049163Y0053843D01*
X0049163Y0053340D02*
X0052919Y0053340D01*
X0052919Y0052740D01*
X0053519Y0052740D01*
X0053519Y0049772D01*
X0056146Y0049772D01*
X0056477Y0049860D01*
X0056773Y0050031D01*
X0057015Y0050273D01*
X0057187Y0050570D01*
X0057275Y0050900D01*
X0057275Y0052740D01*
X0053519Y0052740D01*
X0053519Y0053340D01*
X0052919Y0053340D01*
X0052919Y0056309D01*
X0050292Y0056309D01*
X0049962Y0056220D01*
X0049665Y0056049D01*
X0049423Y0055807D01*
X0049252Y0055510D01*
X0049163Y0055180D01*
X0049163Y0053340D01*
X0049163Y0052646D02*
X0048305Y0052646D01*
X0048903Y0052048D02*
X0049163Y0052048D01*
X0049163Y0054442D02*
X0046509Y0054442D01*
X0045911Y0055040D02*
X0049163Y0055040D01*
X0049326Y0055639D02*
X0045312Y0055639D01*
X0044714Y0056237D02*
X0050026Y0056237D01*
X0052919Y0056237D02*
X0053519Y0056237D01*
X0053519Y0056309D02*
X0053519Y0053340D01*
X0057275Y0053340D01*
X0057275Y0055180D01*
X0057187Y0055510D01*
X0057015Y0055807D01*
X0056773Y0056049D01*
X0056477Y0056220D01*
X0056146Y0056309D01*
X0053519Y0056309D01*
X0053519Y0055639D02*
X0052919Y0055639D01*
X0052919Y0055040D02*
X0053519Y0055040D01*
X0053519Y0054442D02*
X0052919Y0054442D01*
X0052919Y0053843D02*
X0053519Y0053843D01*
X0053519Y0053245D02*
X0058981Y0053245D01*
X0058981Y0053843D02*
X0057275Y0053843D01*
X0057275Y0054442D02*
X0058981Y0054442D01*
X0058981Y0055040D02*
X0057275Y0055040D01*
X0057112Y0055639D02*
X0058981Y0055639D01*
X0058981Y0056237D02*
X0056412Y0056237D01*
X0058981Y0056836D02*
X0044115Y0056836D01*
X0043517Y0057434D02*
X0058981Y0057434D01*
X0058981Y0058033D02*
X0033896Y0058033D01*
X0033937Y0058348D02*
X0034233Y0058177D01*
X0034564Y0058089D01*
X0039750Y0058089D01*
X0039750Y0062238D01*
X0040350Y0062238D01*
X0040350Y0058089D01*
X0045536Y0058089D01*
X0045867Y0058177D01*
X0046163Y0058348D01*
X0046405Y0058590D01*
X0046576Y0058887D01*
X0046665Y0059217D01*
X0046665Y0062238D01*
X0040350Y0062238D01*
X0040350Y0062838D01*
X0046665Y0062838D01*
X0046665Y0065859D01*
X0046576Y0066190D01*
X0046405Y0066486D01*
X0046163Y0066728D01*
X0045867Y0066899D01*
X0045536Y0066988D01*
X0040350Y0066988D01*
X0040350Y0062838D01*
X0039750Y0062838D01*
X0039750Y0062238D01*
X0033435Y0062238D01*
X0033435Y0059217D01*
X0033524Y0058887D01*
X0033695Y0058590D01*
X0033937Y0058348D01*
X0033671Y0058631D02*
X0033298Y0058631D01*
X0033435Y0059230D02*
X0032699Y0059230D01*
X0032101Y0059828D02*
X0033435Y0059828D01*
X0033435Y0060427D02*
X0031502Y0060427D01*
X0030904Y0061025D02*
X0033435Y0061025D01*
X0033435Y0061624D02*
X0030305Y0061624D01*
X0029707Y0062222D02*
X0033435Y0062222D01*
X0033435Y0062838D02*
X0039750Y0062838D01*
X0039750Y0066988D01*
X0034564Y0066988D01*
X0034233Y0066899D01*
X0033937Y0066728D01*
X0033695Y0066486D01*
X0033524Y0066190D01*
X0033435Y0065859D01*
X0033435Y0062838D01*
X0033435Y0063420D02*
X0028510Y0063420D01*
X0027911Y0064018D02*
X0033435Y0064018D01*
X0033435Y0064617D02*
X0027313Y0064617D01*
X0026405Y0065215D02*
X0033435Y0065215D01*
X0033435Y0065814D02*
X0024165Y0065814D01*
X0023979Y0066412D02*
X0033652Y0066412D01*
X0033904Y0069405D02*
X0023696Y0069405D01*
X0024101Y0070003D02*
X0033435Y0070003D01*
X0033435Y0070602D02*
X0024165Y0070602D01*
X0024165Y0071200D02*
X0032799Y0071200D01*
X0032200Y0071799D02*
X0024165Y0071799D01*
X0024165Y0072397D02*
X0031602Y0072397D01*
X0031003Y0072996D02*
X0024165Y0072996D01*
X0024165Y0074193D02*
X0029806Y0074193D01*
X0029208Y0074791D02*
X0024165Y0074791D01*
X0024165Y0075390D02*
X0028609Y0075390D01*
X0028011Y0075988D02*
X0024165Y0075988D01*
X0024165Y0076587D02*
X0027412Y0076587D01*
X0026814Y0077185D02*
X0024084Y0077185D01*
X0023608Y0077784D02*
X0026215Y0077784D01*
X0030405Y0073594D02*
X0017850Y0073594D01*
X0017850Y0072996D02*
X0017250Y0072996D01*
X0017250Y0073594D02*
X0003850Y0073594D01*
X0017250Y0074193D02*
X0017850Y0074193D01*
X0017850Y0074791D02*
X0017250Y0074791D01*
X0017250Y0075390D02*
X0017850Y0075390D01*
X0017850Y0075988D02*
X0017250Y0075988D01*
X0017250Y0076587D02*
X0017850Y0076587D01*
X0017850Y0077185D02*
X0017250Y0077185D01*
X0017250Y0077784D02*
X0017850Y0077784D01*
X0017850Y0072397D02*
X0017250Y0072397D01*
X0017250Y0071799D02*
X0017850Y0071799D01*
X0017850Y0071200D02*
X0017250Y0071200D01*
X0017250Y0070602D02*
X0017850Y0070602D01*
X0017850Y0070003D02*
X0017250Y0070003D01*
X0017250Y0069405D02*
X0017850Y0069405D01*
X0029108Y0062821D02*
X0039750Y0062821D01*
X0039750Y0063420D02*
X0040350Y0063420D01*
X0040350Y0064018D02*
X0039750Y0064018D01*
X0039750Y0064617D02*
X0040350Y0064617D01*
X0040350Y0065215D02*
X0039750Y0065215D01*
X0039750Y0065814D02*
X0040350Y0065814D01*
X0040350Y0066412D02*
X0039750Y0066412D01*
X0040350Y0062821D02*
X0058981Y0062821D01*
X0058981Y0063420D02*
X0046665Y0063420D01*
X0046665Y0064018D02*
X0058731Y0064018D01*
X0058132Y0064617D02*
X0046665Y0064617D01*
X0046665Y0065215D02*
X0057534Y0065215D01*
X0056935Y0065814D02*
X0046665Y0065814D01*
X0046448Y0066412D02*
X0056337Y0066412D01*
X0053344Y0069405D02*
X0046196Y0069405D01*
X0046665Y0070003D02*
X0052746Y0070003D01*
X0046665Y0075988D02*
X0072500Y0075988D01*
X0072616Y0076587D02*
X0046665Y0076587D01*
X0046665Y0077185D02*
X0072864Y0077185D01*
X0073160Y0077784D02*
X0046131Y0077784D01*
X0045615Y0081375D02*
X0044485Y0081375D01*
X0041310Y0085550D02*
X0042550Y0086790D01*
X0042550Y0104300D01*
X0050490Y0112240D01*
X0067550Y0112240D01*
X0067550Y0098050D01*
X0066290Y0096790D01*
X0066290Y0085550D01*
X0063275Y0081497D02*
X0070245Y0081497D01*
X0072983Y0081973D02*
X0081711Y0081973D01*
X0082309Y0082572D02*
X0073582Y0082572D01*
X0074180Y0083170D02*
X0082908Y0083170D01*
X0083506Y0083769D02*
X0074779Y0083769D01*
X0075377Y0084367D02*
X0084105Y0084367D01*
X0084703Y0084966D02*
X0075976Y0084966D01*
X0076574Y0085564D02*
X0085302Y0085564D01*
X0085900Y0086163D02*
X0077173Y0086163D01*
X0077771Y0086761D02*
X0086499Y0086761D01*
X0087097Y0087360D02*
X0078370Y0087360D01*
X0078968Y0087958D02*
X0087696Y0087958D01*
X0088294Y0088557D02*
X0079567Y0088557D01*
X0080166Y0089155D02*
X0088800Y0089155D01*
X0088800Y0089754D02*
X0080764Y0089754D01*
X0081363Y0090353D02*
X0089030Y0090353D01*
X0089416Y0090951D02*
X0081961Y0090951D01*
X0082560Y0091550D02*
X0090198Y0091550D01*
X0092402Y0091550D02*
X0094265Y0091550D01*
X0093184Y0090951D02*
X0095367Y0090951D01*
X0098415Y0093944D02*
X0115469Y0093944D01*
X0117131Y0093944D02*
X0122200Y0093944D01*
X0122200Y0094542D02*
X0098167Y0094542D01*
X0097745Y0095141D02*
X0122200Y0095141D01*
X0122200Y0095739D02*
X0096873Y0095739D01*
X0091300Y0089300D02*
X0082097Y0080097D01*
X0057195Y0080097D01*
X0051742Y0085550D01*
X0048790Y0085550D01*
X0048790Y0096810D01*
X0047550Y0098050D01*
X0040950Y0092148D02*
X0040729Y0092148D01*
X0040950Y0091550D02*
X0040048Y0091550D01*
X0040950Y0090951D02*
X0038850Y0090951D01*
X0038164Y0089754D02*
X0024200Y0089754D01*
X0024200Y0089155D02*
X0037565Y0089155D01*
X0037451Y0088557D02*
X0024200Y0088557D01*
X0024243Y0087958D02*
X0037451Y0087958D01*
X0037451Y0087360D02*
X0024841Y0087360D01*
X0025440Y0086761D02*
X0037451Y0086761D01*
X0037451Y0086163D02*
X0026038Y0086163D01*
X0026637Y0085564D02*
X0037451Y0085564D01*
X0037451Y0084966D02*
X0027235Y0084966D01*
X0027834Y0084367D02*
X0037451Y0084367D01*
X0037451Y0083769D02*
X0028432Y0083769D01*
X0029031Y0083170D02*
X0037451Y0083170D01*
X0037451Y0082572D02*
X0029629Y0082572D01*
X0030228Y0081973D02*
X0037536Y0081973D01*
X0038135Y0081375D02*
X0030826Y0081375D01*
X0031425Y0080776D02*
X0054253Y0080776D01*
X0054852Y0080178D02*
X0032023Y0080178D01*
X0032622Y0079579D02*
X0055450Y0079579D01*
X0056049Y0078981D02*
X0033220Y0078981D01*
X0033819Y0078382D02*
X0073758Y0078382D01*
X0082672Y0077784D02*
X0095950Y0077784D01*
X0095950Y0077185D02*
X0083326Y0077185D01*
X0083673Y0076587D02*
X0095950Y0076587D01*
X0095950Y0075988D02*
X0083889Y0075988D01*
X0083889Y0075390D02*
X0095950Y0075390D01*
X0095950Y0074791D02*
X0083788Y0074791D01*
X0083540Y0074193D02*
X0095950Y0074193D01*
X0099150Y0074193D02*
X0100281Y0074193D01*
X0100281Y0074791D02*
X0099150Y0074791D01*
X0099150Y0075390D02*
X0100281Y0075390D01*
X0100281Y0075988D02*
X0099150Y0075988D01*
X0099150Y0076587D02*
X0100281Y0076587D01*
X0100281Y0077185D02*
X0099150Y0077185D01*
X0099150Y0077784D02*
X0100281Y0077784D01*
X0100281Y0078382D02*
X0099150Y0078382D01*
X0099150Y0078981D02*
X0100281Y0078981D01*
X0100281Y0079579D02*
X0099150Y0079579D01*
X0099441Y0080178D02*
X0100281Y0080178D01*
X0100514Y0080776D02*
X0100039Y0080776D01*
X0100638Y0081375D02*
X0101112Y0081375D01*
X0101236Y0081973D02*
X0101711Y0081973D01*
X0101835Y0082572D02*
X0102309Y0082572D01*
X0102433Y0083170D02*
X0102908Y0083170D01*
X0103032Y0083769D02*
X0103506Y0083769D01*
X0103630Y0084367D02*
X0104105Y0084367D01*
X0104229Y0084966D02*
X0104703Y0084966D01*
X0104827Y0085564D02*
X0105302Y0085564D01*
X0105426Y0086163D02*
X0105900Y0086163D01*
X0106024Y0086761D02*
X0106499Y0086761D01*
X0106623Y0087360D02*
X0107097Y0087360D01*
X0107221Y0087958D02*
X0107696Y0087958D01*
X0107820Y0088557D02*
X0119544Y0088557D01*
X0120143Y0089155D02*
X0117440Y0089155D01*
X0118230Y0089754D02*
X0120741Y0089754D01*
X0121340Y0090353D02*
X0118633Y0090353D01*
X0118881Y0090951D02*
X0121938Y0090951D01*
X0122200Y0091550D02*
X0118889Y0091550D01*
X0118828Y0092148D02*
X0122200Y0092148D01*
X0122200Y0092747D02*
X0118580Y0092747D01*
X0118102Y0093345D02*
X0122200Y0093345D01*
X0123800Y0095550D02*
X0123800Y0090550D01*
X0120050Y0086800D01*
X0108800Y0086800D01*
X0101881Y0079881D01*
X0101881Y0066800D01*
X0105937Y0067011D02*
X0116327Y0067011D01*
X0115950Y0067609D02*
X0105937Y0067609D01*
X0105937Y0068208D02*
X0115950Y0068208D01*
X0115950Y0068806D02*
X0105937Y0068806D01*
X0105839Y0069405D02*
X0115950Y0069405D01*
X0115950Y0070003D02*
X0105240Y0070003D01*
X0103481Y0070602D02*
X0110158Y0070602D01*
X0109951Y0071200D02*
X0103481Y0071200D01*
X0103481Y0071799D02*
X0109951Y0071799D01*
X0109951Y0072397D02*
X0103481Y0072397D01*
X0103481Y0072996D02*
X0109951Y0072996D01*
X0109951Y0073594D02*
X0103481Y0073594D01*
X0103481Y0074193D02*
X0109951Y0074193D01*
X0109951Y0074791D02*
X0103481Y0074791D01*
X0103481Y0075390D02*
X0109951Y0075390D01*
X0109951Y0075988D02*
X0103481Y0075988D01*
X0103481Y0076587D02*
X0109951Y0076587D01*
X0109951Y0077185D02*
X0103481Y0077185D01*
X0103481Y0077784D02*
X0109951Y0077784D01*
X0110542Y0078382D02*
X0103481Y0078382D01*
X0103481Y0078981D02*
X0110458Y0078981D01*
X0110150Y0079579D02*
X0103842Y0079579D01*
X0104441Y0080178D02*
X0109961Y0080178D01*
X0109961Y0080776D02*
X0105039Y0080776D01*
X0105638Y0081375D02*
X0110089Y0081375D01*
X0110337Y0081973D02*
X0106236Y0081973D01*
X0106835Y0082572D02*
X0110911Y0082572D01*
X0112550Y0080550D02*
X0112550Y0075560D01*
X0113810Y0074300D01*
X0119150Y0070003D02*
X0195354Y0070003D01*
X0195436Y0069405D02*
X0119150Y0069405D01*
X0119150Y0068806D02*
X0195916Y0068806D01*
X0193809Y0067609D02*
X0209700Y0067609D01*
X0209700Y0068208D02*
X0193210Y0068208D01*
X0192355Y0066800D02*
X0199904Y0059251D01*
X0198314Y0062821D02*
X0208299Y0062821D01*
X0207701Y0063420D02*
X0197715Y0063420D01*
X0197117Y0064018D02*
X0207102Y0064018D01*
X0206504Y0064617D02*
X0196518Y0064617D01*
X0195920Y0065215D02*
X0205905Y0065215D01*
X0209530Y0065550D02*
X0211917Y0065550D01*
X0215846Y0061621D01*
X0215846Y0059234D01*
X0209530Y0065550D01*
X0209865Y0065215D02*
X0212252Y0065215D01*
X0212850Y0064617D02*
X0210463Y0064617D01*
X0211062Y0064018D02*
X0213449Y0064018D01*
X0214047Y0063420D02*
X0211660Y0063420D01*
X0212259Y0062821D02*
X0214646Y0062821D01*
X0215244Y0062222D02*
X0212857Y0062222D01*
X0213456Y0061624D02*
X0215843Y0061624D01*
X0215846Y0061025D02*
X0214054Y0061025D01*
X0214653Y0060427D02*
X0215846Y0060427D01*
X0215846Y0059828D02*
X0215251Y0059828D01*
X0213087Y0058033D02*
X0204254Y0058033D01*
X0204254Y0058631D02*
X0212489Y0058631D01*
X0211890Y0059230D02*
X0204254Y0059230D01*
X0204254Y0059828D02*
X0211292Y0059828D01*
X0210693Y0060427D02*
X0204254Y0060427D01*
X0204254Y0061025D02*
X0210095Y0061025D01*
X0209496Y0061624D02*
X0204254Y0061624D01*
X0203707Y0062222D02*
X0208898Y0062222D01*
X0204254Y0057434D02*
X0213650Y0057434D01*
X0213650Y0056836D02*
X0204254Y0056836D01*
X0203665Y0056237D02*
X0213650Y0056237D01*
X0216450Y0056222D02*
X0216490Y0056182D01*
X0223600Y0056182D01*
X0223600Y0014168D01*
X0221608Y0012177D01*
X0222150Y0013484D01*
X0222150Y0015116D01*
X0221526Y0016622D01*
X0220372Y0017776D01*
X0218866Y0018400D01*
X0211234Y0018400D01*
X0209728Y0017776D01*
X0208952Y0017000D01*
X0204918Y0017000D01*
X0192608Y0029310D01*
X0192776Y0029478D01*
X0193400Y0030984D01*
X0193400Y0032616D01*
X0192776Y0034122D01*
X0191622Y0035276D01*
X0190116Y0035900D01*
X0182484Y0035900D01*
X0180978Y0035276D01*
X0180202Y0034500D01*
X0163709Y0034500D01*
X0163709Y0040199D01*
X0163065Y0040843D01*
X0157035Y0040843D01*
X0156391Y0040199D01*
X0156391Y0033406D01*
X0154985Y0032000D01*
X0143263Y0032000D01*
X0142271Y0031589D01*
X0141511Y0030829D01*
X0139771Y0029089D01*
X0139011Y0028329D01*
X0138965Y0028218D01*
X0138965Y0031158D01*
X0158064Y0050257D01*
X0163065Y0050257D01*
X0163709Y0050901D01*
X0163709Y0057694D01*
X0165115Y0059100D01*
X0180202Y0059100D01*
X0180978Y0058324D01*
X0182484Y0057700D01*
X0186582Y0057700D01*
X0187761Y0056521D01*
X0188382Y0055900D01*
X0182484Y0055900D01*
X0180978Y0055276D01*
X0179824Y0054122D01*
X0179200Y0052616D01*
X0179200Y0050984D01*
X0179824Y0049478D01*
X0180978Y0048324D01*
X0182484Y0047700D01*
X0190116Y0047700D01*
X0191622Y0048324D01*
X0192776Y0049478D01*
X0193400Y0050984D01*
X0193400Y0052132D01*
X0203521Y0042011D01*
X0204513Y0041600D01*
X0208952Y0041600D01*
X0209728Y0040824D01*
X0211234Y0040200D01*
X0218866Y0040200D01*
X0220372Y0040824D01*
X0221526Y0041978D01*
X0222150Y0043484D01*
X0222150Y0045116D01*
X0221526Y0046622D01*
X0220372Y0047776D01*
X0218866Y0048400D01*
X0216450Y0048400D01*
X0216450Y0056222D01*
X0216450Y0055639D02*
X0223600Y0055639D01*
X0223600Y0055040D02*
X0216450Y0055040D01*
X0216450Y0054442D02*
X0223600Y0054442D01*
X0223600Y0053843D02*
X0216450Y0053843D01*
X0216450Y0053245D02*
X0223600Y0053245D01*
X0223600Y0052646D02*
X0216450Y0052646D01*
X0216450Y0052048D02*
X0223600Y0052048D01*
X0223600Y0051449D02*
X0216450Y0051449D01*
X0216450Y0050851D02*
X0223600Y0050851D01*
X0223600Y0050252D02*
X0216450Y0050252D01*
X0216450Y0049654D02*
X0223600Y0049654D01*
X0223600Y0049055D02*
X0216450Y0049055D01*
X0216450Y0048457D02*
X0223600Y0048457D01*
X0223600Y0047858D02*
X0220173Y0047858D01*
X0220889Y0047260D02*
X0223600Y0047260D01*
X0223600Y0046661D02*
X0221487Y0046661D01*
X0221758Y0046063D02*
X0223600Y0046063D01*
X0223600Y0045464D02*
X0222006Y0045464D01*
X0222150Y0044866D02*
X0223600Y0044866D01*
X0223600Y0044267D02*
X0222150Y0044267D01*
X0222150Y0043669D02*
X0223600Y0043669D01*
X0223600Y0043070D02*
X0221978Y0043070D01*
X0221730Y0042472D02*
X0223600Y0042472D01*
X0223600Y0041873D02*
X0221421Y0041873D01*
X0220823Y0041275D02*
X0223600Y0041275D01*
X0223600Y0040676D02*
X0220015Y0040676D01*
X0223600Y0040078D02*
X0193024Y0040078D01*
X0193272Y0040676D02*
X0210085Y0040676D01*
X0209277Y0041275D02*
X0193400Y0041275D01*
X0193400Y0040984D02*
X0193400Y0042616D01*
X0192776Y0044122D01*
X0191622Y0045276D01*
X0190116Y0045900D01*
X0182484Y0045900D01*
X0180978Y0045276D01*
X0179824Y0044122D01*
X0179200Y0042616D01*
X0179200Y0040984D01*
X0179824Y0039478D01*
X0180978Y0038324D01*
X0182484Y0037700D01*
X0190116Y0037700D01*
X0191622Y0038324D01*
X0192776Y0039478D01*
X0193400Y0040984D01*
X0193400Y0041873D02*
X0203854Y0041873D01*
X0203060Y0042472D02*
X0193400Y0042472D01*
X0193212Y0043070D02*
X0202461Y0043070D01*
X0201863Y0043669D02*
X0192964Y0043669D01*
X0192631Y0044267D02*
X0201264Y0044267D01*
X0200666Y0044866D02*
X0192033Y0044866D01*
X0191168Y0045464D02*
X0200067Y0045464D01*
X0199469Y0046063D02*
X0153869Y0046063D01*
X0154468Y0046661D02*
X0198870Y0046661D01*
X0198272Y0047260D02*
X0155066Y0047260D01*
X0155665Y0047858D02*
X0182102Y0047858D01*
X0180845Y0048457D02*
X0156263Y0048457D01*
X0156862Y0049055D02*
X0180246Y0049055D01*
X0179751Y0049654D02*
X0157460Y0049654D01*
X0158059Y0050252D02*
X0179503Y0050252D01*
X0179255Y0050851D02*
X0163658Y0050851D01*
X0163709Y0051449D02*
X0179200Y0051449D01*
X0179200Y0052048D02*
X0163709Y0052048D01*
X0163709Y0052646D02*
X0179213Y0052646D01*
X0179461Y0053245D02*
X0163709Y0053245D01*
X0163709Y0053843D02*
X0179709Y0053843D01*
X0180144Y0054442D02*
X0163709Y0054442D01*
X0163709Y0055040D02*
X0180742Y0055040D01*
X0181854Y0055639D02*
X0163709Y0055639D01*
X0163709Y0056237D02*
X0188044Y0056237D01*
X0187446Y0056836D02*
X0163709Y0056836D01*
X0163709Y0057434D02*
X0186847Y0057434D01*
X0181681Y0058033D02*
X0164048Y0058033D01*
X0164647Y0058631D02*
X0180670Y0058631D01*
X0180202Y0064500D02*
X0163709Y0064500D01*
X0163709Y0064805D01*
X0163114Y0065400D01*
X0181277Y0065400D01*
X0180978Y0065276D01*
X0180202Y0064500D01*
X0180318Y0064617D02*
X0163709Y0064617D01*
X0163299Y0065215D02*
X0180917Y0065215D01*
X0190134Y0071200D02*
X0190734Y0071200D01*
X0190734Y0071799D02*
X0190134Y0071799D01*
X0190134Y0072397D02*
X0190734Y0072397D01*
X0190734Y0072996D02*
X0190134Y0072996D01*
X0199604Y0072996D02*
X0200204Y0072996D01*
X0200204Y0073594D02*
X0199604Y0073594D01*
X0199604Y0074193D02*
X0200204Y0074193D01*
X0200204Y0074791D02*
X0199604Y0074791D01*
X0200204Y0075118D02*
X0200204Y0072149D01*
X0204454Y0072149D01*
X0204454Y0073989D01*
X0204366Y0074319D01*
X0204195Y0074616D01*
X0203953Y0074858D01*
X0203656Y0075029D01*
X0203325Y0075118D01*
X0200204Y0075118D01*
X0200204Y0071799D02*
X0209700Y0071799D01*
X0209700Y0072397D02*
X0204454Y0072397D01*
X0204454Y0072996D02*
X0209700Y0072996D01*
X0209700Y0073594D02*
X0204454Y0073594D01*
X0204400Y0074193D02*
X0209700Y0074193D01*
X0209700Y0074791D02*
X0204019Y0074791D01*
X0204454Y0071200D02*
X0209700Y0071200D01*
X0209700Y0070602D02*
X0204454Y0070602D01*
X0204454Y0070003D02*
X0209700Y0070003D01*
X0209700Y0069405D02*
X0204373Y0069405D01*
X0203893Y0068806D02*
X0209700Y0068806D01*
X0200204Y0068806D02*
X0199604Y0068806D01*
X0199604Y0069405D02*
X0200204Y0069405D01*
X0200204Y0070003D02*
X0199604Y0070003D01*
X0199604Y0070602D02*
X0200204Y0070602D01*
X0200204Y0071200D02*
X0199604Y0071200D01*
X0203510Y0080178D02*
X0204110Y0080178D01*
X0204110Y0080776D02*
X0203510Y0080776D01*
X0203510Y0081375D02*
X0204110Y0081375D01*
X0204110Y0081973D02*
X0203510Y0081973D01*
X0203510Y0082572D02*
X0204110Y0082572D01*
X0204110Y0083170D02*
X0203510Y0083170D01*
X0203510Y0083769D02*
X0204110Y0083769D01*
X0206943Y0080178D02*
X0208062Y0080178D01*
X0211300Y0084290D02*
X0211290Y0084300D01*
X0229200Y0084367D02*
X0232451Y0084367D01*
X0232451Y0083769D02*
X0229200Y0083769D01*
X0229200Y0083170D02*
X0232451Y0083170D01*
X0232451Y0082572D02*
X0229200Y0082572D01*
X0229200Y0081973D02*
X0232451Y0081973D01*
X0232451Y0081375D02*
X0229200Y0081375D01*
X0229200Y0080776D02*
X0232451Y0080776D01*
X0232451Y0080178D02*
X0229200Y0080178D01*
X0229200Y0079579D02*
X0232451Y0079579D01*
X0232451Y0078981D02*
X0229200Y0078981D01*
X0229200Y0078382D02*
X0232451Y0078382D01*
X0232451Y0077784D02*
X0229200Y0077784D01*
X0229200Y0077185D02*
X0232451Y0077185D01*
X0232451Y0076587D02*
X0229200Y0076587D01*
X0229200Y0075988D02*
X0232451Y0075988D01*
X0232451Y0075390D02*
X0229200Y0075390D01*
X0229200Y0074791D02*
X0232451Y0074791D01*
X0232451Y0074193D02*
X0229200Y0074193D01*
X0229200Y0073594D02*
X0232451Y0073594D01*
X0232451Y0072996D02*
X0229200Y0072996D01*
X0229200Y0072397D02*
X0232451Y0072397D01*
X0232451Y0071799D02*
X0229200Y0071799D01*
X0229200Y0071200D02*
X0232451Y0071200D01*
X0232451Y0070602D02*
X0229200Y0070602D01*
X0229200Y0070003D02*
X0232451Y0070003D01*
X0232451Y0069405D02*
X0229200Y0069405D01*
X0229200Y0068806D02*
X0232451Y0068806D01*
X0232451Y0068208D02*
X0229200Y0068208D01*
X0229200Y0067609D02*
X0232451Y0067609D01*
X0232451Y0067011D02*
X0229200Y0067011D01*
X0229200Y0066412D02*
X0232451Y0066412D01*
X0232451Y0065814D02*
X0229200Y0065814D01*
X0229200Y0084966D02*
X0232451Y0084966D01*
X0232451Y0085564D02*
X0229200Y0085564D01*
X0229200Y0086163D02*
X0232451Y0086163D01*
X0232451Y0086761D02*
X0229200Y0086761D01*
X0229200Y0087360D02*
X0232451Y0087360D01*
X0232451Y0087958D02*
X0229200Y0087958D01*
X0229200Y0088557D02*
X0232451Y0088557D01*
X0232451Y0089155D02*
X0229200Y0089155D01*
X0229200Y0089754D02*
X0232451Y0089754D01*
X0232451Y0090353D02*
X0229200Y0090353D01*
X0229200Y0090951D02*
X0232451Y0090951D01*
X0232451Y0091550D02*
X0229200Y0091550D01*
X0229200Y0092148D02*
X0232451Y0092148D01*
X0232451Y0092747D02*
X0229200Y0092747D01*
X0229200Y0093345D02*
X0232451Y0093345D01*
X0232451Y0093944D02*
X0229200Y0093944D01*
X0229200Y0094542D02*
X0232451Y0094542D01*
X0232451Y0095141D02*
X0229200Y0095141D01*
X0229200Y0095739D02*
X0232451Y0095739D01*
X0232451Y0096338D02*
X0229200Y0096338D01*
X0229200Y0096936D02*
X0232451Y0096936D01*
X0232451Y0097535D02*
X0229200Y0097535D01*
X0229200Y0098133D02*
X0232451Y0098133D01*
X0232451Y0098732D02*
X0229200Y0098732D01*
X0229200Y0099330D02*
X0232451Y0099330D01*
X0232451Y0099929D02*
X0229200Y0099929D01*
X0229200Y0100527D02*
X0232451Y0100527D01*
X0232451Y0101126D02*
X0229200Y0101126D01*
X0229200Y0101724D02*
X0232451Y0101724D01*
X0232451Y0102323D02*
X0229200Y0102323D01*
X0229200Y0102921D02*
X0232451Y0102921D01*
X0232451Y0103520D02*
X0229200Y0103520D01*
X0229200Y0104118D02*
X0232451Y0104118D01*
X0232451Y0104717D02*
X0229200Y0104717D01*
X0229200Y0105315D02*
X0232451Y0105315D01*
X0232451Y0105914D02*
X0229200Y0105914D01*
X0229200Y0106512D02*
X0232451Y0106512D01*
X0232451Y0107111D02*
X0229200Y0107111D01*
X0229200Y0107709D02*
X0232451Y0107709D01*
X0232451Y0108308D02*
X0229200Y0108308D01*
X0229200Y0108906D02*
X0232451Y0108906D01*
X0232451Y0109505D02*
X0229200Y0109505D01*
X0229200Y0110103D02*
X0232451Y0110103D01*
X0232451Y0110702D02*
X0229200Y0110702D01*
X0229200Y0111300D02*
X0232451Y0111300D01*
X0232451Y0111899D02*
X0229200Y0111899D01*
X0229200Y0112497D02*
X0232451Y0112497D01*
X0232451Y0113096D02*
X0229200Y0113096D01*
X0229200Y0113694D02*
X0232451Y0113694D01*
X0232451Y0114293D02*
X0229200Y0114293D01*
X0229200Y0114891D02*
X0232451Y0114891D01*
X0232451Y0115490D02*
X0229200Y0115490D01*
X0229200Y0116089D02*
X0232451Y0116089D01*
X0232451Y0116687D02*
X0229200Y0116687D01*
X0229200Y0117286D02*
X0232451Y0117286D01*
X0232451Y0117884D02*
X0229200Y0117884D01*
X0229200Y0118483D02*
X0232451Y0118483D01*
X0232451Y0119081D02*
X0229200Y0119081D01*
X0229200Y0119680D02*
X0232451Y0119680D01*
X0232451Y0120278D02*
X0229200Y0120278D01*
X0229200Y0120877D02*
X0232451Y0120877D01*
X0232451Y0121475D02*
X0229200Y0121475D01*
X0229200Y0122074D02*
X0232451Y0122074D01*
X0232451Y0122672D02*
X0229200Y0122672D01*
X0229200Y0123271D02*
X0232451Y0123271D01*
X0232451Y0123869D02*
X0229200Y0123869D01*
X0229200Y0124468D02*
X0232451Y0124468D01*
X0232451Y0125066D02*
X0229200Y0125066D01*
X0229200Y0125665D02*
X0232451Y0125665D01*
X0232451Y0126263D02*
X0229200Y0126263D01*
X0229200Y0126862D02*
X0232451Y0126862D01*
X0232451Y0127460D02*
X0229200Y0127460D01*
X0229200Y0128059D02*
X0232451Y0128059D01*
X0232451Y0128657D02*
X0229200Y0128657D01*
X0229200Y0129256D02*
X0232451Y0129256D01*
X0232451Y0129854D02*
X0229200Y0129854D01*
X0229200Y0130453D02*
X0232451Y0130453D01*
X0232451Y0131051D02*
X0229200Y0131051D01*
X0229200Y0131650D02*
X0232451Y0131650D01*
X0232451Y0132248D02*
X0229200Y0132248D01*
X0229200Y0132847D02*
X0232451Y0132847D01*
X0232451Y0133445D02*
X0229200Y0133445D01*
X0229200Y0134044D02*
X0232451Y0134044D01*
X0232451Y0134642D02*
X0229200Y0134642D01*
X0229049Y0135241D02*
X0232451Y0135241D01*
X0232451Y0135839D02*
X0228801Y0135839D01*
X0228263Y0136438D02*
X0232451Y0136438D01*
X0232451Y0137036D02*
X0227665Y0137036D01*
X0227943Y0136758D02*
X0227943Y0136758D01*
X0227066Y0137635D02*
X0232451Y0137635D01*
X0232451Y0138233D02*
X0226468Y0138233D01*
X0225869Y0138832D02*
X0232451Y0138832D01*
X0232451Y0139430D02*
X0225271Y0139430D01*
X0224672Y0140029D02*
X0232451Y0140029D01*
X0232451Y0140627D02*
X0224074Y0140627D01*
X0223475Y0141226D02*
X0232451Y0141226D01*
X0232451Y0141824D02*
X0222877Y0141824D01*
X0222278Y0142423D02*
X0232451Y0142423D01*
X0232451Y0143022D02*
X0221680Y0143022D01*
X0221081Y0143620D02*
X0232451Y0143620D01*
X0232451Y0144219D02*
X0220483Y0144219D01*
X0219884Y0144817D02*
X0232451Y0144817D01*
X0232451Y0145416D02*
X0219286Y0145416D01*
X0218687Y0146014D02*
X0232451Y0146014D01*
X0232451Y0146613D02*
X0218089Y0146613D01*
X0226300Y0148050D02*
X0226300Y0143050D01*
X0231300Y0143050D01*
X0231300Y0148050D01*
X0226300Y0148050D01*
X0227550Y0146800D01*
X0232451Y0147211D02*
X0003850Y0147211D01*
X0003850Y0146613D02*
X0077011Y0146613D01*
X0076413Y0146014D02*
X0003850Y0146014D01*
X0003850Y0145416D02*
X0075814Y0145416D01*
X0075216Y0144817D02*
X0003850Y0144817D01*
X0003850Y0144219D02*
X0074617Y0144219D01*
X0074019Y0143620D02*
X0003850Y0143620D01*
X0003850Y0143022D02*
X0073420Y0143022D01*
X0072822Y0142423D02*
X0003850Y0142423D01*
X0003850Y0141824D02*
X0072223Y0141824D01*
X0071625Y0141226D02*
X0003850Y0141226D01*
X0006300Y0143050D02*
X0011300Y0143050D01*
X0011300Y0145550D01*
X0011300Y0148050D01*
X0006300Y0148050D01*
X0003850Y0147810D02*
X0232451Y0147810D01*
X0232451Y0148408D02*
X0003850Y0148408D01*
X0003850Y0149007D02*
X0232451Y0149007D01*
X0232451Y0149605D02*
X0003850Y0149605D01*
X0003850Y0150204D02*
X0232451Y0150204D01*
X0217667Y0138832D02*
X0199850Y0138832D01*
X0199850Y0139430D02*
X0217068Y0139430D01*
X0216470Y0140029D02*
X0199850Y0140029D01*
X0199811Y0140627D02*
X0215871Y0140627D01*
X0215273Y0141226D02*
X0199212Y0141226D01*
X0199850Y0138233D02*
X0218265Y0138233D01*
X0218864Y0137635D02*
X0199850Y0137635D01*
X0199850Y0137036D02*
X0219462Y0137036D01*
X0220061Y0136438D02*
X0199850Y0136438D01*
X0199850Y0135839D02*
X0220659Y0135839D01*
X0221258Y0135241D02*
X0199850Y0135241D01*
X0199850Y0134642D02*
X0221856Y0134642D01*
X0222455Y0134044D02*
X0207648Y0134044D01*
X0208316Y0133445D02*
X0223053Y0133445D01*
X0223400Y0132847D02*
X0208669Y0132847D01*
X0208889Y0132248D02*
X0223400Y0132248D01*
X0223400Y0131650D02*
X0208889Y0131650D01*
X0208792Y0131051D02*
X0223400Y0131051D01*
X0223400Y0130453D02*
X0208544Y0130453D01*
X0208016Y0129854D02*
X0223400Y0129854D01*
X0223400Y0129256D02*
X0206923Y0129256D01*
X0205677Y0129256D02*
X0196018Y0129256D01*
X0195420Y0128657D02*
X0223400Y0128657D01*
X0223400Y0128059D02*
X0194821Y0128059D01*
X0194223Y0127460D02*
X0223400Y0127460D01*
X0223400Y0126862D02*
X0193624Y0126862D01*
X0192550Y0128050D02*
X0197550Y0133050D01*
X0198800Y0131800D01*
X0206300Y0131800D01*
X0204584Y0129854D02*
X0196617Y0129854D01*
X0197216Y0130453D02*
X0197884Y0130453D01*
X0194486Y0132248D02*
X0184011Y0132248D01*
X0184150Y0132847D02*
X0195084Y0132847D01*
X0195683Y0133445D02*
X0184150Y0133445D01*
X0184382Y0134044D02*
X0185718Y0134044D01*
X0186012Y0133750D02*
X0189088Y0133750D01*
X0189850Y0134512D01*
X0189850Y0140588D01*
X0189088Y0141350D01*
X0186012Y0141350D01*
X0185250Y0140588D01*
X0185250Y0134512D01*
X0186012Y0133750D01*
X0185250Y0134642D02*
X0184850Y0134642D01*
X0184850Y0135241D02*
X0185250Y0135241D01*
X0185250Y0135839D02*
X0184850Y0135839D01*
X0184850Y0136438D02*
X0185250Y0136438D01*
X0185250Y0137036D02*
X0184850Y0137036D01*
X0184850Y0137635D02*
X0185250Y0137635D01*
X0185250Y0138233D02*
X0184850Y0138233D01*
X0184850Y0138832D02*
X0185250Y0138832D01*
X0185250Y0139430D02*
X0184850Y0139430D01*
X0184850Y0140029D02*
X0185250Y0140029D01*
X0185289Y0140627D02*
X0184811Y0140627D01*
X0184212Y0141226D02*
X0185888Y0141226D01*
X0189212Y0141226D02*
X0190888Y0141226D01*
X0191012Y0141350D02*
X0190250Y0140588D01*
X0190250Y0134512D01*
X0191012Y0133750D01*
X0194088Y0133750D01*
X0194850Y0134512D01*
X0194850Y0140588D01*
X0194088Y0141350D01*
X0191012Y0141350D01*
X0190289Y0140627D02*
X0189811Y0140627D01*
X0189850Y0140029D02*
X0190250Y0140029D01*
X0190250Y0139430D02*
X0189850Y0139430D01*
X0189850Y0138832D02*
X0190250Y0138832D01*
X0190250Y0138233D02*
X0189850Y0138233D01*
X0189850Y0137635D02*
X0190250Y0137635D01*
X0190250Y0137036D02*
X0189850Y0137036D01*
X0189850Y0136438D02*
X0190250Y0136438D01*
X0190250Y0135839D02*
X0189850Y0135839D01*
X0189850Y0135241D02*
X0190250Y0135241D01*
X0190250Y0134642D02*
X0189850Y0134642D01*
X0189382Y0134044D02*
X0190718Y0134044D01*
X0193289Y0131051D02*
X0182814Y0131051D01*
X0182216Y0130453D02*
X0192690Y0130453D01*
X0192092Y0129854D02*
X0165390Y0129854D01*
X0163993Y0129256D02*
X0148518Y0129256D01*
X0147920Y0128657D02*
X0163395Y0128657D01*
X0162796Y0128059D02*
X0147321Y0128059D01*
X0146723Y0127460D02*
X0162198Y0127460D01*
X0161599Y0126862D02*
X0146124Y0126862D01*
X0145526Y0126263D02*
X0161000Y0126263D01*
X0160402Y0125665D02*
X0144927Y0125665D01*
X0144329Y0125066D02*
X0159803Y0125066D01*
X0162533Y0123271D02*
X0223400Y0123271D01*
X0223400Y0123869D02*
X0163132Y0123869D01*
X0163730Y0124468D02*
X0223400Y0124468D01*
X0223400Y0125066D02*
X0164329Y0125066D01*
X0164927Y0125665D02*
X0223400Y0125665D01*
X0223400Y0126263D02*
X0165526Y0126263D01*
X0165050Y0128050D02*
X0160050Y0123050D01*
X0123800Y0123050D01*
X0115050Y0114300D01*
X0115050Y0123050D01*
X0117550Y0125550D01*
X0117550Y0130993D01*
X0114243Y0134300D01*
X0111368Y0133445D02*
X0103732Y0133445D01*
X0103732Y0132847D02*
X0111368Y0132847D01*
X0111368Y0132248D02*
X0103732Y0132248D01*
X0103732Y0131650D02*
X0111368Y0131650D01*
X0111368Y0131051D02*
X0103732Y0131051D01*
X0103644Y0130453D02*
X0111368Y0130453D01*
X0111929Y0129854D02*
X0103128Y0129854D01*
X0100557Y0134044D02*
X0072645Y0134044D01*
X0073244Y0134642D02*
X0097982Y0134642D01*
X0097982Y0135241D02*
X0073842Y0135241D01*
X0074441Y0135839D02*
X0097982Y0135839D01*
X0097982Y0136438D02*
X0075039Y0136438D01*
X0075638Y0137036D02*
X0097982Y0137036D01*
X0097982Y0137635D02*
X0076236Y0137635D01*
X0076835Y0138233D02*
X0098120Y0138233D01*
X0098736Y0138832D02*
X0077433Y0138832D01*
X0078032Y0139430D02*
X0175250Y0139430D01*
X0175250Y0140029D02*
X0078630Y0140029D01*
X0079229Y0140627D02*
X0175289Y0140627D01*
X0175888Y0141226D02*
X0079827Y0141226D01*
X0072047Y0133445D02*
X0097982Y0133445D01*
X0097982Y0132847D02*
X0071850Y0132847D01*
X0071850Y0129256D02*
X0115950Y0129256D01*
X0115950Y0128657D02*
X0071627Y0128657D01*
X0071379Y0128059D02*
X0115950Y0128059D01*
X0113450Y0121475D02*
X0105761Y0121475D01*
X0105086Y0120877D02*
X0113450Y0120877D01*
X0113450Y0120278D02*
X0025827Y0120278D01*
X0026958Y0120877D02*
X0102514Y0120877D01*
X0095925Y0127460D02*
X0071041Y0127460D01*
X0066068Y0114293D02*
X0028600Y0114293D01*
X0028600Y0113694D02*
X0049682Y0113694D01*
X0049083Y0113096D02*
X0028456Y0113096D01*
X0028208Y0112497D02*
X0048485Y0112497D01*
X0047886Y0111899D02*
X0027960Y0111899D01*
X0027382Y0111300D02*
X0047288Y0111300D01*
X0046689Y0110702D02*
X0026783Y0110702D01*
X0025405Y0110103D02*
X0046091Y0110103D01*
X0045492Y0109505D02*
X0003850Y0109505D01*
X0003850Y0110103D02*
X0017195Y0110103D01*
X0015817Y0110702D02*
X0003850Y0110702D01*
X0003850Y0111300D02*
X0015218Y0111300D01*
X0014640Y0111899D02*
X0003850Y0111899D01*
X0003850Y0112497D02*
X0014392Y0112497D01*
X0014144Y0113096D02*
X0003850Y0113096D01*
X0003850Y0113694D02*
X0014000Y0113694D01*
X0014000Y0114293D02*
X0003850Y0114293D01*
X0003850Y0114891D02*
X0014000Y0114891D01*
X0014139Y0115490D02*
X0003850Y0115490D01*
X0003850Y0116089D02*
X0014387Y0116089D01*
X0014634Y0116687D02*
X0003850Y0116687D01*
X0003850Y0117286D02*
X0015204Y0117286D01*
X0015803Y0117884D02*
X0003850Y0117884D01*
X0003850Y0118483D02*
X0017161Y0118483D01*
X0016773Y0120278D02*
X0003850Y0120278D01*
X0003850Y0119680D02*
X0113450Y0119680D01*
X0113450Y0119081D02*
X0003850Y0119081D01*
X0003850Y0120877D02*
X0015642Y0120877D01*
X0015044Y0121475D02*
X0003850Y0121475D01*
X0003850Y0122074D02*
X0014568Y0122074D01*
X0014320Y0122672D02*
X0003850Y0122672D01*
X0003850Y0123271D02*
X0014072Y0123271D01*
X0014000Y0123869D02*
X0003850Y0123869D01*
X0003850Y0124468D02*
X0014000Y0124468D01*
X0014000Y0125066D02*
X0003850Y0125066D01*
X0003850Y0125665D02*
X0014211Y0125665D01*
X0014459Y0126263D02*
X0003850Y0126263D01*
X0003850Y0126862D02*
X0014781Y0126862D01*
X0015379Y0127460D02*
X0003850Y0127460D01*
X0021000Y0130453D02*
X0021600Y0130453D01*
X0021600Y0131051D02*
X0021000Y0131051D01*
X0021000Y0131650D02*
X0021600Y0131650D01*
X0021600Y0132248D02*
X0021000Y0132248D01*
X0021000Y0132847D02*
X0021600Y0132847D01*
X0021600Y0133445D02*
X0021000Y0133445D01*
X0025439Y0118483D02*
X0113450Y0118483D01*
X0107624Y0107709D02*
X0080499Y0107709D01*
X0081363Y0107111D02*
X0107461Y0107111D01*
X0107461Y0106512D02*
X0083974Y0106512D01*
X0084598Y0105914D02*
X0107615Y0105914D01*
X0107873Y0105315D02*
X0084932Y0105315D01*
X0085139Y0104717D02*
X0108472Y0104717D01*
X0110050Y0106800D02*
X0113800Y0106800D01*
X0111108Y0104118D02*
X0085139Y0104118D01*
X0085029Y0103520D02*
X0111789Y0103520D01*
X0115811Y0103520D02*
X0116321Y0103520D01*
X0116569Y0102921D02*
X0084781Y0102921D01*
X0084234Y0102323D02*
X0117116Y0102323D01*
X0120848Y0105914D02*
X0121304Y0105914D01*
X0121250Y0106512D02*
X0120224Y0106512D01*
X0126300Y0098050D02*
X0140050Y0084300D01*
X0140050Y0080550D01*
X0136526Y0081973D02*
X0118513Y0081973D01*
X0117939Y0082572D02*
X0136774Y0082572D01*
X0137296Y0083170D02*
X0107433Y0083170D01*
X0108032Y0083769D02*
X0137895Y0083769D01*
X0137720Y0084367D02*
X0108630Y0084367D01*
X0109229Y0084966D02*
X0137121Y0084966D01*
X0136523Y0085564D02*
X0121077Y0085564D01*
X0121676Y0086163D02*
X0135924Y0086163D01*
X0135326Y0086761D02*
X0122274Y0086761D01*
X0122873Y0087360D02*
X0134727Y0087360D01*
X0134129Y0087958D02*
X0123471Y0087958D01*
X0124070Y0088557D02*
X0133530Y0088557D01*
X0132932Y0089155D02*
X0124668Y0089155D01*
X0125267Y0089754D02*
X0132333Y0089754D01*
X0131735Y0090353D02*
X0125400Y0090353D01*
X0125400Y0090951D02*
X0131136Y0090951D01*
X0130538Y0091550D02*
X0125400Y0091550D01*
X0125400Y0092148D02*
X0129939Y0092148D01*
X0129341Y0092747D02*
X0125400Y0092747D01*
X0125400Y0093345D02*
X0128742Y0093345D01*
X0128144Y0093944D02*
X0125400Y0093944D01*
X0125400Y0094542D02*
X0127545Y0094542D01*
X0126947Y0095141D02*
X0125653Y0095141D01*
X0123800Y0095550D02*
X0126300Y0098050D01*
X0116300Y0091485D02*
X0115985Y0091800D01*
X0108800Y0091800D01*
X0097550Y0080550D01*
X0097550Y0053424D01*
X0101612Y0055639D02*
X0114738Y0055639D01*
X0114900Y0056030D02*
X0114200Y0054339D01*
X0114200Y0052509D01*
X0114900Y0050818D01*
X0116194Y0049524D01*
X0117885Y0048824D01*
X0119715Y0048824D01*
X0121406Y0049524D01*
X0122700Y0050818D01*
X0123400Y0052509D01*
X0123400Y0054339D01*
X0122700Y0056030D01*
X0121406Y0057324D01*
X0119715Y0058024D01*
X0117885Y0058024D01*
X0116194Y0057324D01*
X0114900Y0056030D01*
X0115108Y0056237D02*
X0101242Y0056237D01*
X0100643Y0056836D02*
X0115706Y0056836D01*
X0116462Y0057434D02*
X0099888Y0057434D01*
X0099150Y0058033D02*
X0124700Y0058033D01*
X0124700Y0058631D02*
X0099150Y0058631D01*
X0099150Y0059230D02*
X0124700Y0059230D01*
X0124700Y0059828D02*
X0099150Y0059828D01*
X0099150Y0060427D02*
X0124700Y0060427D01*
X0124700Y0061025D02*
X0099150Y0061025D01*
X0099150Y0061624D02*
X0124700Y0061624D01*
X0124700Y0062222D02*
X0099150Y0062222D01*
X0099150Y0062821D02*
X0124700Y0062821D01*
X0124700Y0063420D02*
X0099150Y0063420D01*
X0093219Y0063060D02*
X0093219Y0057469D01*
X0091300Y0055550D01*
X0083790Y0055550D01*
X0083790Y0039290D01*
X0072550Y0028050D01*
X0065050Y0028050D01*
X0056300Y0019300D01*
X0067851Y0026312D02*
X0074749Y0026312D01*
X0073673Y0026910D02*
X0099500Y0026910D01*
X0099500Y0026312D02*
X0097851Y0026312D01*
X0098968Y0025713D02*
X0099500Y0025713D01*
X0099500Y0027509D02*
X0074272Y0027509D01*
X0074870Y0028107D02*
X0099500Y0028107D01*
X0099500Y0028706D02*
X0075469Y0028706D01*
X0076067Y0029304D02*
X0099500Y0029304D01*
X0099500Y0029903D02*
X0076666Y0029903D01*
X0077264Y0030501D02*
X0099500Y0030501D01*
X0099500Y0031100D02*
X0077863Y0031100D01*
X0078461Y0031698D02*
X0099500Y0031698D01*
X0099500Y0032297D02*
X0079060Y0032297D01*
X0079658Y0032895D02*
X0099500Y0032895D01*
X0103100Y0032895D02*
X0124700Y0032895D01*
X0124700Y0032297D02*
X0103100Y0032297D01*
X0103100Y0031698D02*
X0124700Y0031698D01*
X0124700Y0031100D02*
X0103100Y0031100D01*
X0103100Y0030501D02*
X0124700Y0030501D01*
X0124700Y0029903D02*
X0103100Y0029903D01*
X0103100Y0029304D02*
X0124700Y0029304D01*
X0124700Y0028706D02*
X0103100Y0028706D01*
X0103100Y0028107D02*
X0124700Y0028107D01*
X0124700Y0027509D02*
X0103100Y0027509D01*
X0103100Y0026910D02*
X0124700Y0026910D01*
X0124700Y0026312D02*
X0117851Y0026312D01*
X0118968Y0025713D02*
X0124700Y0025713D01*
X0124700Y0025115D02*
X0119566Y0025115D01*
X0120036Y0024516D02*
X0124700Y0024516D01*
X0124700Y0023918D02*
X0120284Y0023918D01*
X0120532Y0023319D02*
X0124700Y0023319D01*
X0124700Y0022721D02*
X0120600Y0022721D01*
X0120600Y0022122D02*
X0124700Y0022122D01*
X0124700Y0021524D02*
X0120600Y0021524D01*
X0120600Y0020925D02*
X0124700Y0020925D01*
X0124700Y0020327D02*
X0120600Y0020327D01*
X0120600Y0019728D02*
X0124700Y0019728D01*
X0124700Y0019130D02*
X0120600Y0019130D01*
X0120600Y0018531D02*
X0124700Y0018531D01*
X0124700Y0017933D02*
X0120600Y0017933D01*
X0120600Y0017334D02*
X0124700Y0017334D01*
X0124700Y0016736D02*
X0120600Y0016736D01*
X0120600Y0016137D02*
X0124700Y0016137D01*
X0124700Y0015539D02*
X0120600Y0015539D01*
X0120391Y0014940D02*
X0124700Y0014940D01*
X0124700Y0014342D02*
X0120143Y0014342D01*
X0119824Y0013743D02*
X0124700Y0013743D01*
X0124700Y0013145D02*
X0119226Y0013145D01*
X0118474Y0012546D02*
X0124700Y0012546D01*
X0126300Y0012546D02*
X0129850Y0012546D01*
X0129850Y0012000D02*
X0129850Y0013289D01*
X0126779Y0013289D01*
X0126300Y0013768D01*
X0126300Y0012000D01*
X0129850Y0012000D01*
X0129850Y0013145D02*
X0126300Y0013145D01*
X0126300Y0013743D02*
X0126325Y0013743D01*
X0122550Y0016050D02*
X0122550Y0021050D01*
X0122550Y0024800D01*
X0122550Y0028050D01*
X0122050Y0028550D01*
X0118800Y0028550D01*
X0122550Y0028550D02*
X0122550Y0028050D01*
X0126300Y0024792D02*
X0126779Y0024312D01*
X0138321Y0024312D01*
X0138600Y0024592D01*
X0138600Y0021668D01*
X0138520Y0021588D01*
X0138321Y0021788D01*
X0126779Y0021788D01*
X0126300Y0021308D01*
X0126300Y0024792D01*
X0126300Y0024516D02*
X0126575Y0024516D01*
X0126300Y0023918D02*
X0138600Y0023918D01*
X0138600Y0024516D02*
X0138525Y0024516D01*
X0138600Y0023319D02*
X0126300Y0023319D01*
X0126300Y0022721D02*
X0138600Y0022721D01*
X0138600Y0022122D02*
X0126300Y0022122D01*
X0126300Y0021524D02*
X0126515Y0021524D01*
X0132550Y0028562D02*
X0132550Y0054300D01*
X0140050Y0061800D01*
X0141809Y0063420D02*
X0156391Y0063420D01*
X0156391Y0064018D02*
X0141210Y0064018D01*
X0141040Y0064189D02*
X0139060Y0064189D01*
X0137661Y0062790D01*
X0137661Y0061391D01*
X0131150Y0054880D01*
X0131150Y0032811D01*
X0126779Y0032811D01*
X0126300Y0032332D01*
X0126300Y0065400D01*
X0156986Y0065400D01*
X0156391Y0064805D01*
X0156391Y0056221D01*
X0133950Y0033780D01*
X0133950Y0053720D01*
X0139641Y0059411D01*
X0141040Y0059411D01*
X0142439Y0060810D01*
X0142439Y0062790D01*
X0141040Y0064189D01*
X0142408Y0062821D02*
X0156391Y0062821D01*
X0156391Y0062222D02*
X0142439Y0062222D01*
X0142439Y0061624D02*
X0156391Y0061624D01*
X0156391Y0061025D02*
X0142439Y0061025D01*
X0142055Y0060427D02*
X0156391Y0060427D01*
X0156391Y0059828D02*
X0141457Y0059828D01*
X0139460Y0059230D02*
X0156391Y0059230D01*
X0156391Y0058631D02*
X0138861Y0058631D01*
X0138263Y0058033D02*
X0156391Y0058033D01*
X0156391Y0057434D02*
X0137664Y0057434D01*
X0137066Y0056836D02*
X0156391Y0056836D01*
X0156391Y0056237D02*
X0136467Y0056237D01*
X0135869Y0055639D02*
X0155809Y0055639D01*
X0155210Y0055040D02*
X0135270Y0055040D01*
X0134672Y0054442D02*
X0154612Y0054442D01*
X0154013Y0053843D02*
X0134073Y0053843D01*
X0133950Y0053245D02*
X0153415Y0053245D01*
X0152816Y0052646D02*
X0133950Y0052646D01*
X0133950Y0052048D02*
X0152218Y0052048D01*
X0151619Y0051449D02*
X0133950Y0051449D01*
X0133950Y0050851D02*
X0151021Y0050851D01*
X0150422Y0050252D02*
X0133950Y0050252D01*
X0133950Y0049654D02*
X0149824Y0049654D01*
X0149225Y0049055D02*
X0133950Y0049055D01*
X0133950Y0048457D02*
X0148627Y0048457D01*
X0148028Y0047858D02*
X0133950Y0047858D01*
X0133950Y0047260D02*
X0147430Y0047260D01*
X0146831Y0046661D02*
X0133950Y0046661D01*
X0133950Y0046063D02*
X0146233Y0046063D01*
X0145634Y0045464D02*
X0133950Y0045464D01*
X0133950Y0044866D02*
X0145035Y0044866D01*
X0144437Y0044267D02*
X0133950Y0044267D01*
X0133950Y0043669D02*
X0143838Y0043669D01*
X0143240Y0043070D02*
X0133950Y0043070D01*
X0133950Y0042472D02*
X0142641Y0042472D01*
X0142043Y0041873D02*
X0133950Y0041873D01*
X0133950Y0041275D02*
X0141444Y0041275D01*
X0140846Y0040676D02*
X0133950Y0040676D01*
X0133950Y0040078D02*
X0140247Y0040078D01*
X0139649Y0039479D02*
X0133950Y0039479D01*
X0133950Y0038881D02*
X0139050Y0038881D01*
X0138452Y0038282D02*
X0133950Y0038282D01*
X0133950Y0037684D02*
X0137853Y0037684D01*
X0137255Y0037085D02*
X0133950Y0037085D01*
X0133950Y0036487D02*
X0136656Y0036487D01*
X0136058Y0035888D02*
X0133950Y0035888D01*
X0133950Y0035289D02*
X0135459Y0035289D01*
X0134861Y0034691D02*
X0133950Y0034691D01*
X0133950Y0034092D02*
X0134262Y0034092D01*
X0131150Y0034092D02*
X0126300Y0034092D01*
X0126300Y0033494D02*
X0131150Y0033494D01*
X0131150Y0032895D02*
X0126300Y0032895D01*
X0124700Y0033494D02*
X0120724Y0033494D01*
X0121406Y0033776D02*
X0122700Y0035070D01*
X0123400Y0036761D01*
X0123400Y0038591D01*
X0122700Y0040282D01*
X0121406Y0041576D01*
X0119715Y0042276D01*
X0117885Y0042276D01*
X0116194Y0041576D01*
X0114900Y0040282D01*
X0114200Y0038591D01*
X0114200Y0036761D01*
X0114900Y0035070D01*
X0116194Y0033776D01*
X0117885Y0033076D01*
X0119715Y0033076D01*
X0121406Y0033776D01*
X0121722Y0034092D02*
X0124700Y0034092D01*
X0124700Y0034691D02*
X0122320Y0034691D01*
X0122790Y0035289D02*
X0124700Y0035289D01*
X0124700Y0035888D02*
X0123038Y0035888D01*
X0123286Y0036487D02*
X0124700Y0036487D01*
X0124700Y0037085D02*
X0123400Y0037085D01*
X0123400Y0037684D02*
X0124700Y0037684D01*
X0124700Y0038282D02*
X0123400Y0038282D01*
X0123280Y0038881D02*
X0124700Y0038881D01*
X0124700Y0039479D02*
X0123032Y0039479D01*
X0122784Y0040078D02*
X0124700Y0040078D01*
X0124700Y0040676D02*
X0122305Y0040676D01*
X0121707Y0041275D02*
X0124700Y0041275D01*
X0124700Y0041873D02*
X0120688Y0041873D01*
X0124700Y0042472D02*
X0085390Y0042472D01*
X0085390Y0043070D02*
X0124700Y0043070D01*
X0124700Y0043669D02*
X0085390Y0043669D01*
X0085390Y0044267D02*
X0124700Y0044267D01*
X0124700Y0044866D02*
X0085390Y0044866D01*
X0085390Y0045464D02*
X0124700Y0045464D01*
X0124700Y0046063D02*
X0085390Y0046063D01*
X0085390Y0046661D02*
X0124700Y0046661D01*
X0124700Y0047260D02*
X0085390Y0047260D01*
X0085390Y0047858D02*
X0124700Y0047858D01*
X0124700Y0048457D02*
X0085390Y0048457D01*
X0085390Y0049055D02*
X0096077Y0049055D01*
X0094815Y0049654D02*
X0085390Y0049654D01*
X0085390Y0050252D02*
X0094216Y0050252D01*
X0093637Y0050851D02*
X0085390Y0050851D01*
X0087040Y0051449D02*
X0093389Y0051449D01*
X0093141Y0052048D02*
X0087638Y0052048D01*
X0087649Y0052646D02*
X0092950Y0052646D01*
X0092950Y0053245D02*
X0087649Y0053245D01*
X0087649Y0053843D02*
X0092950Y0053843D01*
X0092993Y0054442D02*
X0092455Y0054442D01*
X0093053Y0055040D02*
X0093241Y0055040D01*
X0100884Y0050252D02*
X0115466Y0050252D01*
X0114887Y0050851D02*
X0101463Y0050851D01*
X0101711Y0051449D02*
X0114639Y0051449D01*
X0114391Y0052048D02*
X0101959Y0052048D01*
X0102150Y0052646D02*
X0114200Y0052646D01*
X0114200Y0053245D02*
X0102150Y0053245D01*
X0102150Y0053843D02*
X0114200Y0053843D01*
X0114243Y0054442D02*
X0102107Y0054442D01*
X0101859Y0055040D02*
X0114491Y0055040D01*
X0121138Y0057434D02*
X0124700Y0057434D01*
X0124700Y0056836D02*
X0121893Y0056836D01*
X0122492Y0056237D02*
X0124700Y0056237D01*
X0124700Y0055639D02*
X0122862Y0055639D01*
X0123109Y0055040D02*
X0124700Y0055040D01*
X0124700Y0054442D02*
X0123357Y0054442D01*
X0123400Y0053843D02*
X0124700Y0053843D01*
X0124700Y0053245D02*
X0123400Y0053245D01*
X0123400Y0052646D02*
X0124700Y0052646D01*
X0124700Y0052048D02*
X0123209Y0052048D01*
X0122961Y0051449D02*
X0124700Y0051449D01*
X0124700Y0050851D02*
X0122713Y0050851D01*
X0122134Y0050252D02*
X0124700Y0050252D01*
X0124700Y0049654D02*
X0121535Y0049654D01*
X0120273Y0049055D02*
X0124700Y0049055D01*
X0126300Y0049055D02*
X0131150Y0049055D01*
X0131150Y0048457D02*
X0126300Y0048457D01*
X0126300Y0047858D02*
X0131150Y0047858D01*
X0131150Y0047260D02*
X0126300Y0047260D01*
X0126300Y0046661D02*
X0131150Y0046661D01*
X0131150Y0046063D02*
X0126300Y0046063D01*
X0126300Y0045464D02*
X0131150Y0045464D01*
X0131150Y0044866D02*
X0126300Y0044866D01*
X0126300Y0044267D02*
X0131150Y0044267D01*
X0131150Y0043669D02*
X0126300Y0043669D01*
X0126300Y0043070D02*
X0131150Y0043070D01*
X0131150Y0042472D02*
X0126300Y0042472D01*
X0126300Y0041873D02*
X0131150Y0041873D01*
X0131150Y0041275D02*
X0126300Y0041275D01*
X0126300Y0040676D02*
X0131150Y0040676D01*
X0131150Y0040078D02*
X0126300Y0040078D01*
X0126300Y0039479D02*
X0131150Y0039479D01*
X0131150Y0038881D02*
X0126300Y0038881D01*
X0126300Y0038282D02*
X0131150Y0038282D01*
X0131150Y0037684D02*
X0126300Y0037684D01*
X0126300Y0037085D02*
X0131150Y0037085D01*
X0131150Y0036487D02*
X0126300Y0036487D01*
X0126300Y0035888D02*
X0131150Y0035888D01*
X0131150Y0035289D02*
X0126300Y0035289D01*
X0126300Y0034691D02*
X0131150Y0034691D01*
X0138965Y0031100D02*
X0141782Y0031100D01*
X0141511Y0030829D02*
X0141511Y0030829D01*
X0141183Y0030501D02*
X0138965Y0030501D01*
X0138965Y0029903D02*
X0140585Y0029903D01*
X0139986Y0029304D02*
X0138965Y0029304D01*
X0138965Y0028706D02*
X0139387Y0028706D01*
X0139505Y0031698D02*
X0142535Y0031698D01*
X0141301Y0033494D02*
X0156391Y0033494D01*
X0156391Y0034092D02*
X0141899Y0034092D01*
X0142498Y0034691D02*
X0156391Y0034691D01*
X0156391Y0035289D02*
X0143096Y0035289D01*
X0143695Y0035888D02*
X0156391Y0035888D01*
X0156391Y0036487D02*
X0144293Y0036487D01*
X0144892Y0037085D02*
X0156391Y0037085D01*
X0156391Y0037684D02*
X0145490Y0037684D01*
X0146089Y0038282D02*
X0156391Y0038282D01*
X0156391Y0038881D02*
X0146687Y0038881D01*
X0147286Y0039479D02*
X0156391Y0039479D01*
X0156391Y0040078D02*
X0147884Y0040078D01*
X0148483Y0040676D02*
X0156868Y0040676D01*
X0152672Y0044866D02*
X0180567Y0044866D01*
X0179969Y0044267D02*
X0152074Y0044267D01*
X0151475Y0043669D02*
X0179636Y0043669D01*
X0179388Y0043070D02*
X0150877Y0043070D01*
X0150278Y0042472D02*
X0179200Y0042472D01*
X0179200Y0041873D02*
X0149680Y0041873D01*
X0149081Y0041275D02*
X0179200Y0041275D01*
X0179328Y0040676D02*
X0163232Y0040676D01*
X0163709Y0040078D02*
X0179576Y0040078D01*
X0179824Y0039479D02*
X0163709Y0039479D01*
X0163709Y0038881D02*
X0180421Y0038881D01*
X0181079Y0038282D02*
X0163709Y0038282D01*
X0163709Y0037684D02*
X0209635Y0037684D01*
X0209728Y0037776D02*
X0208574Y0036622D01*
X0207950Y0035116D01*
X0207950Y0033484D01*
X0208574Y0031978D01*
X0209728Y0030824D01*
X0211234Y0030200D01*
X0218866Y0030200D01*
X0220372Y0030824D01*
X0221526Y0031978D01*
X0222150Y0033484D01*
X0222150Y0035116D01*
X0221526Y0036622D01*
X0220372Y0037776D01*
X0218866Y0038400D01*
X0211234Y0038400D01*
X0209728Y0037776D01*
X0209037Y0037085D02*
X0163709Y0037085D01*
X0163709Y0036487D02*
X0208518Y0036487D01*
X0208270Y0035888D02*
X0190145Y0035888D01*
X0191589Y0035289D02*
X0208022Y0035289D01*
X0207950Y0034691D02*
X0192207Y0034691D01*
X0192788Y0034092D02*
X0207950Y0034092D01*
X0207950Y0033494D02*
X0193036Y0033494D01*
X0193284Y0032895D02*
X0208194Y0032895D01*
X0208442Y0032297D02*
X0193400Y0032297D01*
X0193400Y0031698D02*
X0208853Y0031698D01*
X0209452Y0031100D02*
X0193400Y0031100D01*
X0193200Y0030501D02*
X0210507Y0030501D01*
X0211234Y0028400D02*
X0209728Y0027776D01*
X0208574Y0026622D01*
X0207950Y0025116D01*
X0207950Y0023484D01*
X0208574Y0021978D01*
X0209728Y0020824D01*
X0211234Y0020200D01*
X0218866Y0020200D01*
X0220372Y0020824D01*
X0221526Y0021978D01*
X0222150Y0023484D01*
X0222150Y0025116D01*
X0221526Y0026622D01*
X0220372Y0027776D01*
X0218866Y0028400D01*
X0211234Y0028400D01*
X0210528Y0028107D02*
X0193811Y0028107D01*
X0194410Y0027509D02*
X0209461Y0027509D01*
X0208862Y0026910D02*
X0195008Y0026910D01*
X0195607Y0026312D02*
X0208446Y0026312D01*
X0208198Y0025713D02*
X0196205Y0025713D01*
X0196804Y0025115D02*
X0207950Y0025115D01*
X0207950Y0024516D02*
X0197402Y0024516D01*
X0198001Y0023918D02*
X0207950Y0023918D01*
X0208018Y0023319D02*
X0198599Y0023319D01*
X0199198Y0022721D02*
X0208266Y0022721D01*
X0208514Y0022122D02*
X0199796Y0022122D01*
X0200395Y0021524D02*
X0209028Y0021524D01*
X0209627Y0020925D02*
X0200993Y0020925D01*
X0201592Y0020327D02*
X0210929Y0020327D01*
X0210106Y0017933D02*
X0203986Y0017933D01*
X0203387Y0018531D02*
X0223600Y0018531D01*
X0223600Y0017933D02*
X0219994Y0017933D01*
X0220814Y0017334D02*
X0223600Y0017334D01*
X0223600Y0016736D02*
X0221413Y0016736D01*
X0221727Y0016137D02*
X0223600Y0016137D01*
X0223600Y0015539D02*
X0221975Y0015539D01*
X0222150Y0014940D02*
X0223600Y0014940D01*
X0223600Y0014342D02*
X0222150Y0014342D01*
X0222150Y0013743D02*
X0223175Y0013743D01*
X0222576Y0013145D02*
X0222009Y0013145D01*
X0221978Y0012546D02*
X0221761Y0012546D01*
X0223600Y0019130D02*
X0202789Y0019130D01*
X0202190Y0019728D02*
X0223600Y0019728D01*
X0223600Y0020327D02*
X0219171Y0020327D01*
X0220473Y0020925D02*
X0223600Y0020925D01*
X0223600Y0021524D02*
X0221072Y0021524D01*
X0221586Y0022122D02*
X0223600Y0022122D01*
X0223600Y0022721D02*
X0221834Y0022721D01*
X0222082Y0023319D02*
X0223600Y0023319D01*
X0223600Y0023918D02*
X0222150Y0023918D01*
X0222150Y0024516D02*
X0223600Y0024516D01*
X0223600Y0025115D02*
X0222150Y0025115D01*
X0221902Y0025713D02*
X0223600Y0025713D01*
X0223600Y0026312D02*
X0221654Y0026312D01*
X0221238Y0026910D02*
X0223600Y0026910D01*
X0223600Y0027509D02*
X0220639Y0027509D01*
X0219572Y0028107D02*
X0223600Y0028107D01*
X0223600Y0028706D02*
X0193212Y0028706D01*
X0192614Y0029304D02*
X0223600Y0029304D01*
X0223600Y0029903D02*
X0192952Y0029903D01*
X0187371Y0026910D02*
X0163709Y0026910D01*
X0163709Y0026312D02*
X0166522Y0026312D01*
X0166734Y0026400D02*
X0165228Y0025776D01*
X0164074Y0024622D01*
X0163450Y0023116D01*
X0163450Y0015484D01*
X0164074Y0013978D01*
X0165228Y0012824D01*
X0166734Y0012200D01*
X0168366Y0012200D01*
X0169872Y0012824D01*
X0171026Y0013978D01*
X0171650Y0015484D01*
X0171650Y0023116D01*
X0171026Y0024622D01*
X0169872Y0025776D01*
X0168366Y0026400D01*
X0166734Y0026400D01*
X0165165Y0025713D02*
X0163127Y0025713D01*
X0163065Y0025651D02*
X0163709Y0026295D01*
X0163709Y0029100D01*
X0180202Y0029100D01*
X0180978Y0028324D01*
X0182484Y0027700D01*
X0186582Y0027700D01*
X0201511Y0012771D01*
X0201511Y0012771D01*
X0202271Y0012011D01*
X0202297Y0012000D01*
X0179650Y0012000D01*
X0179650Y0012732D01*
X0179872Y0012824D01*
X0181026Y0013978D01*
X0181650Y0015484D01*
X0181650Y0023116D01*
X0181026Y0024622D01*
X0179872Y0025776D01*
X0178366Y0026400D01*
X0176734Y0026400D01*
X0175228Y0025776D01*
X0174074Y0024622D01*
X0173450Y0023116D01*
X0173450Y0015484D01*
X0174074Y0013978D01*
X0175228Y0012824D01*
X0175450Y0012732D01*
X0175450Y0012000D01*
X0135250Y0012000D01*
X0135250Y0013289D01*
X0138321Y0013289D01*
X0138965Y0013933D01*
X0138965Y0014896D01*
X0139818Y0015249D01*
X0142829Y0018261D01*
X0143450Y0018882D01*
X0143450Y0015484D01*
X0144074Y0013978D01*
X0145228Y0012824D01*
X0146734Y0012200D01*
X0148366Y0012200D01*
X0149872Y0012824D01*
X0151026Y0013978D01*
X0151650Y0015484D01*
X0151650Y0023116D01*
X0151026Y0024622D01*
X0149872Y0025776D01*
X0148366Y0026400D01*
X0146734Y0026400D01*
X0145228Y0025776D01*
X0144074Y0024622D01*
X0144000Y0024443D01*
X0144000Y0025682D01*
X0144918Y0026600D01*
X0156391Y0026600D01*
X0156391Y0026295D01*
X0156417Y0026269D01*
X0155228Y0025776D01*
X0154074Y0024622D01*
X0153450Y0023116D01*
X0153450Y0015484D01*
X0154074Y0013978D01*
X0155228Y0012824D01*
X0156734Y0012200D01*
X0158366Y0012200D01*
X0159872Y0012824D01*
X0161026Y0013978D01*
X0161650Y0015484D01*
X0161650Y0023116D01*
X0161026Y0024622D01*
X0159997Y0025651D01*
X0163065Y0025651D01*
X0164030Y0024516D02*
X0161070Y0024516D01*
X0161318Y0023918D02*
X0163782Y0023918D01*
X0163534Y0023319D02*
X0161566Y0023319D01*
X0161650Y0022721D02*
X0163450Y0022721D01*
X0163450Y0022122D02*
X0161650Y0022122D01*
X0161650Y0021524D02*
X0163450Y0021524D01*
X0163450Y0020925D02*
X0161650Y0020925D01*
X0161650Y0020327D02*
X0163450Y0020327D01*
X0163450Y0019728D02*
X0161650Y0019728D01*
X0161650Y0019130D02*
X0163450Y0019130D01*
X0163450Y0018531D02*
X0161650Y0018531D01*
X0161650Y0017933D02*
X0163450Y0017933D01*
X0163450Y0017334D02*
X0161650Y0017334D01*
X0161650Y0016736D02*
X0163450Y0016736D01*
X0163450Y0016137D02*
X0161650Y0016137D01*
X0161650Y0015539D02*
X0163450Y0015539D01*
X0163675Y0014940D02*
X0161425Y0014940D01*
X0161177Y0014342D02*
X0163923Y0014342D01*
X0164309Y0013743D02*
X0160791Y0013743D01*
X0160193Y0013145D02*
X0164907Y0013145D01*
X0165899Y0012546D02*
X0159201Y0012546D01*
X0155899Y0012546D02*
X0149201Y0012546D01*
X0150193Y0013145D02*
X0154907Y0013145D01*
X0154309Y0013743D02*
X0150791Y0013743D01*
X0151177Y0014342D02*
X0153923Y0014342D01*
X0153675Y0014940D02*
X0151425Y0014940D01*
X0151650Y0015539D02*
X0153450Y0015539D01*
X0153450Y0016137D02*
X0151650Y0016137D01*
X0151650Y0016736D02*
X0153450Y0016736D01*
X0153450Y0017334D02*
X0151650Y0017334D01*
X0151650Y0017933D02*
X0153450Y0017933D01*
X0153450Y0018531D02*
X0151650Y0018531D01*
X0151650Y0019130D02*
X0153450Y0019130D01*
X0153450Y0019728D02*
X0151650Y0019728D01*
X0151650Y0020327D02*
X0153450Y0020327D01*
X0153450Y0020925D02*
X0151650Y0020925D01*
X0151650Y0021524D02*
X0153450Y0021524D01*
X0153450Y0022122D02*
X0151650Y0022122D01*
X0151650Y0022721D02*
X0153450Y0022721D01*
X0153534Y0023319D02*
X0151566Y0023319D01*
X0151318Y0023918D02*
X0153782Y0023918D01*
X0154030Y0024516D02*
X0151070Y0024516D01*
X0150533Y0025115D02*
X0154567Y0025115D01*
X0155165Y0025713D02*
X0149935Y0025713D01*
X0148578Y0026312D02*
X0156391Y0026312D01*
X0160533Y0025115D02*
X0164567Y0025115D01*
X0163709Y0027509D02*
X0186773Y0027509D01*
X0187970Y0026312D02*
X0178578Y0026312D01*
X0179935Y0025713D02*
X0188568Y0025713D01*
X0189167Y0025115D02*
X0180533Y0025115D01*
X0181070Y0024516D02*
X0189765Y0024516D01*
X0190364Y0023918D02*
X0181318Y0023918D01*
X0181566Y0023319D02*
X0190962Y0023319D01*
X0191561Y0022721D02*
X0181650Y0022721D01*
X0181650Y0022122D02*
X0192159Y0022122D01*
X0192758Y0021524D02*
X0181650Y0021524D01*
X0181650Y0020925D02*
X0193356Y0020925D01*
X0193955Y0020327D02*
X0181650Y0020327D01*
X0181650Y0019728D02*
X0194553Y0019728D01*
X0195152Y0019130D02*
X0181650Y0019130D01*
X0181650Y0018531D02*
X0195750Y0018531D01*
X0196349Y0017933D02*
X0181650Y0017933D01*
X0181650Y0017334D02*
X0196947Y0017334D01*
X0197546Y0016736D02*
X0181650Y0016736D01*
X0181650Y0016137D02*
X0198145Y0016137D01*
X0198743Y0015539D02*
X0181650Y0015539D01*
X0181425Y0014940D02*
X0199342Y0014940D01*
X0199940Y0014342D02*
X0181177Y0014342D01*
X0180791Y0013743D02*
X0200539Y0013743D01*
X0201137Y0013145D02*
X0180193Y0013145D01*
X0179650Y0012546D02*
X0201736Y0012546D01*
X0204584Y0017334D02*
X0209286Y0017334D01*
X0219593Y0030501D02*
X0223600Y0030501D01*
X0223600Y0031100D02*
X0220648Y0031100D01*
X0221247Y0031698D02*
X0223600Y0031698D01*
X0223600Y0032297D02*
X0221658Y0032297D01*
X0221906Y0032895D02*
X0223600Y0032895D01*
X0223600Y0033494D02*
X0222150Y0033494D01*
X0222150Y0034092D02*
X0223600Y0034092D01*
X0223600Y0034691D02*
X0222150Y0034691D01*
X0222078Y0035289D02*
X0223600Y0035289D01*
X0223600Y0035888D02*
X0221830Y0035888D01*
X0221582Y0036487D02*
X0223600Y0036487D01*
X0223600Y0037085D02*
X0221063Y0037085D01*
X0220465Y0037684D02*
X0223600Y0037684D01*
X0223600Y0038282D02*
X0219150Y0038282D01*
X0223600Y0038881D02*
X0192179Y0038881D01*
X0192776Y0039479D02*
X0223600Y0039479D01*
X0210950Y0038282D02*
X0191521Y0038282D01*
X0182455Y0035888D02*
X0163709Y0035888D01*
X0163709Y0035289D02*
X0181011Y0035289D01*
X0180393Y0034691D02*
X0163709Y0034691D01*
X0163709Y0028706D02*
X0180596Y0028706D01*
X0181501Y0028107D02*
X0163709Y0028107D01*
X0168578Y0026312D02*
X0176522Y0026312D01*
X0175165Y0025713D02*
X0169935Y0025713D01*
X0170533Y0025115D02*
X0174567Y0025115D01*
X0174030Y0024516D02*
X0171070Y0024516D01*
X0171318Y0023918D02*
X0173782Y0023918D01*
X0173534Y0023319D02*
X0171566Y0023319D01*
X0171650Y0022721D02*
X0173450Y0022721D01*
X0173450Y0022122D02*
X0171650Y0022122D01*
X0171650Y0021524D02*
X0173450Y0021524D01*
X0173450Y0020925D02*
X0171650Y0020925D01*
X0171650Y0020327D02*
X0173450Y0020327D01*
X0173450Y0019728D02*
X0171650Y0019728D01*
X0171650Y0019130D02*
X0173450Y0019130D01*
X0173450Y0018531D02*
X0171650Y0018531D01*
X0171650Y0017933D02*
X0173450Y0017933D01*
X0173450Y0017334D02*
X0171650Y0017334D01*
X0171650Y0016736D02*
X0173450Y0016736D01*
X0173450Y0016137D02*
X0171650Y0016137D01*
X0171650Y0015539D02*
X0173450Y0015539D01*
X0173675Y0014940D02*
X0171425Y0014940D01*
X0171177Y0014342D02*
X0173923Y0014342D01*
X0174309Y0013743D02*
X0170791Y0013743D01*
X0170193Y0013145D02*
X0174907Y0013145D01*
X0175450Y0012546D02*
X0169201Y0012546D01*
X0145899Y0012546D02*
X0135250Y0012546D01*
X0135250Y0013145D02*
X0144907Y0013145D01*
X0144309Y0013743D02*
X0138775Y0013743D01*
X0138965Y0014342D02*
X0143923Y0014342D01*
X0143675Y0014940D02*
X0139071Y0014940D01*
X0140107Y0015539D02*
X0143450Y0015539D01*
X0143450Y0016137D02*
X0140705Y0016137D01*
X0141304Y0016736D02*
X0143450Y0016736D01*
X0143450Y0017334D02*
X0141903Y0017334D01*
X0142501Y0017933D02*
X0143450Y0017933D01*
X0143450Y0018531D02*
X0143100Y0018531D01*
X0144000Y0024516D02*
X0144030Y0024516D01*
X0144000Y0025115D02*
X0144567Y0025115D01*
X0144032Y0025713D02*
X0145165Y0025713D01*
X0144630Y0026312D02*
X0146522Y0026312D01*
X0140103Y0032297D02*
X0155282Y0032297D01*
X0155880Y0032895D02*
X0140702Y0032895D01*
X0153271Y0045464D02*
X0181432Y0045464D01*
X0190498Y0047858D02*
X0197673Y0047858D01*
X0197075Y0048457D02*
X0191755Y0048457D01*
X0192354Y0049055D02*
X0196476Y0049055D01*
X0195878Y0049654D02*
X0192849Y0049654D01*
X0193097Y0050252D02*
X0195279Y0050252D01*
X0194681Y0050851D02*
X0193345Y0050851D01*
X0193400Y0051449D02*
X0194082Y0051449D01*
X0193484Y0052048D02*
X0193400Y0052048D01*
X0156801Y0065215D02*
X0126300Y0065215D01*
X0126300Y0064617D02*
X0156391Y0064617D01*
X0138890Y0064018D02*
X0126300Y0064018D01*
X0126300Y0063420D02*
X0138291Y0063420D01*
X0137692Y0062821D02*
X0126300Y0062821D01*
X0126300Y0062222D02*
X0137661Y0062222D01*
X0137661Y0061624D02*
X0126300Y0061624D01*
X0126300Y0061025D02*
X0137296Y0061025D01*
X0136697Y0060427D02*
X0126300Y0060427D01*
X0126300Y0059828D02*
X0136099Y0059828D01*
X0135500Y0059230D02*
X0126300Y0059230D01*
X0126300Y0058631D02*
X0134902Y0058631D01*
X0134303Y0058033D02*
X0126300Y0058033D01*
X0126300Y0057434D02*
X0133705Y0057434D01*
X0133106Y0056836D02*
X0126300Y0056836D01*
X0126300Y0056237D02*
X0132507Y0056237D01*
X0131909Y0055639D02*
X0126300Y0055639D01*
X0126300Y0055040D02*
X0131310Y0055040D01*
X0131150Y0054442D02*
X0126300Y0054442D01*
X0126300Y0053843D02*
X0131150Y0053843D01*
X0131150Y0053245D02*
X0126300Y0053245D01*
X0126300Y0052646D02*
X0131150Y0052646D01*
X0131150Y0052048D02*
X0126300Y0052048D01*
X0126300Y0051449D02*
X0131150Y0051449D01*
X0131150Y0050851D02*
X0126300Y0050851D01*
X0126300Y0050252D02*
X0131150Y0050252D01*
X0131150Y0049654D02*
X0126300Y0049654D01*
X0117327Y0049055D02*
X0099023Y0049055D01*
X0100285Y0049654D02*
X0116065Y0049654D01*
X0116912Y0041873D02*
X0099438Y0041873D01*
X0100457Y0041275D02*
X0115893Y0041275D01*
X0115295Y0040676D02*
X0101055Y0040676D01*
X0101534Y0040078D02*
X0114816Y0040078D01*
X0114568Y0039479D02*
X0101782Y0039479D01*
X0102030Y0038881D02*
X0114320Y0038881D01*
X0114200Y0038282D02*
X0102150Y0038282D01*
X0102150Y0037684D02*
X0114200Y0037684D01*
X0114200Y0037085D02*
X0102150Y0037085D01*
X0102036Y0036487D02*
X0114314Y0036487D01*
X0114562Y0035888D02*
X0101884Y0035888D01*
X0102482Y0035289D02*
X0114810Y0035289D01*
X0115280Y0034691D02*
X0103081Y0034691D01*
X0103100Y0034092D02*
X0115878Y0034092D01*
X0116876Y0033494D02*
X0103100Y0033494D01*
X0095626Y0033494D02*
X0080257Y0033494D01*
X0080855Y0034092D02*
X0094628Y0034092D01*
X0094030Y0034691D02*
X0081454Y0034691D01*
X0082052Y0035289D02*
X0093560Y0035289D01*
X0093312Y0035888D02*
X0082651Y0035888D01*
X0083249Y0036487D02*
X0093064Y0036487D01*
X0092950Y0037085D02*
X0083848Y0037085D01*
X0084446Y0037684D02*
X0092950Y0037684D01*
X0092950Y0038282D02*
X0085045Y0038282D01*
X0085390Y0038881D02*
X0093070Y0038881D01*
X0093318Y0039479D02*
X0085390Y0039479D01*
X0085390Y0040078D02*
X0093566Y0040078D01*
X0094045Y0040676D02*
X0085390Y0040676D01*
X0085390Y0041275D02*
X0094643Y0041275D01*
X0095662Y0041873D02*
X0085390Y0041873D01*
X0073800Y0036800D02*
X0073800Y0034300D01*
X0071300Y0031800D01*
X0046300Y0031800D01*
X0041300Y0026800D01*
X0027550Y0026800D01*
X0022806Y0031544D01*
X0022850Y0037862D02*
X0028036Y0037862D01*
X0028367Y0037951D01*
X0028663Y0038122D01*
X0028905Y0038364D01*
X0029076Y0038660D01*
X0029165Y0038991D01*
X0029165Y0042012D01*
X0022850Y0042012D01*
X0022850Y0042612D01*
X0022250Y0042612D01*
X0022250Y0046761D01*
X0017064Y0046761D01*
X0016733Y0046673D01*
X0016437Y0046502D01*
X0016195Y0046260D01*
X0016024Y0045963D01*
X0015935Y0045633D01*
X0015935Y0042612D01*
X0022250Y0042612D01*
X0022250Y0042012D01*
X0015935Y0042012D01*
X0015935Y0038991D01*
X0016024Y0038660D01*
X0016195Y0038364D01*
X0016437Y0038122D01*
X0016733Y0037951D01*
X0017064Y0037862D01*
X0022250Y0037862D01*
X0022250Y0042012D01*
X0022850Y0042012D01*
X0022850Y0037862D01*
X0022850Y0038282D02*
X0022250Y0038282D01*
X0022250Y0038881D02*
X0022850Y0038881D01*
X0022850Y0039479D02*
X0022250Y0039479D01*
X0022250Y0040078D02*
X0022850Y0040078D01*
X0022850Y0040676D02*
X0022250Y0040676D01*
X0022250Y0041275D02*
X0022850Y0041275D01*
X0022850Y0041873D02*
X0022250Y0041873D01*
X0022550Y0042312D02*
X0032698Y0042312D01*
X0035719Y0039290D01*
X0035419Y0039479D02*
X0029165Y0039479D01*
X0029165Y0040078D02*
X0031663Y0040078D01*
X0031663Y0039590D02*
X0035419Y0039590D01*
X0035419Y0042559D01*
X0032792Y0042559D01*
X0032462Y0042470D01*
X0032165Y0042299D01*
X0031923Y0042057D01*
X0031752Y0041760D01*
X0031663Y0041430D01*
X0031663Y0039590D01*
X0031663Y0038881D02*
X0029135Y0038881D01*
X0028823Y0038282D02*
X0031663Y0038282D01*
X0031663Y0037684D02*
X0012325Y0037684D01*
X0012325Y0038282D02*
X0016277Y0038282D01*
X0015965Y0038881D02*
X0012325Y0038881D01*
X0012325Y0039479D02*
X0015935Y0039479D01*
X0015935Y0040078D02*
X0012325Y0040078D01*
X0012325Y0040676D02*
X0015935Y0040676D01*
X0015935Y0041275D02*
X0012325Y0041275D01*
X0012325Y0041873D02*
X0015935Y0041873D01*
X0015935Y0043070D02*
X0012325Y0043070D01*
X0012325Y0042472D02*
X0022250Y0042472D01*
X0022250Y0043070D02*
X0022850Y0043070D01*
X0022850Y0042612D02*
X0022850Y0046761D01*
X0028036Y0046761D01*
X0028367Y0046673D01*
X0028663Y0046502D01*
X0028905Y0046260D01*
X0029076Y0045963D01*
X0029165Y0045633D01*
X0029165Y0042612D01*
X0022850Y0042612D01*
X0022850Y0042472D02*
X0032467Y0042472D01*
X0031817Y0041873D02*
X0029165Y0041873D01*
X0029165Y0041275D02*
X0031663Y0041275D01*
X0031663Y0040676D02*
X0029165Y0040676D01*
X0029165Y0043070D02*
X0049163Y0043070D01*
X0049080Y0043669D02*
X0029165Y0043669D01*
X0029165Y0044267D02*
X0048482Y0044267D01*
X0047883Y0044866D02*
X0029165Y0044866D01*
X0029165Y0045464D02*
X0047285Y0045464D01*
X0046686Y0046063D02*
X0029019Y0046063D01*
X0028387Y0046661D02*
X0046088Y0046661D01*
X0045489Y0047260D02*
X0012325Y0047260D01*
X0012325Y0047858D02*
X0044891Y0047858D01*
X0044292Y0048457D02*
X0012325Y0048457D01*
X0012325Y0049055D02*
X0043694Y0049055D01*
X0043095Y0049654D02*
X0012325Y0049654D01*
X0012325Y0050252D02*
X0042497Y0050252D01*
X0041898Y0050851D02*
X0012325Y0050851D01*
X0012325Y0051449D02*
X0041299Y0051449D01*
X0040701Y0052048D02*
X0012325Y0052048D01*
X0012325Y0052646D02*
X0031080Y0052646D01*
X0030482Y0053245D02*
X0012358Y0053245D01*
X0012956Y0053843D02*
X0029883Y0053843D01*
X0029285Y0054442D02*
X0013555Y0054442D01*
X0014153Y0055040D02*
X0028686Y0055040D01*
X0028088Y0055639D02*
X0014752Y0055639D01*
X0015350Y0056237D02*
X0027489Y0056237D01*
X0026891Y0056836D02*
X0015949Y0056836D01*
X0016547Y0057434D02*
X0026292Y0057434D01*
X0025694Y0058033D02*
X0017146Y0058033D01*
X0023946Y0058631D02*
X0025095Y0058631D01*
X0024497Y0059230D02*
X0024165Y0059230D01*
X0039750Y0059230D02*
X0040350Y0059230D01*
X0040350Y0059828D02*
X0039750Y0059828D01*
X0039750Y0060427D02*
X0040350Y0060427D01*
X0040350Y0061025D02*
X0039750Y0061025D01*
X0039750Y0061624D02*
X0040350Y0061624D01*
X0040350Y0062222D02*
X0039750Y0062222D01*
X0039750Y0058631D02*
X0040350Y0058631D01*
X0046429Y0058631D02*
X0058981Y0058631D01*
X0058981Y0059230D02*
X0046665Y0059230D01*
X0046665Y0059828D02*
X0058981Y0059828D01*
X0058981Y0060427D02*
X0046665Y0060427D01*
X0046665Y0061025D02*
X0058981Y0061025D01*
X0058981Y0061624D02*
X0046665Y0061624D01*
X0046665Y0062222D02*
X0058981Y0062222D01*
X0058981Y0052646D02*
X0057275Y0052646D01*
X0057275Y0052048D02*
X0058066Y0052048D01*
X0057825Y0051449D02*
X0057275Y0051449D01*
X0057262Y0050851D02*
X0057825Y0050851D01*
X0057825Y0050252D02*
X0056994Y0050252D01*
X0057825Y0049654D02*
X0051297Y0049654D01*
X0051896Y0049055D02*
X0057825Y0049055D01*
X0057825Y0048457D02*
X0056885Y0048457D01*
X0057275Y0047858D02*
X0057825Y0047858D01*
X0057825Y0047260D02*
X0057275Y0047260D01*
X0057275Y0046661D02*
X0057957Y0046661D01*
X0058555Y0046063D02*
X0057275Y0046063D01*
X0053519Y0050252D02*
X0052919Y0050252D01*
X0052919Y0050851D02*
X0053519Y0050851D01*
X0053519Y0051449D02*
X0052919Y0051449D01*
X0052919Y0052048D02*
X0053519Y0052048D01*
X0053519Y0052646D02*
X0052919Y0052646D01*
X0049745Y0042472D02*
X0038971Y0042472D01*
X0036019Y0042472D02*
X0035419Y0042472D01*
X0035419Y0041873D02*
X0036019Y0041873D01*
X0036019Y0041275D02*
X0035419Y0041275D01*
X0035419Y0040676D02*
X0036019Y0040676D01*
X0036019Y0040078D02*
X0035419Y0040078D01*
X0039775Y0038881D02*
X0072200Y0038881D01*
X0071621Y0038282D02*
X0048212Y0038282D01*
X0048437Y0037684D02*
X0071364Y0037684D01*
X0071211Y0037085D02*
X0048437Y0037085D01*
X0048437Y0036487D02*
X0071211Y0036487D01*
X0071375Y0035888D02*
X0048437Y0035888D01*
X0048437Y0035289D02*
X0071649Y0035289D01*
X0071928Y0034691D02*
X0048437Y0034691D01*
X0048437Y0034092D02*
X0071330Y0034092D01*
X0070731Y0033494D02*
X0048437Y0033494D01*
X0044381Y0035550D02*
X0009425Y0035550D01*
X0012325Y0043669D02*
X0015935Y0043669D01*
X0015935Y0044267D02*
X0012325Y0044267D01*
X0012325Y0044866D02*
X0015935Y0044866D01*
X0015935Y0045464D02*
X0012325Y0045464D01*
X0012325Y0046063D02*
X0016081Y0046063D01*
X0016713Y0046661D02*
X0012325Y0046661D01*
X0022250Y0046661D02*
X0022850Y0046661D01*
X0022850Y0046063D02*
X0022250Y0046063D01*
X0022250Y0045464D02*
X0022850Y0045464D01*
X0022850Y0044866D02*
X0022250Y0044866D01*
X0022250Y0044267D02*
X0022850Y0044267D01*
X0022850Y0043669D02*
X0022250Y0043669D01*
X0031663Y0037150D02*
X0031664Y0037150D01*
X0039775Y0037684D02*
X0040325Y0037684D01*
X0040550Y0038282D02*
X0039775Y0038282D01*
X0068968Y0025713D02*
X0073632Y0025713D01*
X0073034Y0025115D02*
X0069566Y0025115D01*
X0070036Y0024516D02*
X0072564Y0024516D01*
X0072316Y0023918D02*
X0070284Y0023918D01*
X0070532Y0023319D02*
X0072068Y0023319D01*
X0072000Y0022721D02*
X0070600Y0022721D01*
X0070600Y0022122D02*
X0072000Y0022122D01*
X0072000Y0021524D02*
X0070600Y0021524D01*
X0070600Y0020925D02*
X0072000Y0020925D01*
X0072000Y0020327D02*
X0070600Y0020327D01*
X0070600Y0019728D02*
X0072000Y0019728D01*
X0072000Y0019130D02*
X0070600Y0019130D01*
X0070600Y0018531D02*
X0072000Y0018531D01*
X0072000Y0017933D02*
X0070600Y0017933D01*
X0070600Y0017334D02*
X0072000Y0017334D01*
X0072000Y0016736D02*
X0070600Y0016736D01*
X0070600Y0016137D02*
X0072000Y0016137D01*
X0072000Y0015539D02*
X0070600Y0015539D01*
X0070391Y0014940D02*
X0072209Y0014940D01*
X0072457Y0014342D02*
X0070143Y0014342D01*
X0069824Y0013743D02*
X0072776Y0013743D01*
X0073374Y0013145D02*
X0069226Y0013145D01*
X0068474Y0012546D02*
X0074126Y0012546D01*
X0078474Y0012546D02*
X0084126Y0012546D01*
X0083374Y0013145D02*
X0079226Y0013145D01*
X0079824Y0013743D02*
X0082776Y0013743D01*
X0082457Y0014342D02*
X0080143Y0014342D01*
X0080391Y0014940D02*
X0082209Y0014940D01*
X0082000Y0015539D02*
X0080600Y0015539D01*
X0080600Y0016137D02*
X0082000Y0016137D01*
X0082000Y0016736D02*
X0080600Y0016736D01*
X0080600Y0017334D02*
X0082000Y0017334D01*
X0082000Y0017933D02*
X0080600Y0017933D01*
X0080600Y0018531D02*
X0082000Y0018531D01*
X0082000Y0019130D02*
X0080600Y0019130D01*
X0080600Y0019728D02*
X0082000Y0019728D01*
X0082000Y0020327D02*
X0080600Y0020327D01*
X0080600Y0020925D02*
X0082000Y0020925D01*
X0082000Y0021524D02*
X0080600Y0021524D01*
X0080600Y0022122D02*
X0082000Y0022122D01*
X0082000Y0022721D02*
X0080600Y0022721D01*
X0080532Y0023319D02*
X0082068Y0023319D01*
X0082316Y0023918D02*
X0080284Y0023918D01*
X0080036Y0024516D02*
X0082564Y0024516D01*
X0083034Y0025115D02*
X0079566Y0025115D01*
X0078968Y0025713D02*
X0083632Y0025713D01*
X0084749Y0026312D02*
X0077851Y0026312D01*
X0087851Y0026312D02*
X0094749Y0026312D01*
X0093632Y0025713D02*
X0088968Y0025713D01*
X0089566Y0025115D02*
X0093034Y0025115D01*
X0092564Y0024516D02*
X0090036Y0024516D01*
X0090284Y0023918D02*
X0092316Y0023918D01*
X0092068Y0023319D02*
X0090532Y0023319D01*
X0090600Y0022721D02*
X0092000Y0022721D01*
X0092000Y0022122D02*
X0090600Y0022122D01*
X0090600Y0021524D02*
X0092000Y0021524D01*
X0092000Y0020925D02*
X0090600Y0020925D01*
X0090600Y0020327D02*
X0092000Y0020327D01*
X0092000Y0019728D02*
X0090600Y0019728D01*
X0090600Y0019130D02*
X0092000Y0019130D01*
X0092000Y0018531D02*
X0090600Y0018531D01*
X0090600Y0017933D02*
X0092000Y0017933D01*
X0092000Y0017334D02*
X0090600Y0017334D01*
X0090600Y0016736D02*
X0092000Y0016736D01*
X0092000Y0016137D02*
X0090600Y0016137D01*
X0090600Y0015539D02*
X0092000Y0015539D01*
X0092209Y0014940D02*
X0090391Y0014940D01*
X0090143Y0014342D02*
X0092457Y0014342D01*
X0092776Y0013743D02*
X0089824Y0013743D01*
X0089226Y0013145D02*
X0093374Y0013145D01*
X0094126Y0012546D02*
X0088474Y0012546D01*
X0106000Y0019728D02*
X0106600Y0019728D01*
X0106600Y0019600D02*
X0106600Y0026600D01*
X0106638Y0026600D01*
X0107307Y0026494D01*
X0107951Y0026285D01*
X0108554Y0025978D01*
X0109101Y0025580D01*
X0109580Y0025101D01*
X0109978Y0024554D01*
X0110285Y0023951D01*
X0110494Y0023307D01*
X0110600Y0022638D01*
X0110600Y0019600D01*
X0106600Y0019600D01*
X0106300Y0019300D02*
X0106300Y0041810D01*
X0102550Y0045560D01*
X0085050Y0061800D02*
X0078800Y0061800D01*
X0076310Y0059310D01*
X0076310Y0055550D01*
X0073800Y0053040D01*
X0073800Y0036800D01*
X0103100Y0026312D02*
X0104732Y0026312D01*
X0103682Y0025713D02*
X0103100Y0025713D01*
X0106000Y0025713D02*
X0106600Y0025713D01*
X0106600Y0025115D02*
X0106000Y0025115D01*
X0106000Y0024516D02*
X0106600Y0024516D01*
X0106600Y0023918D02*
X0106000Y0023918D01*
X0106000Y0023319D02*
X0106600Y0023319D01*
X0106600Y0022721D02*
X0106000Y0022721D01*
X0106000Y0022122D02*
X0106600Y0022122D01*
X0106600Y0021524D02*
X0106000Y0021524D01*
X0106000Y0020925D02*
X0106600Y0020925D01*
X0106600Y0020327D02*
X0106000Y0020327D01*
X0106600Y0019130D02*
X0112000Y0019130D01*
X0112000Y0019728D02*
X0110600Y0019728D01*
X0110600Y0020327D02*
X0112000Y0020327D01*
X0112000Y0020925D02*
X0110600Y0020925D01*
X0110600Y0021524D02*
X0112000Y0021524D01*
X0112000Y0022122D02*
X0110600Y0022122D01*
X0110587Y0022721D02*
X0112000Y0022721D01*
X0112068Y0023319D02*
X0110490Y0023319D01*
X0110296Y0023918D02*
X0112316Y0023918D01*
X0112564Y0024516D02*
X0109997Y0024516D01*
X0109566Y0025115D02*
X0113034Y0025115D01*
X0113632Y0025713D02*
X0108918Y0025713D01*
X0107868Y0026312D02*
X0114749Y0026312D01*
X0106600Y0026312D02*
X0106000Y0026312D01*
X0110600Y0018531D02*
X0112000Y0018531D01*
X0112000Y0017933D02*
X0110600Y0017933D01*
X0110600Y0017334D02*
X0112000Y0017334D01*
X0112000Y0016736D02*
X0110600Y0016736D01*
X0110600Y0016137D02*
X0112000Y0016137D01*
X0112000Y0015539D02*
X0110533Y0015539D01*
X0110379Y0014940D02*
X0112209Y0014940D01*
X0112457Y0014342D02*
X0110128Y0014342D01*
X0109757Y0013743D02*
X0112776Y0013743D01*
X0113374Y0013145D02*
X0109226Y0013145D01*
X0108404Y0012546D02*
X0114126Y0012546D01*
X0085050Y0061800D02*
X0087550Y0064300D01*
X0087550Y0068050D01*
X0090040Y0070540D01*
X0093219Y0070540D01*
X0089036Y0071799D02*
X0077173Y0071799D01*
X0078521Y0072397D02*
X0089163Y0072397D01*
X0089163Y0072996D02*
X0081899Y0072996D01*
X0080701Y0072996D02*
X0079120Y0072996D01*
X0083006Y0073594D02*
X0089710Y0073594D01*
X0086043Y0068806D02*
X0078369Y0068806D01*
X0079016Y0068208D02*
X0085950Y0068208D01*
X0085950Y0067609D02*
X0082902Y0067609D01*
X0083497Y0067011D02*
X0085950Y0067011D01*
X0085950Y0066412D02*
X0083745Y0066412D01*
X0083889Y0065814D02*
X0085950Y0065814D01*
X0085950Y0065215D02*
X0083889Y0065215D01*
X0083716Y0064617D02*
X0085604Y0064617D01*
X0085005Y0064018D02*
X0083429Y0064018D01*
X0082831Y0063420D02*
X0084407Y0063420D01*
X0081300Y0065550D02*
X0076300Y0065550D01*
X0079560Y0067609D02*
X0079698Y0067609D01*
X0099150Y0070602D02*
X0100281Y0070602D01*
X0100281Y0071200D02*
X0099150Y0071200D01*
X0099150Y0071799D02*
X0100281Y0071799D01*
X0100281Y0072397D02*
X0099150Y0072397D01*
X0099150Y0072996D02*
X0100281Y0072996D01*
X0100281Y0073594D02*
X0099150Y0073594D01*
X0105937Y0066412D02*
X0116925Y0066412D01*
X0117524Y0065814D02*
X0105937Y0065814D01*
X0105937Y0065215D02*
X0118122Y0065215D01*
X0124700Y0064617D02*
X0105937Y0064617D01*
X0105662Y0064018D02*
X0124700Y0064018D01*
X0114661Y0082572D02*
X0114189Y0082572D01*
X0115160Y0089155D02*
X0108418Y0089155D01*
X0109017Y0089754D02*
X0114370Y0089754D01*
X0082550Y0104300D02*
X0078800Y0104300D01*
X0080043Y0110702D02*
X0171689Y0110702D01*
X0172288Y0111300D02*
X0081174Y0111300D01*
X0082550Y0114300D02*
X0078800Y0114300D01*
X0058810Y0096790D02*
X0057550Y0098050D01*
X0058810Y0096790D02*
X0058810Y0085550D01*
X0059223Y0085550D01*
X0063275Y0081497D01*
X0053655Y0081375D02*
X0051965Y0081375D01*
X0052564Y0081973D02*
X0053056Y0081973D01*
X0040950Y0090353D02*
X0026006Y0090353D01*
X0026282Y0098133D02*
X0037250Y0098133D01*
X0037250Y0098732D02*
X0037850Y0098732D01*
X0037850Y0099330D02*
X0037250Y0099330D01*
X0037250Y0099929D02*
X0037850Y0099929D01*
X0037850Y0100527D02*
X0037250Y0100527D01*
X0037250Y0101126D02*
X0037850Y0101126D01*
X0037850Y0101724D02*
X0037250Y0101724D01*
X0037250Y0102323D02*
X0037850Y0102323D01*
X0037850Y0102921D02*
X0037250Y0102921D01*
X0037250Y0103520D02*
X0037850Y0103520D01*
X0037850Y0104118D02*
X0037250Y0104118D01*
X0037250Y0104717D02*
X0037850Y0104717D01*
X0037850Y0105315D02*
X0037250Y0105315D01*
X0036993Y0105315D02*
X0028534Y0105315D01*
X0028600Y0105155D02*
X0027945Y0106736D01*
X0026736Y0107945D01*
X0025155Y0108600D01*
X0017445Y0108600D01*
X0015864Y0107945D01*
X0014655Y0106736D01*
X0014000Y0105155D01*
X0014000Y0103445D01*
X0014655Y0101864D01*
X0015864Y0100655D01*
X0017445Y0100000D01*
X0025155Y0100000D01*
X0026736Y0100655D01*
X0027945Y0101864D01*
X0028600Y0103445D01*
X0028600Y0105155D01*
X0028600Y0104717D02*
X0035281Y0104717D01*
X0034537Y0104118D02*
X0028600Y0104118D01*
X0028600Y0103520D02*
X0034029Y0103520D01*
X0033677Y0102921D02*
X0028383Y0102921D01*
X0028135Y0102323D02*
X0033442Y0102323D01*
X0033303Y0101724D02*
X0027805Y0101724D01*
X0027207Y0101126D02*
X0033250Y0101126D01*
X0033250Y0100527D02*
X0026428Y0100527D01*
X0028286Y0105914D02*
X0041901Y0105914D01*
X0042500Y0106512D02*
X0028038Y0106512D01*
X0027570Y0107111D02*
X0043098Y0107111D01*
X0043697Y0107709D02*
X0026972Y0107709D01*
X0025861Y0108308D02*
X0044295Y0108308D01*
X0044894Y0108906D02*
X0003850Y0108906D01*
X0003850Y0108308D02*
X0016739Y0108308D01*
X0015628Y0107709D02*
X0003850Y0107709D01*
X0003850Y0107111D02*
X0015030Y0107111D01*
X0014562Y0106512D02*
X0003850Y0106512D01*
X0003850Y0105914D02*
X0014314Y0105914D01*
X0014066Y0105315D02*
X0003850Y0105315D01*
X0003850Y0104717D02*
X0014000Y0104717D01*
X0014000Y0104118D02*
X0003850Y0104118D01*
X0003850Y0103520D02*
X0014000Y0103520D01*
X0014217Y0102921D02*
X0003850Y0102921D01*
X0003850Y0102323D02*
X0014465Y0102323D01*
X0014795Y0101724D02*
X0003850Y0101724D01*
X0003850Y0101126D02*
X0015393Y0101126D01*
X0016172Y0100527D02*
X0003850Y0100527D01*
X0003850Y0099929D02*
X0033250Y0099929D01*
X0033250Y0099330D02*
X0003850Y0099330D01*
X0038107Y0105315D02*
X0041303Y0105315D01*
X0040950Y0104717D02*
X0039819Y0104717D01*
X0040563Y0104118D02*
X0040950Y0104118D01*
X0100557Y0134642D02*
X0101157Y0134642D01*
X0101157Y0135241D02*
X0100557Y0135241D01*
X0100557Y0135839D02*
X0101157Y0135839D01*
X0101157Y0136438D02*
X0100557Y0136438D01*
X0100557Y0137036D02*
X0101157Y0137036D01*
X0101157Y0137635D02*
X0100557Y0137635D01*
X0100557Y0138233D02*
X0101157Y0138233D01*
X0101157Y0138832D02*
X0100557Y0138832D01*
X0125050Y0148050D02*
X0130050Y0148050D01*
X0140050Y0148050D02*
X0145050Y0148050D01*
X0154550Y0137550D02*
X0177550Y0137550D01*
X0179850Y0137635D02*
X0180250Y0137635D01*
X0180250Y0138233D02*
X0179850Y0138233D01*
X0179850Y0138832D02*
X0180250Y0138832D01*
X0180250Y0139430D02*
X0179850Y0139430D01*
X0179850Y0140029D02*
X0180250Y0140029D01*
X0180289Y0140627D02*
X0179811Y0140627D01*
X0179212Y0141226D02*
X0180888Y0141226D01*
X0182550Y0137550D02*
X0182550Y0133050D01*
X0181300Y0131800D01*
X0163800Y0131800D01*
X0161528Y0132847D02*
X0152110Y0132847D01*
X0152708Y0133445D02*
X0161910Y0133445D01*
X0162684Y0134044D02*
X0153307Y0134044D01*
X0153905Y0134642D02*
X0175250Y0134642D01*
X0175250Y0135241D02*
X0154504Y0135241D01*
X0155102Y0135839D02*
X0175250Y0135839D01*
X0175718Y0134044D02*
X0164916Y0134044D01*
X0165690Y0133445D02*
X0180683Y0133445D01*
X0180718Y0134044D02*
X0179382Y0134044D01*
X0179850Y0134642D02*
X0180250Y0134642D01*
X0180250Y0135241D02*
X0179850Y0135241D01*
X0179850Y0135839D02*
X0180250Y0135839D01*
X0180250Y0136438D02*
X0179850Y0136438D01*
X0179850Y0137036D02*
X0180250Y0137036D01*
X0183413Y0131650D02*
X0193887Y0131650D01*
X0194382Y0134044D02*
X0195718Y0134044D01*
X0195250Y0134642D02*
X0194850Y0134642D01*
X0194850Y0135241D02*
X0195250Y0135241D01*
X0195250Y0135839D02*
X0194850Y0135839D01*
X0194850Y0136438D02*
X0195250Y0136438D01*
X0195250Y0137036D02*
X0194850Y0137036D01*
X0194850Y0137635D02*
X0195250Y0137635D01*
X0195250Y0138233D02*
X0194850Y0138233D01*
X0194850Y0138832D02*
X0195250Y0138832D01*
X0195250Y0139430D02*
X0194850Y0139430D01*
X0194850Y0140029D02*
X0195250Y0140029D01*
X0195289Y0140627D02*
X0194811Y0140627D01*
X0194212Y0141226D02*
X0195888Y0141226D01*
X0197550Y0137550D02*
X0197550Y0133050D01*
X0199417Y0133445D02*
X0204284Y0133445D01*
X0204952Y0134044D02*
X0199382Y0134044D01*
X0192550Y0128050D02*
X0165050Y0128050D01*
X0162210Y0129854D02*
X0149117Y0129854D01*
X0149716Y0130453D02*
X0161652Y0130453D01*
X0161404Y0131051D02*
X0150314Y0131051D01*
X0150913Y0131650D02*
X0161300Y0131650D01*
X0161300Y0132248D02*
X0151511Y0132248D01*
X0154550Y0137550D02*
X0142750Y0125750D01*
X0140050Y0125750D01*
X0141875Y0127460D02*
X0142197Y0127460D01*
X0142796Y0128059D02*
X0141009Y0128059D01*
X0161935Y0122672D02*
X0223400Y0122672D01*
X0167500Y0106512D02*
X0164992Y0106512D01*
X0165722Y0105914D02*
X0166901Y0105914D01*
X0011585Y0006561D02*
X0003850Y0006561D01*
X0003850Y0007159D02*
X0010589Y0007159D01*
X0009991Y0007758D02*
X0003850Y0007758D01*
X0003850Y0008356D02*
X0009392Y0008356D01*
X0008794Y0008955D02*
X0003850Y0008955D01*
X0003850Y0009553D02*
X0008195Y0009553D01*
X0007597Y0010152D02*
X0003850Y0010152D01*
X0006300Y0005050D02*
X0010050Y0005050D01*
D24*
X0012550Y0009300D02*
X0009425Y0012425D01*
X0009425Y0035550D01*
X0009425Y0048050D01*
X0009425Y0054413D01*
X0017550Y0062538D01*
X0025290Y0062538D01*
X0032739Y0055089D01*
X0041761Y0055089D01*
X0051290Y0045560D01*
X0061881Y0049300D02*
X0061881Y0064969D01*
X0053800Y0073050D01*
X0040562Y0073050D01*
X0040050Y0073562D02*
X0034538Y0073562D01*
X0021300Y0086800D01*
X0021300Y0094300D01*
X0067550Y0133050D02*
X0078800Y0144300D01*
X0090050Y0144300D01*
X0127550Y0144300D01*
X0216300Y0144300D01*
X0226300Y0134300D01*
X0226300Y0084300D01*
X0226300Y0013050D01*
X0222550Y0009300D01*
X0177550Y0009300D01*
X0132550Y0009300D01*
X0132550Y0017538D01*
X0138288Y0017538D01*
X0141300Y0020550D01*
X0141300Y0026800D01*
X0143800Y0029300D01*
X0156103Y0029300D01*
X0160050Y0033247D01*
X0161497Y0031800D02*
X0186300Y0031800D01*
X0203800Y0014300D01*
X0215050Y0014300D01*
X0215050Y0044300D02*
X0205050Y0044300D01*
X0191300Y0058050D01*
X0190050Y0058050D01*
X0186300Y0061800D01*
X0163997Y0061800D01*
X0160050Y0057853D01*
X0160050Y0056062D02*
X0132550Y0028562D01*
X0132550Y0009300D02*
X0101300Y0009300D01*
X0012550Y0009300D01*
D25*
X0010550Y0005050D02*
X0106300Y0005050D01*
X0122550Y0005050D01*
X0126300Y0005050D01*
X0167550Y0005050D01*
X0227050Y0005050D01*
X0230050Y0008050D01*
X0230050Y0111800D01*
X0230050Y0144300D01*
X0227550Y0146800D01*
X0226300Y0148050D02*
X0140050Y0148050D01*
X0135050Y0148050D01*
X0125050Y0148050D01*
X0120050Y0148050D01*
X0116300Y0148050D01*
X0112550Y0148050D01*
X0108800Y0148050D01*
X0013800Y0148050D01*
X0011300Y0145550D01*
X0005050Y0139300D01*
X0005050Y0134300D01*
X0021300Y0134300D01*
X0005050Y0134300D02*
X0005050Y0073050D01*
X0017038Y0073050D01*
X0017550Y0073562D01*
X0025788Y0073562D01*
X0036812Y0062538D01*
X0040050Y0062538D01*
X0046812Y0062538D01*
X0051300Y0058050D01*
X0053219Y0056131D01*
X0053219Y0053040D01*
X0053219Y0045560D02*
X0051290Y0045560D01*
X0040562Y0073050D02*
X0040050Y0073562D01*
X0005050Y0073050D02*
X0005050Y0055550D01*
X0005050Y0010550D01*
X0010550Y0005050D01*
X0106300Y0019300D02*
X0115562Y0028562D01*
X0122562Y0028562D01*
X0122550Y0028550D01*
X0160050Y0033247D02*
X0161497Y0031800D01*
X0177550Y0019300D02*
X0177550Y0009300D01*
X0160050Y0056062D02*
X0160050Y0057853D01*
X0167550Y0089300D02*
X0163800Y0093050D01*
X0163800Y0104300D01*
X0167550Y0089300D02*
X0208800Y0089300D01*
X0211290Y0086810D01*
X0211290Y0084300D01*
X0211300Y0084290D02*
X0211310Y0084300D01*
X0226300Y0084300D01*
D26*
X0230050Y0111800D03*
X0206300Y0131800D03*
X0226300Y0143050D03*
X0231300Y0143050D03*
X0231300Y0148050D03*
X0226300Y0148050D03*
X0145050Y0148050D03*
X0140050Y0148050D03*
X0135050Y0148050D03*
X0130050Y0148050D03*
X0127550Y0144300D03*
X0125050Y0148050D03*
X0120050Y0148050D03*
X0116300Y0148050D03*
X0112550Y0148050D03*
X0108800Y0148050D03*
X0108800Y0139300D03*
X0090050Y0144300D03*
X0081300Y0129300D03*
X0082550Y0114300D03*
X0082550Y0104300D03*
X0110050Y0106800D03*
X0118800Y0104300D03*
X0126300Y0098050D03*
X0116300Y0091485D03*
X0116300Y0080550D03*
X0112550Y0080550D03*
X0140050Y0061800D03*
X0102550Y0045560D03*
X0118800Y0028550D03*
X0122550Y0028550D03*
X0126300Y0028562D03*
X0122550Y0024800D03*
X0122550Y0021050D03*
X0122550Y0016050D03*
X0122550Y0005050D03*
X0126300Y0005050D03*
X0106300Y0005050D03*
X0073800Y0036800D03*
X0051300Y0058050D03*
X0081300Y0065550D03*
X0081300Y0075550D03*
X0115050Y0114300D03*
X0011300Y0143050D03*
X0006300Y0143050D03*
X0006300Y0148050D03*
X0011300Y0148050D03*
X0005050Y0055550D03*
X0009425Y0048050D03*
X0006300Y0008800D03*
X0006300Y0005050D03*
X0010050Y0005050D03*
X0167550Y0005050D03*
D27*
X0101300Y0009300D02*
X0101300Y0033926D01*
X0097550Y0037676D01*
X0035719Y0031810D02*
X0023072Y0031810D01*
X0022806Y0031544D01*
X0022550Y0031288D01*
X0081300Y0129300D02*
X0086300Y0134300D01*
X0100857Y0134300D01*
X0103800Y0134300D01*
X0108800Y0139300D01*
D28*
X0122562Y0028562D02*
X0126300Y0028562D01*
X0132550Y0028562D01*
M02*
