G75*
%MOIN*%
%OFA0B0*%
%FSLAX25Y25*%
%IPPOS*%
%LPD*%
%AMOC8*
5,1,8,0,0,1.08239X$1,22.5*
%
%ADD10C,0.00000*%
%ADD11R,0.05512X0.03937*%
%ADD12R,0.10630X0.06299*%
%ADD13R,0.04724X0.04724*%
%ADD14R,0.05118X0.05906*%
%ADD15R,0.03150X0.06693*%
%ADD16R,0.06500X0.03937*%
%ADD17R,0.02000X0.05000*%
%ADD18R,0.05118X0.12992*%
D10*
X0002550Y0001800D02*
X0002550Y0151761D01*
X0233751Y0151761D01*
X0233751Y0001800D01*
X0002550Y0001800D01*
D11*
X0035719Y0031810D03*
X0044381Y0035550D03*
X0035719Y0039290D03*
X0053219Y0045560D03*
X0061881Y0049300D03*
X0053219Y0053040D03*
X0093219Y0063060D03*
X0101881Y0066800D03*
X0093219Y0070540D03*
D12*
X0040050Y0073562D03*
X0040050Y0062538D03*
X0017550Y0062538D03*
X0017550Y0073562D03*
X0022550Y0042312D03*
X0022550Y0031288D03*
X0132550Y0028562D03*
X0132550Y0017538D03*
D13*
X0182166Y0074300D03*
X0190434Y0074300D03*
D14*
X0203810Y0084300D03*
X0211290Y0084300D03*
X0121290Y0074300D03*
X0113810Y0074300D03*
X0083790Y0055550D03*
X0076310Y0055550D03*
X0066290Y0085550D03*
X0058810Y0085550D03*
X0048790Y0085550D03*
X0041310Y0085550D03*
D15*
X0100857Y0134300D03*
X0114243Y0134300D03*
D16*
X0199904Y0071849D03*
X0199904Y0059251D03*
X0220196Y0059251D03*
X0220196Y0071849D03*
D17*
X0197550Y0118550D03*
X0192550Y0118550D03*
X0187550Y0118550D03*
X0182550Y0118550D03*
X0177550Y0118550D03*
X0177550Y0137550D03*
X0182550Y0137550D03*
X0187550Y0137550D03*
X0192550Y0137550D03*
X0197550Y0137550D03*
D18*
X0160050Y0057853D03*
X0160050Y0033247D03*
M02*
