G75*
%MOIN*%
%OFA0B0*%
%FSLAX25Y25*%
%IPPOS*%
%LPD*%
%AMOC8*
5,1,8,0,0,1.08239X$1,22.5*
%
%ADD10C,0.00000*%
%ADD11C,0.00600*%
%ADD12C,0.00200*%
%ADD13C,0.00500*%
%ADD14C,0.00800*%
%ADD15C,0.02362*%
D10*
X0002550Y0001800D02*
X0002550Y0151761D01*
X0233751Y0151761D01*
X0233751Y0001800D01*
X0002550Y0001800D01*
D11*
X0021300Y0016800D02*
X0023800Y0014300D01*
X0028800Y0014300D01*
X0031300Y0016800D01*
X0033800Y0014300D01*
X0038800Y0014300D01*
X0041300Y0016800D01*
X0041300Y0021800D01*
X0038800Y0024300D01*
X0033800Y0024300D01*
X0031300Y0021800D01*
X0028800Y0024300D01*
X0023800Y0024300D01*
X0021300Y0021800D01*
X0021300Y0016800D01*
X0031300Y0016800D02*
X0031300Y0021800D01*
X0041300Y0021800D02*
X0043800Y0024300D01*
X0048800Y0024300D01*
X0051300Y0021800D01*
X0053800Y0024300D01*
X0058800Y0024300D01*
X0061300Y0021800D01*
X0063800Y0024300D01*
X0068800Y0024300D01*
X0071300Y0021800D01*
X0071300Y0016800D01*
X0068800Y0014300D01*
X0063800Y0014300D01*
X0061300Y0016800D01*
X0061300Y0021800D01*
X0061300Y0016800D02*
X0058800Y0014300D01*
X0053800Y0014300D01*
X0051300Y0016800D01*
X0051300Y0021800D01*
X0051300Y0016800D02*
X0048800Y0014300D01*
X0043800Y0014300D01*
X0041300Y0016800D01*
X0071300Y0016800D02*
X0073800Y0014300D01*
X0078800Y0014300D01*
X0081300Y0016800D01*
X0083800Y0014300D01*
X0088800Y0014300D01*
X0091300Y0016800D01*
X0093800Y0014300D01*
X0098800Y0014300D01*
X0101300Y0016800D01*
X0101300Y0021800D01*
X0098800Y0024300D01*
X0093800Y0024300D01*
X0091300Y0021800D01*
X0088800Y0024300D01*
X0083800Y0024300D01*
X0081300Y0021800D01*
X0078800Y0024300D01*
X0073800Y0024300D01*
X0071300Y0021800D01*
X0081300Y0021800D02*
X0081300Y0016800D01*
X0091300Y0016800D02*
X0091300Y0021800D01*
X0101300Y0021800D02*
X0103800Y0024300D01*
X0108800Y0024300D01*
X0111300Y0021800D01*
X0113800Y0024300D01*
X0118800Y0024300D01*
X0121300Y0021800D01*
X0121300Y0016800D01*
X0118800Y0014300D01*
X0113800Y0014300D01*
X0111300Y0016800D01*
X0111300Y0021800D01*
X0111300Y0016800D02*
X0108800Y0014300D01*
X0103800Y0014300D01*
X0101300Y0016800D01*
X0142550Y0016800D02*
X0145050Y0014300D01*
X0150050Y0014300D01*
X0152550Y0016800D01*
X0155050Y0014300D01*
X0160050Y0014300D01*
X0162550Y0016800D01*
X0165050Y0014300D01*
X0170050Y0014300D01*
X0172550Y0016800D01*
X0175050Y0014300D01*
X0180050Y0014300D01*
X0182550Y0016800D01*
X0182550Y0021800D01*
X0180050Y0024300D01*
X0175050Y0024300D01*
X0172550Y0021800D01*
X0170050Y0024300D01*
X0165050Y0024300D01*
X0162550Y0021800D01*
X0162550Y0016800D01*
X0162550Y0021800D02*
X0160050Y0024300D01*
X0155050Y0024300D01*
X0152550Y0021800D01*
X0150050Y0024300D01*
X0145050Y0024300D01*
X0142550Y0021800D01*
X0142550Y0016800D01*
X0152550Y0016800D02*
X0152550Y0021800D01*
X0172550Y0021800D02*
X0172550Y0016800D01*
X0171900Y0057450D02*
X0171900Y0060650D01*
X0169700Y0060650D01*
X0162900Y0060650D02*
X0160700Y0060650D01*
X0160700Y0057450D01*
D12*
X0154461Y0050350D02*
X0153972Y0050350D01*
X0154461Y0050350D02*
X0154504Y0050348D01*
X0154546Y0050343D01*
X0154588Y0050333D01*
X0154628Y0050321D01*
X0154668Y0050304D01*
X0154706Y0050284D01*
X0154741Y0050262D01*
X0154775Y0050236D01*
X0154807Y0050207D01*
X0154836Y0050175D01*
X0154862Y0050141D01*
X0154884Y0050106D01*
X0154904Y0050068D01*
X0154921Y0050028D01*
X0154933Y0049988D01*
X0154943Y0049946D01*
X0154948Y0049904D01*
X0154950Y0049861D01*
X0154950Y0048639D01*
X0154948Y0048596D01*
X0154943Y0048554D01*
X0154933Y0048512D01*
X0154921Y0048472D01*
X0154904Y0048432D01*
X0154884Y0048395D01*
X0154862Y0048359D01*
X0154836Y0048325D01*
X0154807Y0048293D01*
X0154775Y0048264D01*
X0154741Y0048238D01*
X0154706Y0048216D01*
X0154668Y0048196D01*
X0154628Y0048179D01*
X0154588Y0048167D01*
X0154546Y0048157D01*
X0154504Y0048152D01*
X0154461Y0048150D01*
X0153972Y0048150D01*
X0153072Y0048150D02*
X0152461Y0048150D01*
X0153072Y0048150D02*
X0153072Y0050350D01*
X0152461Y0050350D01*
X0152413Y0050348D01*
X0152365Y0050342D01*
X0152318Y0050333D01*
X0152272Y0050320D01*
X0152227Y0050303D01*
X0152184Y0050283D01*
X0152142Y0050260D01*
X0152102Y0050233D01*
X0152064Y0050204D01*
X0152029Y0050171D01*
X0151996Y0050136D01*
X0151967Y0050098D01*
X0151940Y0050058D01*
X0151917Y0050016D01*
X0151897Y0049973D01*
X0151880Y0049928D01*
X0151867Y0049882D01*
X0151858Y0049835D01*
X0151852Y0049787D01*
X0151850Y0049739D01*
X0151849Y0049739D02*
X0151849Y0048761D01*
X0151850Y0048761D02*
X0151852Y0048713D01*
X0151858Y0048665D01*
X0151867Y0048618D01*
X0151880Y0048572D01*
X0151897Y0048527D01*
X0151917Y0048484D01*
X0151940Y0048442D01*
X0151967Y0048402D01*
X0151996Y0048364D01*
X0152029Y0048329D01*
X0152064Y0048296D01*
X0152102Y0048267D01*
X0152142Y0048240D01*
X0152184Y0048217D01*
X0152227Y0048197D01*
X0152272Y0048180D01*
X0152318Y0048167D01*
X0152365Y0048158D01*
X0152413Y0048152D01*
X0152461Y0048150D01*
X0150840Y0048150D02*
X0149617Y0048150D01*
X0150229Y0048150D02*
X0150229Y0050350D01*
X0150840Y0049861D01*
X0173361Y0056374D02*
X0174950Y0056374D01*
X0174950Y0057596D02*
X0173361Y0057596D01*
X0173313Y0057594D01*
X0173265Y0057588D01*
X0173218Y0057579D01*
X0173172Y0057566D01*
X0173127Y0057549D01*
X0173084Y0057529D01*
X0173042Y0057506D01*
X0173002Y0057479D01*
X0172964Y0057450D01*
X0172929Y0057417D01*
X0172896Y0057382D01*
X0172867Y0057344D01*
X0172840Y0057304D01*
X0172817Y0057262D01*
X0172797Y0057219D01*
X0172780Y0057174D01*
X0172767Y0057128D01*
X0172758Y0057081D01*
X0172752Y0057033D01*
X0172750Y0056985D01*
X0172752Y0056937D01*
X0172758Y0056889D01*
X0172767Y0056842D01*
X0172780Y0056796D01*
X0172797Y0056751D01*
X0172817Y0056708D01*
X0172840Y0056666D01*
X0172867Y0056626D01*
X0172896Y0056588D01*
X0172929Y0056553D01*
X0172964Y0056520D01*
X0173002Y0056491D01*
X0173042Y0056464D01*
X0173084Y0056441D01*
X0173127Y0056421D01*
X0173172Y0056404D01*
X0173218Y0056391D01*
X0173265Y0056382D01*
X0173313Y0056376D01*
X0173361Y0056374D01*
X0174033Y0058767D02*
X0173850Y0059073D01*
X0173667Y0059378D01*
X0174583Y0059562D02*
X0174611Y0059511D01*
X0174637Y0059459D01*
X0174659Y0059405D01*
X0174678Y0059350D01*
X0174693Y0059294D01*
X0174705Y0059237D01*
X0174714Y0059180D01*
X0174719Y0059122D01*
X0174721Y0059064D01*
X0174719Y0059005D01*
X0174714Y0058948D01*
X0174705Y0058890D01*
X0174950Y0059073D02*
X0172750Y0059073D01*
X0172995Y0059257D02*
X0173003Y0059292D01*
X0173015Y0059327D01*
X0173031Y0059361D01*
X0173050Y0059392D01*
X0173071Y0059422D01*
X0173096Y0059449D01*
X0173123Y0059474D01*
X0173153Y0059496D01*
X0173185Y0059514D01*
X0173218Y0059530D01*
X0173253Y0059542D01*
X0173289Y0059550D01*
X0173325Y0059555D01*
X0173362Y0059556D01*
X0173399Y0059553D01*
X0173435Y0059547D01*
X0173470Y0059537D01*
X0173505Y0059523D01*
X0173537Y0059507D01*
X0173568Y0059487D01*
X0173597Y0059464D01*
X0173623Y0059438D01*
X0173646Y0059409D01*
X0173667Y0059379D01*
X0172995Y0059256D02*
X0172986Y0059198D01*
X0172981Y0059141D01*
X0172979Y0059082D01*
X0172981Y0059024D01*
X0172986Y0058966D01*
X0172995Y0058909D01*
X0173007Y0058852D01*
X0173022Y0058796D01*
X0173041Y0058741D01*
X0173063Y0058687D01*
X0173089Y0058635D01*
X0173117Y0058584D01*
X0174033Y0058767D02*
X0174054Y0058737D01*
X0174077Y0058708D01*
X0174103Y0058682D01*
X0174132Y0058659D01*
X0174163Y0058639D01*
X0174195Y0058623D01*
X0174230Y0058609D01*
X0174265Y0058599D01*
X0174301Y0058593D01*
X0174338Y0058590D01*
X0174375Y0058591D01*
X0174411Y0058596D01*
X0174447Y0058604D01*
X0174482Y0058616D01*
X0174515Y0058632D01*
X0174547Y0058650D01*
X0174577Y0058672D01*
X0174604Y0058697D01*
X0174629Y0058724D01*
X0174650Y0058754D01*
X0174669Y0058785D01*
X0174685Y0058819D01*
X0174697Y0058854D01*
X0174705Y0058889D01*
X0174950Y0060478D02*
X0174950Y0061211D01*
X0174948Y0061254D01*
X0174943Y0061296D01*
X0174933Y0061338D01*
X0174921Y0061378D01*
X0174904Y0061418D01*
X0174884Y0061456D01*
X0174862Y0061491D01*
X0174836Y0061525D01*
X0174807Y0061557D01*
X0174775Y0061586D01*
X0174741Y0061612D01*
X0174706Y0061634D01*
X0174668Y0061654D01*
X0174628Y0061671D01*
X0174588Y0061683D01*
X0174546Y0061693D01*
X0174504Y0061698D01*
X0174461Y0061700D01*
X0174418Y0061698D01*
X0174376Y0061693D01*
X0174334Y0061683D01*
X0174294Y0061671D01*
X0174254Y0061654D01*
X0174217Y0061634D01*
X0174181Y0061612D01*
X0174147Y0061586D01*
X0174115Y0061557D01*
X0174086Y0061525D01*
X0174060Y0061491D01*
X0174038Y0061456D01*
X0174018Y0061418D01*
X0174001Y0061378D01*
X0173989Y0061338D01*
X0173979Y0061296D01*
X0173974Y0061254D01*
X0173972Y0061211D01*
X0173972Y0060722D01*
X0173972Y0061089D02*
X0173970Y0061137D01*
X0173964Y0061185D01*
X0173955Y0061232D01*
X0173942Y0061278D01*
X0173925Y0061323D01*
X0173905Y0061366D01*
X0173882Y0061408D01*
X0173855Y0061448D01*
X0173826Y0061486D01*
X0173793Y0061521D01*
X0173758Y0061554D01*
X0173720Y0061583D01*
X0173680Y0061610D01*
X0173638Y0061633D01*
X0173595Y0061653D01*
X0173550Y0061670D01*
X0173504Y0061683D01*
X0173457Y0061692D01*
X0173409Y0061698D01*
X0173361Y0061700D01*
X0173313Y0061698D01*
X0173265Y0061692D01*
X0173218Y0061683D01*
X0173172Y0061670D01*
X0173127Y0061653D01*
X0173084Y0061633D01*
X0173042Y0061610D01*
X0173002Y0061583D01*
X0172964Y0061554D01*
X0172929Y0061521D01*
X0172896Y0061486D01*
X0172867Y0061448D01*
X0172840Y0061408D01*
X0172817Y0061366D01*
X0172797Y0061323D01*
X0172780Y0061278D01*
X0172767Y0061232D01*
X0172758Y0061185D01*
X0172752Y0061137D01*
X0172750Y0061089D01*
X0172750Y0060478D01*
X0168700Y0071172D02*
X0166500Y0071172D01*
X0167478Y0071172D02*
X0167478Y0071783D01*
X0167478Y0071905D02*
X0166500Y0072394D01*
X0166500Y0073318D02*
X0166500Y0074540D01*
X0166500Y0073929D02*
X0168700Y0073929D01*
X0168211Y0073318D01*
X0168700Y0071783D02*
X0168698Y0071831D01*
X0168692Y0071879D01*
X0168683Y0071926D01*
X0168670Y0071972D01*
X0168653Y0072017D01*
X0168633Y0072060D01*
X0168610Y0072102D01*
X0168583Y0072142D01*
X0168554Y0072180D01*
X0168521Y0072215D01*
X0168486Y0072248D01*
X0168448Y0072277D01*
X0168408Y0072304D01*
X0168366Y0072327D01*
X0168323Y0072347D01*
X0168278Y0072364D01*
X0168232Y0072377D01*
X0168185Y0072386D01*
X0168137Y0072392D01*
X0168089Y0072394D01*
X0168041Y0072392D01*
X0167993Y0072386D01*
X0167946Y0072377D01*
X0167900Y0072364D01*
X0167855Y0072347D01*
X0167812Y0072327D01*
X0167770Y0072304D01*
X0167730Y0072277D01*
X0167692Y0072248D01*
X0167657Y0072215D01*
X0167624Y0072180D01*
X0167595Y0072142D01*
X0167568Y0072102D01*
X0167545Y0072060D01*
X0167525Y0072017D01*
X0167508Y0071972D01*
X0167495Y0071926D01*
X0167486Y0071879D01*
X0167480Y0071831D01*
X0167478Y0071783D01*
X0168700Y0071783D02*
X0168700Y0071172D01*
X0166500Y0075478D02*
X0166500Y0076700D01*
X0166500Y0075478D02*
X0167722Y0076517D01*
X0168700Y0076150D02*
X0168698Y0076098D01*
X0168692Y0076046D01*
X0168683Y0075994D01*
X0168669Y0075944D01*
X0168652Y0075894D01*
X0168631Y0075846D01*
X0168607Y0075800D01*
X0168580Y0075756D01*
X0168549Y0075713D01*
X0168515Y0075673D01*
X0168479Y0075636D01*
X0168439Y0075602D01*
X0168397Y0075570D01*
X0168354Y0075542D01*
X0168308Y0075517D01*
X0168260Y0075495D01*
X0168211Y0075477D01*
X0167722Y0076517D02*
X0167756Y0076550D01*
X0167793Y0076580D01*
X0167833Y0076608D01*
X0167874Y0076632D01*
X0167917Y0076652D01*
X0167962Y0076669D01*
X0168008Y0076683D01*
X0168055Y0076692D01*
X0168102Y0076698D01*
X0168150Y0076700D01*
X0168195Y0076698D01*
X0168241Y0076692D01*
X0168285Y0076683D01*
X0168329Y0076670D01*
X0168371Y0076654D01*
X0168412Y0076634D01*
X0168451Y0076610D01*
X0168488Y0076584D01*
X0168523Y0076555D01*
X0168555Y0076523D01*
X0168584Y0076488D01*
X0168610Y0076451D01*
X0168634Y0076412D01*
X0168654Y0076371D01*
X0168670Y0076329D01*
X0168683Y0076285D01*
X0168692Y0076241D01*
X0168698Y0076195D01*
X0168700Y0076150D01*
X0168600Y0088150D02*
X0166400Y0088150D01*
X0167378Y0088150D02*
X0167378Y0088761D01*
X0167378Y0088883D02*
X0166400Y0089372D01*
X0166400Y0090296D02*
X0166400Y0091518D01*
X0166400Y0090907D02*
X0168600Y0090907D01*
X0168111Y0090296D01*
X0168600Y0088761D02*
X0168598Y0088809D01*
X0168592Y0088857D01*
X0168583Y0088904D01*
X0168570Y0088950D01*
X0168553Y0088995D01*
X0168533Y0089038D01*
X0168510Y0089080D01*
X0168483Y0089120D01*
X0168454Y0089158D01*
X0168421Y0089193D01*
X0168386Y0089226D01*
X0168348Y0089255D01*
X0168308Y0089282D01*
X0168266Y0089305D01*
X0168223Y0089325D01*
X0168178Y0089342D01*
X0168132Y0089355D01*
X0168085Y0089364D01*
X0168037Y0089370D01*
X0167989Y0089372D01*
X0167941Y0089370D01*
X0167893Y0089364D01*
X0167846Y0089355D01*
X0167800Y0089342D01*
X0167755Y0089325D01*
X0167712Y0089305D01*
X0167670Y0089282D01*
X0167630Y0089255D01*
X0167592Y0089226D01*
X0167557Y0089193D01*
X0167524Y0089158D01*
X0167495Y0089120D01*
X0167468Y0089080D01*
X0167445Y0089038D01*
X0167425Y0088995D01*
X0167408Y0088950D01*
X0167395Y0088904D01*
X0167386Y0088857D01*
X0167380Y0088809D01*
X0167378Y0088761D01*
X0168600Y0088761D02*
X0168600Y0088150D01*
X0168111Y0092578D02*
X0168068Y0092580D01*
X0168026Y0092585D01*
X0167984Y0092595D01*
X0167944Y0092607D01*
X0167904Y0092624D01*
X0167867Y0092644D01*
X0167831Y0092666D01*
X0167797Y0092692D01*
X0167765Y0092721D01*
X0167736Y0092753D01*
X0167710Y0092787D01*
X0167688Y0092823D01*
X0167668Y0092860D01*
X0167651Y0092900D01*
X0167639Y0092940D01*
X0167629Y0092982D01*
X0167624Y0093024D01*
X0167622Y0093067D01*
X0167624Y0093110D01*
X0167629Y0093152D01*
X0167639Y0093194D01*
X0167651Y0093234D01*
X0167668Y0093274D01*
X0167688Y0093312D01*
X0167710Y0093347D01*
X0167736Y0093381D01*
X0167765Y0093413D01*
X0167797Y0093442D01*
X0167831Y0093468D01*
X0167867Y0093490D01*
X0167904Y0093510D01*
X0167944Y0093527D01*
X0167984Y0093539D01*
X0168026Y0093549D01*
X0168068Y0093554D01*
X0168111Y0093556D01*
X0168154Y0093554D01*
X0168196Y0093549D01*
X0168238Y0093539D01*
X0168278Y0093527D01*
X0168318Y0093510D01*
X0168356Y0093490D01*
X0168391Y0093468D01*
X0168425Y0093442D01*
X0168457Y0093413D01*
X0168486Y0093381D01*
X0168512Y0093347D01*
X0168534Y0093312D01*
X0168554Y0093274D01*
X0168571Y0093234D01*
X0168583Y0093194D01*
X0168593Y0093152D01*
X0168598Y0093110D01*
X0168600Y0093067D01*
X0168598Y0093024D01*
X0168593Y0092982D01*
X0168583Y0092940D01*
X0168571Y0092900D01*
X0168554Y0092860D01*
X0168534Y0092823D01*
X0168512Y0092787D01*
X0168486Y0092753D01*
X0168457Y0092721D01*
X0168425Y0092692D01*
X0168391Y0092666D01*
X0168356Y0092644D01*
X0168318Y0092624D01*
X0168278Y0092607D01*
X0168238Y0092595D01*
X0168196Y0092585D01*
X0168154Y0092580D01*
X0168111Y0092578D01*
X0167011Y0092456D02*
X0166963Y0092458D01*
X0166915Y0092464D01*
X0166868Y0092473D01*
X0166822Y0092486D01*
X0166777Y0092503D01*
X0166734Y0092523D01*
X0166692Y0092546D01*
X0166652Y0092573D01*
X0166614Y0092602D01*
X0166579Y0092635D01*
X0166546Y0092670D01*
X0166517Y0092708D01*
X0166490Y0092748D01*
X0166467Y0092790D01*
X0166447Y0092833D01*
X0166430Y0092878D01*
X0166417Y0092924D01*
X0166408Y0092971D01*
X0166402Y0093019D01*
X0166400Y0093067D01*
X0166402Y0093115D01*
X0166408Y0093163D01*
X0166417Y0093210D01*
X0166430Y0093256D01*
X0166447Y0093301D01*
X0166467Y0093344D01*
X0166490Y0093386D01*
X0166517Y0093426D01*
X0166546Y0093464D01*
X0166579Y0093499D01*
X0166614Y0093532D01*
X0166652Y0093561D01*
X0166692Y0093588D01*
X0166734Y0093611D01*
X0166777Y0093631D01*
X0166822Y0093648D01*
X0166868Y0093661D01*
X0166915Y0093670D01*
X0166963Y0093676D01*
X0167011Y0093678D01*
X0167059Y0093676D01*
X0167107Y0093670D01*
X0167154Y0093661D01*
X0167200Y0093648D01*
X0167245Y0093631D01*
X0167288Y0093611D01*
X0167330Y0093588D01*
X0167370Y0093561D01*
X0167408Y0093532D01*
X0167443Y0093499D01*
X0167476Y0093464D01*
X0167505Y0093426D01*
X0167532Y0093386D01*
X0167555Y0093344D01*
X0167575Y0093301D01*
X0167592Y0093256D01*
X0167605Y0093210D01*
X0167614Y0093163D01*
X0167620Y0093115D01*
X0167622Y0093067D01*
X0167620Y0093019D01*
X0167614Y0092971D01*
X0167605Y0092924D01*
X0167592Y0092878D01*
X0167575Y0092833D01*
X0167555Y0092790D01*
X0167532Y0092748D01*
X0167505Y0092708D01*
X0167476Y0092670D01*
X0167443Y0092635D01*
X0167408Y0092602D01*
X0167370Y0092573D01*
X0167330Y0092546D01*
X0167288Y0092523D01*
X0167245Y0092503D01*
X0167200Y0092486D01*
X0167154Y0092473D01*
X0167107Y0092464D01*
X0167059Y0092458D01*
X0167011Y0092456D01*
X0160611Y0104400D02*
X0159389Y0104400D01*
X0159346Y0104402D01*
X0159304Y0104407D01*
X0159262Y0104417D01*
X0159222Y0104429D01*
X0159182Y0104446D01*
X0159145Y0104466D01*
X0159109Y0104488D01*
X0159075Y0104514D01*
X0159043Y0104543D01*
X0159014Y0104575D01*
X0158988Y0104609D01*
X0158966Y0104645D01*
X0158946Y0104682D01*
X0158929Y0104722D01*
X0158917Y0104762D01*
X0158907Y0104804D01*
X0158902Y0104846D01*
X0158900Y0104889D01*
X0158900Y0105378D01*
X0158900Y0106817D02*
X0161100Y0107551D01*
X0161100Y0108977D02*
X0158900Y0108244D01*
X0159450Y0108427D02*
X0159450Y0109527D01*
X0158900Y0109711D02*
X0161100Y0108977D01*
X0161100Y0106084D02*
X0158900Y0106817D01*
X0161100Y0104889D02*
X0161098Y0104846D01*
X0161093Y0104804D01*
X0161083Y0104762D01*
X0161071Y0104722D01*
X0161054Y0104682D01*
X0161034Y0104644D01*
X0161012Y0104609D01*
X0160986Y0104575D01*
X0160957Y0104543D01*
X0160925Y0104514D01*
X0160891Y0104488D01*
X0160855Y0104466D01*
X0160818Y0104446D01*
X0160778Y0104429D01*
X0160738Y0104417D01*
X0160696Y0104407D01*
X0160654Y0104402D01*
X0160611Y0104400D01*
X0161100Y0104889D02*
X0161100Y0105378D01*
X0167398Y0132150D02*
X0167887Y0132150D01*
X0167643Y0132150D02*
X0167643Y0134350D01*
X0167887Y0134350D02*
X0167398Y0134350D01*
X0166526Y0133739D02*
X0166526Y0132761D01*
X0166524Y0132713D01*
X0166518Y0132665D01*
X0166509Y0132618D01*
X0166496Y0132572D01*
X0166479Y0132527D01*
X0166459Y0132484D01*
X0166436Y0132442D01*
X0166409Y0132402D01*
X0166380Y0132364D01*
X0166347Y0132329D01*
X0166312Y0132296D01*
X0166274Y0132267D01*
X0166234Y0132240D01*
X0166192Y0132217D01*
X0166149Y0132197D01*
X0166104Y0132180D01*
X0166058Y0132167D01*
X0166011Y0132158D01*
X0165963Y0132152D01*
X0165915Y0132150D01*
X0165867Y0132152D01*
X0165819Y0132158D01*
X0165772Y0132167D01*
X0165726Y0132180D01*
X0165681Y0132197D01*
X0165638Y0132217D01*
X0165596Y0132240D01*
X0165556Y0132267D01*
X0165518Y0132296D01*
X0165483Y0132329D01*
X0165450Y0132364D01*
X0165421Y0132402D01*
X0165394Y0132442D01*
X0165371Y0132484D01*
X0165351Y0132527D01*
X0165334Y0132572D01*
X0165321Y0132618D01*
X0165312Y0132665D01*
X0165306Y0132713D01*
X0165304Y0132761D01*
X0165304Y0133739D01*
X0165306Y0133787D01*
X0165312Y0133835D01*
X0165321Y0133882D01*
X0165334Y0133928D01*
X0165351Y0133973D01*
X0165371Y0134016D01*
X0165394Y0134058D01*
X0165421Y0134098D01*
X0165450Y0134136D01*
X0165483Y0134171D01*
X0165518Y0134204D01*
X0165556Y0134233D01*
X0165596Y0134260D01*
X0165638Y0134283D01*
X0165681Y0134303D01*
X0165726Y0134320D01*
X0165772Y0134333D01*
X0165819Y0134342D01*
X0165867Y0134348D01*
X0165915Y0134350D01*
X0165963Y0134348D01*
X0166011Y0134342D01*
X0166058Y0134333D01*
X0166104Y0134320D01*
X0166149Y0134303D01*
X0166192Y0134283D01*
X0166234Y0134260D01*
X0166274Y0134233D01*
X0166312Y0134204D01*
X0166347Y0134171D01*
X0166380Y0134136D01*
X0166409Y0134098D01*
X0166436Y0134058D01*
X0166459Y0134016D01*
X0166479Y0133973D01*
X0166496Y0133928D01*
X0166509Y0133882D01*
X0166518Y0133835D01*
X0166524Y0133787D01*
X0166526Y0133739D01*
X0168832Y0133739D02*
X0168832Y0132761D01*
X0168834Y0132713D01*
X0168840Y0132665D01*
X0168849Y0132618D01*
X0168862Y0132572D01*
X0168879Y0132527D01*
X0168899Y0132484D01*
X0168922Y0132442D01*
X0168949Y0132402D01*
X0168978Y0132364D01*
X0169011Y0132329D01*
X0169046Y0132296D01*
X0169084Y0132267D01*
X0169124Y0132240D01*
X0169166Y0132217D01*
X0169209Y0132197D01*
X0169254Y0132180D01*
X0169300Y0132167D01*
X0169347Y0132158D01*
X0169395Y0132152D01*
X0169443Y0132150D01*
X0170054Y0132150D01*
X0170054Y0134350D01*
X0169443Y0134350D01*
X0169395Y0134348D01*
X0169347Y0134342D01*
X0169300Y0134333D01*
X0169254Y0134320D01*
X0169209Y0134303D01*
X0169166Y0134283D01*
X0169124Y0134260D01*
X0169084Y0134233D01*
X0169046Y0134204D01*
X0169011Y0134171D01*
X0168978Y0134136D01*
X0168949Y0134098D01*
X0168922Y0134058D01*
X0168899Y0134016D01*
X0168879Y0133973D01*
X0168862Y0133928D01*
X0168849Y0133882D01*
X0168840Y0133835D01*
X0168834Y0133787D01*
X0168832Y0133739D01*
X0170985Y0134350D02*
X0171474Y0132150D01*
X0171963Y0133617D01*
X0172452Y0132150D01*
X0172941Y0134350D01*
X0174644Y0133433D02*
X0174680Y0133456D01*
X0174714Y0133483D01*
X0174746Y0133512D01*
X0174775Y0133544D01*
X0174801Y0133578D01*
X0174824Y0133614D01*
X0174843Y0133653D01*
X0174860Y0133692D01*
X0174872Y0133733D01*
X0174882Y0133775D01*
X0174887Y0133818D01*
X0174889Y0133861D01*
X0174887Y0133904D01*
X0174882Y0133946D01*
X0174872Y0133988D01*
X0174860Y0134028D01*
X0174843Y0134068D01*
X0174823Y0134106D01*
X0174801Y0134141D01*
X0174775Y0134175D01*
X0174746Y0134207D01*
X0174714Y0134236D01*
X0174680Y0134262D01*
X0174645Y0134284D01*
X0174607Y0134304D01*
X0174567Y0134321D01*
X0174527Y0134333D01*
X0174485Y0134343D01*
X0174443Y0134348D01*
X0174400Y0134350D01*
X0174341Y0134348D01*
X0174282Y0134342D01*
X0174224Y0134333D01*
X0174167Y0134320D01*
X0174110Y0134303D01*
X0174055Y0134282D01*
X0174001Y0134259D01*
X0173948Y0134231D01*
X0173898Y0134200D01*
X0173850Y0134167D01*
X0174950Y0132456D02*
X0174905Y0132412D01*
X0174857Y0132372D01*
X0174807Y0132335D01*
X0174754Y0132301D01*
X0174699Y0132270D01*
X0174643Y0132242D01*
X0174585Y0132218D01*
X0174526Y0132197D01*
X0174466Y0132180D01*
X0174404Y0132167D01*
X0174342Y0132158D01*
X0174280Y0132152D01*
X0174217Y0132150D01*
X0174174Y0132152D01*
X0174132Y0132157D01*
X0174090Y0132167D01*
X0174050Y0132179D01*
X0174010Y0132196D01*
X0173973Y0132216D01*
X0173937Y0132238D01*
X0173903Y0132264D01*
X0173871Y0132293D01*
X0173842Y0132325D01*
X0173816Y0132359D01*
X0173794Y0132394D01*
X0173774Y0132432D01*
X0173757Y0132472D01*
X0173745Y0132512D01*
X0173735Y0132554D01*
X0173730Y0132596D01*
X0173728Y0132639D01*
X0173972Y0133067D02*
X0174644Y0133433D01*
X0173972Y0133067D02*
X0173936Y0133044D01*
X0173902Y0133017D01*
X0173870Y0132988D01*
X0173841Y0132956D01*
X0173815Y0132922D01*
X0173792Y0132886D01*
X0173773Y0132847D01*
X0173756Y0132808D01*
X0173744Y0132767D01*
X0173734Y0132725D01*
X0173729Y0132682D01*
X0173727Y0132639D01*
X0186377Y0132150D02*
X0187111Y0133494D01*
X0187599Y0133006D02*
X0186377Y0134350D01*
X0187599Y0134350D02*
X0187599Y0132150D01*
X0188522Y0132150D02*
X0189500Y0132150D01*
X0189500Y0134350D01*
X0190405Y0134350D02*
X0190894Y0134350D01*
X0190937Y0134348D01*
X0190979Y0134343D01*
X0191021Y0134333D01*
X0191061Y0134321D01*
X0191101Y0134304D01*
X0191139Y0134284D01*
X0191174Y0134262D01*
X0191208Y0134236D01*
X0191240Y0134207D01*
X0191269Y0134175D01*
X0191295Y0134141D01*
X0191317Y0134106D01*
X0191337Y0134068D01*
X0191354Y0134028D01*
X0191366Y0133988D01*
X0191376Y0133946D01*
X0191381Y0133904D01*
X0191383Y0133861D01*
X0191382Y0133861D02*
X0191382Y0132639D01*
X0191383Y0132639D02*
X0191381Y0132596D01*
X0191376Y0132554D01*
X0191366Y0132512D01*
X0191354Y0132472D01*
X0191337Y0132432D01*
X0191317Y0132395D01*
X0191295Y0132359D01*
X0191269Y0132325D01*
X0191240Y0132293D01*
X0191208Y0132264D01*
X0191174Y0132238D01*
X0191139Y0132216D01*
X0191101Y0132196D01*
X0191061Y0132179D01*
X0191021Y0132167D01*
X0190979Y0132157D01*
X0190937Y0132152D01*
X0190894Y0132150D01*
X0190405Y0132150D01*
X0192724Y0132150D02*
X0193213Y0133617D01*
X0193702Y0132150D01*
X0194191Y0134350D01*
X0195894Y0133433D02*
X0195930Y0133456D01*
X0195964Y0133483D01*
X0195996Y0133512D01*
X0196025Y0133544D01*
X0196051Y0133578D01*
X0196074Y0133614D01*
X0196093Y0133653D01*
X0196110Y0133692D01*
X0196122Y0133733D01*
X0196132Y0133775D01*
X0196137Y0133818D01*
X0196139Y0133861D01*
X0196137Y0133904D01*
X0196132Y0133946D01*
X0196122Y0133988D01*
X0196110Y0134028D01*
X0196093Y0134068D01*
X0196073Y0134106D01*
X0196051Y0134141D01*
X0196025Y0134175D01*
X0195996Y0134207D01*
X0195964Y0134236D01*
X0195930Y0134262D01*
X0195895Y0134284D01*
X0195857Y0134304D01*
X0195817Y0134321D01*
X0195777Y0134333D01*
X0195735Y0134343D01*
X0195693Y0134348D01*
X0195650Y0134350D01*
X0195591Y0134348D01*
X0195532Y0134342D01*
X0195474Y0134333D01*
X0195417Y0134320D01*
X0195360Y0134303D01*
X0195305Y0134282D01*
X0195251Y0134259D01*
X0195198Y0134231D01*
X0195148Y0134200D01*
X0195100Y0134167D01*
X0196200Y0132456D02*
X0196155Y0132412D01*
X0196107Y0132372D01*
X0196057Y0132335D01*
X0196004Y0132301D01*
X0195949Y0132270D01*
X0195893Y0132242D01*
X0195835Y0132218D01*
X0195776Y0132197D01*
X0195716Y0132180D01*
X0195654Y0132167D01*
X0195592Y0132158D01*
X0195530Y0132152D01*
X0195467Y0132150D01*
X0195424Y0132152D01*
X0195382Y0132157D01*
X0195340Y0132167D01*
X0195300Y0132179D01*
X0195260Y0132196D01*
X0195223Y0132216D01*
X0195187Y0132238D01*
X0195153Y0132264D01*
X0195121Y0132293D01*
X0195092Y0132325D01*
X0195066Y0132359D01*
X0195044Y0132394D01*
X0195024Y0132432D01*
X0195007Y0132472D01*
X0194995Y0132512D01*
X0194985Y0132554D01*
X0194980Y0132596D01*
X0194978Y0132639D01*
X0195222Y0133067D02*
X0195894Y0133433D01*
X0195222Y0133067D02*
X0195186Y0133044D01*
X0195152Y0133017D01*
X0195120Y0132988D01*
X0195091Y0132956D01*
X0195065Y0132922D01*
X0195042Y0132886D01*
X0195023Y0132847D01*
X0195006Y0132808D01*
X0194994Y0132767D01*
X0194984Y0132725D01*
X0194979Y0132682D01*
X0194977Y0132639D01*
X0192724Y0132150D02*
X0192235Y0134350D01*
X0204866Y0134350D02*
X0206088Y0134350D01*
X0205477Y0134350D02*
X0205477Y0132150D01*
X0206788Y0131906D02*
X0207766Y0131906D01*
X0209077Y0132150D02*
X0209077Y0134350D01*
X0209688Y0134350D02*
X0208466Y0134350D01*
X0210362Y0134350D02*
X0211340Y0134350D01*
X0211340Y0132150D01*
X0210362Y0132150D01*
X0210607Y0133372D02*
X0211340Y0133372D01*
X0212526Y0133067D02*
X0213199Y0133433D01*
X0212954Y0134350D02*
X0212895Y0134348D01*
X0212836Y0134342D01*
X0212778Y0134333D01*
X0212721Y0134320D01*
X0212664Y0134303D01*
X0212609Y0134282D01*
X0212555Y0134259D01*
X0212502Y0134231D01*
X0212452Y0134200D01*
X0212404Y0134167D01*
X0213199Y0133433D02*
X0213235Y0133456D01*
X0213269Y0133483D01*
X0213301Y0133512D01*
X0213330Y0133544D01*
X0213356Y0133578D01*
X0213379Y0133614D01*
X0213398Y0133653D01*
X0213415Y0133692D01*
X0213427Y0133733D01*
X0213437Y0133775D01*
X0213442Y0133818D01*
X0213444Y0133861D01*
X0213443Y0133861D02*
X0213441Y0133904D01*
X0213436Y0133946D01*
X0213426Y0133988D01*
X0213414Y0134028D01*
X0213397Y0134068D01*
X0213377Y0134106D01*
X0213355Y0134141D01*
X0213329Y0134175D01*
X0213300Y0134207D01*
X0213268Y0134236D01*
X0213234Y0134262D01*
X0213199Y0134284D01*
X0213161Y0134304D01*
X0213121Y0134321D01*
X0213081Y0134333D01*
X0213039Y0134343D01*
X0212997Y0134348D01*
X0212954Y0134350D01*
X0213504Y0132456D02*
X0213459Y0132412D01*
X0213411Y0132372D01*
X0213361Y0132335D01*
X0213308Y0132301D01*
X0213253Y0132270D01*
X0213197Y0132242D01*
X0213139Y0132218D01*
X0213080Y0132197D01*
X0213020Y0132180D01*
X0212958Y0132167D01*
X0212896Y0132158D01*
X0212834Y0132152D01*
X0212771Y0132150D01*
X0212728Y0132152D01*
X0212686Y0132157D01*
X0212644Y0132167D01*
X0212604Y0132179D01*
X0212564Y0132196D01*
X0212527Y0132216D01*
X0212491Y0132238D01*
X0212457Y0132264D01*
X0212425Y0132293D01*
X0212396Y0132325D01*
X0212370Y0132359D01*
X0212348Y0132394D01*
X0212328Y0132432D01*
X0212311Y0132472D01*
X0212299Y0132512D01*
X0212289Y0132554D01*
X0212284Y0132596D01*
X0212282Y0132639D01*
X0212284Y0132682D01*
X0212289Y0132725D01*
X0212299Y0132767D01*
X0212311Y0132808D01*
X0212328Y0132847D01*
X0212347Y0132886D01*
X0212370Y0132922D01*
X0212396Y0132956D01*
X0212425Y0132988D01*
X0212457Y0133017D01*
X0212491Y0133044D01*
X0212527Y0133067D01*
X0214250Y0132150D02*
X0215228Y0132150D01*
X0215228Y0134350D01*
X0214250Y0134350D01*
X0214495Y0133372D02*
X0215228Y0133372D01*
X0216717Y0133128D02*
X0216228Y0132150D01*
X0216839Y0133128D02*
X0217450Y0133128D01*
X0216839Y0133128D02*
X0216791Y0133130D01*
X0216743Y0133136D01*
X0216696Y0133145D01*
X0216650Y0133158D01*
X0216605Y0133175D01*
X0216562Y0133195D01*
X0216520Y0133218D01*
X0216480Y0133245D01*
X0216442Y0133274D01*
X0216407Y0133307D01*
X0216374Y0133342D01*
X0216345Y0133380D01*
X0216318Y0133420D01*
X0216295Y0133462D01*
X0216275Y0133505D01*
X0216258Y0133550D01*
X0216245Y0133596D01*
X0216236Y0133643D01*
X0216230Y0133691D01*
X0216228Y0133739D01*
X0216230Y0133787D01*
X0216236Y0133835D01*
X0216245Y0133882D01*
X0216258Y0133928D01*
X0216275Y0133973D01*
X0216295Y0134016D01*
X0216318Y0134058D01*
X0216345Y0134098D01*
X0216374Y0134136D01*
X0216407Y0134171D01*
X0216442Y0134204D01*
X0216480Y0134233D01*
X0216520Y0134260D01*
X0216562Y0134283D01*
X0216605Y0134303D01*
X0216650Y0134320D01*
X0216696Y0134333D01*
X0216743Y0134342D01*
X0216791Y0134348D01*
X0216839Y0134350D01*
X0217450Y0134350D01*
X0217450Y0132150D01*
X0137957Y0137489D02*
X0137957Y0138711D01*
X0137955Y0138754D01*
X0137950Y0138796D01*
X0137940Y0138838D01*
X0137928Y0138878D01*
X0137911Y0138918D01*
X0137891Y0138956D01*
X0137869Y0138991D01*
X0137843Y0139025D01*
X0137814Y0139057D01*
X0137782Y0139086D01*
X0137748Y0139112D01*
X0137713Y0139134D01*
X0137675Y0139154D01*
X0137635Y0139171D01*
X0137595Y0139183D01*
X0137553Y0139193D01*
X0137511Y0139198D01*
X0137468Y0139200D01*
X0136979Y0139200D01*
X0136272Y0139200D02*
X0135539Y0137000D01*
X0134806Y0139200D01*
X0134056Y0139200D02*
X0133567Y0139200D01*
X0133811Y0139200D02*
X0133811Y0137000D01*
X0133567Y0137000D02*
X0134056Y0137000D01*
X0132622Y0137000D02*
X0132622Y0139200D01*
X0131400Y0137000D01*
X0131400Y0139200D01*
X0136979Y0137000D02*
X0137468Y0137000D01*
X0137511Y0137002D01*
X0137553Y0137007D01*
X0137595Y0137017D01*
X0137635Y0137029D01*
X0137675Y0137046D01*
X0137713Y0137066D01*
X0137748Y0137088D01*
X0137782Y0137114D01*
X0137814Y0137143D01*
X0137843Y0137175D01*
X0137869Y0137209D01*
X0137891Y0137245D01*
X0137911Y0137282D01*
X0137928Y0137322D01*
X0137940Y0137362D01*
X0137950Y0137404D01*
X0137955Y0137446D01*
X0137957Y0137489D01*
X0119950Y0137389D02*
X0119950Y0138611D01*
X0119948Y0138654D01*
X0119943Y0138696D01*
X0119933Y0138738D01*
X0119921Y0138778D01*
X0119904Y0138818D01*
X0119884Y0138856D01*
X0119862Y0138891D01*
X0119836Y0138925D01*
X0119807Y0138957D01*
X0119775Y0138986D01*
X0119741Y0139012D01*
X0119706Y0139034D01*
X0119668Y0139054D01*
X0119628Y0139071D01*
X0119588Y0139083D01*
X0119546Y0139093D01*
X0119504Y0139098D01*
X0119461Y0139100D01*
X0118972Y0139100D01*
X0118266Y0139100D02*
X0117533Y0136900D01*
X0116799Y0139100D01*
X0115990Y0138611D02*
X0115990Y0137389D01*
X0115988Y0137346D01*
X0115983Y0137304D01*
X0115973Y0137262D01*
X0115961Y0137222D01*
X0115944Y0137182D01*
X0115924Y0137145D01*
X0115902Y0137109D01*
X0115876Y0137075D01*
X0115847Y0137043D01*
X0115815Y0137014D01*
X0115781Y0136988D01*
X0115746Y0136966D01*
X0115708Y0136946D01*
X0115668Y0136929D01*
X0115628Y0136917D01*
X0115586Y0136907D01*
X0115544Y0136902D01*
X0115501Y0136900D01*
X0115012Y0136900D01*
X0115990Y0138611D02*
X0115988Y0138654D01*
X0115983Y0138696D01*
X0115973Y0138738D01*
X0115961Y0138778D01*
X0115944Y0138818D01*
X0115924Y0138856D01*
X0115902Y0138891D01*
X0115876Y0138925D01*
X0115847Y0138957D01*
X0115815Y0138986D01*
X0115781Y0139012D01*
X0115746Y0139034D01*
X0115708Y0139054D01*
X0115668Y0139071D01*
X0115628Y0139083D01*
X0115586Y0139093D01*
X0115544Y0139098D01*
X0115501Y0139100D01*
X0115012Y0139100D01*
X0118972Y0136900D02*
X0119461Y0136900D01*
X0119504Y0136902D01*
X0119546Y0136907D01*
X0119588Y0136917D01*
X0119628Y0136929D01*
X0119668Y0136946D01*
X0119706Y0136966D01*
X0119741Y0136988D01*
X0119775Y0137014D01*
X0119807Y0137043D01*
X0119836Y0137075D01*
X0119862Y0137109D01*
X0119884Y0137145D01*
X0119904Y0137182D01*
X0119921Y0137222D01*
X0119933Y0137262D01*
X0119943Y0137304D01*
X0119948Y0137346D01*
X0119950Y0137389D01*
X0101018Y0137000D02*
X0101018Y0139200D01*
X0100407Y0139200D01*
X0100359Y0139198D01*
X0100311Y0139192D01*
X0100264Y0139183D01*
X0100218Y0139170D01*
X0100173Y0139153D01*
X0100130Y0139133D01*
X0100088Y0139110D01*
X0100048Y0139083D01*
X0100010Y0139054D01*
X0099975Y0139021D01*
X0099942Y0138986D01*
X0099913Y0138948D01*
X0099886Y0138908D01*
X0099863Y0138866D01*
X0099843Y0138823D01*
X0099826Y0138778D01*
X0099813Y0138732D01*
X0099804Y0138685D01*
X0099798Y0138637D01*
X0099796Y0138589D01*
X0099798Y0138541D01*
X0099804Y0138493D01*
X0099813Y0138446D01*
X0099826Y0138400D01*
X0099843Y0138355D01*
X0099863Y0138312D01*
X0099886Y0138270D01*
X0099913Y0138230D01*
X0099942Y0138192D01*
X0099975Y0138157D01*
X0100010Y0138124D01*
X0100048Y0138095D01*
X0100088Y0138068D01*
X0100130Y0138045D01*
X0100173Y0138025D01*
X0100218Y0138008D01*
X0100264Y0137995D01*
X0100311Y0137986D01*
X0100359Y0137980D01*
X0100407Y0137978D01*
X0101018Y0137978D01*
X0100285Y0137978D02*
X0099796Y0137000D01*
X0098872Y0137000D02*
X0098139Y0137000D01*
X0098096Y0137002D01*
X0098054Y0137007D01*
X0098012Y0137017D01*
X0097972Y0137029D01*
X0097932Y0137046D01*
X0097895Y0137066D01*
X0097859Y0137088D01*
X0097825Y0137114D01*
X0097793Y0137143D01*
X0097764Y0137175D01*
X0097738Y0137209D01*
X0097716Y0137244D01*
X0097696Y0137282D01*
X0097679Y0137322D01*
X0097667Y0137362D01*
X0097657Y0137404D01*
X0097652Y0137446D01*
X0097650Y0137489D01*
X0097650Y0137733D01*
X0097652Y0137776D01*
X0097657Y0137818D01*
X0097667Y0137860D01*
X0097679Y0137900D01*
X0097696Y0137940D01*
X0097716Y0137978D01*
X0097738Y0138013D01*
X0097764Y0138047D01*
X0097793Y0138079D01*
X0097825Y0138108D01*
X0097859Y0138134D01*
X0097895Y0138156D01*
X0097932Y0138176D01*
X0097972Y0138193D01*
X0098012Y0138205D01*
X0098054Y0138215D01*
X0098096Y0138220D01*
X0098139Y0138222D01*
X0098872Y0138222D01*
X0098872Y0139200D01*
X0097650Y0139200D01*
X0086200Y0123956D02*
X0086198Y0123895D01*
X0086192Y0123833D01*
X0086183Y0123773D01*
X0086169Y0123713D01*
X0086152Y0123654D01*
X0086131Y0123596D01*
X0086107Y0123540D01*
X0086079Y0123485D01*
X0086048Y0123432D01*
X0086013Y0123381D01*
X0085976Y0123333D01*
X0085935Y0123287D01*
X0085891Y0123243D01*
X0085845Y0123202D01*
X0085797Y0123165D01*
X0085746Y0123130D01*
X0085693Y0123099D01*
X0085638Y0123071D01*
X0085582Y0123047D01*
X0085524Y0123026D01*
X0085465Y0123009D01*
X0085405Y0122995D01*
X0085345Y0122986D01*
X0085283Y0122980D01*
X0085222Y0122978D01*
X0084611Y0122978D01*
X0084563Y0122980D01*
X0084515Y0122986D01*
X0084468Y0122995D01*
X0084422Y0123008D01*
X0084377Y0123025D01*
X0084334Y0123045D01*
X0084292Y0123068D01*
X0084252Y0123095D01*
X0084214Y0123124D01*
X0084179Y0123157D01*
X0084146Y0123192D01*
X0084117Y0123230D01*
X0084090Y0123270D01*
X0084067Y0123312D01*
X0084047Y0123355D01*
X0084030Y0123400D01*
X0084017Y0123446D01*
X0084008Y0123493D01*
X0084002Y0123541D01*
X0084000Y0123589D01*
X0084002Y0123637D01*
X0084008Y0123685D01*
X0084017Y0123732D01*
X0084030Y0123778D01*
X0084047Y0123823D01*
X0084067Y0123866D01*
X0084090Y0123908D01*
X0084117Y0123948D01*
X0084146Y0123986D01*
X0084179Y0124021D01*
X0084214Y0124054D01*
X0084252Y0124083D01*
X0084292Y0124110D01*
X0084334Y0124133D01*
X0084377Y0124153D01*
X0084422Y0124170D01*
X0084468Y0124183D01*
X0084515Y0124192D01*
X0084563Y0124198D01*
X0084611Y0124200D01*
X0084733Y0124200D01*
X0084776Y0124198D01*
X0084818Y0124193D01*
X0084860Y0124183D01*
X0084900Y0124171D01*
X0084940Y0124154D01*
X0084978Y0124134D01*
X0085013Y0124112D01*
X0085047Y0124086D01*
X0085079Y0124057D01*
X0085108Y0124025D01*
X0085134Y0123991D01*
X0085156Y0123956D01*
X0085176Y0123918D01*
X0085193Y0123878D01*
X0085205Y0123838D01*
X0085215Y0123796D01*
X0085220Y0123754D01*
X0085222Y0123711D01*
X0085222Y0122978D01*
X0085222Y0121551D02*
X0085222Y0121062D01*
X0085222Y0121551D02*
X0085224Y0121594D01*
X0085229Y0121636D01*
X0085239Y0121678D01*
X0085251Y0121718D01*
X0085268Y0121758D01*
X0085288Y0121796D01*
X0085310Y0121831D01*
X0085336Y0121865D01*
X0085365Y0121897D01*
X0085397Y0121926D01*
X0085431Y0121952D01*
X0085467Y0121974D01*
X0085504Y0121994D01*
X0085544Y0122011D01*
X0085584Y0122023D01*
X0085626Y0122033D01*
X0085668Y0122038D01*
X0085711Y0122040D01*
X0085754Y0122038D01*
X0085796Y0122033D01*
X0085838Y0122023D01*
X0085878Y0122011D01*
X0085918Y0121994D01*
X0085956Y0121974D01*
X0085991Y0121952D01*
X0086025Y0121926D01*
X0086057Y0121897D01*
X0086086Y0121865D01*
X0086112Y0121831D01*
X0086134Y0121796D01*
X0086154Y0121758D01*
X0086171Y0121718D01*
X0086183Y0121678D01*
X0086193Y0121636D01*
X0086198Y0121594D01*
X0086200Y0121551D01*
X0086200Y0120818D01*
X0085589Y0119808D02*
X0084611Y0119808D01*
X0084563Y0119806D01*
X0084515Y0119800D01*
X0084468Y0119791D01*
X0084422Y0119778D01*
X0084377Y0119761D01*
X0084334Y0119741D01*
X0084292Y0119718D01*
X0084252Y0119691D01*
X0084214Y0119662D01*
X0084179Y0119629D01*
X0084146Y0119594D01*
X0084117Y0119556D01*
X0084090Y0119516D01*
X0084067Y0119474D01*
X0084047Y0119431D01*
X0084030Y0119386D01*
X0084017Y0119340D01*
X0084008Y0119293D01*
X0084002Y0119245D01*
X0084000Y0119197D01*
X0084000Y0118586D01*
X0086200Y0118586D01*
X0086200Y0119197D01*
X0086198Y0119245D01*
X0086192Y0119293D01*
X0086183Y0119340D01*
X0086170Y0119386D01*
X0086153Y0119431D01*
X0086133Y0119474D01*
X0086110Y0119516D01*
X0086083Y0119556D01*
X0086054Y0119594D01*
X0086021Y0119629D01*
X0085986Y0119662D01*
X0085948Y0119691D01*
X0085908Y0119718D01*
X0085866Y0119741D01*
X0085823Y0119761D01*
X0085778Y0119778D01*
X0085732Y0119791D01*
X0085685Y0119800D01*
X0085637Y0119806D01*
X0085589Y0119808D01*
X0084000Y0120818D02*
X0084000Y0121429D01*
X0084002Y0121477D01*
X0084008Y0121525D01*
X0084017Y0121572D01*
X0084030Y0121618D01*
X0084047Y0121663D01*
X0084067Y0121706D01*
X0084090Y0121748D01*
X0084117Y0121788D01*
X0084146Y0121826D01*
X0084179Y0121861D01*
X0084214Y0121894D01*
X0084252Y0121923D01*
X0084292Y0121950D01*
X0084334Y0121973D01*
X0084377Y0121993D01*
X0084422Y0122010D01*
X0084468Y0122023D01*
X0084515Y0122032D01*
X0084563Y0122038D01*
X0084611Y0122040D01*
X0084659Y0122038D01*
X0084707Y0122032D01*
X0084754Y0122023D01*
X0084800Y0122010D01*
X0084845Y0121993D01*
X0084888Y0121973D01*
X0084930Y0121950D01*
X0084970Y0121923D01*
X0085008Y0121894D01*
X0085043Y0121861D01*
X0085076Y0121826D01*
X0085105Y0121788D01*
X0085132Y0121748D01*
X0085155Y0121706D01*
X0085175Y0121663D01*
X0085192Y0121618D01*
X0085205Y0121572D01*
X0085214Y0121525D01*
X0085220Y0121477D01*
X0085222Y0121429D01*
X0086200Y0117685D02*
X0086200Y0117196D01*
X0086198Y0117153D01*
X0086193Y0117111D01*
X0086183Y0117069D01*
X0086171Y0117029D01*
X0086154Y0116989D01*
X0086134Y0116951D01*
X0086112Y0116916D01*
X0086086Y0116882D01*
X0086057Y0116850D01*
X0086025Y0116821D01*
X0085991Y0116795D01*
X0085955Y0116773D01*
X0085918Y0116753D01*
X0085878Y0116736D01*
X0085838Y0116724D01*
X0085796Y0116714D01*
X0085754Y0116709D01*
X0085711Y0116707D01*
X0084489Y0116707D01*
X0084446Y0116709D01*
X0084404Y0116714D01*
X0084362Y0116724D01*
X0084322Y0116736D01*
X0084282Y0116753D01*
X0084245Y0116773D01*
X0084209Y0116795D01*
X0084175Y0116821D01*
X0084143Y0116850D01*
X0084114Y0116882D01*
X0084088Y0116916D01*
X0084066Y0116952D01*
X0084046Y0116989D01*
X0084029Y0117029D01*
X0084017Y0117069D01*
X0084007Y0117111D01*
X0084002Y0117153D01*
X0084000Y0117196D01*
X0084000Y0117685D01*
X0060678Y0122000D02*
X0060678Y0124200D01*
X0060067Y0124200D01*
X0060019Y0124198D01*
X0059971Y0124192D01*
X0059924Y0124183D01*
X0059878Y0124170D01*
X0059833Y0124153D01*
X0059790Y0124133D01*
X0059748Y0124110D01*
X0059708Y0124083D01*
X0059670Y0124054D01*
X0059635Y0124021D01*
X0059602Y0123986D01*
X0059573Y0123948D01*
X0059546Y0123908D01*
X0059523Y0123866D01*
X0059503Y0123823D01*
X0059486Y0123778D01*
X0059473Y0123732D01*
X0059464Y0123685D01*
X0059458Y0123637D01*
X0059456Y0123589D01*
X0059458Y0123541D01*
X0059464Y0123493D01*
X0059473Y0123446D01*
X0059486Y0123400D01*
X0059503Y0123355D01*
X0059523Y0123312D01*
X0059546Y0123270D01*
X0059573Y0123230D01*
X0059602Y0123192D01*
X0059635Y0123157D01*
X0059670Y0123124D01*
X0059708Y0123095D01*
X0059748Y0123068D01*
X0059790Y0123045D01*
X0059833Y0123025D01*
X0059878Y0123008D01*
X0059924Y0122995D01*
X0059971Y0122986D01*
X0060019Y0122980D01*
X0060067Y0122978D01*
X0060678Y0122978D01*
X0059945Y0122978D02*
X0059456Y0122000D01*
X0058532Y0122000D02*
X0057310Y0122000D01*
X0057921Y0122000D02*
X0057921Y0124200D01*
X0058532Y0123711D01*
X0055150Y0123100D02*
X0055152Y0123018D01*
X0055157Y0122936D01*
X0055167Y0122854D01*
X0055180Y0122773D01*
X0055196Y0122692D01*
X0055217Y0122613D01*
X0055241Y0122534D01*
X0055268Y0122456D01*
X0055299Y0122380D01*
X0055333Y0122306D01*
X0055333Y0122305D02*
X0055348Y0122268D01*
X0055366Y0122232D01*
X0055387Y0122198D01*
X0055411Y0122166D01*
X0055438Y0122136D01*
X0055467Y0122109D01*
X0055498Y0122084D01*
X0055532Y0122062D01*
X0055567Y0122044D01*
X0055604Y0122028D01*
X0055642Y0122016D01*
X0055681Y0122007D01*
X0055721Y0122002D01*
X0055761Y0122000D01*
X0055801Y0122002D01*
X0055841Y0122007D01*
X0055880Y0122016D01*
X0055918Y0122028D01*
X0055955Y0122044D01*
X0055990Y0122062D01*
X0056024Y0122084D01*
X0056055Y0122109D01*
X0056084Y0122136D01*
X0056111Y0122166D01*
X0056135Y0122198D01*
X0056156Y0122232D01*
X0056174Y0122268D01*
X0056189Y0122305D01*
X0056250Y0122489D02*
X0055272Y0123711D01*
X0055333Y0123895D02*
X0055348Y0123932D01*
X0055366Y0123968D01*
X0055387Y0124002D01*
X0055411Y0124034D01*
X0055438Y0124064D01*
X0055467Y0124091D01*
X0055498Y0124116D01*
X0055532Y0124138D01*
X0055567Y0124156D01*
X0055604Y0124172D01*
X0055642Y0124184D01*
X0055681Y0124193D01*
X0055721Y0124198D01*
X0055761Y0124200D01*
X0055801Y0124198D01*
X0055841Y0124193D01*
X0055880Y0124184D01*
X0055918Y0124172D01*
X0055955Y0124156D01*
X0055990Y0124138D01*
X0056024Y0124116D01*
X0056055Y0124091D01*
X0056084Y0124064D01*
X0056111Y0124034D01*
X0056135Y0124002D01*
X0056156Y0123968D01*
X0056174Y0123932D01*
X0056189Y0123895D01*
X0055333Y0123894D02*
X0055299Y0123820D01*
X0055268Y0123744D01*
X0055241Y0123666D01*
X0055217Y0123587D01*
X0055196Y0123508D01*
X0055180Y0123427D01*
X0055167Y0123346D01*
X0055157Y0123264D01*
X0055152Y0123182D01*
X0055150Y0123100D01*
X0056372Y0123100D02*
X0056370Y0123182D01*
X0056365Y0123264D01*
X0056355Y0123346D01*
X0056342Y0123427D01*
X0056326Y0123508D01*
X0056305Y0123587D01*
X0056281Y0123666D01*
X0056254Y0123744D01*
X0056223Y0123820D01*
X0056189Y0123894D01*
X0056372Y0123100D02*
X0056370Y0123018D01*
X0056365Y0122936D01*
X0056355Y0122854D01*
X0056342Y0122773D01*
X0056326Y0122692D01*
X0056305Y0122613D01*
X0056281Y0122534D01*
X0056254Y0122456D01*
X0056223Y0122380D01*
X0056189Y0122306D01*
X0041200Y0121900D02*
X0041200Y0124100D01*
X0040589Y0124100D01*
X0040541Y0124098D01*
X0040493Y0124092D01*
X0040446Y0124083D01*
X0040400Y0124070D01*
X0040355Y0124053D01*
X0040312Y0124033D01*
X0040270Y0124010D01*
X0040230Y0123983D01*
X0040192Y0123954D01*
X0040157Y0123921D01*
X0040124Y0123886D01*
X0040095Y0123848D01*
X0040068Y0123808D01*
X0040045Y0123766D01*
X0040025Y0123723D01*
X0040008Y0123678D01*
X0039995Y0123632D01*
X0039986Y0123585D01*
X0039980Y0123537D01*
X0039978Y0123489D01*
X0039980Y0123441D01*
X0039986Y0123393D01*
X0039995Y0123346D01*
X0040008Y0123300D01*
X0040025Y0123255D01*
X0040045Y0123212D01*
X0040068Y0123170D01*
X0040095Y0123130D01*
X0040124Y0123092D01*
X0040157Y0123057D01*
X0040192Y0123024D01*
X0040230Y0122995D01*
X0040270Y0122968D01*
X0040312Y0122945D01*
X0040355Y0122925D01*
X0040400Y0122908D01*
X0040446Y0122895D01*
X0040493Y0122886D01*
X0040541Y0122880D01*
X0040589Y0122878D01*
X0041200Y0122878D01*
X0040467Y0122878D02*
X0039978Y0121900D01*
X0039054Y0121900D02*
X0037832Y0121900D01*
X0038443Y0121900D02*
X0038443Y0124100D01*
X0039054Y0123611D01*
X0036894Y0123611D02*
X0036283Y0124100D01*
X0036283Y0121900D01*
X0036894Y0121900D02*
X0035672Y0121900D01*
X0112073Y0103150D02*
X0113295Y0103150D01*
X0112684Y0103150D02*
X0112684Y0105350D01*
X0113295Y0104861D01*
X0114305Y0105350D02*
X0114305Y0103761D01*
X0114307Y0103713D01*
X0114313Y0103665D01*
X0114322Y0103618D01*
X0114335Y0103572D01*
X0114352Y0103527D01*
X0114372Y0103484D01*
X0114395Y0103442D01*
X0114422Y0103402D01*
X0114451Y0103364D01*
X0114484Y0103329D01*
X0114519Y0103296D01*
X0114557Y0103267D01*
X0114597Y0103240D01*
X0114639Y0103217D01*
X0114682Y0103197D01*
X0114727Y0103180D01*
X0114773Y0103167D01*
X0114820Y0103158D01*
X0114868Y0103152D01*
X0114916Y0103150D01*
X0114964Y0103152D01*
X0115012Y0103158D01*
X0115059Y0103167D01*
X0115105Y0103180D01*
X0115150Y0103197D01*
X0115193Y0103217D01*
X0115235Y0103240D01*
X0115275Y0103267D01*
X0115313Y0103296D01*
X0115348Y0103329D01*
X0115381Y0103364D01*
X0115410Y0103402D01*
X0115437Y0103442D01*
X0115460Y0103484D01*
X0115480Y0103527D01*
X0115497Y0103572D01*
X0115510Y0103618D01*
X0115519Y0103665D01*
X0115525Y0103713D01*
X0115527Y0103761D01*
X0115527Y0105350D01*
X0117457Y0066600D02*
X0118069Y0064400D01*
X0119617Y0064400D02*
X0120840Y0064400D01*
X0120229Y0064400D02*
X0120229Y0066600D01*
X0120840Y0066111D01*
X0121849Y0065989D02*
X0121849Y0065011D01*
X0121850Y0065011D02*
X0121852Y0064963D01*
X0121858Y0064915D01*
X0121867Y0064868D01*
X0121880Y0064822D01*
X0121897Y0064777D01*
X0121917Y0064734D01*
X0121940Y0064692D01*
X0121967Y0064652D01*
X0121996Y0064614D01*
X0122029Y0064579D01*
X0122064Y0064546D01*
X0122102Y0064517D01*
X0122142Y0064490D01*
X0122184Y0064467D01*
X0122227Y0064447D01*
X0122272Y0064430D01*
X0122318Y0064417D01*
X0122365Y0064408D01*
X0122413Y0064402D01*
X0122461Y0064400D01*
X0123072Y0064400D01*
X0123072Y0066600D01*
X0122461Y0066600D01*
X0122413Y0066598D01*
X0122365Y0066592D01*
X0122318Y0066583D01*
X0122272Y0066570D01*
X0122227Y0066553D01*
X0122184Y0066533D01*
X0122142Y0066510D01*
X0122102Y0066483D01*
X0122064Y0066454D01*
X0122029Y0066421D01*
X0121996Y0066386D01*
X0121967Y0066348D01*
X0121940Y0066308D01*
X0121917Y0066266D01*
X0121897Y0066223D01*
X0121880Y0066178D01*
X0121867Y0066132D01*
X0121858Y0066085D01*
X0121852Y0066037D01*
X0121850Y0065989D01*
X0123972Y0066600D02*
X0124461Y0066600D01*
X0124504Y0066598D01*
X0124546Y0066593D01*
X0124588Y0066583D01*
X0124628Y0066571D01*
X0124668Y0066554D01*
X0124706Y0066534D01*
X0124741Y0066512D01*
X0124775Y0066486D01*
X0124807Y0066457D01*
X0124836Y0066425D01*
X0124862Y0066391D01*
X0124884Y0066356D01*
X0124904Y0066318D01*
X0124921Y0066278D01*
X0124933Y0066238D01*
X0124943Y0066196D01*
X0124948Y0066154D01*
X0124950Y0066111D01*
X0124950Y0064889D01*
X0124948Y0064846D01*
X0124943Y0064804D01*
X0124933Y0064762D01*
X0124921Y0064722D01*
X0124904Y0064682D01*
X0124884Y0064645D01*
X0124862Y0064609D01*
X0124836Y0064575D01*
X0124807Y0064543D01*
X0124775Y0064514D01*
X0124741Y0064488D01*
X0124706Y0064466D01*
X0124668Y0064446D01*
X0124628Y0064429D01*
X0124588Y0064417D01*
X0124546Y0064407D01*
X0124504Y0064402D01*
X0124461Y0064400D01*
X0123972Y0064400D01*
X0118680Y0066356D02*
X0118680Y0066600D01*
X0117457Y0066600D01*
X0109768Y0041700D02*
X0109157Y0041700D01*
X0109768Y0041700D02*
X0109768Y0039500D01*
X0109768Y0040478D02*
X0109157Y0040478D01*
X0109035Y0040478D02*
X0108546Y0039500D01*
X0107011Y0039500D02*
X0106400Y0041700D01*
X0107622Y0041700D01*
X0107622Y0041456D01*
X0109157Y0041700D02*
X0109109Y0041698D01*
X0109061Y0041692D01*
X0109014Y0041683D01*
X0108968Y0041670D01*
X0108923Y0041653D01*
X0108880Y0041633D01*
X0108838Y0041610D01*
X0108798Y0041583D01*
X0108760Y0041554D01*
X0108725Y0041521D01*
X0108692Y0041486D01*
X0108663Y0041448D01*
X0108636Y0041408D01*
X0108613Y0041366D01*
X0108593Y0041323D01*
X0108576Y0041278D01*
X0108563Y0041232D01*
X0108554Y0041185D01*
X0108548Y0041137D01*
X0108546Y0041089D01*
X0108548Y0041041D01*
X0108554Y0040993D01*
X0108563Y0040946D01*
X0108576Y0040900D01*
X0108593Y0040855D01*
X0108613Y0040812D01*
X0108636Y0040770D01*
X0108663Y0040730D01*
X0108692Y0040692D01*
X0108725Y0040657D01*
X0108760Y0040624D01*
X0108798Y0040595D01*
X0108838Y0040568D01*
X0108880Y0040545D01*
X0108923Y0040525D01*
X0108968Y0040508D01*
X0109014Y0040495D01*
X0109061Y0040486D01*
X0109109Y0040480D01*
X0109157Y0040478D01*
X0087268Y0040478D02*
X0086657Y0040478D01*
X0086535Y0040478D02*
X0086046Y0039500D01*
X0085122Y0040111D02*
X0085122Y0040722D01*
X0084389Y0040722D01*
X0085122Y0040722D02*
X0085120Y0040783D01*
X0085114Y0040845D01*
X0085105Y0040905D01*
X0085091Y0040965D01*
X0085074Y0041024D01*
X0085053Y0041082D01*
X0085029Y0041138D01*
X0085001Y0041193D01*
X0084970Y0041246D01*
X0084935Y0041297D01*
X0084898Y0041345D01*
X0084857Y0041391D01*
X0084813Y0041435D01*
X0084767Y0041476D01*
X0084719Y0041513D01*
X0084668Y0041548D01*
X0084615Y0041579D01*
X0084560Y0041607D01*
X0084504Y0041631D01*
X0084446Y0041652D01*
X0084387Y0041669D01*
X0084327Y0041683D01*
X0084267Y0041692D01*
X0084205Y0041698D01*
X0084144Y0041700D01*
X0083900Y0040233D02*
X0083900Y0040111D01*
X0083900Y0040233D02*
X0083902Y0040276D01*
X0083907Y0040318D01*
X0083917Y0040360D01*
X0083929Y0040400D01*
X0083946Y0040440D01*
X0083966Y0040478D01*
X0083988Y0040513D01*
X0084014Y0040547D01*
X0084043Y0040579D01*
X0084075Y0040608D01*
X0084109Y0040634D01*
X0084145Y0040656D01*
X0084182Y0040676D01*
X0084222Y0040693D01*
X0084262Y0040705D01*
X0084304Y0040715D01*
X0084346Y0040720D01*
X0084389Y0040722D01*
X0083900Y0040111D02*
X0083902Y0040063D01*
X0083908Y0040015D01*
X0083917Y0039968D01*
X0083930Y0039922D01*
X0083947Y0039877D01*
X0083967Y0039834D01*
X0083990Y0039792D01*
X0084017Y0039752D01*
X0084046Y0039714D01*
X0084079Y0039679D01*
X0084114Y0039646D01*
X0084152Y0039617D01*
X0084192Y0039590D01*
X0084234Y0039567D01*
X0084277Y0039547D01*
X0084322Y0039530D01*
X0084368Y0039517D01*
X0084415Y0039508D01*
X0084463Y0039502D01*
X0084511Y0039500D01*
X0084559Y0039502D01*
X0084607Y0039508D01*
X0084654Y0039517D01*
X0084700Y0039530D01*
X0084745Y0039547D01*
X0084788Y0039567D01*
X0084830Y0039590D01*
X0084870Y0039617D01*
X0084908Y0039646D01*
X0084943Y0039679D01*
X0084976Y0039714D01*
X0085005Y0039752D01*
X0085032Y0039792D01*
X0085055Y0039834D01*
X0085075Y0039877D01*
X0085092Y0039922D01*
X0085105Y0039968D01*
X0085114Y0040015D01*
X0085120Y0040063D01*
X0085122Y0040111D01*
X0086657Y0040478D02*
X0086609Y0040480D01*
X0086561Y0040486D01*
X0086514Y0040495D01*
X0086468Y0040508D01*
X0086423Y0040525D01*
X0086380Y0040545D01*
X0086338Y0040568D01*
X0086298Y0040595D01*
X0086260Y0040624D01*
X0086225Y0040657D01*
X0086192Y0040692D01*
X0086163Y0040730D01*
X0086136Y0040770D01*
X0086113Y0040812D01*
X0086093Y0040855D01*
X0086076Y0040900D01*
X0086063Y0040946D01*
X0086054Y0040993D01*
X0086048Y0041041D01*
X0086046Y0041089D01*
X0086048Y0041137D01*
X0086054Y0041185D01*
X0086063Y0041232D01*
X0086076Y0041278D01*
X0086093Y0041323D01*
X0086113Y0041366D01*
X0086136Y0041408D01*
X0086163Y0041448D01*
X0086192Y0041486D01*
X0086225Y0041521D01*
X0086260Y0041554D01*
X0086298Y0041583D01*
X0086338Y0041610D01*
X0086380Y0041633D01*
X0086423Y0041653D01*
X0086468Y0041670D01*
X0086514Y0041683D01*
X0086561Y0041692D01*
X0086609Y0041698D01*
X0086657Y0041700D01*
X0087268Y0041700D01*
X0087268Y0039500D01*
X0073700Y0039649D02*
X0073700Y0039160D01*
X0073698Y0039117D01*
X0073693Y0039075D01*
X0073683Y0039033D01*
X0073671Y0038993D01*
X0073654Y0038953D01*
X0073634Y0038915D01*
X0073612Y0038880D01*
X0073586Y0038846D01*
X0073557Y0038814D01*
X0073525Y0038785D01*
X0073491Y0038759D01*
X0073455Y0038737D01*
X0073418Y0038717D01*
X0073378Y0038700D01*
X0073338Y0038688D01*
X0073296Y0038678D01*
X0073254Y0038673D01*
X0073211Y0038671D01*
X0071989Y0038671D01*
X0071946Y0038673D01*
X0071904Y0038678D01*
X0071862Y0038688D01*
X0071822Y0038700D01*
X0071782Y0038717D01*
X0071745Y0038737D01*
X0071709Y0038759D01*
X0071675Y0038785D01*
X0071643Y0038814D01*
X0071614Y0038846D01*
X0071588Y0038880D01*
X0071566Y0038916D01*
X0071546Y0038953D01*
X0071529Y0038993D01*
X0071517Y0039033D01*
X0071507Y0039075D01*
X0071502Y0039117D01*
X0071500Y0039160D01*
X0071500Y0039649D01*
X0072111Y0040478D02*
X0072722Y0040478D01*
X0072722Y0041211D01*
X0072722Y0040478D02*
X0072783Y0040480D01*
X0072845Y0040486D01*
X0072905Y0040495D01*
X0072965Y0040509D01*
X0073024Y0040526D01*
X0073082Y0040547D01*
X0073138Y0040571D01*
X0073193Y0040599D01*
X0073246Y0040630D01*
X0073297Y0040665D01*
X0073345Y0040702D01*
X0073391Y0040743D01*
X0073435Y0040787D01*
X0073476Y0040833D01*
X0073513Y0040881D01*
X0073548Y0040932D01*
X0073579Y0040985D01*
X0073607Y0041040D01*
X0073631Y0041096D01*
X0073652Y0041154D01*
X0073669Y0041213D01*
X0073683Y0041273D01*
X0073692Y0041333D01*
X0073698Y0041395D01*
X0073700Y0041456D01*
X0072233Y0041700D02*
X0072111Y0041700D01*
X0072233Y0041700D02*
X0072276Y0041698D01*
X0072318Y0041693D01*
X0072360Y0041683D01*
X0072400Y0041671D01*
X0072440Y0041654D01*
X0072478Y0041634D01*
X0072513Y0041612D01*
X0072547Y0041586D01*
X0072579Y0041557D01*
X0072608Y0041525D01*
X0072634Y0041491D01*
X0072656Y0041456D01*
X0072676Y0041418D01*
X0072693Y0041378D01*
X0072705Y0041338D01*
X0072715Y0041296D01*
X0072720Y0041254D01*
X0072722Y0041211D01*
X0072111Y0041700D02*
X0072063Y0041698D01*
X0072015Y0041692D01*
X0071968Y0041683D01*
X0071922Y0041670D01*
X0071877Y0041653D01*
X0071834Y0041633D01*
X0071792Y0041610D01*
X0071752Y0041583D01*
X0071714Y0041554D01*
X0071679Y0041521D01*
X0071646Y0041486D01*
X0071617Y0041448D01*
X0071590Y0041408D01*
X0071567Y0041366D01*
X0071547Y0041323D01*
X0071530Y0041278D01*
X0071517Y0041232D01*
X0071508Y0041185D01*
X0071502Y0041137D01*
X0071500Y0041089D01*
X0071502Y0041041D01*
X0071508Y0040993D01*
X0071517Y0040946D01*
X0071530Y0040900D01*
X0071547Y0040855D01*
X0071567Y0040812D01*
X0071590Y0040770D01*
X0071617Y0040730D01*
X0071646Y0040692D01*
X0071679Y0040657D01*
X0071714Y0040624D01*
X0071752Y0040595D01*
X0071792Y0040568D01*
X0071834Y0040545D01*
X0071877Y0040525D01*
X0071922Y0040508D01*
X0071968Y0040495D01*
X0072015Y0040486D01*
X0072063Y0040480D01*
X0072111Y0040478D01*
X0038700Y0056139D02*
X0038700Y0057361D01*
X0038698Y0057404D01*
X0038693Y0057446D01*
X0038683Y0057488D01*
X0038671Y0057528D01*
X0038654Y0057568D01*
X0038634Y0057606D01*
X0038612Y0057641D01*
X0038586Y0057675D01*
X0038557Y0057707D01*
X0038525Y0057736D01*
X0038491Y0057762D01*
X0038456Y0057784D01*
X0038418Y0057804D01*
X0038378Y0057821D01*
X0038338Y0057833D01*
X0038296Y0057843D01*
X0038254Y0057848D01*
X0038211Y0057850D01*
X0037722Y0057850D01*
X0036894Y0057850D02*
X0035671Y0057850D01*
X0036283Y0055650D01*
X0037722Y0055650D02*
X0038211Y0055650D01*
X0038254Y0055652D01*
X0038296Y0055657D01*
X0038338Y0055667D01*
X0038378Y0055679D01*
X0038418Y0055696D01*
X0038456Y0055716D01*
X0038491Y0055738D01*
X0038525Y0055764D01*
X0038557Y0055793D01*
X0038586Y0055825D01*
X0038612Y0055859D01*
X0038634Y0055895D01*
X0038654Y0055932D01*
X0038671Y0055972D01*
X0038683Y0056012D01*
X0038693Y0056054D01*
X0038698Y0056096D01*
X0038700Y0056139D01*
X0036894Y0057606D02*
X0036894Y0057850D01*
X0027450Y0057850D02*
X0027450Y0055650D01*
X0027450Y0056628D02*
X0026839Y0056628D01*
X0026717Y0056628D02*
X0026228Y0055650D01*
X0025304Y0056139D02*
X0024082Y0056139D01*
X0024449Y0056628D02*
X0024449Y0055650D01*
X0025304Y0056139D02*
X0024815Y0057850D01*
X0026839Y0057850D02*
X0027450Y0057850D01*
X0026839Y0057850D02*
X0026791Y0057848D01*
X0026743Y0057842D01*
X0026696Y0057833D01*
X0026650Y0057820D01*
X0026605Y0057803D01*
X0026562Y0057783D01*
X0026520Y0057760D01*
X0026480Y0057733D01*
X0026442Y0057704D01*
X0026407Y0057671D01*
X0026374Y0057636D01*
X0026345Y0057598D01*
X0026318Y0057558D01*
X0026295Y0057516D01*
X0026275Y0057473D01*
X0026258Y0057428D01*
X0026245Y0057382D01*
X0026236Y0057335D01*
X0026230Y0057287D01*
X0026228Y0057239D01*
X0026230Y0057191D01*
X0026236Y0057143D01*
X0026245Y0057096D01*
X0026258Y0057050D01*
X0026275Y0057005D01*
X0026295Y0056962D01*
X0026318Y0056920D01*
X0026345Y0056880D01*
X0026374Y0056842D01*
X0026407Y0056807D01*
X0026442Y0056774D01*
X0026480Y0056745D01*
X0026520Y0056718D01*
X0026562Y0056695D01*
X0026605Y0056675D01*
X0026650Y0056658D01*
X0026696Y0056645D01*
X0026743Y0056636D01*
X0026791Y0056630D01*
X0026839Y0056628D01*
X0163035Y0013800D02*
X0163035Y0011600D01*
X0163646Y0011600D02*
X0162424Y0011600D01*
X0163646Y0013311D02*
X0163035Y0013800D01*
X0165051Y0013800D02*
X0165051Y0011600D01*
X0164867Y0011845D02*
X0164832Y0011853D01*
X0164797Y0011865D01*
X0164763Y0011881D01*
X0164732Y0011900D01*
X0164702Y0011921D01*
X0164675Y0011946D01*
X0164650Y0011973D01*
X0164628Y0012003D01*
X0164610Y0012035D01*
X0164594Y0012068D01*
X0164582Y0012103D01*
X0164574Y0012139D01*
X0164569Y0012175D01*
X0164568Y0012212D01*
X0164571Y0012249D01*
X0164577Y0012285D01*
X0164587Y0012320D01*
X0164601Y0012355D01*
X0164617Y0012387D01*
X0164637Y0012418D01*
X0164660Y0012447D01*
X0164686Y0012473D01*
X0164715Y0012496D01*
X0164745Y0012517D01*
X0165051Y0012700D01*
X0165356Y0012883D01*
X0165540Y0011967D02*
X0165489Y0011939D01*
X0165437Y0011913D01*
X0165383Y0011891D01*
X0165328Y0011872D01*
X0165272Y0011857D01*
X0165215Y0011845D01*
X0165158Y0011836D01*
X0165100Y0011831D01*
X0165042Y0011829D01*
X0164983Y0011831D01*
X0164926Y0011836D01*
X0164868Y0011845D01*
X0164562Y0013433D02*
X0164613Y0013461D01*
X0164665Y0013487D01*
X0164719Y0013509D01*
X0164774Y0013528D01*
X0164830Y0013543D01*
X0164887Y0013555D01*
X0164944Y0013564D01*
X0165002Y0013569D01*
X0165060Y0013571D01*
X0165119Y0013569D01*
X0165176Y0013564D01*
X0165234Y0013555D01*
X0165235Y0013555D02*
X0165270Y0013547D01*
X0165305Y0013535D01*
X0165339Y0013519D01*
X0165370Y0013500D01*
X0165400Y0013479D01*
X0165427Y0013454D01*
X0165452Y0013427D01*
X0165474Y0013397D01*
X0165492Y0013365D01*
X0165508Y0013332D01*
X0165520Y0013297D01*
X0165528Y0013261D01*
X0165533Y0013225D01*
X0165534Y0013188D01*
X0165531Y0013151D01*
X0165525Y0013115D01*
X0165515Y0013080D01*
X0165501Y0013045D01*
X0165485Y0013013D01*
X0165465Y0012982D01*
X0165442Y0012953D01*
X0165416Y0012927D01*
X0165387Y0012904D01*
X0165357Y0012883D01*
X0166528Y0012211D02*
X0166528Y0013800D01*
X0167750Y0013800D02*
X0167750Y0012211D01*
X0167748Y0012163D01*
X0167742Y0012115D01*
X0167733Y0012068D01*
X0167720Y0012022D01*
X0167703Y0011977D01*
X0167683Y0011934D01*
X0167660Y0011892D01*
X0167633Y0011852D01*
X0167604Y0011814D01*
X0167571Y0011779D01*
X0167536Y0011746D01*
X0167498Y0011717D01*
X0167458Y0011690D01*
X0167416Y0011667D01*
X0167373Y0011647D01*
X0167328Y0011630D01*
X0167282Y0011617D01*
X0167235Y0011608D01*
X0167187Y0011602D01*
X0167139Y0011600D01*
X0167091Y0011602D01*
X0167043Y0011608D01*
X0166996Y0011617D01*
X0166950Y0011630D01*
X0166905Y0011647D01*
X0166862Y0011667D01*
X0166820Y0011690D01*
X0166780Y0011717D01*
X0166742Y0011746D01*
X0166707Y0011779D01*
X0166674Y0011814D01*
X0166645Y0011852D01*
X0166618Y0011892D01*
X0166595Y0011934D01*
X0166575Y0011977D01*
X0166558Y0012022D01*
X0166545Y0012068D01*
X0166536Y0012115D01*
X0166530Y0012163D01*
X0166528Y0012211D01*
D13*
X0057206Y0030894D02*
X0045394Y0030894D01*
X0045394Y0031879D01*
X0052285Y0039753D02*
X0052287Y0039815D01*
X0052293Y0039878D01*
X0052303Y0039939D01*
X0052317Y0040000D01*
X0052334Y0040060D01*
X0052355Y0040119D01*
X0052381Y0040176D01*
X0052409Y0040231D01*
X0052441Y0040285D01*
X0052477Y0040336D01*
X0052515Y0040386D01*
X0052557Y0040432D01*
X0052601Y0040476D01*
X0052649Y0040517D01*
X0052698Y0040555D01*
X0052750Y0040589D01*
X0052804Y0040620D01*
X0052860Y0040648D01*
X0052918Y0040672D01*
X0052977Y0040693D01*
X0053037Y0040709D01*
X0053098Y0040722D01*
X0053160Y0040731D01*
X0053222Y0040736D01*
X0053285Y0040737D01*
X0053347Y0040734D01*
X0053409Y0040727D01*
X0053471Y0040716D01*
X0053531Y0040701D01*
X0053591Y0040683D01*
X0053649Y0040661D01*
X0053706Y0040635D01*
X0053761Y0040605D01*
X0053814Y0040572D01*
X0053865Y0040536D01*
X0053913Y0040497D01*
X0053959Y0040454D01*
X0054002Y0040409D01*
X0054042Y0040361D01*
X0054079Y0040311D01*
X0054113Y0040258D01*
X0054144Y0040204D01*
X0054170Y0040148D01*
X0054194Y0040090D01*
X0054213Y0040030D01*
X0054229Y0039970D01*
X0054241Y0039908D01*
X0054249Y0039847D01*
X0054253Y0039784D01*
X0054253Y0039722D01*
X0054249Y0039659D01*
X0054241Y0039598D01*
X0054229Y0039536D01*
X0054213Y0039476D01*
X0054194Y0039416D01*
X0054170Y0039358D01*
X0054144Y0039302D01*
X0054113Y0039248D01*
X0054079Y0039195D01*
X0054042Y0039145D01*
X0054002Y0039097D01*
X0053959Y0039052D01*
X0053913Y0039009D01*
X0053865Y0038970D01*
X0053814Y0038934D01*
X0053761Y0038901D01*
X0053706Y0038871D01*
X0053649Y0038845D01*
X0053591Y0038823D01*
X0053531Y0038805D01*
X0053471Y0038790D01*
X0053409Y0038779D01*
X0053347Y0038772D01*
X0053285Y0038769D01*
X0053222Y0038770D01*
X0053160Y0038775D01*
X0053098Y0038784D01*
X0053037Y0038797D01*
X0052977Y0038813D01*
X0052918Y0038834D01*
X0052860Y0038858D01*
X0052804Y0038886D01*
X0052750Y0038917D01*
X0052698Y0038951D01*
X0052649Y0038989D01*
X0052601Y0039030D01*
X0052557Y0039074D01*
X0052515Y0039120D01*
X0052477Y0039170D01*
X0052441Y0039221D01*
X0052409Y0039275D01*
X0052381Y0039330D01*
X0052355Y0039387D01*
X0052334Y0039446D01*
X0052317Y0039506D01*
X0052303Y0039567D01*
X0052293Y0039628D01*
X0052287Y0039691D01*
X0052285Y0039753D01*
X0057206Y0041721D02*
X0057206Y0042706D01*
X0045394Y0042706D01*
X0045394Y0041721D01*
X0057206Y0031879D02*
X0057206Y0030894D01*
D14*
X0105770Y0088770D02*
X0107739Y0088770D01*
X0105770Y0088770D02*
X0105770Y0090739D01*
X0132361Y0088770D02*
X0134330Y0088770D01*
X0134330Y0090739D01*
X0134330Y0115361D02*
X0132361Y0117330D01*
X0107739Y0117330D02*
X0105770Y0117330D01*
X0105770Y0115361D01*
D15*
X0134511Y0117511D03*
M02*
