G75*
%MOIN*%
%OFA0B0*%
%FSLAX25Y25*%
%IPPOS*%
%LPD*%
%AMOC8*
5,1,8,0,0,1.08239X$1,22.5*
%
%ADD10C,0.00000*%
%ADD11R,0.02953X0.00984*%
%ADD12R,0.05906X0.05118*%
%ADD13R,0.05906X0.01102*%
%ADD14R,0.01102X0.05906*%
%ADD15R,0.05118X0.05906*%
%ADD16R,0.03937X0.05512*%
%ADD17R,0.03937X0.04331*%
D10*
X0002550Y0001800D02*
X0002550Y0151761D01*
X0233751Y0151761D01*
X0233751Y0001800D01*
X0002550Y0001800D01*
D11*
X0045001Y0033847D03*
X0045001Y0035816D03*
X0045001Y0037784D03*
X0045001Y0039753D03*
X0057206Y0039753D03*
X0057206Y0037784D03*
X0057206Y0035816D03*
X0057206Y0033847D03*
D12*
X0067550Y0036810D03*
X0067550Y0044290D03*
X0086300Y0045560D03*
X0086300Y0053040D03*
X0107550Y0053040D03*
X0107550Y0045560D03*
X0151300Y0054310D03*
X0151300Y0061790D03*
X0161300Y0086810D03*
X0161300Y0094290D03*
X0153800Y0104310D03*
X0153800Y0111790D03*
X0091300Y0115560D03*
X0091300Y0123040D03*
X0035050Y0050540D03*
X0023800Y0050540D03*
X0023800Y0043060D03*
X0035050Y0043060D03*
D13*
X0103318Y0092223D03*
X0103318Y0094192D03*
X0103318Y0096160D03*
X0103318Y0098129D03*
X0103318Y0100097D03*
X0103318Y0102066D03*
X0103318Y0104034D03*
X0103318Y0106003D03*
X0103318Y0107971D03*
X0103318Y0109940D03*
X0103318Y0111908D03*
X0103318Y0113877D03*
X0136782Y0113877D03*
X0136782Y0111908D03*
X0136782Y0109940D03*
X0136782Y0107971D03*
X0136782Y0106003D03*
X0136782Y0104034D03*
X0136782Y0102066D03*
X0136782Y0100097D03*
X0136782Y0098129D03*
X0136782Y0096160D03*
X0136782Y0094192D03*
X0136782Y0092223D03*
D14*
X0130877Y0086318D03*
X0128908Y0086318D03*
X0126940Y0086318D03*
X0124971Y0086318D03*
X0123003Y0086318D03*
X0121034Y0086318D03*
X0119066Y0086318D03*
X0117097Y0086318D03*
X0115129Y0086318D03*
X0113160Y0086318D03*
X0111192Y0086318D03*
X0109223Y0086318D03*
X0109223Y0119782D03*
X0111192Y0119782D03*
X0113160Y0119782D03*
X0115129Y0119782D03*
X0117097Y0119782D03*
X0119066Y0119782D03*
X0121034Y0119782D03*
X0123003Y0119782D03*
X0124971Y0119782D03*
X0126940Y0119782D03*
X0128908Y0119782D03*
X0130877Y0119782D03*
D15*
X0127560Y0133050D03*
X0135040Y0133050D03*
X0116290Y0133050D03*
X0108810Y0133050D03*
X0097540Y0133050D03*
X0090060Y0133050D03*
X0066290Y0118050D03*
X0058810Y0118050D03*
X0047540Y0118050D03*
X0040060Y0118050D03*
X0115060Y0070550D03*
X0122540Y0070550D03*
X0155060Y0073050D03*
X0162540Y0073050D03*
D16*
X0166300Y0062381D03*
X0162560Y0053719D03*
X0170040Y0053719D03*
D17*
X0075896Y0065550D03*
X0069204Y0065550D03*
X0069204Y0075550D03*
X0075896Y0075550D03*
X0054646Y0075550D03*
X0047954Y0075550D03*
X0047954Y0065550D03*
X0054646Y0065550D03*
M02*
