G75*
%MOIN*%
%OFA0B0*%
%FSLAX25Y25*%
%IPPOS*%
%LPD*%
%AMOC8*
5,1,8,0,0,1.08239X$1,22.5*
%
%ADD10C,0.00000*%
%ADD11C,0.07000*%
%ADD12C,0.06400*%
%ADD13R,0.03353X0.01384*%
%ADD14R,0.06306X0.05518*%
%ADD15R,0.06306X0.01502*%
%ADD16R,0.01502X0.06306*%
%ADD17R,0.05518X0.06306*%
%ADD18R,0.04337X0.05912*%
%ADD19R,0.04337X0.04731*%
%ADD20C,0.05400*%
D10*
X0002550Y0001800D02*
X0002550Y0151761D01*
X0233751Y0151761D01*
X0233751Y0001800D01*
X0002550Y0001800D01*
D11*
X0097550Y0037676D03*
X0118800Y0037676D03*
X0118800Y0053424D03*
X0097550Y0053424D03*
D12*
X0096300Y0022300D02*
X0096300Y0016300D01*
X0086300Y0016300D02*
X0086300Y0022300D01*
X0076300Y0022300D02*
X0076300Y0016300D01*
X0066300Y0016300D02*
X0066300Y0022300D01*
X0056300Y0022300D02*
X0056300Y0016300D01*
X0046300Y0016300D02*
X0046300Y0022300D01*
X0036300Y0022300D02*
X0036300Y0016300D01*
X0026300Y0016300D02*
X0026300Y0022300D01*
X0106300Y0022300D02*
X0106300Y0016300D01*
X0116300Y0016300D02*
X0116300Y0022300D01*
X0147550Y0022300D02*
X0147550Y0016300D01*
X0157550Y0016300D02*
X0157550Y0022300D01*
X0167550Y0022300D02*
X0167550Y0016300D01*
X0177550Y0016300D02*
X0177550Y0022300D01*
X0183300Y0031800D02*
X0189300Y0031800D01*
X0189300Y0041800D02*
X0183300Y0041800D01*
X0183300Y0051800D02*
X0189300Y0051800D01*
X0189300Y0061800D02*
X0183300Y0061800D01*
X0212050Y0044300D02*
X0218050Y0044300D01*
X0218050Y0034300D02*
X0212050Y0034300D01*
X0212050Y0024300D02*
X0218050Y0024300D01*
X0218050Y0014300D02*
X0212050Y0014300D01*
X0067550Y0095050D02*
X0067550Y0101050D01*
X0057550Y0101050D02*
X0057550Y0095050D01*
X0047550Y0095050D02*
X0047550Y0101050D01*
X0037550Y0101050D02*
X0037550Y0095050D01*
X0024300Y0094300D02*
X0018300Y0094300D01*
X0018300Y0104300D02*
X0024300Y0104300D01*
X0024300Y0114300D02*
X0018300Y0114300D01*
X0018300Y0124300D02*
X0024300Y0124300D01*
X0037550Y0130050D02*
X0037550Y0136050D01*
X0047550Y0136050D02*
X0047550Y0130050D01*
X0057550Y0130050D02*
X0057550Y0136050D01*
X0067550Y0136050D02*
X0067550Y0130050D01*
X0024300Y0134300D02*
X0018300Y0134300D01*
D13*
X0045001Y0039753D03*
X0045001Y0037784D03*
X0045001Y0035816D03*
X0045001Y0033847D03*
X0057206Y0033847D03*
X0057206Y0035816D03*
X0057206Y0037784D03*
X0057206Y0039753D03*
D14*
X0067550Y0036810D03*
X0067550Y0044290D03*
X0086300Y0045560D03*
X0086300Y0053040D03*
X0107550Y0053040D03*
X0107550Y0045560D03*
X0151300Y0054310D03*
X0151300Y0061790D03*
X0161300Y0086810D03*
X0161300Y0094290D03*
X0153800Y0104310D03*
X0153800Y0111790D03*
X0091300Y0115560D03*
X0091300Y0123040D03*
X0035050Y0050540D03*
X0023800Y0050540D03*
X0023800Y0043060D03*
X0035050Y0043060D03*
D15*
X0103318Y0092223D03*
X0103318Y0094192D03*
X0103318Y0096160D03*
X0103318Y0098129D03*
X0103318Y0100097D03*
X0103318Y0102066D03*
X0103318Y0104034D03*
X0103318Y0106003D03*
X0103318Y0107971D03*
X0103318Y0109940D03*
X0103318Y0111908D03*
X0103318Y0113877D03*
X0136782Y0113877D03*
X0136782Y0111908D03*
X0136782Y0109940D03*
X0136782Y0107971D03*
X0136782Y0106003D03*
X0136782Y0104034D03*
X0136782Y0102066D03*
X0136782Y0100097D03*
X0136782Y0098129D03*
X0136782Y0096160D03*
X0136782Y0094192D03*
X0136782Y0092223D03*
D16*
X0130877Y0086318D03*
X0128908Y0086318D03*
X0126940Y0086318D03*
X0124971Y0086318D03*
X0123003Y0086318D03*
X0121034Y0086318D03*
X0119066Y0086318D03*
X0117097Y0086318D03*
X0115129Y0086318D03*
X0113160Y0086318D03*
X0111192Y0086318D03*
X0109223Y0086318D03*
X0109223Y0119782D03*
X0111192Y0119782D03*
X0113160Y0119782D03*
X0115129Y0119782D03*
X0117097Y0119782D03*
X0119066Y0119782D03*
X0121034Y0119782D03*
X0123003Y0119782D03*
X0124971Y0119782D03*
X0126940Y0119782D03*
X0128908Y0119782D03*
X0130877Y0119782D03*
D17*
X0127560Y0133050D03*
X0135040Y0133050D03*
X0116290Y0133050D03*
X0108810Y0133050D03*
X0097540Y0133050D03*
X0090060Y0133050D03*
X0066290Y0118050D03*
X0058810Y0118050D03*
X0047540Y0118050D03*
X0040060Y0118050D03*
X0115060Y0070550D03*
X0122540Y0070550D03*
X0155060Y0073050D03*
X0162540Y0073050D03*
D18*
X0166300Y0062381D03*
X0162560Y0053719D03*
X0170040Y0053719D03*
D19*
X0075896Y0065550D03*
X0069204Y0065550D03*
X0069204Y0075550D03*
X0075896Y0075550D03*
X0054646Y0075550D03*
X0047954Y0075550D03*
X0047954Y0065550D03*
X0054646Y0065550D03*
D20*
X0172550Y0128050D03*
X0193800Y0128050D03*
X0215050Y0128050D03*
M02*
