%
M48
M72
T01C0.0120
T02C0.0138
T03C0.0315
T04C0.0400
%
T01
X9130Y8930
X9592Y9343
X6755Y11224
X9755Y12555
X10380Y12305
X14005Y12575
X16380Y13180
X18255Y11180
X16380Y10430
X19005Y8430
X19380Y8430
X19755Y8430
X19755Y8055
X19380Y8055
X19005Y8055
X20130Y7680
X20505Y7680
X20880Y7680
X20880Y7305
X20880Y6930
T02
X630Y505
X630Y880
X1005Y505
X943Y4805
X505Y5555
X5130Y5805
X8130Y6555
X8130Y7555
X11255Y8055
X11630Y8055
X11630Y9149
X12630Y9805
X11880Y10430
X11005Y10680
X11505Y11430
X8255Y11430
X8255Y10430
X8130Y12930
X9005Y14430
X10880Y14805
X11255Y14805
X11630Y14805
X12005Y14805
X12505Y14805
X12755Y14430
X13005Y14805
X13505Y14805
X14005Y14805
X14505Y14805
X10880Y13930
X20630Y13180
X22630Y14305
X23130Y14305
X23130Y14805
X22630Y14805
X23005Y11180
X14005Y6180
X10255Y4556
X11880Y2855
X12255Y2855
X12630Y2856
X12255Y2480
X12255Y2105
X12255Y1605
X12255Y505
X12630Y505
X10630Y505
X7380Y3680
X16755Y505
X1130Y14305
X630Y14305
X630Y14805
X1130Y14805
T03
X9755Y5342
X11880Y5342
X11880Y3768
X9755Y3768
T04
X2630Y1930
X3630Y1930
X4630Y1930
X5630Y1930
X6630Y1930
X7630Y1930
X8630Y1930
X9630Y1930
X10630Y1930
X11630Y1930
X14755Y1930
X15755Y1930
X16755Y1930
X17755Y1930
X18630Y3180
X18630Y4180
X18630Y5180
X18630Y6180
X21505Y4430
X21505Y3430
X21505Y2430
X21505Y1430
X6755Y9805
X5755Y9805
X4755Y9805
X3755Y9805
X2130Y9430
X2130Y10430
X2130Y11430
X2130Y12430
X3755Y13305
X4755Y13305
X5755Y13305
X6755Y13305
X2130Y13430
M30
