G75*
%MOIN*%
%OFA0B0*%
%FSLAX25Y25*%
%IPPOS*%
%LPD*%
%AMOC8*
5,1,8,0,0,1.08239X$1,22.5*
%
%ADD10C,0.00000*%
%ADD11C,0.00800*%
%ADD12C,0.00500*%
%ADD13C,0.00600*%
%ADD14C,0.00200*%
%ADD15R,0.00787X0.00787*%
%ADD16C,0.01600*%
%ADD17C,0.00400*%
D10*
X0002550Y0001800D02*
X0002550Y0151761D01*
X0233751Y0151761D01*
X0233751Y0001800D01*
X0002550Y0001800D01*
D11*
X0089676Y0041613D02*
X0089676Y0049487D01*
X0089675Y0049487D02*
X0089688Y0049636D01*
X0089704Y0049784D01*
X0089724Y0049933D01*
X0089748Y0050080D01*
X0089776Y0050227D01*
X0089807Y0050373D01*
X0089843Y0050518D01*
X0089882Y0050662D01*
X0089926Y0050806D01*
X0089973Y0050947D01*
X0090023Y0051088D01*
X0090078Y0051227D01*
X0090136Y0051365D01*
X0090197Y0051501D01*
X0090262Y0051636D01*
X0090331Y0051769D01*
X0090403Y0051899D01*
X0090479Y0052028D01*
X0090558Y0052155D01*
X0090640Y0052280D01*
X0090726Y0052403D01*
X0090815Y0052523D01*
X0090907Y0052641D01*
X0091002Y0052756D01*
X0091100Y0052869D01*
X0091201Y0052979D01*
X0091305Y0053087D01*
X0091412Y0053191D01*
X0091521Y0053293D01*
X0091633Y0053392D01*
X0091748Y0053488D01*
X0091865Y0053581D01*
X0091984Y0053671D01*
X0092106Y0053757D01*
X0092230Y0053841D01*
X0092356Y0053921D01*
X0092485Y0053997D01*
X0092615Y0054071D01*
X0092747Y0054140D01*
X0092881Y0054207D01*
X0093017Y0054269D01*
X0093154Y0054328D01*
X0093293Y0054384D01*
X0093433Y0054436D01*
X0093575Y0054484D01*
X0093718Y0054528D01*
X0093861Y0054569D01*
X0094006Y0054605D01*
X0101093Y0054605D02*
X0101238Y0054569D01*
X0101382Y0054528D01*
X0101524Y0054484D01*
X0101666Y0054436D01*
X0101806Y0054384D01*
X0101945Y0054328D01*
X0102082Y0054269D01*
X0102218Y0054207D01*
X0102352Y0054140D01*
X0102484Y0054070D01*
X0102614Y0053997D01*
X0102743Y0053921D01*
X0102869Y0053840D01*
X0102993Y0053757D01*
X0103115Y0053671D01*
X0103234Y0053581D01*
X0103351Y0053488D01*
X0103466Y0053392D01*
X0103578Y0053293D01*
X0103687Y0053191D01*
X0103794Y0053086D01*
X0103898Y0052979D01*
X0103999Y0052869D01*
X0104097Y0052756D01*
X0104192Y0052641D01*
X0104284Y0052523D01*
X0104373Y0052403D01*
X0104458Y0052280D01*
X0104541Y0052155D01*
X0104620Y0052028D01*
X0104696Y0051899D01*
X0104768Y0051769D01*
X0104836Y0051636D01*
X0104902Y0051501D01*
X0104963Y0051365D01*
X0105021Y0051227D01*
X0105076Y0051088D01*
X0105126Y0050948D01*
X0105173Y0050806D01*
X0105217Y0050663D01*
X0105256Y0050518D01*
X0105292Y0050373D01*
X0105323Y0050227D01*
X0105351Y0050080D01*
X0105375Y0049933D01*
X0105395Y0049785D01*
X0105411Y0049636D01*
X0105424Y0049487D01*
X0105424Y0041613D01*
X0110926Y0041613D02*
X0110926Y0049487D01*
X0110925Y0049487D02*
X0110938Y0049636D01*
X0110954Y0049784D01*
X0110974Y0049933D01*
X0110998Y0050080D01*
X0111026Y0050227D01*
X0111057Y0050373D01*
X0111093Y0050518D01*
X0111132Y0050662D01*
X0111176Y0050806D01*
X0111223Y0050947D01*
X0111273Y0051088D01*
X0111328Y0051227D01*
X0111386Y0051365D01*
X0111447Y0051501D01*
X0111512Y0051636D01*
X0111581Y0051769D01*
X0111653Y0051899D01*
X0111729Y0052028D01*
X0111808Y0052155D01*
X0111890Y0052280D01*
X0111976Y0052403D01*
X0112065Y0052523D01*
X0112157Y0052641D01*
X0112252Y0052756D01*
X0112350Y0052869D01*
X0112451Y0052979D01*
X0112555Y0053087D01*
X0112662Y0053191D01*
X0112771Y0053293D01*
X0112883Y0053392D01*
X0112998Y0053488D01*
X0113115Y0053581D01*
X0113234Y0053671D01*
X0113356Y0053757D01*
X0113480Y0053841D01*
X0113606Y0053921D01*
X0113735Y0053997D01*
X0113865Y0054071D01*
X0113997Y0054140D01*
X0114131Y0054207D01*
X0114267Y0054269D01*
X0114404Y0054328D01*
X0114543Y0054384D01*
X0114683Y0054436D01*
X0114825Y0054484D01*
X0114968Y0054528D01*
X0115111Y0054569D01*
X0115256Y0054605D01*
X0122343Y0054605D02*
X0122488Y0054569D01*
X0122632Y0054528D01*
X0122774Y0054484D01*
X0122916Y0054436D01*
X0123056Y0054384D01*
X0123195Y0054328D01*
X0123332Y0054269D01*
X0123468Y0054207D01*
X0123602Y0054140D01*
X0123734Y0054070D01*
X0123864Y0053997D01*
X0123993Y0053921D01*
X0124119Y0053840D01*
X0124243Y0053757D01*
X0124365Y0053671D01*
X0124484Y0053581D01*
X0124601Y0053488D01*
X0124716Y0053392D01*
X0124828Y0053293D01*
X0124937Y0053191D01*
X0125044Y0053086D01*
X0125148Y0052979D01*
X0125249Y0052869D01*
X0125347Y0052756D01*
X0125442Y0052641D01*
X0125534Y0052523D01*
X0125623Y0052403D01*
X0125708Y0052280D01*
X0125791Y0052155D01*
X0125870Y0052028D01*
X0125946Y0051899D01*
X0126018Y0051769D01*
X0126086Y0051636D01*
X0126152Y0051501D01*
X0126213Y0051365D01*
X0126271Y0051227D01*
X0126326Y0051088D01*
X0126376Y0050948D01*
X0126423Y0050806D01*
X0126467Y0050663D01*
X0126506Y0050518D01*
X0126542Y0050373D01*
X0126573Y0050227D01*
X0126601Y0050080D01*
X0126625Y0049933D01*
X0126645Y0049785D01*
X0126661Y0049636D01*
X0126674Y0049487D01*
X0126674Y0041613D01*
X0126675Y0041613D02*
X0126662Y0041464D01*
X0126646Y0041316D01*
X0126626Y0041167D01*
X0126602Y0041020D01*
X0126574Y0040873D01*
X0126543Y0040727D01*
X0126507Y0040582D01*
X0126468Y0040438D01*
X0126424Y0040294D01*
X0126377Y0040153D01*
X0126327Y0040012D01*
X0126272Y0039873D01*
X0126214Y0039735D01*
X0126153Y0039599D01*
X0126088Y0039464D01*
X0126019Y0039331D01*
X0125947Y0039201D01*
X0125871Y0039072D01*
X0125792Y0038945D01*
X0125710Y0038820D01*
X0125624Y0038697D01*
X0125535Y0038577D01*
X0125443Y0038459D01*
X0125348Y0038344D01*
X0125250Y0038231D01*
X0125149Y0038121D01*
X0125045Y0038013D01*
X0124938Y0037909D01*
X0124829Y0037807D01*
X0124717Y0037708D01*
X0124602Y0037612D01*
X0124485Y0037519D01*
X0124366Y0037429D01*
X0124244Y0037343D01*
X0124120Y0037259D01*
X0123994Y0037179D01*
X0123865Y0037103D01*
X0123735Y0037029D01*
X0123603Y0036960D01*
X0123469Y0036893D01*
X0123333Y0036831D01*
X0123196Y0036772D01*
X0123057Y0036716D01*
X0122917Y0036664D01*
X0122775Y0036616D01*
X0122632Y0036572D01*
X0122489Y0036531D01*
X0122344Y0036495D01*
X0115257Y0036495D02*
X0115112Y0036531D01*
X0114968Y0036572D01*
X0114826Y0036616D01*
X0114684Y0036664D01*
X0114544Y0036716D01*
X0114405Y0036772D01*
X0114268Y0036831D01*
X0114132Y0036893D01*
X0113998Y0036960D01*
X0113866Y0037030D01*
X0113736Y0037103D01*
X0113607Y0037179D01*
X0113481Y0037260D01*
X0113357Y0037343D01*
X0113235Y0037429D01*
X0113116Y0037519D01*
X0112999Y0037612D01*
X0112884Y0037708D01*
X0112772Y0037807D01*
X0112663Y0037909D01*
X0112556Y0038014D01*
X0112452Y0038121D01*
X0112351Y0038231D01*
X0112253Y0038344D01*
X0112158Y0038459D01*
X0112066Y0038577D01*
X0111977Y0038697D01*
X0111892Y0038820D01*
X0111809Y0038945D01*
X0111730Y0039072D01*
X0111654Y0039201D01*
X0111582Y0039331D01*
X0111514Y0039464D01*
X0111448Y0039599D01*
X0111387Y0039735D01*
X0111329Y0039873D01*
X0111274Y0040012D01*
X0111224Y0040152D01*
X0111177Y0040294D01*
X0111133Y0040437D01*
X0111094Y0040582D01*
X0111058Y0040727D01*
X0111027Y0040873D01*
X0110999Y0041020D01*
X0110975Y0041167D01*
X0110955Y0041315D01*
X0110939Y0041464D01*
X0110926Y0041613D01*
X0105425Y0041613D02*
X0105412Y0041464D01*
X0105396Y0041316D01*
X0105376Y0041167D01*
X0105352Y0041020D01*
X0105324Y0040873D01*
X0105293Y0040727D01*
X0105257Y0040582D01*
X0105218Y0040438D01*
X0105174Y0040294D01*
X0105127Y0040153D01*
X0105077Y0040012D01*
X0105022Y0039873D01*
X0104964Y0039735D01*
X0104903Y0039599D01*
X0104838Y0039464D01*
X0104769Y0039331D01*
X0104697Y0039201D01*
X0104621Y0039072D01*
X0104542Y0038945D01*
X0104460Y0038820D01*
X0104374Y0038697D01*
X0104285Y0038577D01*
X0104193Y0038459D01*
X0104098Y0038344D01*
X0104000Y0038231D01*
X0103899Y0038121D01*
X0103795Y0038013D01*
X0103688Y0037909D01*
X0103579Y0037807D01*
X0103467Y0037708D01*
X0103352Y0037612D01*
X0103235Y0037519D01*
X0103116Y0037429D01*
X0102994Y0037343D01*
X0102870Y0037259D01*
X0102744Y0037179D01*
X0102615Y0037103D01*
X0102485Y0037029D01*
X0102353Y0036960D01*
X0102219Y0036893D01*
X0102083Y0036831D01*
X0101946Y0036772D01*
X0101807Y0036716D01*
X0101667Y0036664D01*
X0101525Y0036616D01*
X0101382Y0036572D01*
X0101239Y0036531D01*
X0101094Y0036495D01*
X0094007Y0036495D02*
X0093862Y0036531D01*
X0093718Y0036572D01*
X0093576Y0036616D01*
X0093434Y0036664D01*
X0093294Y0036716D01*
X0093155Y0036772D01*
X0093018Y0036831D01*
X0092882Y0036893D01*
X0092748Y0036960D01*
X0092616Y0037030D01*
X0092486Y0037103D01*
X0092357Y0037179D01*
X0092231Y0037260D01*
X0092107Y0037343D01*
X0091985Y0037429D01*
X0091866Y0037519D01*
X0091749Y0037612D01*
X0091634Y0037708D01*
X0091522Y0037807D01*
X0091413Y0037909D01*
X0091306Y0038014D01*
X0091202Y0038121D01*
X0091101Y0038231D01*
X0091003Y0038344D01*
X0090908Y0038459D01*
X0090816Y0038577D01*
X0090727Y0038697D01*
X0090642Y0038820D01*
X0090559Y0038945D01*
X0090480Y0039072D01*
X0090404Y0039201D01*
X0090332Y0039331D01*
X0090264Y0039464D01*
X0090198Y0039599D01*
X0090137Y0039735D01*
X0090079Y0039873D01*
X0090024Y0040012D01*
X0089974Y0040152D01*
X0089927Y0040294D01*
X0089883Y0040437D01*
X0089844Y0040582D01*
X0089808Y0040727D01*
X0089777Y0040873D01*
X0089749Y0041020D01*
X0089725Y0041167D01*
X0089705Y0041315D01*
X0089689Y0041464D01*
X0089676Y0041613D01*
X0200160Y0055270D02*
X0200160Y0056180D01*
X0200160Y0055270D02*
X0219650Y0055270D01*
X0219650Y0055250D01*
X0219850Y0055250D01*
X0219850Y0056250D01*
X0220050Y0062350D02*
X0220050Y0069050D01*
X0219930Y0074680D02*
X0219930Y0075750D01*
X0219730Y0075750D01*
X0219730Y0075760D01*
X0200170Y0075760D01*
X0200170Y0074870D01*
X0200050Y0068950D02*
X0200050Y0065550D01*
X0210050Y0075550D01*
X0200050Y0065550D02*
X0200050Y0062150D01*
X0200050Y0121300D02*
X0199450Y0121300D01*
X0200050Y0121300D02*
X0200050Y0134800D01*
X0199450Y0134800D01*
X0195650Y0134800D02*
X0194450Y0134800D01*
X0190650Y0134800D02*
X0189450Y0134800D01*
X0185650Y0134800D02*
X0184450Y0134800D01*
X0180650Y0134800D02*
X0179450Y0134800D01*
X0175650Y0134800D02*
X0175050Y0134800D01*
X0175050Y0121300D01*
X0175650Y0121300D01*
X0179450Y0121300D02*
X0180650Y0121300D01*
X0184450Y0121300D02*
X0185650Y0121300D01*
X0189450Y0121300D02*
X0190650Y0121300D01*
X0194450Y0121300D02*
X0195650Y0121300D01*
D12*
X0208406Y0078700D02*
X0208934Y0078700D01*
X0208406Y0078700D02*
X0208406Y0076800D01*
X0208934Y0076800D01*
X0208978Y0076802D01*
X0209021Y0076807D01*
X0209064Y0076816D01*
X0209105Y0076829D01*
X0209146Y0076844D01*
X0209185Y0076864D01*
X0209223Y0076886D01*
X0209258Y0076911D01*
X0209292Y0076940D01*
X0209322Y0076970D01*
X0209351Y0077004D01*
X0209376Y0077039D01*
X0209398Y0077077D01*
X0209418Y0077116D01*
X0209433Y0077157D01*
X0209446Y0077198D01*
X0209455Y0077241D01*
X0209460Y0077284D01*
X0209462Y0077328D01*
X0209462Y0078172D01*
X0209460Y0078216D01*
X0209455Y0078259D01*
X0209446Y0078302D01*
X0209433Y0078343D01*
X0209418Y0078384D01*
X0209398Y0078423D01*
X0209376Y0078461D01*
X0209351Y0078496D01*
X0209322Y0078530D01*
X0209292Y0078560D01*
X0209258Y0078589D01*
X0209223Y0078614D01*
X0209185Y0078636D01*
X0209146Y0078656D01*
X0209105Y0078671D01*
X0209064Y0078684D01*
X0209021Y0078693D01*
X0208978Y0078698D01*
X0208934Y0078700D01*
X0210638Y0078278D02*
X0211166Y0078700D01*
X0211166Y0076800D01*
X0210638Y0076800D02*
X0211694Y0076800D01*
X0129450Y0047145D02*
X0129450Y0046090D01*
X0129450Y0046617D02*
X0127550Y0046617D01*
X0127972Y0046090D01*
X0127550Y0044483D02*
X0127552Y0044528D01*
X0127558Y0044572D01*
X0127567Y0044616D01*
X0127580Y0044659D01*
X0127597Y0044700D01*
X0127617Y0044741D01*
X0127641Y0044779D01*
X0127667Y0044815D01*
X0127697Y0044848D01*
X0127729Y0044879D01*
X0127764Y0044908D01*
X0127801Y0044933D01*
X0127840Y0044954D01*
X0127881Y0044973D01*
X0127923Y0044988D01*
X0127967Y0044999D01*
X0128011Y0045007D01*
X0128056Y0045011D01*
X0128100Y0045011D01*
X0128145Y0045007D01*
X0128189Y0044999D01*
X0128233Y0044988D01*
X0128275Y0044973D01*
X0128316Y0044954D01*
X0128355Y0044933D01*
X0128392Y0044908D01*
X0128427Y0044879D01*
X0128459Y0044848D01*
X0128489Y0044815D01*
X0128515Y0044779D01*
X0128539Y0044741D01*
X0128559Y0044700D01*
X0128576Y0044659D01*
X0128589Y0044616D01*
X0128598Y0044572D01*
X0128604Y0044528D01*
X0128606Y0044483D01*
X0128606Y0043955D01*
X0128606Y0044588D02*
X0129450Y0045010D01*
X0129450Y0043955D02*
X0127550Y0043955D01*
X0127550Y0044483D01*
X0108200Y0045010D02*
X0107356Y0044588D01*
X0107356Y0044483D02*
X0107356Y0043955D01*
X0107356Y0044483D02*
X0107354Y0044528D01*
X0107348Y0044572D01*
X0107339Y0044616D01*
X0107326Y0044659D01*
X0107309Y0044700D01*
X0107289Y0044741D01*
X0107265Y0044779D01*
X0107239Y0044815D01*
X0107209Y0044848D01*
X0107177Y0044879D01*
X0107142Y0044908D01*
X0107105Y0044933D01*
X0107066Y0044954D01*
X0107025Y0044973D01*
X0106983Y0044988D01*
X0106939Y0044999D01*
X0106895Y0045007D01*
X0106850Y0045011D01*
X0106806Y0045011D01*
X0106761Y0045007D01*
X0106717Y0044999D01*
X0106673Y0044988D01*
X0106631Y0044973D01*
X0106590Y0044954D01*
X0106551Y0044933D01*
X0106514Y0044908D01*
X0106479Y0044879D01*
X0106447Y0044848D01*
X0106417Y0044815D01*
X0106391Y0044779D01*
X0106367Y0044741D01*
X0106347Y0044700D01*
X0106330Y0044659D01*
X0106317Y0044616D01*
X0106308Y0044572D01*
X0106302Y0044528D01*
X0106300Y0044483D01*
X0106300Y0043955D01*
X0108200Y0043955D01*
X0108200Y0046090D02*
X0108200Y0047145D01*
X0108200Y0046090D02*
X0107144Y0046987D01*
X0106300Y0046670D02*
X0106302Y0046622D01*
X0106308Y0046575D01*
X0106317Y0046528D01*
X0106330Y0046481D01*
X0106346Y0046436D01*
X0106367Y0046393D01*
X0106390Y0046351D01*
X0106417Y0046311D01*
X0106446Y0046274D01*
X0106479Y0046238D01*
X0106514Y0046206D01*
X0106552Y0046176D01*
X0106592Y0046150D01*
X0106634Y0046126D01*
X0106677Y0046106D01*
X0106722Y0046090D01*
X0107144Y0046987D02*
X0107115Y0047015D01*
X0107083Y0047042D01*
X0107049Y0047065D01*
X0107013Y0047086D01*
X0106976Y0047104D01*
X0106937Y0047118D01*
X0106898Y0047130D01*
X0106857Y0047138D01*
X0106816Y0047143D01*
X0106775Y0047145D01*
X0106734Y0047143D01*
X0106693Y0047138D01*
X0106652Y0047129D01*
X0106613Y0047116D01*
X0106574Y0047100D01*
X0106538Y0047081D01*
X0106503Y0047059D01*
X0106470Y0047034D01*
X0106439Y0047006D01*
X0106411Y0046975D01*
X0106386Y0046942D01*
X0106364Y0046908D01*
X0106345Y0046871D01*
X0106329Y0046832D01*
X0106316Y0046793D01*
X0106307Y0046753D01*
X0106302Y0046711D01*
X0106300Y0046670D01*
X0101644Y0129379D02*
X0113456Y0129379D01*
X0113456Y0130363D01*
X0113456Y0138237D02*
X0113456Y0139221D01*
X0101644Y0139221D01*
X0101644Y0138237D01*
X0101644Y0130560D02*
X0101644Y0129379D01*
D13*
X0072550Y0130550D02*
X0070050Y0128050D01*
X0065050Y0128050D01*
X0062550Y0130550D01*
X0060050Y0128050D01*
X0055050Y0128050D01*
X0052550Y0130550D01*
X0052550Y0135550D01*
X0055050Y0138050D01*
X0060050Y0138050D01*
X0062550Y0135550D01*
X0065050Y0138050D01*
X0070050Y0138050D01*
X0072550Y0135550D01*
X0072550Y0130550D01*
X0062550Y0130550D02*
X0062550Y0135550D01*
X0052550Y0135550D02*
X0050050Y0138050D01*
X0045050Y0138050D01*
X0042550Y0135550D01*
X0040050Y0138050D01*
X0035050Y0138050D01*
X0032550Y0135550D01*
X0032550Y0130550D01*
X0035050Y0128050D01*
X0040050Y0128050D01*
X0042550Y0130550D01*
X0042550Y0135550D01*
X0042550Y0130550D02*
X0045050Y0128050D01*
X0050050Y0128050D01*
X0052550Y0130550D01*
X0026300Y0131800D02*
X0026300Y0136800D01*
X0023800Y0139300D01*
X0018800Y0139300D01*
X0016300Y0136800D01*
X0016300Y0131800D01*
X0018800Y0129300D01*
X0023800Y0129300D01*
X0026300Y0131800D01*
X0023800Y0129300D02*
X0026300Y0126800D01*
X0026300Y0121800D01*
X0023800Y0119300D01*
X0026300Y0116800D01*
X0026300Y0111800D01*
X0023800Y0109300D01*
X0026300Y0106800D01*
X0026300Y0101800D01*
X0023800Y0099300D01*
X0026300Y0096800D01*
X0026300Y0091800D01*
X0023800Y0089300D01*
X0018800Y0089300D01*
X0016300Y0091800D01*
X0016300Y0096800D01*
X0018800Y0099300D01*
X0016300Y0101800D01*
X0016300Y0106800D01*
X0018800Y0109300D01*
X0023800Y0109300D01*
X0018800Y0109300D02*
X0016300Y0111800D01*
X0016300Y0116800D01*
X0018800Y0119300D01*
X0016300Y0121800D01*
X0016300Y0126800D01*
X0018800Y0129300D01*
X0018800Y0119300D02*
X0023800Y0119300D01*
X0035050Y0103050D02*
X0040050Y0103050D01*
X0042550Y0100550D01*
X0045050Y0103050D01*
X0050050Y0103050D01*
X0052550Y0100550D01*
X0055050Y0103050D01*
X0060050Y0103050D01*
X0062550Y0100550D01*
X0065050Y0103050D01*
X0070050Y0103050D01*
X0072550Y0100550D01*
X0072550Y0095550D01*
X0070050Y0093050D01*
X0065050Y0093050D01*
X0062550Y0095550D01*
X0060050Y0093050D01*
X0055050Y0093050D01*
X0052550Y0095550D01*
X0052550Y0100550D01*
X0052550Y0095550D02*
X0050050Y0093050D01*
X0045050Y0093050D01*
X0042550Y0095550D01*
X0040050Y0093050D01*
X0035050Y0093050D01*
X0032550Y0095550D01*
X0032550Y0100550D01*
X0035050Y0103050D01*
X0042550Y0100550D02*
X0042550Y0095550D01*
X0023800Y0099300D02*
X0018800Y0099300D01*
X0062550Y0100550D02*
X0062550Y0095550D01*
X0181300Y0064300D02*
X0181300Y0059300D01*
X0183800Y0056800D01*
X0188800Y0056800D01*
X0191300Y0059300D01*
X0191300Y0064300D01*
X0188800Y0066800D01*
X0183800Y0066800D01*
X0181300Y0064300D01*
X0183800Y0056800D02*
X0181300Y0054300D01*
X0181300Y0049300D01*
X0183800Y0046800D01*
X0188800Y0046800D01*
X0191300Y0044300D01*
X0191300Y0039300D01*
X0188800Y0036800D01*
X0191300Y0034300D01*
X0191300Y0029300D01*
X0188800Y0026800D01*
X0183800Y0026800D01*
X0181300Y0029300D01*
X0181300Y0034300D01*
X0183800Y0036800D01*
X0181300Y0039300D01*
X0181300Y0044300D01*
X0183800Y0046800D01*
X0188800Y0046800D02*
X0191300Y0049300D01*
X0191300Y0054300D01*
X0188800Y0056800D01*
X0210050Y0046800D02*
X0212550Y0049300D01*
X0217550Y0049300D01*
X0220050Y0046800D01*
X0220050Y0041800D01*
X0217550Y0039300D01*
X0220050Y0036800D01*
X0220050Y0031800D01*
X0217550Y0029300D01*
X0220050Y0026800D01*
X0220050Y0021800D01*
X0217550Y0019300D01*
X0220050Y0016800D01*
X0220050Y0011800D01*
X0217550Y0009300D01*
X0212550Y0009300D01*
X0210050Y0011800D01*
X0210050Y0016800D01*
X0212550Y0019300D01*
X0210050Y0021800D01*
X0210050Y0026800D01*
X0212550Y0029300D01*
X0217550Y0029300D01*
X0212550Y0029300D02*
X0210050Y0031800D01*
X0210050Y0036800D01*
X0212550Y0039300D01*
X0210050Y0041800D01*
X0210050Y0046800D01*
X0212550Y0039300D02*
X0217550Y0039300D01*
X0217550Y0019300D02*
X0212550Y0019300D01*
X0188800Y0036800D02*
X0183800Y0036800D01*
D14*
X0205550Y0013727D02*
X0205550Y0012994D01*
X0205550Y0013727D02*
X0205552Y0013770D01*
X0205557Y0013812D01*
X0205567Y0013854D01*
X0205579Y0013894D01*
X0205596Y0013934D01*
X0205616Y0013972D01*
X0205638Y0014007D01*
X0205664Y0014041D01*
X0205693Y0014073D01*
X0205725Y0014102D01*
X0205759Y0014128D01*
X0205795Y0014150D01*
X0205832Y0014170D01*
X0205872Y0014187D01*
X0205912Y0014199D01*
X0205954Y0014209D01*
X0205996Y0014214D01*
X0206039Y0014216D01*
X0206082Y0014214D01*
X0206124Y0014209D01*
X0206166Y0014199D01*
X0206206Y0014187D01*
X0206246Y0014170D01*
X0206284Y0014150D01*
X0206319Y0014128D01*
X0206353Y0014102D01*
X0206385Y0014073D01*
X0206414Y0014041D01*
X0206440Y0014007D01*
X0206462Y0013972D01*
X0206482Y0013934D01*
X0206499Y0013894D01*
X0206511Y0013854D01*
X0206521Y0013812D01*
X0206526Y0013770D01*
X0206528Y0013727D01*
X0206528Y0013239D01*
X0206528Y0013605D02*
X0206530Y0013653D01*
X0206536Y0013701D01*
X0206545Y0013748D01*
X0206558Y0013794D01*
X0206575Y0013839D01*
X0206595Y0013882D01*
X0206618Y0013924D01*
X0206645Y0013964D01*
X0206674Y0014002D01*
X0206707Y0014037D01*
X0206742Y0014070D01*
X0206780Y0014099D01*
X0206820Y0014126D01*
X0206862Y0014149D01*
X0206905Y0014169D01*
X0206950Y0014186D01*
X0206996Y0014199D01*
X0207043Y0014208D01*
X0207091Y0014214D01*
X0207139Y0014216D01*
X0207187Y0014214D01*
X0207235Y0014208D01*
X0207282Y0014199D01*
X0207328Y0014186D01*
X0207373Y0014169D01*
X0207416Y0014149D01*
X0207458Y0014126D01*
X0207498Y0014099D01*
X0207536Y0014070D01*
X0207571Y0014037D01*
X0207604Y0014002D01*
X0207633Y0013964D01*
X0207660Y0013924D01*
X0207683Y0013882D01*
X0207703Y0013839D01*
X0207720Y0013794D01*
X0207733Y0013748D01*
X0207742Y0013701D01*
X0207748Y0013653D01*
X0207750Y0013605D01*
X0207750Y0012994D01*
X0206772Y0011550D02*
X0206772Y0010939D01*
X0206772Y0011550D02*
X0206770Y0011598D01*
X0206764Y0011646D01*
X0206755Y0011693D01*
X0206742Y0011739D01*
X0206725Y0011784D01*
X0206705Y0011827D01*
X0206682Y0011869D01*
X0206655Y0011909D01*
X0206626Y0011947D01*
X0206593Y0011982D01*
X0206558Y0012015D01*
X0206520Y0012044D01*
X0206480Y0012071D01*
X0206438Y0012094D01*
X0206395Y0012114D01*
X0206350Y0012131D01*
X0206304Y0012144D01*
X0206257Y0012153D01*
X0206209Y0012159D01*
X0206161Y0012161D01*
X0206113Y0012159D01*
X0206065Y0012153D01*
X0206018Y0012144D01*
X0205972Y0012131D01*
X0205927Y0012114D01*
X0205884Y0012094D01*
X0205842Y0012071D01*
X0205802Y0012044D01*
X0205764Y0012015D01*
X0205729Y0011982D01*
X0205696Y0011947D01*
X0205667Y0011909D01*
X0205640Y0011869D01*
X0205617Y0011827D01*
X0205597Y0011784D01*
X0205580Y0011739D01*
X0205567Y0011693D01*
X0205558Y0011646D01*
X0205552Y0011598D01*
X0205550Y0011550D01*
X0205550Y0010939D01*
X0207750Y0010939D01*
X0207261Y0009833D02*
X0205550Y0009833D01*
X0207261Y0009833D02*
X0207304Y0009831D01*
X0207346Y0009826D01*
X0207388Y0009816D01*
X0207428Y0009804D01*
X0207468Y0009787D01*
X0207506Y0009767D01*
X0207541Y0009745D01*
X0207575Y0009719D01*
X0207607Y0009690D01*
X0207636Y0009658D01*
X0207662Y0009624D01*
X0207684Y0009589D01*
X0207704Y0009551D01*
X0207721Y0009511D01*
X0207733Y0009471D01*
X0207743Y0009429D01*
X0207748Y0009387D01*
X0207750Y0009344D01*
X0207750Y0009100D01*
X0138700Y0032000D02*
X0137478Y0032000D01*
X0138517Y0033222D01*
X0138150Y0034200D02*
X0138098Y0034198D01*
X0138046Y0034192D01*
X0137994Y0034183D01*
X0137944Y0034169D01*
X0137894Y0034152D01*
X0137846Y0034131D01*
X0137800Y0034107D01*
X0137756Y0034080D01*
X0137713Y0034049D01*
X0137673Y0034015D01*
X0137636Y0033979D01*
X0137602Y0033939D01*
X0137570Y0033897D01*
X0137542Y0033854D01*
X0137517Y0033808D01*
X0137495Y0033760D01*
X0137477Y0033711D01*
X0138517Y0033222D02*
X0138550Y0033256D01*
X0138580Y0033293D01*
X0138608Y0033333D01*
X0138632Y0033374D01*
X0138652Y0033417D01*
X0138669Y0033462D01*
X0138683Y0033508D01*
X0138692Y0033555D01*
X0138698Y0033602D01*
X0138700Y0033650D01*
X0138698Y0033695D01*
X0138692Y0033741D01*
X0138683Y0033785D01*
X0138670Y0033829D01*
X0138654Y0033871D01*
X0138634Y0033912D01*
X0138610Y0033951D01*
X0138584Y0033988D01*
X0138555Y0034023D01*
X0138523Y0034055D01*
X0138488Y0034084D01*
X0138451Y0034110D01*
X0138412Y0034134D01*
X0138371Y0034154D01*
X0138329Y0034170D01*
X0138285Y0034183D01*
X0138241Y0034192D01*
X0138195Y0034198D01*
X0138150Y0034200D01*
X0136649Y0034200D02*
X0136160Y0034200D01*
X0136117Y0034198D01*
X0136075Y0034193D01*
X0136033Y0034183D01*
X0135993Y0034171D01*
X0135953Y0034154D01*
X0135915Y0034134D01*
X0135880Y0034112D01*
X0135846Y0034086D01*
X0135814Y0034057D01*
X0135785Y0034025D01*
X0135759Y0033991D01*
X0135737Y0033955D01*
X0135717Y0033918D01*
X0135700Y0033878D01*
X0135688Y0033838D01*
X0135678Y0033796D01*
X0135673Y0033754D01*
X0135671Y0033711D01*
X0135671Y0032489D01*
X0135673Y0032446D01*
X0135678Y0032404D01*
X0135688Y0032362D01*
X0135700Y0032322D01*
X0135717Y0032282D01*
X0135737Y0032245D01*
X0135759Y0032209D01*
X0135785Y0032175D01*
X0135814Y0032143D01*
X0135846Y0032114D01*
X0135880Y0032088D01*
X0135916Y0032066D01*
X0135953Y0032046D01*
X0135993Y0032029D01*
X0136033Y0032017D01*
X0136075Y0032007D01*
X0136117Y0032002D01*
X0136160Y0032000D01*
X0136649Y0032000D01*
X0171400Y0065410D02*
X0171400Y0065899D01*
X0171400Y0065410D02*
X0171402Y0065367D01*
X0171407Y0065325D01*
X0171417Y0065283D01*
X0171429Y0065243D01*
X0171446Y0065203D01*
X0171466Y0065165D01*
X0171488Y0065130D01*
X0171514Y0065096D01*
X0171543Y0065064D01*
X0171575Y0065035D01*
X0171609Y0065009D01*
X0171645Y0064987D01*
X0171682Y0064967D01*
X0171722Y0064950D01*
X0171762Y0064938D01*
X0171804Y0064928D01*
X0171846Y0064923D01*
X0171889Y0064921D01*
X0173111Y0064921D01*
X0173154Y0064923D01*
X0173196Y0064928D01*
X0173238Y0064938D01*
X0173278Y0064950D01*
X0173318Y0064967D01*
X0173356Y0064987D01*
X0173391Y0065009D01*
X0173425Y0065035D01*
X0173457Y0065064D01*
X0173486Y0065096D01*
X0173512Y0065130D01*
X0173534Y0065166D01*
X0173554Y0065203D01*
X0173571Y0065243D01*
X0173583Y0065283D01*
X0173593Y0065325D01*
X0173598Y0065367D01*
X0173600Y0065410D01*
X0173600Y0065899D01*
X0172989Y0066728D02*
X0173037Y0066730D01*
X0173085Y0066736D01*
X0173132Y0066745D01*
X0173178Y0066758D01*
X0173223Y0066775D01*
X0173266Y0066795D01*
X0173308Y0066818D01*
X0173348Y0066845D01*
X0173386Y0066874D01*
X0173421Y0066907D01*
X0173454Y0066942D01*
X0173483Y0066980D01*
X0173510Y0067020D01*
X0173533Y0067062D01*
X0173553Y0067105D01*
X0173570Y0067150D01*
X0173583Y0067196D01*
X0173592Y0067243D01*
X0173598Y0067291D01*
X0173600Y0067339D01*
X0173598Y0067387D01*
X0173592Y0067435D01*
X0173583Y0067482D01*
X0173570Y0067528D01*
X0173553Y0067573D01*
X0173533Y0067616D01*
X0173510Y0067658D01*
X0173483Y0067698D01*
X0173454Y0067736D01*
X0173421Y0067771D01*
X0173386Y0067804D01*
X0173348Y0067833D01*
X0173308Y0067860D01*
X0173266Y0067883D01*
X0173223Y0067903D01*
X0173178Y0067920D01*
X0173132Y0067933D01*
X0173085Y0067942D01*
X0173037Y0067948D01*
X0172989Y0067950D01*
X0172941Y0067948D01*
X0172893Y0067942D01*
X0172846Y0067933D01*
X0172800Y0067920D01*
X0172755Y0067903D01*
X0172712Y0067883D01*
X0172670Y0067860D01*
X0172630Y0067833D01*
X0172592Y0067804D01*
X0172557Y0067771D01*
X0172524Y0067736D01*
X0172495Y0067698D01*
X0172468Y0067658D01*
X0172445Y0067616D01*
X0172425Y0067573D01*
X0172408Y0067528D01*
X0172395Y0067482D01*
X0172386Y0067435D01*
X0172380Y0067387D01*
X0172378Y0067339D01*
X0172380Y0067291D01*
X0172386Y0067243D01*
X0172395Y0067196D01*
X0172408Y0067150D01*
X0172425Y0067105D01*
X0172445Y0067062D01*
X0172468Y0067020D01*
X0172495Y0066980D01*
X0172524Y0066942D01*
X0172557Y0066907D01*
X0172592Y0066874D01*
X0172630Y0066845D01*
X0172670Y0066818D01*
X0172712Y0066795D01*
X0172755Y0066775D01*
X0172800Y0066758D01*
X0172846Y0066745D01*
X0172893Y0066736D01*
X0172941Y0066730D01*
X0172989Y0066728D01*
X0171889Y0066850D02*
X0171932Y0066852D01*
X0171974Y0066857D01*
X0172016Y0066867D01*
X0172056Y0066879D01*
X0172096Y0066896D01*
X0172134Y0066916D01*
X0172169Y0066938D01*
X0172203Y0066964D01*
X0172235Y0066993D01*
X0172264Y0067025D01*
X0172290Y0067059D01*
X0172312Y0067095D01*
X0172332Y0067132D01*
X0172349Y0067172D01*
X0172361Y0067212D01*
X0172371Y0067254D01*
X0172376Y0067296D01*
X0172378Y0067339D01*
X0172376Y0067382D01*
X0172371Y0067424D01*
X0172361Y0067466D01*
X0172349Y0067506D01*
X0172332Y0067546D01*
X0172312Y0067584D01*
X0172290Y0067619D01*
X0172264Y0067653D01*
X0172235Y0067685D01*
X0172203Y0067714D01*
X0172169Y0067740D01*
X0172134Y0067762D01*
X0172096Y0067782D01*
X0172056Y0067799D01*
X0172016Y0067811D01*
X0171974Y0067821D01*
X0171932Y0067826D01*
X0171889Y0067828D01*
X0171846Y0067826D01*
X0171804Y0067821D01*
X0171762Y0067811D01*
X0171722Y0067799D01*
X0171682Y0067782D01*
X0171645Y0067762D01*
X0171609Y0067740D01*
X0171575Y0067714D01*
X0171543Y0067685D01*
X0171514Y0067653D01*
X0171488Y0067619D01*
X0171466Y0067584D01*
X0171446Y0067546D01*
X0171429Y0067506D01*
X0171417Y0067466D01*
X0171407Y0067424D01*
X0171402Y0067382D01*
X0171400Y0067339D01*
X0171402Y0067296D01*
X0171407Y0067254D01*
X0171417Y0067212D01*
X0171429Y0067172D01*
X0171446Y0067132D01*
X0171466Y0067095D01*
X0171488Y0067059D01*
X0171514Y0067025D01*
X0171543Y0066993D01*
X0171575Y0066964D01*
X0171609Y0066938D01*
X0171645Y0066916D01*
X0171682Y0066896D01*
X0171722Y0066879D01*
X0171762Y0066867D01*
X0171804Y0066857D01*
X0171846Y0066852D01*
X0171889Y0066850D01*
X0182650Y0069400D02*
X0183628Y0069400D01*
X0184522Y0069400D02*
X0184522Y0071600D01*
X0185500Y0071600D01*
X0186390Y0071600D02*
X0187001Y0071600D01*
X0187049Y0071598D01*
X0187097Y0071592D01*
X0187144Y0071583D01*
X0187190Y0071570D01*
X0187235Y0071553D01*
X0187278Y0071533D01*
X0187320Y0071510D01*
X0187360Y0071483D01*
X0187398Y0071454D01*
X0187433Y0071421D01*
X0187466Y0071386D01*
X0187495Y0071348D01*
X0187522Y0071308D01*
X0187545Y0071266D01*
X0187565Y0071223D01*
X0187582Y0071178D01*
X0187595Y0071132D01*
X0187604Y0071085D01*
X0187610Y0071037D01*
X0187612Y0070989D01*
X0187612Y0070011D01*
X0187610Y0069963D01*
X0187604Y0069915D01*
X0187595Y0069868D01*
X0187582Y0069822D01*
X0187565Y0069777D01*
X0187545Y0069734D01*
X0187522Y0069692D01*
X0187495Y0069652D01*
X0187466Y0069614D01*
X0187433Y0069579D01*
X0187398Y0069546D01*
X0187360Y0069517D01*
X0187320Y0069490D01*
X0187278Y0069467D01*
X0187235Y0069447D01*
X0187190Y0069430D01*
X0187144Y0069417D01*
X0187097Y0069408D01*
X0187049Y0069402D01*
X0187001Y0069400D01*
X0186390Y0069400D01*
X0186390Y0071600D01*
X0185255Y0070622D02*
X0184522Y0070622D01*
X0184522Y0069400D02*
X0185500Y0069400D01*
X0182650Y0069400D02*
X0182650Y0071600D01*
X0188622Y0071111D02*
X0189233Y0071600D01*
X0189233Y0069400D01*
X0188622Y0069400D02*
X0189844Y0069400D01*
X0211400Y0091139D02*
X0211400Y0092361D01*
X0211402Y0092404D01*
X0211407Y0092446D01*
X0211417Y0092488D01*
X0211429Y0092528D01*
X0211446Y0092568D01*
X0211466Y0092605D01*
X0211488Y0092641D01*
X0211514Y0092675D01*
X0211543Y0092707D01*
X0211575Y0092736D01*
X0211609Y0092762D01*
X0211644Y0092784D01*
X0211682Y0092804D01*
X0211722Y0092821D01*
X0211762Y0092833D01*
X0211804Y0092843D01*
X0211846Y0092848D01*
X0211889Y0092850D01*
X0212378Y0092850D01*
X0213206Y0092850D02*
X0213206Y0091872D01*
X0213940Y0091872D01*
X0213983Y0091870D01*
X0214025Y0091865D01*
X0214067Y0091855D01*
X0214107Y0091843D01*
X0214147Y0091826D01*
X0214185Y0091806D01*
X0214220Y0091784D01*
X0214254Y0091758D01*
X0214286Y0091729D01*
X0214315Y0091697D01*
X0214341Y0091663D01*
X0214363Y0091628D01*
X0214383Y0091590D01*
X0214400Y0091550D01*
X0214412Y0091510D01*
X0214422Y0091468D01*
X0214427Y0091426D01*
X0214429Y0091383D01*
X0214429Y0091139D01*
X0214427Y0091096D01*
X0214422Y0091054D01*
X0214412Y0091012D01*
X0214400Y0090972D01*
X0214383Y0090932D01*
X0214363Y0090894D01*
X0214341Y0090859D01*
X0214315Y0090825D01*
X0214286Y0090793D01*
X0214254Y0090764D01*
X0214220Y0090738D01*
X0214184Y0090716D01*
X0214147Y0090696D01*
X0214107Y0090679D01*
X0214067Y0090667D01*
X0214025Y0090657D01*
X0213983Y0090652D01*
X0213940Y0090650D01*
X0213206Y0090650D01*
X0212378Y0090650D02*
X0211889Y0090650D01*
X0211846Y0090652D01*
X0211804Y0090657D01*
X0211762Y0090667D01*
X0211722Y0090679D01*
X0211682Y0090696D01*
X0211645Y0090716D01*
X0211609Y0090738D01*
X0211575Y0090764D01*
X0211543Y0090793D01*
X0211514Y0090825D01*
X0211488Y0090859D01*
X0211466Y0090895D01*
X0211446Y0090932D01*
X0211429Y0090972D01*
X0211417Y0091012D01*
X0211407Y0091054D01*
X0211402Y0091096D01*
X0211400Y0091139D01*
X0213206Y0092850D02*
X0214429Y0092850D01*
X0147469Y0085600D02*
X0146735Y0085600D01*
X0145920Y0085600D02*
X0145186Y0083400D01*
X0144453Y0085600D01*
X0143149Y0085600D02*
X0142415Y0085600D01*
X0143149Y0085600D02*
X0143192Y0085598D01*
X0143234Y0085593D01*
X0143276Y0085583D01*
X0143316Y0085571D01*
X0143356Y0085554D01*
X0143394Y0085534D01*
X0143429Y0085512D01*
X0143463Y0085486D01*
X0143495Y0085457D01*
X0143524Y0085425D01*
X0143550Y0085391D01*
X0143572Y0085356D01*
X0143592Y0085318D01*
X0143609Y0085278D01*
X0143621Y0085238D01*
X0143631Y0085196D01*
X0143636Y0085154D01*
X0143638Y0085111D01*
X0143636Y0085068D01*
X0143631Y0085026D01*
X0143621Y0084984D01*
X0143609Y0084944D01*
X0143592Y0084904D01*
X0143572Y0084867D01*
X0143550Y0084831D01*
X0143524Y0084797D01*
X0143495Y0084765D01*
X0143463Y0084736D01*
X0143429Y0084710D01*
X0143394Y0084688D01*
X0143356Y0084668D01*
X0143316Y0084651D01*
X0143276Y0084639D01*
X0143234Y0084629D01*
X0143192Y0084624D01*
X0143149Y0084622D01*
X0142660Y0084622D01*
X0143026Y0084622D02*
X0143074Y0084620D01*
X0143122Y0084614D01*
X0143169Y0084605D01*
X0143215Y0084592D01*
X0143260Y0084575D01*
X0143303Y0084555D01*
X0143345Y0084532D01*
X0143385Y0084505D01*
X0143423Y0084476D01*
X0143458Y0084443D01*
X0143491Y0084408D01*
X0143520Y0084370D01*
X0143547Y0084330D01*
X0143570Y0084288D01*
X0143590Y0084245D01*
X0143607Y0084200D01*
X0143620Y0084154D01*
X0143629Y0084107D01*
X0143635Y0084059D01*
X0143637Y0084011D01*
X0143635Y0083963D01*
X0143629Y0083915D01*
X0143620Y0083868D01*
X0143607Y0083822D01*
X0143590Y0083777D01*
X0143570Y0083734D01*
X0143547Y0083692D01*
X0143520Y0083652D01*
X0143491Y0083614D01*
X0143458Y0083579D01*
X0143423Y0083546D01*
X0143385Y0083517D01*
X0143345Y0083490D01*
X0143303Y0083467D01*
X0143260Y0083447D01*
X0143215Y0083430D01*
X0143169Y0083417D01*
X0143122Y0083408D01*
X0143074Y0083402D01*
X0143026Y0083400D01*
X0142415Y0083400D01*
X0141571Y0083156D02*
X0140594Y0083156D01*
X0139282Y0083400D02*
X0139282Y0085600D01*
X0138671Y0085600D02*
X0139894Y0085600D01*
X0137806Y0085600D02*
X0137806Y0083400D01*
X0136583Y0085600D01*
X0136583Y0083400D01*
X0135639Y0083400D02*
X0135150Y0083400D01*
X0135394Y0083400D02*
X0135394Y0085600D01*
X0135150Y0085600D02*
X0135639Y0085600D01*
X0146735Y0083400D02*
X0147346Y0083400D01*
X0147394Y0083402D01*
X0147442Y0083408D01*
X0147489Y0083417D01*
X0147535Y0083430D01*
X0147580Y0083447D01*
X0147623Y0083467D01*
X0147665Y0083490D01*
X0147705Y0083517D01*
X0147743Y0083546D01*
X0147778Y0083579D01*
X0147811Y0083614D01*
X0147840Y0083652D01*
X0147867Y0083692D01*
X0147890Y0083734D01*
X0147910Y0083777D01*
X0147927Y0083822D01*
X0147940Y0083868D01*
X0147949Y0083915D01*
X0147955Y0083963D01*
X0147957Y0084011D01*
X0147955Y0084059D01*
X0147949Y0084107D01*
X0147940Y0084154D01*
X0147927Y0084200D01*
X0147910Y0084245D01*
X0147890Y0084288D01*
X0147867Y0084330D01*
X0147840Y0084370D01*
X0147811Y0084408D01*
X0147778Y0084443D01*
X0147743Y0084476D01*
X0147705Y0084505D01*
X0147665Y0084532D01*
X0147623Y0084555D01*
X0147580Y0084575D01*
X0147535Y0084592D01*
X0147489Y0084605D01*
X0147442Y0084614D01*
X0147394Y0084620D01*
X0147346Y0084622D01*
X0147469Y0084622D02*
X0146980Y0084622D01*
X0147469Y0084622D02*
X0147512Y0084624D01*
X0147554Y0084629D01*
X0147596Y0084639D01*
X0147636Y0084651D01*
X0147676Y0084668D01*
X0147714Y0084688D01*
X0147749Y0084710D01*
X0147783Y0084736D01*
X0147815Y0084765D01*
X0147844Y0084797D01*
X0147870Y0084831D01*
X0147892Y0084867D01*
X0147912Y0084904D01*
X0147929Y0084944D01*
X0147941Y0084984D01*
X0147951Y0085026D01*
X0147956Y0085068D01*
X0147958Y0085111D01*
X0147956Y0085154D01*
X0147951Y0085196D01*
X0147941Y0085238D01*
X0147929Y0085278D01*
X0147912Y0085318D01*
X0147892Y0085356D01*
X0147870Y0085391D01*
X0147844Y0085425D01*
X0147815Y0085457D01*
X0147783Y0085486D01*
X0147749Y0085512D01*
X0147714Y0085534D01*
X0147676Y0085554D01*
X0147636Y0085571D01*
X0147596Y0085583D01*
X0147554Y0085593D01*
X0147512Y0085598D01*
X0147469Y0085600D01*
X0113029Y0081600D02*
X0112296Y0081600D01*
X0113029Y0081600D02*
X0113072Y0081598D01*
X0113114Y0081593D01*
X0113156Y0081583D01*
X0113196Y0081571D01*
X0113236Y0081554D01*
X0113274Y0081534D01*
X0113309Y0081512D01*
X0113343Y0081486D01*
X0113375Y0081457D01*
X0113404Y0081425D01*
X0113430Y0081391D01*
X0113452Y0081356D01*
X0113472Y0081318D01*
X0113489Y0081278D01*
X0113501Y0081238D01*
X0113511Y0081196D01*
X0113516Y0081154D01*
X0113518Y0081111D01*
X0113516Y0081068D01*
X0113511Y0081026D01*
X0113501Y0080984D01*
X0113489Y0080944D01*
X0113472Y0080904D01*
X0113452Y0080867D01*
X0113430Y0080831D01*
X0113404Y0080797D01*
X0113375Y0080765D01*
X0113343Y0080736D01*
X0113309Y0080710D01*
X0113274Y0080688D01*
X0113236Y0080668D01*
X0113196Y0080651D01*
X0113156Y0080639D01*
X0113114Y0080629D01*
X0113072Y0080624D01*
X0113029Y0080622D01*
X0112540Y0080622D01*
X0112907Y0080622D02*
X0112955Y0080620D01*
X0113003Y0080614D01*
X0113050Y0080605D01*
X0113096Y0080592D01*
X0113141Y0080575D01*
X0113184Y0080555D01*
X0113226Y0080532D01*
X0113266Y0080505D01*
X0113304Y0080476D01*
X0113339Y0080443D01*
X0113372Y0080408D01*
X0113401Y0080370D01*
X0113428Y0080330D01*
X0113451Y0080288D01*
X0113471Y0080245D01*
X0113488Y0080200D01*
X0113501Y0080154D01*
X0113510Y0080107D01*
X0113516Y0080059D01*
X0113518Y0080011D01*
X0113516Y0079963D01*
X0113510Y0079915D01*
X0113501Y0079868D01*
X0113488Y0079822D01*
X0113471Y0079777D01*
X0113451Y0079734D01*
X0113428Y0079692D01*
X0113401Y0079652D01*
X0113372Y0079614D01*
X0113339Y0079579D01*
X0113304Y0079546D01*
X0113266Y0079517D01*
X0113226Y0079490D01*
X0113184Y0079467D01*
X0113141Y0079447D01*
X0113096Y0079430D01*
X0113050Y0079417D01*
X0113003Y0079408D01*
X0112955Y0079402D01*
X0112907Y0079400D01*
X0112296Y0079400D01*
X0111372Y0079400D02*
X0110883Y0080378D01*
X0110761Y0080378D02*
X0110150Y0080378D01*
X0110761Y0080378D02*
X0110809Y0080380D01*
X0110857Y0080386D01*
X0110904Y0080395D01*
X0110950Y0080408D01*
X0110995Y0080425D01*
X0111038Y0080445D01*
X0111080Y0080468D01*
X0111120Y0080495D01*
X0111158Y0080524D01*
X0111193Y0080557D01*
X0111226Y0080592D01*
X0111255Y0080630D01*
X0111282Y0080670D01*
X0111305Y0080712D01*
X0111325Y0080755D01*
X0111342Y0080800D01*
X0111355Y0080846D01*
X0111364Y0080893D01*
X0111370Y0080941D01*
X0111372Y0080989D01*
X0111370Y0081037D01*
X0111364Y0081085D01*
X0111355Y0081132D01*
X0111342Y0081178D01*
X0111325Y0081223D01*
X0111305Y0081266D01*
X0111282Y0081308D01*
X0111255Y0081348D01*
X0111226Y0081386D01*
X0111193Y0081421D01*
X0111158Y0081454D01*
X0111120Y0081483D01*
X0111080Y0081510D01*
X0111038Y0081533D01*
X0110995Y0081553D01*
X0110950Y0081570D01*
X0110904Y0081583D01*
X0110857Y0081592D01*
X0110809Y0081598D01*
X0110761Y0081600D01*
X0110150Y0081600D01*
X0110150Y0079400D01*
X0107350Y0074200D02*
X0107350Y0072978D01*
X0107350Y0073589D02*
X0105150Y0073589D01*
X0105639Y0072978D01*
X0105761Y0072097D02*
X0106739Y0072097D01*
X0106861Y0071852D02*
X0107350Y0072341D01*
X0106739Y0072097D02*
X0106787Y0072095D01*
X0106835Y0072089D01*
X0106882Y0072080D01*
X0106928Y0072067D01*
X0106973Y0072050D01*
X0107016Y0072030D01*
X0107058Y0072007D01*
X0107098Y0071980D01*
X0107136Y0071951D01*
X0107171Y0071918D01*
X0107204Y0071883D01*
X0107233Y0071845D01*
X0107260Y0071805D01*
X0107283Y0071763D01*
X0107303Y0071720D01*
X0107320Y0071675D01*
X0107333Y0071629D01*
X0107342Y0071582D01*
X0107348Y0071534D01*
X0107350Y0071486D01*
X0107348Y0071438D01*
X0107342Y0071390D01*
X0107333Y0071343D01*
X0107320Y0071297D01*
X0107303Y0071252D01*
X0107283Y0071209D01*
X0107260Y0071167D01*
X0107233Y0071127D01*
X0107204Y0071089D01*
X0107171Y0071054D01*
X0107136Y0071021D01*
X0107098Y0070992D01*
X0107058Y0070965D01*
X0107016Y0070942D01*
X0106973Y0070922D01*
X0106928Y0070905D01*
X0106882Y0070892D01*
X0106835Y0070883D01*
X0106787Y0070877D01*
X0106739Y0070875D01*
X0106739Y0070874D02*
X0105761Y0070874D01*
X0105761Y0070875D02*
X0105713Y0070877D01*
X0105665Y0070883D01*
X0105618Y0070892D01*
X0105572Y0070905D01*
X0105527Y0070922D01*
X0105484Y0070942D01*
X0105442Y0070965D01*
X0105402Y0070992D01*
X0105364Y0071021D01*
X0105329Y0071054D01*
X0105296Y0071089D01*
X0105267Y0071127D01*
X0105240Y0071167D01*
X0105217Y0071209D01*
X0105197Y0071252D01*
X0105180Y0071297D01*
X0105167Y0071343D01*
X0105158Y0071390D01*
X0105152Y0071438D01*
X0105150Y0071486D01*
X0105152Y0071534D01*
X0105158Y0071582D01*
X0105167Y0071629D01*
X0105180Y0071675D01*
X0105197Y0071720D01*
X0105217Y0071763D01*
X0105240Y0071805D01*
X0105267Y0071845D01*
X0105296Y0071883D01*
X0105329Y0071918D01*
X0105364Y0071951D01*
X0105402Y0071980D01*
X0105442Y0072007D01*
X0105484Y0072030D01*
X0105527Y0072050D01*
X0105572Y0072067D01*
X0105618Y0072080D01*
X0105665Y0072089D01*
X0105713Y0072095D01*
X0105761Y0072097D01*
X0080902Y0068400D02*
X0079680Y0068400D01*
X0080291Y0068400D02*
X0080291Y0070600D01*
X0079680Y0070111D01*
X0078836Y0068156D02*
X0077858Y0068156D01*
X0077136Y0068400D02*
X0076403Y0070600D01*
X0075670Y0068400D01*
X0075853Y0068950D02*
X0076953Y0068950D01*
X0074782Y0069011D02*
X0074782Y0069989D01*
X0074780Y0070037D01*
X0074774Y0070085D01*
X0074765Y0070132D01*
X0074752Y0070178D01*
X0074735Y0070223D01*
X0074715Y0070266D01*
X0074692Y0070308D01*
X0074665Y0070348D01*
X0074636Y0070386D01*
X0074603Y0070421D01*
X0074568Y0070454D01*
X0074530Y0070483D01*
X0074490Y0070510D01*
X0074448Y0070533D01*
X0074405Y0070553D01*
X0074360Y0070570D01*
X0074314Y0070583D01*
X0074267Y0070592D01*
X0074219Y0070598D01*
X0074171Y0070600D01*
X0073560Y0070600D01*
X0073560Y0068400D01*
X0074171Y0068400D01*
X0074219Y0068402D01*
X0074267Y0068408D01*
X0074314Y0068417D01*
X0074360Y0068430D01*
X0074405Y0068447D01*
X0074448Y0068467D01*
X0074490Y0068490D01*
X0074530Y0068517D01*
X0074568Y0068546D01*
X0074603Y0068579D01*
X0074636Y0068614D01*
X0074665Y0068652D01*
X0074692Y0068692D01*
X0074715Y0068734D01*
X0074735Y0068777D01*
X0074752Y0068822D01*
X0074765Y0068868D01*
X0074774Y0068915D01*
X0074780Y0068963D01*
X0074782Y0069011D01*
X0072378Y0069317D02*
X0071706Y0069683D01*
X0071950Y0070600D02*
X0072009Y0070598D01*
X0072068Y0070592D01*
X0072126Y0070583D01*
X0072183Y0070570D01*
X0072240Y0070553D01*
X0072295Y0070532D01*
X0072349Y0070509D01*
X0072401Y0070481D01*
X0072452Y0070450D01*
X0072500Y0070417D01*
X0071706Y0069683D02*
X0071670Y0069706D01*
X0071636Y0069733D01*
X0071604Y0069762D01*
X0071575Y0069794D01*
X0071549Y0069828D01*
X0071526Y0069864D01*
X0071507Y0069903D01*
X0071490Y0069942D01*
X0071478Y0069983D01*
X0071468Y0070025D01*
X0071463Y0070068D01*
X0071461Y0070111D01*
X0071463Y0070154D01*
X0071468Y0070196D01*
X0071478Y0070238D01*
X0071490Y0070278D01*
X0071507Y0070318D01*
X0071527Y0070356D01*
X0071549Y0070391D01*
X0071575Y0070425D01*
X0071604Y0070457D01*
X0071636Y0070486D01*
X0071670Y0070512D01*
X0071706Y0070534D01*
X0071743Y0070554D01*
X0071783Y0070571D01*
X0071823Y0070583D01*
X0071865Y0070593D01*
X0071907Y0070598D01*
X0071950Y0070600D01*
X0071400Y0068706D02*
X0071445Y0068662D01*
X0071493Y0068622D01*
X0071543Y0068585D01*
X0071596Y0068551D01*
X0071651Y0068520D01*
X0071707Y0068492D01*
X0071765Y0068468D01*
X0071824Y0068447D01*
X0071885Y0068430D01*
X0071946Y0068417D01*
X0072008Y0068408D01*
X0072070Y0068402D01*
X0072133Y0068400D01*
X0072176Y0068402D01*
X0072218Y0068407D01*
X0072260Y0068417D01*
X0072300Y0068429D01*
X0072340Y0068446D01*
X0072378Y0068466D01*
X0072413Y0068488D01*
X0072447Y0068514D01*
X0072479Y0068543D01*
X0072508Y0068575D01*
X0072534Y0068609D01*
X0072556Y0068645D01*
X0072576Y0068682D01*
X0072593Y0068722D01*
X0072605Y0068762D01*
X0072615Y0068804D01*
X0072620Y0068846D01*
X0072622Y0068889D01*
X0072623Y0068889D02*
X0072621Y0068932D01*
X0072616Y0068975D01*
X0072606Y0069017D01*
X0072594Y0069058D01*
X0072577Y0069097D01*
X0072558Y0069136D01*
X0072535Y0069172D01*
X0072509Y0069206D01*
X0072480Y0069238D01*
X0072448Y0069267D01*
X0072414Y0069294D01*
X0072378Y0069317D01*
X0073970Y0078400D02*
X0074459Y0078400D01*
X0073970Y0078400D02*
X0073927Y0078402D01*
X0073885Y0078407D01*
X0073843Y0078417D01*
X0073803Y0078429D01*
X0073763Y0078446D01*
X0073726Y0078466D01*
X0073690Y0078488D01*
X0073656Y0078514D01*
X0073624Y0078543D01*
X0073595Y0078575D01*
X0073569Y0078609D01*
X0073547Y0078645D01*
X0073527Y0078682D01*
X0073510Y0078722D01*
X0073498Y0078762D01*
X0073488Y0078804D01*
X0073483Y0078846D01*
X0073481Y0078889D01*
X0073482Y0078889D02*
X0073482Y0080111D01*
X0073481Y0080111D02*
X0073483Y0080154D01*
X0073488Y0080196D01*
X0073498Y0080238D01*
X0073510Y0080278D01*
X0073527Y0080318D01*
X0073547Y0080355D01*
X0073569Y0080391D01*
X0073595Y0080425D01*
X0073624Y0080457D01*
X0073656Y0080486D01*
X0073690Y0080512D01*
X0073725Y0080534D01*
X0073763Y0080554D01*
X0073803Y0080571D01*
X0073843Y0080583D01*
X0073885Y0080593D01*
X0073927Y0080598D01*
X0073970Y0080600D01*
X0074459Y0080600D01*
X0075364Y0080600D02*
X0075364Y0078400D01*
X0076342Y0078400D01*
X0077066Y0078156D02*
X0078044Y0078156D01*
X0078888Y0078400D02*
X0080110Y0078400D01*
X0079499Y0078400D02*
X0079499Y0080600D01*
X0078888Y0080111D01*
X0072378Y0079317D02*
X0071706Y0079683D01*
X0071950Y0080600D02*
X0072009Y0080598D01*
X0072068Y0080592D01*
X0072126Y0080583D01*
X0072183Y0080570D01*
X0072240Y0080553D01*
X0072295Y0080532D01*
X0072349Y0080509D01*
X0072401Y0080481D01*
X0072452Y0080450D01*
X0072500Y0080417D01*
X0071706Y0079683D02*
X0071670Y0079706D01*
X0071636Y0079733D01*
X0071604Y0079762D01*
X0071575Y0079794D01*
X0071549Y0079828D01*
X0071526Y0079864D01*
X0071507Y0079903D01*
X0071490Y0079942D01*
X0071478Y0079983D01*
X0071468Y0080025D01*
X0071463Y0080068D01*
X0071461Y0080111D01*
X0071463Y0080154D01*
X0071468Y0080196D01*
X0071478Y0080238D01*
X0071490Y0080278D01*
X0071507Y0080318D01*
X0071527Y0080356D01*
X0071549Y0080391D01*
X0071575Y0080425D01*
X0071604Y0080457D01*
X0071636Y0080486D01*
X0071670Y0080512D01*
X0071706Y0080534D01*
X0071743Y0080554D01*
X0071783Y0080571D01*
X0071823Y0080583D01*
X0071865Y0080593D01*
X0071907Y0080598D01*
X0071950Y0080600D01*
X0071400Y0078706D02*
X0071445Y0078662D01*
X0071493Y0078622D01*
X0071543Y0078585D01*
X0071596Y0078551D01*
X0071651Y0078520D01*
X0071707Y0078492D01*
X0071765Y0078468D01*
X0071824Y0078447D01*
X0071885Y0078430D01*
X0071946Y0078417D01*
X0072008Y0078408D01*
X0072070Y0078402D01*
X0072133Y0078400D01*
X0072176Y0078402D01*
X0072218Y0078407D01*
X0072260Y0078417D01*
X0072300Y0078429D01*
X0072340Y0078446D01*
X0072378Y0078466D01*
X0072413Y0078488D01*
X0072447Y0078514D01*
X0072479Y0078543D01*
X0072508Y0078575D01*
X0072534Y0078609D01*
X0072556Y0078645D01*
X0072576Y0078682D01*
X0072593Y0078722D01*
X0072605Y0078762D01*
X0072615Y0078804D01*
X0072620Y0078846D01*
X0072622Y0078889D01*
X0072623Y0078889D02*
X0072621Y0078932D01*
X0072616Y0078975D01*
X0072606Y0079017D01*
X0072594Y0079058D01*
X0072577Y0079097D01*
X0072558Y0079136D01*
X0072535Y0079172D01*
X0072509Y0079206D01*
X0072480Y0079238D01*
X0072448Y0079267D01*
X0072414Y0079294D01*
X0072378Y0079317D01*
X0068700Y0081361D02*
X0068698Y0081313D01*
X0068692Y0081265D01*
X0068683Y0081218D01*
X0068670Y0081172D01*
X0068653Y0081127D01*
X0068633Y0081084D01*
X0068610Y0081042D01*
X0068583Y0081002D01*
X0068554Y0080964D01*
X0068521Y0080929D01*
X0068486Y0080896D01*
X0068448Y0080867D01*
X0068408Y0080840D01*
X0068366Y0080817D01*
X0068323Y0080797D01*
X0068278Y0080780D01*
X0068232Y0080767D01*
X0068185Y0080758D01*
X0068137Y0080752D01*
X0068089Y0080750D01*
X0068041Y0080752D01*
X0067993Y0080758D01*
X0067946Y0080767D01*
X0067900Y0080780D01*
X0067855Y0080797D01*
X0067812Y0080817D01*
X0067770Y0080840D01*
X0067730Y0080867D01*
X0067692Y0080896D01*
X0067657Y0080929D01*
X0067624Y0080964D01*
X0067595Y0081002D01*
X0067568Y0081042D01*
X0067545Y0081084D01*
X0067525Y0081127D01*
X0067508Y0081172D01*
X0067495Y0081218D01*
X0067486Y0081265D01*
X0067480Y0081313D01*
X0067478Y0081361D01*
X0067480Y0081409D01*
X0067486Y0081457D01*
X0067495Y0081504D01*
X0067508Y0081550D01*
X0067525Y0081595D01*
X0067545Y0081638D01*
X0067568Y0081680D01*
X0067595Y0081720D01*
X0067624Y0081758D01*
X0067657Y0081793D01*
X0067692Y0081826D01*
X0067730Y0081855D01*
X0067770Y0081882D01*
X0067812Y0081905D01*
X0067855Y0081925D01*
X0067900Y0081942D01*
X0067946Y0081955D01*
X0067993Y0081964D01*
X0068041Y0081970D01*
X0068089Y0081972D01*
X0068137Y0081970D01*
X0068185Y0081964D01*
X0068232Y0081955D01*
X0068278Y0081942D01*
X0068323Y0081925D01*
X0068366Y0081905D01*
X0068408Y0081882D01*
X0068448Y0081855D01*
X0068486Y0081826D01*
X0068521Y0081793D01*
X0068554Y0081758D01*
X0068583Y0081720D01*
X0068610Y0081680D01*
X0068633Y0081638D01*
X0068653Y0081595D01*
X0068670Y0081550D01*
X0068683Y0081504D01*
X0068692Y0081457D01*
X0068698Y0081409D01*
X0068700Y0081361D01*
X0068578Y0082461D02*
X0068576Y0082418D01*
X0068571Y0082376D01*
X0068561Y0082334D01*
X0068549Y0082294D01*
X0068532Y0082254D01*
X0068512Y0082217D01*
X0068490Y0082181D01*
X0068464Y0082147D01*
X0068435Y0082115D01*
X0068403Y0082086D01*
X0068369Y0082060D01*
X0068334Y0082038D01*
X0068296Y0082018D01*
X0068256Y0082001D01*
X0068216Y0081989D01*
X0068174Y0081979D01*
X0068132Y0081974D01*
X0068089Y0081972D01*
X0068046Y0081974D01*
X0068004Y0081979D01*
X0067962Y0081989D01*
X0067922Y0082001D01*
X0067882Y0082018D01*
X0067845Y0082038D01*
X0067809Y0082060D01*
X0067775Y0082086D01*
X0067743Y0082115D01*
X0067714Y0082147D01*
X0067688Y0082181D01*
X0067666Y0082217D01*
X0067646Y0082254D01*
X0067629Y0082294D01*
X0067617Y0082334D01*
X0067607Y0082376D01*
X0067602Y0082418D01*
X0067600Y0082461D01*
X0067602Y0082504D01*
X0067607Y0082546D01*
X0067617Y0082588D01*
X0067629Y0082628D01*
X0067646Y0082668D01*
X0067666Y0082706D01*
X0067688Y0082741D01*
X0067714Y0082775D01*
X0067743Y0082807D01*
X0067775Y0082836D01*
X0067809Y0082862D01*
X0067845Y0082884D01*
X0067882Y0082904D01*
X0067922Y0082921D01*
X0067962Y0082933D01*
X0068004Y0082943D01*
X0068046Y0082948D01*
X0068089Y0082950D01*
X0068132Y0082948D01*
X0068174Y0082943D01*
X0068216Y0082933D01*
X0068256Y0082921D01*
X0068296Y0082904D01*
X0068334Y0082884D01*
X0068369Y0082862D01*
X0068403Y0082836D01*
X0068435Y0082807D01*
X0068464Y0082775D01*
X0068490Y0082741D01*
X0068512Y0082706D01*
X0068532Y0082668D01*
X0068549Y0082628D01*
X0068561Y0082588D01*
X0068571Y0082546D01*
X0068576Y0082504D01*
X0068578Y0082461D01*
X0066065Y0081728D02*
X0066554Y0080750D01*
X0065943Y0081728D02*
X0065332Y0081728D01*
X0065943Y0081728D02*
X0065991Y0081730D01*
X0066039Y0081736D01*
X0066086Y0081745D01*
X0066132Y0081758D01*
X0066177Y0081775D01*
X0066220Y0081795D01*
X0066262Y0081818D01*
X0066302Y0081845D01*
X0066340Y0081874D01*
X0066375Y0081907D01*
X0066408Y0081942D01*
X0066437Y0081980D01*
X0066464Y0082020D01*
X0066487Y0082062D01*
X0066507Y0082105D01*
X0066524Y0082150D01*
X0066537Y0082196D01*
X0066546Y0082243D01*
X0066552Y0082291D01*
X0066554Y0082339D01*
X0066552Y0082387D01*
X0066546Y0082435D01*
X0066537Y0082482D01*
X0066524Y0082528D01*
X0066507Y0082573D01*
X0066487Y0082616D01*
X0066464Y0082658D01*
X0066437Y0082698D01*
X0066408Y0082736D01*
X0066375Y0082771D01*
X0066340Y0082804D01*
X0066302Y0082833D01*
X0066262Y0082860D01*
X0066220Y0082883D01*
X0066177Y0082903D01*
X0066132Y0082920D01*
X0066086Y0082933D01*
X0066039Y0082942D01*
X0065991Y0082948D01*
X0065943Y0082950D01*
X0065332Y0082950D01*
X0065332Y0080750D01*
X0045190Y0080350D02*
X0044456Y0080350D01*
X0043628Y0080350D02*
X0043139Y0080350D01*
X0043096Y0080348D01*
X0043054Y0080343D01*
X0043012Y0080333D01*
X0042972Y0080321D01*
X0042932Y0080304D01*
X0042894Y0080284D01*
X0042859Y0080262D01*
X0042825Y0080236D01*
X0042793Y0080207D01*
X0042764Y0080175D01*
X0042738Y0080141D01*
X0042716Y0080105D01*
X0042696Y0080068D01*
X0042679Y0080028D01*
X0042667Y0079988D01*
X0042657Y0079946D01*
X0042652Y0079904D01*
X0042650Y0079861D01*
X0042650Y0078639D01*
X0042652Y0078596D01*
X0042657Y0078554D01*
X0042667Y0078512D01*
X0042679Y0078472D01*
X0042696Y0078432D01*
X0042716Y0078395D01*
X0042738Y0078359D01*
X0042764Y0078325D01*
X0042793Y0078293D01*
X0042825Y0078264D01*
X0042859Y0078238D01*
X0042895Y0078216D01*
X0042932Y0078196D01*
X0042972Y0078179D01*
X0043012Y0078167D01*
X0043054Y0078157D01*
X0043096Y0078152D01*
X0043139Y0078150D01*
X0043628Y0078150D01*
X0044456Y0078150D02*
X0045067Y0078150D01*
X0045115Y0078152D01*
X0045163Y0078158D01*
X0045210Y0078167D01*
X0045256Y0078180D01*
X0045301Y0078197D01*
X0045344Y0078217D01*
X0045386Y0078240D01*
X0045426Y0078267D01*
X0045464Y0078296D01*
X0045499Y0078329D01*
X0045532Y0078364D01*
X0045561Y0078402D01*
X0045588Y0078442D01*
X0045611Y0078484D01*
X0045631Y0078527D01*
X0045648Y0078572D01*
X0045661Y0078618D01*
X0045670Y0078665D01*
X0045676Y0078713D01*
X0045678Y0078761D01*
X0045676Y0078809D01*
X0045670Y0078857D01*
X0045661Y0078904D01*
X0045648Y0078950D01*
X0045631Y0078995D01*
X0045611Y0079038D01*
X0045588Y0079080D01*
X0045561Y0079120D01*
X0045532Y0079158D01*
X0045499Y0079193D01*
X0045464Y0079226D01*
X0045426Y0079255D01*
X0045386Y0079282D01*
X0045344Y0079305D01*
X0045301Y0079325D01*
X0045256Y0079342D01*
X0045210Y0079355D01*
X0045163Y0079364D01*
X0045115Y0079370D01*
X0045067Y0079372D01*
X0045190Y0079372D02*
X0044701Y0079372D01*
X0045190Y0079372D02*
X0045233Y0079374D01*
X0045275Y0079379D01*
X0045317Y0079389D01*
X0045357Y0079401D01*
X0045397Y0079418D01*
X0045435Y0079438D01*
X0045470Y0079460D01*
X0045504Y0079486D01*
X0045536Y0079515D01*
X0045565Y0079547D01*
X0045591Y0079581D01*
X0045613Y0079617D01*
X0045633Y0079654D01*
X0045650Y0079694D01*
X0045662Y0079734D01*
X0045672Y0079776D01*
X0045677Y0079818D01*
X0045679Y0079861D01*
X0045677Y0079904D01*
X0045672Y0079946D01*
X0045662Y0079988D01*
X0045650Y0080028D01*
X0045633Y0080068D01*
X0045613Y0080106D01*
X0045591Y0080141D01*
X0045565Y0080175D01*
X0045536Y0080207D01*
X0045504Y0080236D01*
X0045470Y0080262D01*
X0045435Y0080284D01*
X0045397Y0080304D01*
X0045357Y0080321D01*
X0045317Y0080333D01*
X0045275Y0080343D01*
X0045233Y0080348D01*
X0045190Y0080350D01*
X0042268Y0081628D02*
X0042268Y0082239D01*
X0042266Y0082287D01*
X0042260Y0082335D01*
X0042251Y0082382D01*
X0042238Y0082428D01*
X0042221Y0082473D01*
X0042201Y0082516D01*
X0042178Y0082558D01*
X0042151Y0082598D01*
X0042122Y0082636D01*
X0042089Y0082671D01*
X0042054Y0082704D01*
X0042016Y0082733D01*
X0041976Y0082760D01*
X0041934Y0082783D01*
X0041891Y0082803D01*
X0041846Y0082820D01*
X0041800Y0082833D01*
X0041753Y0082842D01*
X0041705Y0082848D01*
X0041657Y0082850D01*
X0041609Y0082848D01*
X0041561Y0082842D01*
X0041514Y0082833D01*
X0041468Y0082820D01*
X0041423Y0082803D01*
X0041380Y0082783D01*
X0041338Y0082760D01*
X0041298Y0082733D01*
X0041260Y0082704D01*
X0041225Y0082671D01*
X0041192Y0082636D01*
X0041163Y0082598D01*
X0041136Y0082558D01*
X0041113Y0082516D01*
X0041093Y0082473D01*
X0041076Y0082428D01*
X0041063Y0082382D01*
X0041054Y0082335D01*
X0041048Y0082287D01*
X0041046Y0082239D01*
X0041046Y0082117D01*
X0041048Y0082074D01*
X0041053Y0082032D01*
X0041063Y0081990D01*
X0041075Y0081950D01*
X0041092Y0081910D01*
X0041112Y0081873D01*
X0041134Y0081837D01*
X0041160Y0081803D01*
X0041189Y0081771D01*
X0041221Y0081742D01*
X0041255Y0081716D01*
X0041290Y0081694D01*
X0041328Y0081674D01*
X0041368Y0081657D01*
X0041408Y0081645D01*
X0041450Y0081635D01*
X0041492Y0081630D01*
X0041535Y0081628D01*
X0042268Y0081628D01*
X0042266Y0081567D01*
X0042260Y0081505D01*
X0042251Y0081445D01*
X0042237Y0081385D01*
X0042220Y0081326D01*
X0042199Y0081268D01*
X0042175Y0081212D01*
X0042147Y0081157D01*
X0042116Y0081104D01*
X0042081Y0081053D01*
X0042044Y0081005D01*
X0042003Y0080959D01*
X0041959Y0080915D01*
X0041913Y0080874D01*
X0041865Y0080837D01*
X0041814Y0080802D01*
X0041761Y0080771D01*
X0041706Y0080743D01*
X0041650Y0080719D01*
X0041592Y0080698D01*
X0041533Y0080681D01*
X0041473Y0080667D01*
X0041413Y0080658D01*
X0041351Y0080652D01*
X0041290Y0080650D01*
X0040122Y0080650D02*
X0039633Y0081628D01*
X0039511Y0081628D02*
X0038900Y0081628D01*
X0039511Y0081628D02*
X0039559Y0081630D01*
X0039607Y0081636D01*
X0039654Y0081645D01*
X0039700Y0081658D01*
X0039745Y0081675D01*
X0039788Y0081695D01*
X0039830Y0081718D01*
X0039870Y0081745D01*
X0039908Y0081774D01*
X0039943Y0081807D01*
X0039976Y0081842D01*
X0040005Y0081880D01*
X0040032Y0081920D01*
X0040055Y0081962D01*
X0040075Y0082005D01*
X0040092Y0082050D01*
X0040105Y0082096D01*
X0040114Y0082143D01*
X0040120Y0082191D01*
X0040122Y0082239D01*
X0040120Y0082287D01*
X0040114Y0082335D01*
X0040105Y0082382D01*
X0040092Y0082428D01*
X0040075Y0082473D01*
X0040055Y0082516D01*
X0040032Y0082558D01*
X0040005Y0082598D01*
X0039976Y0082636D01*
X0039943Y0082671D01*
X0039908Y0082704D01*
X0039870Y0082733D01*
X0039830Y0082760D01*
X0039788Y0082783D01*
X0039745Y0082803D01*
X0039700Y0082820D01*
X0039654Y0082833D01*
X0039607Y0082842D01*
X0039559Y0082848D01*
X0039511Y0082850D01*
X0038900Y0082850D01*
X0038900Y0080650D01*
X0022450Y0078589D02*
X0022450Y0077978D01*
X0021717Y0077978D01*
X0022450Y0077978D02*
X0022448Y0077917D01*
X0022442Y0077855D01*
X0022433Y0077795D01*
X0022419Y0077735D01*
X0022402Y0077676D01*
X0022381Y0077618D01*
X0022357Y0077562D01*
X0022329Y0077507D01*
X0022298Y0077454D01*
X0022263Y0077403D01*
X0022226Y0077355D01*
X0022185Y0077309D01*
X0022141Y0077265D01*
X0022095Y0077224D01*
X0022047Y0077187D01*
X0021996Y0077152D01*
X0021943Y0077121D01*
X0021888Y0077093D01*
X0021832Y0077069D01*
X0021774Y0077048D01*
X0021715Y0077031D01*
X0021655Y0077017D01*
X0021595Y0077008D01*
X0021533Y0077002D01*
X0021472Y0077000D01*
X0020399Y0077000D02*
X0019910Y0077000D01*
X0019867Y0077002D01*
X0019825Y0077007D01*
X0019783Y0077017D01*
X0019743Y0077029D01*
X0019703Y0077046D01*
X0019666Y0077066D01*
X0019630Y0077088D01*
X0019596Y0077114D01*
X0019564Y0077143D01*
X0019535Y0077175D01*
X0019509Y0077209D01*
X0019487Y0077245D01*
X0019467Y0077282D01*
X0019450Y0077322D01*
X0019438Y0077362D01*
X0019428Y0077404D01*
X0019423Y0077446D01*
X0019421Y0077489D01*
X0019421Y0078711D01*
X0019423Y0078754D01*
X0019428Y0078796D01*
X0019438Y0078838D01*
X0019450Y0078878D01*
X0019467Y0078918D01*
X0019487Y0078955D01*
X0019509Y0078991D01*
X0019535Y0079025D01*
X0019564Y0079057D01*
X0019596Y0079086D01*
X0019630Y0079112D01*
X0019665Y0079134D01*
X0019703Y0079154D01*
X0019743Y0079171D01*
X0019783Y0079183D01*
X0019825Y0079193D01*
X0019867Y0079198D01*
X0019910Y0079200D01*
X0020399Y0079200D01*
X0021228Y0078589D02*
X0021228Y0078467D01*
X0021230Y0078424D01*
X0021235Y0078382D01*
X0021245Y0078340D01*
X0021257Y0078300D01*
X0021274Y0078260D01*
X0021294Y0078223D01*
X0021316Y0078187D01*
X0021342Y0078153D01*
X0021371Y0078121D01*
X0021403Y0078092D01*
X0021437Y0078066D01*
X0021472Y0078044D01*
X0021510Y0078024D01*
X0021550Y0078007D01*
X0021590Y0077995D01*
X0021632Y0077985D01*
X0021674Y0077980D01*
X0021717Y0077978D01*
X0021228Y0078589D02*
X0021230Y0078637D01*
X0021236Y0078685D01*
X0021245Y0078732D01*
X0021258Y0078778D01*
X0021275Y0078823D01*
X0021295Y0078866D01*
X0021318Y0078908D01*
X0021345Y0078948D01*
X0021374Y0078986D01*
X0021407Y0079021D01*
X0021442Y0079054D01*
X0021480Y0079083D01*
X0021520Y0079110D01*
X0021562Y0079133D01*
X0021605Y0079153D01*
X0021650Y0079170D01*
X0021696Y0079183D01*
X0021743Y0079192D01*
X0021791Y0079198D01*
X0021839Y0079200D01*
X0021887Y0079198D01*
X0021935Y0079192D01*
X0021982Y0079183D01*
X0022028Y0079170D01*
X0022073Y0079153D01*
X0022116Y0079133D01*
X0022158Y0079110D01*
X0022198Y0079083D01*
X0022236Y0079054D01*
X0022271Y0079021D01*
X0022304Y0078986D01*
X0022333Y0078948D01*
X0022360Y0078908D01*
X0022383Y0078866D01*
X0022403Y0078823D01*
X0022420Y0078778D01*
X0022433Y0078732D01*
X0022442Y0078685D01*
X0022448Y0078637D01*
X0022450Y0078589D01*
X0013389Y0089100D02*
X0011800Y0089100D01*
X0011800Y0090322D02*
X0013389Y0090322D01*
X0013437Y0090320D01*
X0013485Y0090314D01*
X0013532Y0090305D01*
X0013578Y0090292D01*
X0013623Y0090275D01*
X0013666Y0090255D01*
X0013708Y0090232D01*
X0013748Y0090205D01*
X0013786Y0090176D01*
X0013821Y0090143D01*
X0013854Y0090108D01*
X0013883Y0090070D01*
X0013910Y0090030D01*
X0013933Y0089988D01*
X0013953Y0089945D01*
X0013970Y0089900D01*
X0013983Y0089854D01*
X0013992Y0089807D01*
X0013998Y0089759D01*
X0014000Y0089711D01*
X0013998Y0089663D01*
X0013992Y0089615D01*
X0013983Y0089568D01*
X0013970Y0089522D01*
X0013953Y0089477D01*
X0013933Y0089434D01*
X0013910Y0089392D01*
X0013883Y0089352D01*
X0013854Y0089314D01*
X0013821Y0089279D01*
X0013786Y0089246D01*
X0013748Y0089217D01*
X0013708Y0089190D01*
X0013666Y0089167D01*
X0013623Y0089147D01*
X0013578Y0089130D01*
X0013532Y0089117D01*
X0013485Y0089108D01*
X0013437Y0089102D01*
X0013389Y0089100D01*
X0012717Y0091566D02*
X0013083Y0092238D01*
X0014000Y0091993D02*
X0013998Y0091930D01*
X0013992Y0091868D01*
X0013983Y0091806D01*
X0013970Y0091745D01*
X0013953Y0091684D01*
X0013932Y0091625D01*
X0013908Y0091567D01*
X0013880Y0091511D01*
X0013849Y0091456D01*
X0013815Y0091403D01*
X0013778Y0091353D01*
X0013738Y0091305D01*
X0013694Y0091260D01*
X0013083Y0092238D02*
X0013106Y0092274D01*
X0013133Y0092308D01*
X0013162Y0092340D01*
X0013194Y0092369D01*
X0013228Y0092395D01*
X0013264Y0092418D01*
X0013303Y0092437D01*
X0013342Y0092454D01*
X0013383Y0092466D01*
X0013425Y0092476D01*
X0013468Y0092481D01*
X0013511Y0092483D01*
X0013511Y0092482D02*
X0013554Y0092480D01*
X0013596Y0092475D01*
X0013638Y0092465D01*
X0013678Y0092453D01*
X0013718Y0092436D01*
X0013756Y0092416D01*
X0013791Y0092394D01*
X0013825Y0092368D01*
X0013857Y0092339D01*
X0013886Y0092307D01*
X0013912Y0092273D01*
X0013934Y0092238D01*
X0013954Y0092200D01*
X0013971Y0092160D01*
X0013983Y0092120D01*
X0013993Y0092078D01*
X0013998Y0092036D01*
X0014000Y0091993D01*
X0011983Y0092360D02*
X0011950Y0092312D01*
X0011919Y0092262D01*
X0011891Y0092209D01*
X0011868Y0092155D01*
X0011847Y0092100D01*
X0011830Y0092043D01*
X0011817Y0091986D01*
X0011808Y0091928D01*
X0011802Y0091869D01*
X0011800Y0091810D01*
X0011802Y0091767D01*
X0011807Y0091725D01*
X0011817Y0091683D01*
X0011829Y0091643D01*
X0011846Y0091603D01*
X0011866Y0091566D01*
X0011888Y0091530D01*
X0011914Y0091496D01*
X0011943Y0091464D01*
X0011975Y0091435D01*
X0012009Y0091409D01*
X0012045Y0091387D01*
X0012082Y0091367D01*
X0012122Y0091350D01*
X0012162Y0091338D01*
X0012204Y0091328D01*
X0012246Y0091323D01*
X0012289Y0091321D01*
X0012332Y0091323D01*
X0012375Y0091328D01*
X0012417Y0091338D01*
X0012458Y0091350D01*
X0012497Y0091367D01*
X0012536Y0091386D01*
X0012572Y0091409D01*
X0012606Y0091435D01*
X0012638Y0091464D01*
X0012667Y0091496D01*
X0012694Y0091530D01*
X0012717Y0091566D01*
X0012778Y0093453D02*
X0012778Y0094064D01*
X0012776Y0094107D01*
X0012771Y0094149D01*
X0012761Y0094191D01*
X0012749Y0094231D01*
X0012732Y0094271D01*
X0012712Y0094309D01*
X0012690Y0094344D01*
X0012664Y0094378D01*
X0012635Y0094410D01*
X0012603Y0094439D01*
X0012569Y0094465D01*
X0012534Y0094487D01*
X0012496Y0094507D01*
X0012456Y0094524D01*
X0012416Y0094536D01*
X0012374Y0094546D01*
X0012332Y0094551D01*
X0012289Y0094553D01*
X0012246Y0094551D01*
X0012204Y0094546D01*
X0012162Y0094536D01*
X0012122Y0094524D01*
X0012082Y0094507D01*
X0012045Y0094487D01*
X0012009Y0094465D01*
X0011975Y0094439D01*
X0011943Y0094410D01*
X0011914Y0094378D01*
X0011888Y0094344D01*
X0011866Y0094309D01*
X0011846Y0094271D01*
X0011829Y0094231D01*
X0011817Y0094191D01*
X0011807Y0094149D01*
X0011802Y0094107D01*
X0011800Y0094064D01*
X0011800Y0093453D01*
X0014000Y0093453D01*
X0014000Y0094064D01*
X0013998Y0094112D01*
X0013992Y0094160D01*
X0013983Y0094207D01*
X0013970Y0094253D01*
X0013953Y0094298D01*
X0013933Y0094341D01*
X0013910Y0094383D01*
X0013883Y0094423D01*
X0013854Y0094461D01*
X0013821Y0094496D01*
X0013786Y0094529D01*
X0013748Y0094558D01*
X0013708Y0094585D01*
X0013666Y0094608D01*
X0013623Y0094628D01*
X0013578Y0094645D01*
X0013532Y0094658D01*
X0013485Y0094667D01*
X0013437Y0094673D01*
X0013389Y0094675D01*
X0013341Y0094673D01*
X0013293Y0094667D01*
X0013246Y0094658D01*
X0013200Y0094645D01*
X0013155Y0094628D01*
X0013112Y0094608D01*
X0013070Y0094585D01*
X0013030Y0094558D01*
X0012992Y0094529D01*
X0012957Y0094496D01*
X0012924Y0094461D01*
X0012895Y0094423D01*
X0012868Y0094383D01*
X0012845Y0094341D01*
X0012825Y0094298D01*
X0012808Y0094253D01*
X0012795Y0094207D01*
X0012786Y0094160D01*
X0012780Y0094112D01*
X0012778Y0094064D01*
X0044136Y0104800D02*
X0044136Y0107000D01*
X0044136Y0106022D02*
X0045358Y0106022D01*
X0045358Y0107000D02*
X0045358Y0104800D01*
X0046246Y0104800D02*
X0046979Y0107000D01*
X0047712Y0104800D01*
X0047529Y0105350D02*
X0046429Y0105350D01*
X0048604Y0104800D02*
X0048604Y0107000D01*
X0050476Y0107000D02*
X0050476Y0104800D01*
X0051454Y0104800D01*
X0052178Y0104556D02*
X0053156Y0104556D01*
X0054906Y0105717D02*
X0054942Y0105694D01*
X0054976Y0105667D01*
X0055008Y0105638D01*
X0055037Y0105606D01*
X0055063Y0105572D01*
X0055086Y0105536D01*
X0055105Y0105497D01*
X0055122Y0105458D01*
X0055134Y0105417D01*
X0055144Y0105375D01*
X0055149Y0105332D01*
X0055151Y0105289D01*
X0055150Y0105289D02*
X0055148Y0105246D01*
X0055143Y0105204D01*
X0055133Y0105162D01*
X0055121Y0105122D01*
X0055104Y0105082D01*
X0055084Y0105045D01*
X0055062Y0105009D01*
X0055036Y0104975D01*
X0055007Y0104943D01*
X0054975Y0104914D01*
X0054941Y0104888D01*
X0054906Y0104866D01*
X0054868Y0104846D01*
X0054828Y0104829D01*
X0054788Y0104817D01*
X0054746Y0104807D01*
X0054704Y0104802D01*
X0054661Y0104800D01*
X0054906Y0105717D02*
X0054233Y0106083D01*
X0054478Y0107000D02*
X0054537Y0106998D01*
X0054596Y0106992D01*
X0054654Y0106983D01*
X0054711Y0106970D01*
X0054768Y0106953D01*
X0054823Y0106932D01*
X0054877Y0106909D01*
X0054929Y0106881D01*
X0054980Y0106850D01*
X0055028Y0106817D01*
X0054234Y0106083D02*
X0054198Y0106106D01*
X0054164Y0106133D01*
X0054132Y0106162D01*
X0054103Y0106194D01*
X0054077Y0106228D01*
X0054054Y0106264D01*
X0054035Y0106303D01*
X0054018Y0106342D01*
X0054006Y0106383D01*
X0053996Y0106425D01*
X0053991Y0106468D01*
X0053989Y0106511D01*
X0053991Y0106554D01*
X0053996Y0106596D01*
X0054006Y0106638D01*
X0054018Y0106678D01*
X0054035Y0106718D01*
X0054055Y0106756D01*
X0054077Y0106791D01*
X0054103Y0106825D01*
X0054132Y0106857D01*
X0054164Y0106886D01*
X0054198Y0106912D01*
X0054234Y0106934D01*
X0054271Y0106954D01*
X0054311Y0106971D01*
X0054351Y0106983D01*
X0054393Y0106993D01*
X0054435Y0106998D01*
X0054478Y0107000D01*
X0053928Y0105106D02*
X0053973Y0105062D01*
X0054021Y0105022D01*
X0054071Y0104985D01*
X0054124Y0104951D01*
X0054179Y0104920D01*
X0054235Y0104892D01*
X0054293Y0104868D01*
X0054352Y0104847D01*
X0054413Y0104830D01*
X0054474Y0104817D01*
X0054536Y0104808D01*
X0054598Y0104802D01*
X0054661Y0104800D01*
X0056092Y0104800D02*
X0056092Y0107000D01*
X0057070Y0107000D01*
X0057960Y0107000D02*
X0059182Y0104800D01*
X0059182Y0107000D01*
X0057960Y0107000D02*
X0057960Y0104800D01*
X0057070Y0104800D02*
X0056092Y0104800D01*
X0056092Y0106022D02*
X0056826Y0106022D01*
X0060425Y0106083D02*
X0061098Y0105717D01*
X0060853Y0104800D02*
X0060790Y0104802D01*
X0060728Y0104808D01*
X0060666Y0104817D01*
X0060605Y0104830D01*
X0060544Y0104847D01*
X0060485Y0104868D01*
X0060427Y0104892D01*
X0060371Y0104920D01*
X0060316Y0104951D01*
X0060263Y0104985D01*
X0060213Y0105022D01*
X0060165Y0105062D01*
X0060120Y0105106D01*
X0061097Y0105717D02*
X0061133Y0105694D01*
X0061167Y0105667D01*
X0061199Y0105638D01*
X0061228Y0105606D01*
X0061254Y0105572D01*
X0061277Y0105536D01*
X0061296Y0105497D01*
X0061313Y0105458D01*
X0061325Y0105417D01*
X0061335Y0105375D01*
X0061340Y0105332D01*
X0061342Y0105289D01*
X0061340Y0105246D01*
X0061335Y0105204D01*
X0061325Y0105162D01*
X0061313Y0105122D01*
X0061296Y0105082D01*
X0061276Y0105045D01*
X0061254Y0105009D01*
X0061228Y0104975D01*
X0061199Y0104943D01*
X0061167Y0104914D01*
X0061133Y0104888D01*
X0061098Y0104866D01*
X0061060Y0104846D01*
X0061020Y0104829D01*
X0060980Y0104817D01*
X0060938Y0104807D01*
X0060896Y0104802D01*
X0060853Y0104800D01*
X0061220Y0106817D02*
X0061172Y0106850D01*
X0061121Y0106881D01*
X0061069Y0106909D01*
X0061015Y0106932D01*
X0060960Y0106953D01*
X0060903Y0106970D01*
X0060846Y0106983D01*
X0060788Y0106992D01*
X0060729Y0106998D01*
X0060670Y0107000D01*
X0060627Y0106998D01*
X0060585Y0106993D01*
X0060543Y0106983D01*
X0060503Y0106971D01*
X0060463Y0106954D01*
X0060426Y0106934D01*
X0060390Y0106912D01*
X0060356Y0106886D01*
X0060324Y0106857D01*
X0060295Y0106825D01*
X0060269Y0106791D01*
X0060247Y0106756D01*
X0060227Y0106718D01*
X0060210Y0106678D01*
X0060198Y0106638D01*
X0060188Y0106596D01*
X0060183Y0106554D01*
X0060181Y0106511D01*
X0060180Y0106511D02*
X0060182Y0106468D01*
X0060187Y0106425D01*
X0060197Y0106383D01*
X0060209Y0106342D01*
X0060226Y0106303D01*
X0060245Y0106264D01*
X0060268Y0106228D01*
X0060294Y0106194D01*
X0060323Y0106162D01*
X0060355Y0106133D01*
X0060389Y0106106D01*
X0060425Y0106083D01*
X0062208Y0106389D02*
X0062208Y0105411D01*
X0062210Y0105363D01*
X0062216Y0105315D01*
X0062225Y0105268D01*
X0062238Y0105222D01*
X0062255Y0105177D01*
X0062275Y0105134D01*
X0062298Y0105092D01*
X0062325Y0105052D01*
X0062354Y0105014D01*
X0062387Y0104979D01*
X0062422Y0104946D01*
X0062460Y0104917D01*
X0062500Y0104890D01*
X0062542Y0104867D01*
X0062585Y0104847D01*
X0062630Y0104830D01*
X0062676Y0104817D01*
X0062723Y0104808D01*
X0062771Y0104802D01*
X0062819Y0104800D01*
X0062867Y0104802D01*
X0062915Y0104808D01*
X0062962Y0104817D01*
X0063008Y0104830D01*
X0063053Y0104847D01*
X0063096Y0104867D01*
X0063138Y0104890D01*
X0063178Y0104917D01*
X0063216Y0104946D01*
X0063251Y0104979D01*
X0063284Y0105014D01*
X0063313Y0105052D01*
X0063340Y0105092D01*
X0063363Y0105134D01*
X0063383Y0105177D01*
X0063400Y0105222D01*
X0063413Y0105268D01*
X0063422Y0105315D01*
X0063428Y0105363D01*
X0063430Y0105411D01*
X0063430Y0106389D01*
X0063428Y0106437D01*
X0063422Y0106485D01*
X0063413Y0106532D01*
X0063400Y0106578D01*
X0063383Y0106623D01*
X0063363Y0106666D01*
X0063340Y0106708D01*
X0063313Y0106748D01*
X0063284Y0106786D01*
X0063251Y0106821D01*
X0063216Y0106854D01*
X0063178Y0106883D01*
X0063138Y0106910D01*
X0063096Y0106933D01*
X0063053Y0106953D01*
X0063008Y0106970D01*
X0062962Y0106983D01*
X0062915Y0106992D01*
X0062867Y0106998D01*
X0062819Y0107000D01*
X0062771Y0106998D01*
X0062723Y0106992D01*
X0062676Y0106983D01*
X0062630Y0106970D01*
X0062585Y0106953D01*
X0062542Y0106933D01*
X0062500Y0106910D01*
X0062460Y0106883D01*
X0062422Y0106854D01*
X0062387Y0106821D01*
X0062354Y0106786D01*
X0062325Y0106748D01*
X0062298Y0106708D01*
X0062275Y0106666D01*
X0062255Y0106623D01*
X0062238Y0106578D01*
X0062225Y0106532D01*
X0062216Y0106485D01*
X0062210Y0106437D01*
X0062208Y0106389D01*
X0064454Y0107000D02*
X0064454Y0104800D01*
X0064454Y0105778D02*
X0065065Y0105778D01*
X0065187Y0105778D02*
X0065676Y0104800D01*
X0067505Y0105717D02*
X0067541Y0105694D01*
X0067575Y0105667D01*
X0067607Y0105638D01*
X0067636Y0105606D01*
X0067662Y0105572D01*
X0067685Y0105536D01*
X0067704Y0105497D01*
X0067721Y0105458D01*
X0067733Y0105417D01*
X0067743Y0105375D01*
X0067748Y0105332D01*
X0067750Y0105289D01*
X0067748Y0105246D01*
X0067743Y0105204D01*
X0067733Y0105162D01*
X0067721Y0105122D01*
X0067704Y0105082D01*
X0067684Y0105045D01*
X0067662Y0105009D01*
X0067636Y0104975D01*
X0067607Y0104943D01*
X0067575Y0104914D01*
X0067541Y0104888D01*
X0067506Y0104866D01*
X0067468Y0104846D01*
X0067428Y0104829D01*
X0067388Y0104817D01*
X0067346Y0104807D01*
X0067304Y0104802D01*
X0067261Y0104800D01*
X0067506Y0105717D02*
X0066833Y0106083D01*
X0067078Y0107000D02*
X0067137Y0106998D01*
X0067196Y0106992D01*
X0067254Y0106983D01*
X0067311Y0106970D01*
X0067368Y0106953D01*
X0067423Y0106932D01*
X0067477Y0106909D01*
X0067529Y0106881D01*
X0067580Y0106850D01*
X0067628Y0106817D01*
X0066833Y0106083D02*
X0066797Y0106106D01*
X0066763Y0106133D01*
X0066731Y0106162D01*
X0066702Y0106194D01*
X0066676Y0106228D01*
X0066653Y0106264D01*
X0066634Y0106303D01*
X0066617Y0106342D01*
X0066605Y0106383D01*
X0066595Y0106425D01*
X0066590Y0106468D01*
X0066588Y0106511D01*
X0066589Y0106511D02*
X0066591Y0106554D01*
X0066596Y0106596D01*
X0066606Y0106638D01*
X0066618Y0106678D01*
X0066635Y0106718D01*
X0066655Y0106756D01*
X0066677Y0106791D01*
X0066703Y0106825D01*
X0066732Y0106857D01*
X0066764Y0106886D01*
X0066798Y0106912D01*
X0066834Y0106934D01*
X0066871Y0106954D01*
X0066911Y0106971D01*
X0066951Y0106983D01*
X0066993Y0106993D01*
X0067035Y0106998D01*
X0067078Y0107000D01*
X0066528Y0105106D02*
X0066573Y0105062D01*
X0066621Y0105022D01*
X0066671Y0104985D01*
X0066724Y0104951D01*
X0066779Y0104920D01*
X0066835Y0104892D01*
X0066893Y0104868D01*
X0066952Y0104847D01*
X0067013Y0104830D01*
X0067074Y0104817D01*
X0067136Y0104808D01*
X0067198Y0104802D01*
X0067261Y0104800D01*
X0065065Y0105778D02*
X0065113Y0105780D01*
X0065161Y0105786D01*
X0065208Y0105795D01*
X0065254Y0105808D01*
X0065299Y0105825D01*
X0065342Y0105845D01*
X0065384Y0105868D01*
X0065424Y0105895D01*
X0065462Y0105924D01*
X0065497Y0105957D01*
X0065530Y0105992D01*
X0065559Y0106030D01*
X0065586Y0106070D01*
X0065609Y0106112D01*
X0065629Y0106155D01*
X0065646Y0106200D01*
X0065659Y0106246D01*
X0065668Y0106293D01*
X0065674Y0106341D01*
X0065676Y0106389D01*
X0065674Y0106437D01*
X0065668Y0106485D01*
X0065659Y0106532D01*
X0065646Y0106578D01*
X0065629Y0106623D01*
X0065609Y0106666D01*
X0065586Y0106708D01*
X0065559Y0106748D01*
X0065530Y0106786D01*
X0065497Y0106821D01*
X0065462Y0106854D01*
X0065424Y0106883D01*
X0065384Y0106910D01*
X0065342Y0106933D01*
X0065299Y0106953D01*
X0065254Y0106970D01*
X0065208Y0106983D01*
X0065161Y0106992D01*
X0065113Y0106998D01*
X0065065Y0107000D01*
X0064454Y0107000D01*
X0072650Y0105600D02*
X0072650Y0103400D01*
X0073261Y0103400D01*
X0073309Y0103402D01*
X0073357Y0103408D01*
X0073404Y0103417D01*
X0073450Y0103430D01*
X0073495Y0103447D01*
X0073538Y0103467D01*
X0073580Y0103490D01*
X0073620Y0103517D01*
X0073658Y0103546D01*
X0073693Y0103579D01*
X0073726Y0103614D01*
X0073755Y0103652D01*
X0073782Y0103692D01*
X0073805Y0103734D01*
X0073825Y0103777D01*
X0073842Y0103822D01*
X0073855Y0103868D01*
X0073864Y0103915D01*
X0073870Y0103963D01*
X0073872Y0104011D01*
X0073872Y0104989D01*
X0073870Y0105037D01*
X0073864Y0105085D01*
X0073855Y0105132D01*
X0073842Y0105178D01*
X0073825Y0105223D01*
X0073805Y0105266D01*
X0073782Y0105308D01*
X0073755Y0105348D01*
X0073726Y0105386D01*
X0073693Y0105421D01*
X0073658Y0105454D01*
X0073620Y0105483D01*
X0073580Y0105510D01*
X0073538Y0105533D01*
X0073495Y0105553D01*
X0073450Y0105570D01*
X0073404Y0105583D01*
X0073357Y0105592D01*
X0073309Y0105598D01*
X0073261Y0105600D01*
X0072650Y0105600D01*
X0074904Y0104256D02*
X0076370Y0104256D01*
X0075637Y0117272D02*
X0075637Y0118739D01*
X0074904Y0118006D02*
X0076370Y0118006D01*
X0073872Y0117761D02*
X0073872Y0118739D01*
X0073870Y0118787D01*
X0073864Y0118835D01*
X0073855Y0118882D01*
X0073842Y0118928D01*
X0073825Y0118973D01*
X0073805Y0119016D01*
X0073782Y0119058D01*
X0073755Y0119098D01*
X0073726Y0119136D01*
X0073693Y0119171D01*
X0073658Y0119204D01*
X0073620Y0119233D01*
X0073580Y0119260D01*
X0073538Y0119283D01*
X0073495Y0119303D01*
X0073450Y0119320D01*
X0073404Y0119333D01*
X0073357Y0119342D01*
X0073309Y0119348D01*
X0073261Y0119350D01*
X0072650Y0119350D01*
X0072650Y0117150D01*
X0073261Y0117150D01*
X0073309Y0117152D01*
X0073357Y0117158D01*
X0073404Y0117167D01*
X0073450Y0117180D01*
X0073495Y0117197D01*
X0073538Y0117217D01*
X0073580Y0117240D01*
X0073620Y0117267D01*
X0073658Y0117296D01*
X0073693Y0117329D01*
X0073726Y0117364D01*
X0073755Y0117402D01*
X0073782Y0117442D01*
X0073805Y0117484D01*
X0073825Y0117527D01*
X0073842Y0117572D01*
X0073855Y0117618D01*
X0073864Y0117665D01*
X0073870Y0117713D01*
X0073872Y0117761D01*
X0049582Y0104800D02*
X0048604Y0104800D01*
X0048840Y0139556D02*
X0049818Y0139556D01*
X0051568Y0140717D02*
X0051604Y0140694D01*
X0051638Y0140667D01*
X0051670Y0140638D01*
X0051699Y0140606D01*
X0051725Y0140572D01*
X0051748Y0140536D01*
X0051767Y0140497D01*
X0051784Y0140458D01*
X0051796Y0140417D01*
X0051806Y0140375D01*
X0051811Y0140332D01*
X0051813Y0140289D01*
X0051812Y0140289D02*
X0051810Y0140246D01*
X0051805Y0140204D01*
X0051795Y0140162D01*
X0051783Y0140122D01*
X0051766Y0140082D01*
X0051746Y0140045D01*
X0051724Y0140009D01*
X0051698Y0139975D01*
X0051669Y0139943D01*
X0051637Y0139914D01*
X0051603Y0139888D01*
X0051568Y0139866D01*
X0051530Y0139846D01*
X0051490Y0139829D01*
X0051450Y0139817D01*
X0051408Y0139807D01*
X0051366Y0139802D01*
X0051323Y0139800D01*
X0051568Y0140717D02*
X0050895Y0141083D01*
X0051140Y0142000D02*
X0051199Y0141998D01*
X0051258Y0141992D01*
X0051316Y0141983D01*
X0051373Y0141970D01*
X0051430Y0141953D01*
X0051485Y0141932D01*
X0051539Y0141909D01*
X0051591Y0141881D01*
X0051642Y0141850D01*
X0051690Y0141817D01*
X0050896Y0141083D02*
X0050860Y0141106D01*
X0050826Y0141133D01*
X0050794Y0141162D01*
X0050765Y0141194D01*
X0050739Y0141228D01*
X0050716Y0141264D01*
X0050697Y0141303D01*
X0050680Y0141342D01*
X0050668Y0141383D01*
X0050658Y0141425D01*
X0050653Y0141468D01*
X0050651Y0141511D01*
X0050653Y0141554D01*
X0050658Y0141596D01*
X0050668Y0141638D01*
X0050680Y0141678D01*
X0050697Y0141718D01*
X0050717Y0141756D01*
X0050739Y0141791D01*
X0050765Y0141825D01*
X0050794Y0141857D01*
X0050826Y0141886D01*
X0050860Y0141912D01*
X0050896Y0141934D01*
X0050933Y0141954D01*
X0050973Y0141971D01*
X0051013Y0141983D01*
X0051055Y0141993D01*
X0051097Y0141998D01*
X0051140Y0142000D01*
X0050590Y0140106D02*
X0050635Y0140062D01*
X0050683Y0140022D01*
X0050733Y0139985D01*
X0050786Y0139951D01*
X0050841Y0139920D01*
X0050897Y0139892D01*
X0050955Y0139868D01*
X0051014Y0139847D01*
X0051075Y0139830D01*
X0051136Y0139817D01*
X0051198Y0139808D01*
X0051260Y0139802D01*
X0051323Y0139800D01*
X0052754Y0139800D02*
X0052754Y0142000D01*
X0053732Y0142000D01*
X0054622Y0142000D02*
X0055844Y0139800D01*
X0055844Y0142000D01*
X0054622Y0142000D02*
X0054622Y0139800D01*
X0053732Y0139800D02*
X0052754Y0139800D01*
X0052754Y0141022D02*
X0053488Y0141022D01*
X0057087Y0141083D02*
X0057760Y0140717D01*
X0057515Y0139800D02*
X0057452Y0139802D01*
X0057390Y0139808D01*
X0057328Y0139817D01*
X0057267Y0139830D01*
X0057206Y0139847D01*
X0057147Y0139868D01*
X0057089Y0139892D01*
X0057033Y0139920D01*
X0056978Y0139951D01*
X0056925Y0139985D01*
X0056875Y0140022D01*
X0056827Y0140062D01*
X0056782Y0140106D01*
X0057760Y0140717D02*
X0057796Y0140694D01*
X0057830Y0140667D01*
X0057862Y0140638D01*
X0057891Y0140606D01*
X0057917Y0140572D01*
X0057940Y0140536D01*
X0057959Y0140497D01*
X0057976Y0140458D01*
X0057988Y0140417D01*
X0057998Y0140375D01*
X0058003Y0140332D01*
X0058005Y0140289D01*
X0058004Y0140289D02*
X0058002Y0140246D01*
X0057997Y0140204D01*
X0057987Y0140162D01*
X0057975Y0140122D01*
X0057958Y0140082D01*
X0057938Y0140045D01*
X0057916Y0140009D01*
X0057890Y0139975D01*
X0057861Y0139943D01*
X0057829Y0139914D01*
X0057795Y0139888D01*
X0057760Y0139866D01*
X0057722Y0139846D01*
X0057682Y0139829D01*
X0057642Y0139817D01*
X0057600Y0139807D01*
X0057558Y0139802D01*
X0057515Y0139800D01*
X0057882Y0141817D02*
X0057834Y0141850D01*
X0057783Y0141881D01*
X0057731Y0141909D01*
X0057677Y0141932D01*
X0057622Y0141953D01*
X0057565Y0141970D01*
X0057508Y0141983D01*
X0057450Y0141992D01*
X0057391Y0141998D01*
X0057332Y0142000D01*
X0057289Y0141998D01*
X0057247Y0141993D01*
X0057205Y0141983D01*
X0057165Y0141971D01*
X0057125Y0141954D01*
X0057088Y0141934D01*
X0057052Y0141912D01*
X0057018Y0141886D01*
X0056986Y0141857D01*
X0056957Y0141825D01*
X0056931Y0141791D01*
X0056909Y0141756D01*
X0056889Y0141718D01*
X0056872Y0141678D01*
X0056860Y0141638D01*
X0056850Y0141596D01*
X0056845Y0141554D01*
X0056843Y0141511D01*
X0056842Y0141511D02*
X0056844Y0141468D01*
X0056849Y0141425D01*
X0056859Y0141383D01*
X0056871Y0141342D01*
X0056888Y0141303D01*
X0056907Y0141264D01*
X0056930Y0141228D01*
X0056956Y0141194D01*
X0056985Y0141162D01*
X0057017Y0141133D01*
X0057051Y0141106D01*
X0057087Y0141083D01*
X0058870Y0141389D02*
X0058870Y0140411D01*
X0058872Y0140363D01*
X0058878Y0140315D01*
X0058887Y0140268D01*
X0058900Y0140222D01*
X0058917Y0140177D01*
X0058937Y0140134D01*
X0058960Y0140092D01*
X0058987Y0140052D01*
X0059016Y0140014D01*
X0059049Y0139979D01*
X0059084Y0139946D01*
X0059122Y0139917D01*
X0059162Y0139890D01*
X0059204Y0139867D01*
X0059247Y0139847D01*
X0059292Y0139830D01*
X0059338Y0139817D01*
X0059385Y0139808D01*
X0059433Y0139802D01*
X0059481Y0139800D01*
X0059529Y0139802D01*
X0059577Y0139808D01*
X0059624Y0139817D01*
X0059670Y0139830D01*
X0059715Y0139847D01*
X0059758Y0139867D01*
X0059800Y0139890D01*
X0059840Y0139917D01*
X0059878Y0139946D01*
X0059913Y0139979D01*
X0059946Y0140014D01*
X0059975Y0140052D01*
X0060002Y0140092D01*
X0060025Y0140134D01*
X0060045Y0140177D01*
X0060062Y0140222D01*
X0060075Y0140268D01*
X0060084Y0140315D01*
X0060090Y0140363D01*
X0060092Y0140411D01*
X0060092Y0141389D01*
X0060090Y0141437D01*
X0060084Y0141485D01*
X0060075Y0141532D01*
X0060062Y0141578D01*
X0060045Y0141623D01*
X0060025Y0141666D01*
X0060002Y0141708D01*
X0059975Y0141748D01*
X0059946Y0141786D01*
X0059913Y0141821D01*
X0059878Y0141854D01*
X0059840Y0141883D01*
X0059800Y0141910D01*
X0059758Y0141933D01*
X0059715Y0141953D01*
X0059670Y0141970D01*
X0059624Y0141983D01*
X0059577Y0141992D01*
X0059529Y0141998D01*
X0059481Y0142000D01*
X0059433Y0141998D01*
X0059385Y0141992D01*
X0059338Y0141983D01*
X0059292Y0141970D01*
X0059247Y0141953D01*
X0059204Y0141933D01*
X0059162Y0141910D01*
X0059122Y0141883D01*
X0059084Y0141854D01*
X0059049Y0141821D01*
X0059016Y0141786D01*
X0058987Y0141748D01*
X0058960Y0141708D01*
X0058937Y0141666D01*
X0058917Y0141623D01*
X0058900Y0141578D01*
X0058887Y0141532D01*
X0058878Y0141485D01*
X0058872Y0141437D01*
X0058870Y0141389D01*
X0061116Y0142000D02*
X0061116Y0139800D01*
X0061116Y0140778D02*
X0061727Y0140778D01*
X0061849Y0140778D02*
X0062338Y0139800D01*
X0064167Y0140717D02*
X0064203Y0140694D01*
X0064237Y0140667D01*
X0064269Y0140638D01*
X0064298Y0140606D01*
X0064324Y0140572D01*
X0064347Y0140536D01*
X0064366Y0140497D01*
X0064383Y0140458D01*
X0064395Y0140417D01*
X0064405Y0140375D01*
X0064410Y0140332D01*
X0064412Y0140289D01*
X0064410Y0140246D01*
X0064405Y0140204D01*
X0064395Y0140162D01*
X0064383Y0140122D01*
X0064366Y0140082D01*
X0064346Y0140045D01*
X0064324Y0140009D01*
X0064298Y0139975D01*
X0064269Y0139943D01*
X0064237Y0139914D01*
X0064203Y0139888D01*
X0064168Y0139866D01*
X0064130Y0139846D01*
X0064090Y0139829D01*
X0064050Y0139817D01*
X0064008Y0139807D01*
X0063966Y0139802D01*
X0063923Y0139800D01*
X0064168Y0140717D02*
X0063495Y0141083D01*
X0063740Y0142000D02*
X0063799Y0141998D01*
X0063858Y0141992D01*
X0063916Y0141983D01*
X0063973Y0141970D01*
X0064030Y0141953D01*
X0064085Y0141932D01*
X0064139Y0141909D01*
X0064191Y0141881D01*
X0064242Y0141850D01*
X0064290Y0141817D01*
X0063495Y0141083D02*
X0063459Y0141106D01*
X0063425Y0141133D01*
X0063393Y0141162D01*
X0063364Y0141194D01*
X0063338Y0141228D01*
X0063315Y0141264D01*
X0063296Y0141303D01*
X0063279Y0141342D01*
X0063267Y0141383D01*
X0063257Y0141425D01*
X0063252Y0141468D01*
X0063250Y0141511D01*
X0063251Y0141511D02*
X0063253Y0141554D01*
X0063258Y0141596D01*
X0063268Y0141638D01*
X0063280Y0141678D01*
X0063297Y0141718D01*
X0063317Y0141756D01*
X0063339Y0141791D01*
X0063365Y0141825D01*
X0063394Y0141857D01*
X0063426Y0141886D01*
X0063460Y0141912D01*
X0063496Y0141934D01*
X0063533Y0141954D01*
X0063573Y0141971D01*
X0063613Y0141983D01*
X0063655Y0141993D01*
X0063697Y0141998D01*
X0063740Y0142000D01*
X0063190Y0140106D02*
X0063235Y0140062D01*
X0063283Y0140022D01*
X0063333Y0139985D01*
X0063386Y0139951D01*
X0063441Y0139920D01*
X0063497Y0139892D01*
X0063555Y0139868D01*
X0063614Y0139847D01*
X0063675Y0139830D01*
X0063736Y0139817D01*
X0063798Y0139808D01*
X0063860Y0139802D01*
X0063923Y0139800D01*
X0065278Y0139800D02*
X0066500Y0139800D01*
X0065889Y0139800D02*
X0065889Y0142000D01*
X0065278Y0141511D01*
X0061727Y0142000D02*
X0061775Y0141998D01*
X0061823Y0141992D01*
X0061870Y0141983D01*
X0061916Y0141970D01*
X0061961Y0141953D01*
X0062004Y0141933D01*
X0062046Y0141910D01*
X0062086Y0141883D01*
X0062124Y0141854D01*
X0062159Y0141821D01*
X0062192Y0141786D01*
X0062221Y0141748D01*
X0062248Y0141708D01*
X0062271Y0141666D01*
X0062291Y0141623D01*
X0062308Y0141578D01*
X0062321Y0141532D01*
X0062330Y0141485D01*
X0062336Y0141437D01*
X0062338Y0141389D01*
X0062336Y0141341D01*
X0062330Y0141293D01*
X0062321Y0141246D01*
X0062308Y0141200D01*
X0062291Y0141155D01*
X0062271Y0141112D01*
X0062248Y0141070D01*
X0062221Y0141030D01*
X0062192Y0140992D01*
X0062159Y0140957D01*
X0062124Y0140924D01*
X0062086Y0140895D01*
X0062046Y0140868D01*
X0062004Y0140845D01*
X0061961Y0140825D01*
X0061916Y0140808D01*
X0061870Y0140795D01*
X0061823Y0140786D01*
X0061775Y0140780D01*
X0061727Y0140778D01*
X0061727Y0142000D02*
X0061116Y0142000D01*
X0048116Y0139800D02*
X0047138Y0139800D01*
X0047138Y0142000D01*
X0045266Y0142000D02*
X0045266Y0139800D01*
X0046244Y0139800D01*
X0044374Y0139800D02*
X0043641Y0142000D01*
X0042908Y0139800D01*
X0043091Y0140350D02*
X0044191Y0140350D01*
X0042020Y0139800D02*
X0042020Y0142000D01*
X0042020Y0141022D02*
X0040798Y0141022D01*
X0040798Y0142000D02*
X0040798Y0139800D01*
X0103270Y0139843D02*
X0103270Y0142043D01*
X0103881Y0142043D01*
X0103929Y0142041D01*
X0103977Y0142035D01*
X0104024Y0142026D01*
X0104070Y0142013D01*
X0104115Y0141996D01*
X0104158Y0141976D01*
X0104200Y0141953D01*
X0104240Y0141926D01*
X0104278Y0141897D01*
X0104313Y0141864D01*
X0104346Y0141829D01*
X0104375Y0141791D01*
X0104402Y0141751D01*
X0104425Y0141709D01*
X0104445Y0141666D01*
X0104462Y0141621D01*
X0104475Y0141575D01*
X0104484Y0141528D01*
X0104490Y0141480D01*
X0104492Y0141432D01*
X0104490Y0141384D01*
X0104484Y0141336D01*
X0104475Y0141289D01*
X0104462Y0141243D01*
X0104445Y0141198D01*
X0104425Y0141155D01*
X0104402Y0141113D01*
X0104375Y0141073D01*
X0104346Y0141035D01*
X0104313Y0141000D01*
X0104278Y0140967D01*
X0104240Y0140938D01*
X0104200Y0140911D01*
X0104158Y0140888D01*
X0104115Y0140868D01*
X0104070Y0140851D01*
X0104024Y0140838D01*
X0103977Y0140829D01*
X0103929Y0140823D01*
X0103881Y0140821D01*
X0103270Y0140821D01*
X0104003Y0140821D02*
X0104492Y0139843D01*
X0105492Y0139843D02*
X0105492Y0142043D01*
X0106470Y0142043D01*
X0106226Y0141065D02*
X0105492Y0141065D01*
X0105492Y0139843D02*
X0106470Y0139843D01*
X0108194Y0140760D02*
X0108230Y0140737D01*
X0108264Y0140710D01*
X0108296Y0140681D01*
X0108325Y0140649D01*
X0108351Y0140615D01*
X0108374Y0140579D01*
X0108393Y0140540D01*
X0108410Y0140501D01*
X0108422Y0140460D01*
X0108432Y0140418D01*
X0108437Y0140375D01*
X0108439Y0140332D01*
X0108438Y0140332D02*
X0108436Y0140289D01*
X0108431Y0140247D01*
X0108421Y0140205D01*
X0108409Y0140165D01*
X0108392Y0140125D01*
X0108372Y0140088D01*
X0108350Y0140052D01*
X0108324Y0140018D01*
X0108295Y0139986D01*
X0108263Y0139957D01*
X0108229Y0139931D01*
X0108194Y0139909D01*
X0108156Y0139889D01*
X0108116Y0139872D01*
X0108076Y0139860D01*
X0108034Y0139850D01*
X0107992Y0139845D01*
X0107949Y0139843D01*
X0108194Y0140760D02*
X0107521Y0141126D01*
X0107766Y0142043D02*
X0107825Y0142041D01*
X0107884Y0142035D01*
X0107942Y0142026D01*
X0107999Y0142013D01*
X0108056Y0141996D01*
X0108111Y0141975D01*
X0108165Y0141952D01*
X0108217Y0141924D01*
X0108268Y0141893D01*
X0108316Y0141860D01*
X0107521Y0141126D02*
X0107485Y0141149D01*
X0107451Y0141176D01*
X0107419Y0141205D01*
X0107390Y0141237D01*
X0107364Y0141271D01*
X0107341Y0141307D01*
X0107322Y0141346D01*
X0107305Y0141385D01*
X0107293Y0141426D01*
X0107283Y0141468D01*
X0107278Y0141511D01*
X0107276Y0141554D01*
X0107277Y0141554D02*
X0107279Y0141597D01*
X0107284Y0141639D01*
X0107294Y0141681D01*
X0107306Y0141721D01*
X0107323Y0141761D01*
X0107343Y0141799D01*
X0107365Y0141834D01*
X0107391Y0141868D01*
X0107420Y0141900D01*
X0107452Y0141929D01*
X0107486Y0141955D01*
X0107522Y0141977D01*
X0107559Y0141997D01*
X0107599Y0142014D01*
X0107639Y0142026D01*
X0107681Y0142036D01*
X0107723Y0142041D01*
X0107766Y0142043D01*
X0107216Y0140149D02*
X0107261Y0140105D01*
X0107309Y0140065D01*
X0107359Y0140028D01*
X0107412Y0139994D01*
X0107467Y0139963D01*
X0107523Y0139935D01*
X0107581Y0139911D01*
X0107640Y0139890D01*
X0107701Y0139873D01*
X0107762Y0139860D01*
X0107824Y0139851D01*
X0107886Y0139845D01*
X0107949Y0139843D01*
X0109380Y0139843D02*
X0109380Y0142043D01*
X0110358Y0142043D01*
X0111032Y0142043D02*
X0112254Y0142043D01*
X0111643Y0142043D02*
X0111643Y0139843D01*
X0110358Y0139843D02*
X0109380Y0139843D01*
X0109380Y0141065D02*
X0110114Y0141065D01*
X0111470Y0111850D02*
X0111959Y0111850D01*
X0111470Y0111850D02*
X0111427Y0111848D01*
X0111385Y0111843D01*
X0111343Y0111833D01*
X0111303Y0111821D01*
X0111263Y0111804D01*
X0111225Y0111784D01*
X0111190Y0111762D01*
X0111156Y0111736D01*
X0111124Y0111707D01*
X0111095Y0111675D01*
X0111069Y0111641D01*
X0111047Y0111605D01*
X0111027Y0111568D01*
X0111010Y0111528D01*
X0110998Y0111488D01*
X0110988Y0111446D01*
X0110983Y0111404D01*
X0110981Y0111361D01*
X0110982Y0111361D02*
X0110982Y0110139D01*
X0110981Y0110139D02*
X0110983Y0110096D01*
X0110988Y0110054D01*
X0110998Y0110012D01*
X0111010Y0109972D01*
X0111027Y0109932D01*
X0111047Y0109895D01*
X0111069Y0109859D01*
X0111095Y0109825D01*
X0111124Y0109793D01*
X0111156Y0109764D01*
X0111190Y0109738D01*
X0111226Y0109716D01*
X0111263Y0109696D01*
X0111303Y0109679D01*
X0111343Y0109667D01*
X0111385Y0109657D01*
X0111427Y0109652D01*
X0111470Y0109650D01*
X0111959Y0109650D01*
X0112864Y0109650D02*
X0113842Y0109650D01*
X0112864Y0109650D02*
X0112864Y0111850D01*
X0109878Y0110567D02*
X0109206Y0110933D01*
X0109450Y0111850D02*
X0109509Y0111848D01*
X0109568Y0111842D01*
X0109626Y0111833D01*
X0109683Y0111820D01*
X0109740Y0111803D01*
X0109795Y0111782D01*
X0109849Y0111759D01*
X0109901Y0111731D01*
X0109952Y0111700D01*
X0110000Y0111667D01*
X0109206Y0110933D02*
X0109170Y0110956D01*
X0109136Y0110983D01*
X0109104Y0111012D01*
X0109075Y0111044D01*
X0109049Y0111078D01*
X0109026Y0111114D01*
X0109007Y0111153D01*
X0108990Y0111192D01*
X0108978Y0111233D01*
X0108968Y0111275D01*
X0108963Y0111318D01*
X0108961Y0111361D01*
X0108963Y0111404D01*
X0108968Y0111446D01*
X0108978Y0111488D01*
X0108990Y0111528D01*
X0109007Y0111568D01*
X0109027Y0111606D01*
X0109049Y0111641D01*
X0109075Y0111675D01*
X0109104Y0111707D01*
X0109136Y0111736D01*
X0109170Y0111762D01*
X0109206Y0111784D01*
X0109243Y0111804D01*
X0109283Y0111821D01*
X0109323Y0111833D01*
X0109365Y0111843D01*
X0109407Y0111848D01*
X0109450Y0111850D01*
X0108900Y0109956D02*
X0108945Y0109912D01*
X0108993Y0109872D01*
X0109043Y0109835D01*
X0109096Y0109801D01*
X0109151Y0109770D01*
X0109207Y0109742D01*
X0109265Y0109718D01*
X0109324Y0109697D01*
X0109385Y0109680D01*
X0109446Y0109667D01*
X0109508Y0109658D01*
X0109570Y0109652D01*
X0109633Y0109650D01*
X0109676Y0109652D01*
X0109718Y0109657D01*
X0109760Y0109667D01*
X0109800Y0109679D01*
X0109840Y0109696D01*
X0109878Y0109716D01*
X0109913Y0109738D01*
X0109947Y0109764D01*
X0109979Y0109793D01*
X0110008Y0109825D01*
X0110034Y0109859D01*
X0110056Y0109895D01*
X0110076Y0109932D01*
X0110093Y0109972D01*
X0110105Y0110012D01*
X0110115Y0110054D01*
X0110120Y0110096D01*
X0110122Y0110139D01*
X0110123Y0110139D02*
X0110121Y0110182D01*
X0110116Y0110225D01*
X0110106Y0110267D01*
X0110094Y0110308D01*
X0110077Y0110347D01*
X0110058Y0110386D01*
X0110035Y0110422D01*
X0110009Y0110456D01*
X0109980Y0110488D01*
X0109948Y0110517D01*
X0109914Y0110544D01*
X0109878Y0110567D01*
X0121706Y0110933D02*
X0122378Y0110567D01*
X0122133Y0109650D02*
X0122070Y0109652D01*
X0122008Y0109658D01*
X0121946Y0109667D01*
X0121885Y0109680D01*
X0121824Y0109697D01*
X0121765Y0109718D01*
X0121707Y0109742D01*
X0121651Y0109770D01*
X0121596Y0109801D01*
X0121543Y0109835D01*
X0121493Y0109872D01*
X0121445Y0109912D01*
X0121400Y0109956D01*
X0122378Y0110567D02*
X0122414Y0110544D01*
X0122448Y0110517D01*
X0122480Y0110488D01*
X0122509Y0110456D01*
X0122535Y0110422D01*
X0122558Y0110386D01*
X0122577Y0110347D01*
X0122594Y0110308D01*
X0122606Y0110267D01*
X0122616Y0110225D01*
X0122621Y0110182D01*
X0122623Y0110139D01*
X0122622Y0110139D02*
X0122620Y0110096D01*
X0122615Y0110054D01*
X0122605Y0110012D01*
X0122593Y0109972D01*
X0122576Y0109932D01*
X0122556Y0109895D01*
X0122534Y0109859D01*
X0122508Y0109825D01*
X0122479Y0109793D01*
X0122447Y0109764D01*
X0122413Y0109738D01*
X0122378Y0109716D01*
X0122340Y0109696D01*
X0122300Y0109679D01*
X0122260Y0109667D01*
X0122218Y0109657D01*
X0122176Y0109652D01*
X0122133Y0109650D01*
X0122500Y0111667D02*
X0122452Y0111700D01*
X0122401Y0111731D01*
X0122349Y0111759D01*
X0122295Y0111782D01*
X0122240Y0111803D01*
X0122183Y0111820D01*
X0122126Y0111833D01*
X0122068Y0111842D01*
X0122009Y0111848D01*
X0121950Y0111850D01*
X0121907Y0111848D01*
X0121865Y0111843D01*
X0121823Y0111833D01*
X0121783Y0111821D01*
X0121743Y0111804D01*
X0121706Y0111784D01*
X0121670Y0111762D01*
X0121636Y0111736D01*
X0121604Y0111707D01*
X0121575Y0111675D01*
X0121549Y0111641D01*
X0121527Y0111606D01*
X0121507Y0111568D01*
X0121490Y0111528D01*
X0121478Y0111488D01*
X0121468Y0111446D01*
X0121463Y0111404D01*
X0121461Y0111361D01*
X0121463Y0111318D01*
X0121468Y0111275D01*
X0121478Y0111233D01*
X0121490Y0111192D01*
X0121507Y0111153D01*
X0121526Y0111114D01*
X0121549Y0111078D01*
X0121575Y0111044D01*
X0121604Y0111012D01*
X0121636Y0110983D01*
X0121670Y0110956D01*
X0121706Y0110933D01*
X0123560Y0111850D02*
X0123560Y0109650D01*
X0124171Y0109650D01*
X0124219Y0109652D01*
X0124267Y0109658D01*
X0124314Y0109667D01*
X0124360Y0109680D01*
X0124405Y0109697D01*
X0124448Y0109717D01*
X0124490Y0109740D01*
X0124530Y0109767D01*
X0124568Y0109796D01*
X0124603Y0109829D01*
X0124636Y0109864D01*
X0124665Y0109902D01*
X0124692Y0109942D01*
X0124715Y0109984D01*
X0124735Y0110027D01*
X0124752Y0110072D01*
X0124765Y0110118D01*
X0124774Y0110165D01*
X0124780Y0110213D01*
X0124782Y0110261D01*
X0124782Y0111239D01*
X0124780Y0111287D01*
X0124774Y0111335D01*
X0124765Y0111382D01*
X0124752Y0111428D01*
X0124735Y0111473D01*
X0124715Y0111516D01*
X0124692Y0111558D01*
X0124665Y0111598D01*
X0124636Y0111636D01*
X0124603Y0111671D01*
X0124568Y0111704D01*
X0124530Y0111733D01*
X0124490Y0111760D01*
X0124448Y0111783D01*
X0124405Y0111803D01*
X0124360Y0111820D01*
X0124314Y0111833D01*
X0124267Y0111842D01*
X0124219Y0111848D01*
X0124171Y0111850D01*
X0123560Y0111850D01*
X0125853Y0110200D02*
X0126953Y0110200D01*
X0127136Y0109650D02*
X0126403Y0111850D01*
X0125670Y0109650D01*
X0072350Y0057339D02*
X0070150Y0057950D01*
X0070150Y0056728D01*
X0070394Y0056728D01*
X0070150Y0055179D02*
X0072350Y0055179D01*
X0072350Y0054568D02*
X0072350Y0055790D01*
X0070639Y0054568D02*
X0070150Y0055179D01*
X0070150Y0053033D02*
X0070150Y0052422D01*
X0072350Y0052422D01*
X0071372Y0052422D02*
X0071372Y0053033D01*
X0071372Y0053155D02*
X0072350Y0053644D01*
X0071372Y0053033D02*
X0071370Y0053081D01*
X0071364Y0053129D01*
X0071355Y0053176D01*
X0071342Y0053222D01*
X0071325Y0053267D01*
X0071305Y0053310D01*
X0071282Y0053352D01*
X0071255Y0053392D01*
X0071226Y0053430D01*
X0071193Y0053465D01*
X0071158Y0053498D01*
X0071120Y0053527D01*
X0071080Y0053554D01*
X0071038Y0053577D01*
X0070995Y0053597D01*
X0070950Y0053614D01*
X0070904Y0053627D01*
X0070857Y0053636D01*
X0070809Y0053642D01*
X0070761Y0053644D01*
X0070713Y0053642D01*
X0070665Y0053636D01*
X0070618Y0053627D01*
X0070572Y0053614D01*
X0070527Y0053597D01*
X0070484Y0053577D01*
X0070442Y0053554D01*
X0070402Y0053527D01*
X0070364Y0053498D01*
X0070329Y0053465D01*
X0070296Y0053430D01*
X0070267Y0053392D01*
X0070240Y0053352D01*
X0070217Y0053310D01*
X0070197Y0053267D01*
X0070180Y0053222D01*
X0070167Y0053176D01*
X0070158Y0053129D01*
X0070152Y0053081D01*
X0070150Y0053033D01*
X0063941Y0056900D02*
X0063330Y0056900D01*
X0062490Y0056900D02*
X0062368Y0056900D01*
X0062368Y0057022D01*
X0062490Y0057022D01*
X0062490Y0056900D01*
X0060917Y0056900D02*
X0060306Y0056900D01*
X0060917Y0056900D02*
X0060965Y0056902D01*
X0061013Y0056908D01*
X0061060Y0056917D01*
X0061106Y0056930D01*
X0061151Y0056947D01*
X0061194Y0056967D01*
X0061236Y0056990D01*
X0061276Y0057017D01*
X0061314Y0057046D01*
X0061349Y0057079D01*
X0061382Y0057114D01*
X0061411Y0057152D01*
X0061438Y0057192D01*
X0061461Y0057234D01*
X0061481Y0057277D01*
X0061498Y0057322D01*
X0061511Y0057368D01*
X0061520Y0057415D01*
X0061526Y0057463D01*
X0061528Y0057511D01*
X0061526Y0057559D01*
X0061520Y0057607D01*
X0061511Y0057654D01*
X0061498Y0057700D01*
X0061481Y0057745D01*
X0061461Y0057788D01*
X0061438Y0057830D01*
X0061411Y0057870D01*
X0061382Y0057908D01*
X0061349Y0057943D01*
X0061314Y0057976D01*
X0061276Y0058005D01*
X0061236Y0058032D01*
X0061194Y0058055D01*
X0061151Y0058075D01*
X0061106Y0058092D01*
X0061060Y0058105D01*
X0061013Y0058114D01*
X0060965Y0058120D01*
X0060917Y0058122D01*
X0061039Y0058122D02*
X0060551Y0058122D01*
X0061039Y0058122D02*
X0061082Y0058124D01*
X0061124Y0058129D01*
X0061166Y0058139D01*
X0061206Y0058151D01*
X0061246Y0058168D01*
X0061284Y0058188D01*
X0061319Y0058210D01*
X0061353Y0058236D01*
X0061385Y0058265D01*
X0061414Y0058297D01*
X0061440Y0058331D01*
X0061462Y0058367D01*
X0061482Y0058404D01*
X0061499Y0058444D01*
X0061511Y0058484D01*
X0061521Y0058526D01*
X0061526Y0058568D01*
X0061528Y0058611D01*
X0061526Y0058654D01*
X0061521Y0058696D01*
X0061511Y0058738D01*
X0061499Y0058778D01*
X0061482Y0058818D01*
X0061462Y0058856D01*
X0061440Y0058891D01*
X0061414Y0058925D01*
X0061385Y0058957D01*
X0061353Y0058986D01*
X0061319Y0059012D01*
X0061284Y0059034D01*
X0061246Y0059054D01*
X0061206Y0059071D01*
X0061166Y0059083D01*
X0061124Y0059093D01*
X0061082Y0059098D01*
X0061039Y0059100D01*
X0060306Y0059100D01*
X0059347Y0057756D02*
X0057880Y0057756D01*
X0056414Y0057878D02*
X0055803Y0057878D01*
X0056414Y0057878D02*
X0056462Y0057880D01*
X0056510Y0057886D01*
X0056557Y0057895D01*
X0056603Y0057908D01*
X0056648Y0057925D01*
X0056691Y0057945D01*
X0056733Y0057968D01*
X0056773Y0057995D01*
X0056811Y0058024D01*
X0056846Y0058057D01*
X0056879Y0058092D01*
X0056908Y0058130D01*
X0056935Y0058170D01*
X0056958Y0058212D01*
X0056978Y0058255D01*
X0056995Y0058300D01*
X0057008Y0058346D01*
X0057017Y0058393D01*
X0057023Y0058441D01*
X0057025Y0058489D01*
X0057023Y0058537D01*
X0057017Y0058585D01*
X0057008Y0058632D01*
X0056995Y0058678D01*
X0056978Y0058723D01*
X0056958Y0058766D01*
X0056935Y0058808D01*
X0056908Y0058848D01*
X0056879Y0058886D01*
X0056846Y0058921D01*
X0056811Y0058954D01*
X0056773Y0058983D01*
X0056733Y0059010D01*
X0056691Y0059033D01*
X0056648Y0059053D01*
X0056603Y0059070D01*
X0056557Y0059083D01*
X0056510Y0059092D01*
X0056462Y0059098D01*
X0056414Y0059100D01*
X0055803Y0059100D01*
X0055803Y0056900D01*
X0054870Y0056900D02*
X0054381Y0056900D01*
X0054338Y0056902D01*
X0054296Y0056907D01*
X0054254Y0056917D01*
X0054214Y0056929D01*
X0054174Y0056946D01*
X0054137Y0056966D01*
X0054101Y0056988D01*
X0054067Y0057014D01*
X0054035Y0057043D01*
X0054006Y0057075D01*
X0053980Y0057109D01*
X0053958Y0057145D01*
X0053938Y0057182D01*
X0053921Y0057222D01*
X0053909Y0057262D01*
X0053899Y0057304D01*
X0053894Y0057346D01*
X0053892Y0057389D01*
X0053892Y0058611D01*
X0053894Y0058654D01*
X0053899Y0058696D01*
X0053909Y0058738D01*
X0053921Y0058778D01*
X0053938Y0058818D01*
X0053958Y0058855D01*
X0053980Y0058891D01*
X0054006Y0058925D01*
X0054035Y0058957D01*
X0054067Y0058986D01*
X0054101Y0059012D01*
X0054136Y0059034D01*
X0054174Y0059054D01*
X0054214Y0059071D01*
X0054254Y0059083D01*
X0054296Y0059093D01*
X0054338Y0059098D01*
X0054381Y0059100D01*
X0054870Y0059100D01*
X0052867Y0059100D02*
X0052867Y0056900D01*
X0052133Y0057878D02*
X0051400Y0059100D01*
X0051400Y0056900D01*
X0052133Y0057878D02*
X0052867Y0059100D01*
X0063330Y0059100D02*
X0064063Y0059100D01*
X0064106Y0059098D01*
X0064148Y0059093D01*
X0064190Y0059083D01*
X0064230Y0059071D01*
X0064270Y0059054D01*
X0064308Y0059034D01*
X0064343Y0059012D01*
X0064377Y0058986D01*
X0064409Y0058957D01*
X0064438Y0058925D01*
X0064464Y0058891D01*
X0064486Y0058856D01*
X0064506Y0058818D01*
X0064523Y0058778D01*
X0064535Y0058738D01*
X0064545Y0058696D01*
X0064550Y0058654D01*
X0064552Y0058611D01*
X0064550Y0058568D01*
X0064545Y0058526D01*
X0064535Y0058484D01*
X0064523Y0058444D01*
X0064506Y0058404D01*
X0064486Y0058367D01*
X0064464Y0058331D01*
X0064438Y0058297D01*
X0064409Y0058265D01*
X0064377Y0058236D01*
X0064343Y0058210D01*
X0064308Y0058188D01*
X0064270Y0058168D01*
X0064230Y0058151D01*
X0064190Y0058139D01*
X0064148Y0058129D01*
X0064106Y0058124D01*
X0064063Y0058122D01*
X0063575Y0058122D01*
X0063941Y0058122D02*
X0063989Y0058120D01*
X0064037Y0058114D01*
X0064084Y0058105D01*
X0064130Y0058092D01*
X0064175Y0058075D01*
X0064218Y0058055D01*
X0064260Y0058032D01*
X0064300Y0058005D01*
X0064338Y0057976D01*
X0064373Y0057943D01*
X0064406Y0057908D01*
X0064435Y0057870D01*
X0064462Y0057830D01*
X0064485Y0057788D01*
X0064505Y0057745D01*
X0064522Y0057700D01*
X0064535Y0057654D01*
X0064544Y0057607D01*
X0064550Y0057559D01*
X0064552Y0057511D01*
X0064550Y0057463D01*
X0064544Y0057415D01*
X0064535Y0057368D01*
X0064522Y0057322D01*
X0064505Y0057277D01*
X0064485Y0057234D01*
X0064462Y0057192D01*
X0064435Y0057152D01*
X0064406Y0057114D01*
X0064373Y0057079D01*
X0064338Y0057046D01*
X0064300Y0057017D01*
X0064260Y0056990D01*
X0064218Y0056967D01*
X0064175Y0056947D01*
X0064130Y0056930D01*
X0064084Y0056917D01*
X0064037Y0056908D01*
X0063989Y0056902D01*
X0063941Y0056900D01*
X0045680Y0044861D02*
X0045678Y0044818D01*
X0045673Y0044776D01*
X0045663Y0044734D01*
X0045651Y0044694D01*
X0045634Y0044654D01*
X0045614Y0044617D01*
X0045592Y0044581D01*
X0045566Y0044547D01*
X0045537Y0044515D01*
X0045505Y0044486D01*
X0045471Y0044460D01*
X0045436Y0044438D01*
X0045398Y0044418D01*
X0045358Y0044401D01*
X0045318Y0044389D01*
X0045276Y0044379D01*
X0045234Y0044374D01*
X0045191Y0044372D01*
X0045148Y0044374D01*
X0045106Y0044379D01*
X0045064Y0044389D01*
X0045024Y0044401D01*
X0044984Y0044418D01*
X0044947Y0044438D01*
X0044911Y0044460D01*
X0044877Y0044486D01*
X0044845Y0044515D01*
X0044816Y0044547D01*
X0044790Y0044581D01*
X0044768Y0044617D01*
X0044748Y0044654D01*
X0044731Y0044694D01*
X0044719Y0044734D01*
X0044709Y0044776D01*
X0044704Y0044818D01*
X0044702Y0044861D01*
X0044704Y0044904D01*
X0044709Y0044946D01*
X0044719Y0044988D01*
X0044731Y0045028D01*
X0044748Y0045068D01*
X0044768Y0045106D01*
X0044790Y0045141D01*
X0044816Y0045175D01*
X0044845Y0045207D01*
X0044877Y0045236D01*
X0044911Y0045262D01*
X0044947Y0045284D01*
X0044984Y0045304D01*
X0045024Y0045321D01*
X0045064Y0045333D01*
X0045106Y0045343D01*
X0045148Y0045348D01*
X0045191Y0045350D01*
X0045234Y0045348D01*
X0045276Y0045343D01*
X0045318Y0045333D01*
X0045358Y0045321D01*
X0045398Y0045304D01*
X0045436Y0045284D01*
X0045471Y0045262D01*
X0045505Y0045236D01*
X0045537Y0045207D01*
X0045566Y0045175D01*
X0045592Y0045141D01*
X0045614Y0045106D01*
X0045634Y0045068D01*
X0045651Y0045028D01*
X0045663Y0044988D01*
X0045673Y0044946D01*
X0045678Y0044904D01*
X0045680Y0044861D01*
X0045802Y0043761D02*
X0045800Y0043713D01*
X0045794Y0043665D01*
X0045785Y0043618D01*
X0045772Y0043572D01*
X0045755Y0043527D01*
X0045735Y0043484D01*
X0045712Y0043442D01*
X0045685Y0043402D01*
X0045656Y0043364D01*
X0045623Y0043329D01*
X0045588Y0043296D01*
X0045550Y0043267D01*
X0045510Y0043240D01*
X0045468Y0043217D01*
X0045425Y0043197D01*
X0045380Y0043180D01*
X0045334Y0043167D01*
X0045287Y0043158D01*
X0045239Y0043152D01*
X0045191Y0043150D01*
X0045143Y0043152D01*
X0045095Y0043158D01*
X0045048Y0043167D01*
X0045002Y0043180D01*
X0044957Y0043197D01*
X0044914Y0043217D01*
X0044872Y0043240D01*
X0044832Y0043267D01*
X0044794Y0043296D01*
X0044759Y0043329D01*
X0044726Y0043364D01*
X0044697Y0043402D01*
X0044670Y0043442D01*
X0044647Y0043484D01*
X0044627Y0043527D01*
X0044610Y0043572D01*
X0044597Y0043618D01*
X0044588Y0043665D01*
X0044582Y0043713D01*
X0044580Y0043761D01*
X0044582Y0043809D01*
X0044588Y0043857D01*
X0044597Y0043904D01*
X0044610Y0043950D01*
X0044627Y0043995D01*
X0044647Y0044038D01*
X0044670Y0044080D01*
X0044697Y0044120D01*
X0044726Y0044158D01*
X0044759Y0044193D01*
X0044794Y0044226D01*
X0044832Y0044255D01*
X0044872Y0044282D01*
X0044914Y0044305D01*
X0044957Y0044325D01*
X0045002Y0044342D01*
X0045048Y0044355D01*
X0045095Y0044364D01*
X0045143Y0044370D01*
X0045191Y0044372D01*
X0045239Y0044370D01*
X0045287Y0044364D01*
X0045334Y0044355D01*
X0045380Y0044342D01*
X0045425Y0044325D01*
X0045468Y0044305D01*
X0045510Y0044282D01*
X0045550Y0044255D01*
X0045588Y0044226D01*
X0045623Y0044193D01*
X0045656Y0044158D01*
X0045685Y0044120D01*
X0045712Y0044080D01*
X0045735Y0044038D01*
X0045755Y0043995D01*
X0045772Y0043950D01*
X0045785Y0043904D01*
X0045794Y0043857D01*
X0045800Y0043809D01*
X0045802Y0043761D01*
X0043740Y0043272D02*
X0043740Y0043150D01*
X0043618Y0043150D01*
X0043618Y0043272D01*
X0043740Y0043272D01*
X0042778Y0043150D02*
X0041556Y0043150D01*
X0042167Y0043150D02*
X0042167Y0045350D01*
X0041556Y0044861D01*
X0040597Y0044006D02*
X0039130Y0044006D01*
X0037664Y0044128D02*
X0037053Y0044128D01*
X0037664Y0044128D02*
X0037712Y0044130D01*
X0037760Y0044136D01*
X0037807Y0044145D01*
X0037853Y0044158D01*
X0037898Y0044175D01*
X0037941Y0044195D01*
X0037983Y0044218D01*
X0038023Y0044245D01*
X0038061Y0044274D01*
X0038096Y0044307D01*
X0038129Y0044342D01*
X0038158Y0044380D01*
X0038185Y0044420D01*
X0038208Y0044462D01*
X0038228Y0044505D01*
X0038245Y0044550D01*
X0038258Y0044596D01*
X0038267Y0044643D01*
X0038273Y0044691D01*
X0038275Y0044739D01*
X0038273Y0044787D01*
X0038267Y0044835D01*
X0038258Y0044882D01*
X0038245Y0044928D01*
X0038228Y0044973D01*
X0038208Y0045016D01*
X0038185Y0045058D01*
X0038158Y0045098D01*
X0038129Y0045136D01*
X0038096Y0045171D01*
X0038061Y0045204D01*
X0038023Y0045233D01*
X0037983Y0045260D01*
X0037941Y0045283D01*
X0037898Y0045303D01*
X0037853Y0045320D01*
X0037807Y0045333D01*
X0037760Y0045342D01*
X0037712Y0045348D01*
X0037664Y0045350D01*
X0037053Y0045350D01*
X0037053Y0043150D01*
X0036120Y0043150D02*
X0035631Y0043150D01*
X0035588Y0043152D01*
X0035546Y0043157D01*
X0035504Y0043167D01*
X0035464Y0043179D01*
X0035424Y0043196D01*
X0035387Y0043216D01*
X0035351Y0043238D01*
X0035317Y0043264D01*
X0035285Y0043293D01*
X0035256Y0043325D01*
X0035230Y0043359D01*
X0035208Y0043395D01*
X0035188Y0043432D01*
X0035171Y0043472D01*
X0035159Y0043512D01*
X0035149Y0043554D01*
X0035144Y0043596D01*
X0035142Y0043639D01*
X0035142Y0044861D01*
X0035144Y0044904D01*
X0035149Y0044946D01*
X0035159Y0044988D01*
X0035171Y0045028D01*
X0035188Y0045068D01*
X0035208Y0045105D01*
X0035230Y0045141D01*
X0035256Y0045175D01*
X0035285Y0045207D01*
X0035317Y0045236D01*
X0035351Y0045262D01*
X0035386Y0045284D01*
X0035424Y0045304D01*
X0035464Y0045321D01*
X0035504Y0045333D01*
X0035546Y0045343D01*
X0035588Y0045348D01*
X0035631Y0045350D01*
X0036120Y0045350D01*
X0034117Y0045350D02*
X0033383Y0044128D01*
X0032650Y0045350D01*
X0032650Y0043150D01*
X0034117Y0043150D02*
X0034117Y0045350D01*
X0028700Y0046239D02*
X0027478Y0046239D01*
X0027967Y0047950D01*
X0028333Y0046728D02*
X0028333Y0045750D01*
X0026649Y0045750D02*
X0026160Y0045750D01*
X0026117Y0045752D01*
X0026075Y0045757D01*
X0026033Y0045767D01*
X0025993Y0045779D01*
X0025953Y0045796D01*
X0025916Y0045816D01*
X0025880Y0045838D01*
X0025846Y0045864D01*
X0025814Y0045893D01*
X0025785Y0045925D01*
X0025759Y0045959D01*
X0025737Y0045995D01*
X0025717Y0046032D01*
X0025700Y0046072D01*
X0025688Y0046112D01*
X0025678Y0046154D01*
X0025673Y0046196D01*
X0025671Y0046239D01*
X0025671Y0047461D01*
X0025673Y0047504D01*
X0025678Y0047546D01*
X0025688Y0047588D01*
X0025700Y0047628D01*
X0025717Y0047668D01*
X0025737Y0047705D01*
X0025759Y0047741D01*
X0025785Y0047775D01*
X0025814Y0047807D01*
X0025846Y0047836D01*
X0025880Y0047862D01*
X0025915Y0047884D01*
X0025953Y0047904D01*
X0025993Y0047921D01*
X0026033Y0047933D01*
X0026075Y0047943D01*
X0026117Y0047948D01*
X0026160Y0047950D01*
X0026649Y0047950D01*
D15*
X0186694Y0074300D03*
D16*
X0198800Y0076800D03*
D17*
X0176192Y0061692D02*
X0176192Y0032558D01*
X0173042Y0029408D01*
X0163494Y0030392D02*
X0163865Y0030481D01*
X0164233Y0030579D01*
X0164599Y0030686D01*
X0164961Y0030801D01*
X0165321Y0030926D01*
X0165678Y0031059D01*
X0166032Y0031201D01*
X0166381Y0031352D01*
X0166727Y0031511D01*
X0167069Y0031679D01*
X0167407Y0031855D01*
X0167741Y0032039D01*
X0168069Y0032231D01*
X0168393Y0032432D01*
X0168712Y0032640D01*
X0169026Y0032856D01*
X0169335Y0033079D01*
X0169637Y0033310D01*
X0169934Y0033549D01*
X0170226Y0033794D01*
X0170511Y0034047D01*
X0170789Y0034307D01*
X0171062Y0034573D01*
X0171327Y0034846D01*
X0171586Y0035125D01*
X0171838Y0035411D01*
X0172083Y0035702D01*
X0172321Y0036000D01*
X0172551Y0036303D01*
X0172774Y0036612D01*
X0172989Y0036927D01*
X0173197Y0037246D01*
X0173396Y0037570D01*
X0173588Y0037900D01*
X0173771Y0038233D01*
X0173946Y0038572D01*
X0174113Y0038914D01*
X0174272Y0039260D01*
X0174421Y0039611D01*
X0174563Y0039964D01*
X0174695Y0040321D01*
X0174819Y0040682D01*
X0174934Y0041045D01*
X0175040Y0041411D01*
X0175137Y0041779D01*
X0175224Y0042150D01*
X0175303Y0042522D01*
X0175373Y0042897D01*
X0175433Y0043273D01*
X0175484Y0043650D01*
X0175526Y0044029D01*
X0175559Y0044408D01*
X0175582Y0044789D01*
X0175596Y0045169D01*
X0175601Y0045550D01*
X0175596Y0045931D01*
X0175582Y0046311D01*
X0175559Y0046692D01*
X0175526Y0047071D01*
X0175484Y0047450D01*
X0175433Y0047827D01*
X0175373Y0048203D01*
X0175303Y0048578D01*
X0175224Y0048950D01*
X0175137Y0049321D01*
X0175040Y0049689D01*
X0174934Y0050055D01*
X0174819Y0050418D01*
X0174695Y0050779D01*
X0174563Y0051136D01*
X0174421Y0051489D01*
X0174272Y0051840D01*
X0174113Y0052186D01*
X0173946Y0052528D01*
X0173771Y0052867D01*
X0173588Y0053200D01*
X0173396Y0053530D01*
X0173197Y0053854D01*
X0172989Y0054173D01*
X0172774Y0054488D01*
X0172551Y0054797D01*
X0172321Y0055100D01*
X0172083Y0055398D01*
X0171838Y0055689D01*
X0171586Y0055975D01*
X0171327Y0056254D01*
X0171062Y0056527D01*
X0170789Y0056793D01*
X0170511Y0057053D01*
X0170226Y0057306D01*
X0169934Y0057551D01*
X0169637Y0057790D01*
X0169335Y0058021D01*
X0169026Y0058244D01*
X0168712Y0058460D01*
X0168393Y0058668D01*
X0168069Y0058869D01*
X0167741Y0059061D01*
X0167407Y0059245D01*
X0167069Y0059421D01*
X0166727Y0059589D01*
X0166381Y0059748D01*
X0166032Y0059899D01*
X0165678Y0060041D01*
X0165321Y0060174D01*
X0164961Y0060299D01*
X0164599Y0060414D01*
X0164233Y0060521D01*
X0163865Y0060619D01*
X0163494Y0060708D01*
X0163298Y0061692D02*
X0176192Y0061692D01*
X0156704Y0061692D02*
X0143908Y0061692D01*
X0143908Y0032558D01*
X0147058Y0029408D01*
X0156606Y0030392D02*
X0156235Y0030481D01*
X0155867Y0030579D01*
X0155501Y0030686D01*
X0155139Y0030801D01*
X0154779Y0030926D01*
X0154422Y0031059D01*
X0154068Y0031201D01*
X0153719Y0031352D01*
X0153373Y0031511D01*
X0153031Y0031679D01*
X0152693Y0031855D01*
X0152359Y0032039D01*
X0152031Y0032231D01*
X0151707Y0032432D01*
X0151388Y0032640D01*
X0151074Y0032856D01*
X0150765Y0033079D01*
X0150463Y0033310D01*
X0150166Y0033549D01*
X0149874Y0033794D01*
X0149589Y0034047D01*
X0149311Y0034307D01*
X0149038Y0034573D01*
X0148773Y0034846D01*
X0148514Y0035125D01*
X0148262Y0035411D01*
X0148017Y0035702D01*
X0147779Y0036000D01*
X0147549Y0036303D01*
X0147326Y0036612D01*
X0147111Y0036927D01*
X0146903Y0037246D01*
X0146704Y0037570D01*
X0146512Y0037900D01*
X0146329Y0038233D01*
X0146154Y0038572D01*
X0145987Y0038914D01*
X0145828Y0039260D01*
X0145679Y0039611D01*
X0145537Y0039964D01*
X0145405Y0040321D01*
X0145281Y0040682D01*
X0145166Y0041045D01*
X0145060Y0041411D01*
X0144963Y0041779D01*
X0144876Y0042150D01*
X0144797Y0042522D01*
X0144727Y0042897D01*
X0144667Y0043273D01*
X0144616Y0043650D01*
X0144574Y0044029D01*
X0144541Y0044408D01*
X0144518Y0044789D01*
X0144504Y0045169D01*
X0144499Y0045550D01*
X0144504Y0045931D01*
X0144518Y0046311D01*
X0144541Y0046692D01*
X0144574Y0047071D01*
X0144616Y0047450D01*
X0144667Y0047827D01*
X0144727Y0048203D01*
X0144797Y0048578D01*
X0144876Y0048950D01*
X0144963Y0049321D01*
X0145060Y0049689D01*
X0145166Y0050055D01*
X0145281Y0050418D01*
X0145405Y0050779D01*
X0145537Y0051136D01*
X0145679Y0051489D01*
X0145828Y0051840D01*
X0145987Y0052186D01*
X0146154Y0052528D01*
X0146329Y0052867D01*
X0146512Y0053200D01*
X0146704Y0053530D01*
X0146903Y0053854D01*
X0147111Y0054173D01*
X0147326Y0054488D01*
X0147549Y0054797D01*
X0147779Y0055100D01*
X0148017Y0055398D01*
X0148262Y0055689D01*
X0148514Y0055975D01*
X0148773Y0056254D01*
X0149038Y0056527D01*
X0149311Y0056793D01*
X0149589Y0057053D01*
X0149874Y0057306D01*
X0150166Y0057551D01*
X0150463Y0057790D01*
X0150765Y0058021D01*
X0151074Y0058244D01*
X0151388Y0058460D01*
X0151707Y0058668D01*
X0152031Y0058869D01*
X0152359Y0059061D01*
X0152693Y0059245D01*
X0153031Y0059421D01*
X0153373Y0059589D01*
X0153719Y0059748D01*
X0154068Y0059899D01*
X0154422Y0060041D01*
X0154779Y0060174D01*
X0155139Y0060299D01*
X0155501Y0060414D01*
X0155867Y0060521D01*
X0156235Y0060619D01*
X0156606Y0060708D01*
M02*
