G75*
%MOIN*%
%OFA0B0*%
%FSLAX25Y25*%
%IPPOS*%
%LPD*%
%AMOC8*
5,1,8,0,0,1.08239X$1,22.5*
%
%ADD10C,0.00000*%
%ADD11C,0.06600*%
%ADD12C,0.06000*%
%ADD13R,0.02953X0.00984*%
%ADD14R,0.05906X0.05118*%
%ADD15R,0.05906X0.01102*%
%ADD16R,0.01102X0.05906*%
%ADD17R,0.05118X0.05906*%
%ADD18R,0.03937X0.05512*%
%ADD19R,0.03937X0.04331*%
%ADD20C,0.05000*%
%ADD21C,0.01000*%
%ADD22C,0.00600*%
%ADD23C,0.02400*%
%ADD24C,0.02578*%
%ADD25C,0.02000*%
D10*
X0002550Y0001800D02*
X0002550Y0151761D01*
X0233751Y0151761D01*
X0233751Y0001800D01*
X0002550Y0001800D01*
D11*
X0097550Y0037676D03*
X0118800Y0037676D03*
X0118800Y0053424D03*
X0097550Y0053424D03*
D12*
X0096300Y0022300D02*
X0096300Y0016300D01*
X0086300Y0016300D02*
X0086300Y0022300D01*
X0076300Y0022300D02*
X0076300Y0016300D01*
X0066300Y0016300D02*
X0066300Y0022300D01*
X0056300Y0022300D02*
X0056300Y0016300D01*
X0046300Y0016300D02*
X0046300Y0022300D01*
X0036300Y0022300D02*
X0036300Y0016300D01*
X0026300Y0016300D02*
X0026300Y0022300D01*
X0106300Y0022300D02*
X0106300Y0016300D01*
X0116300Y0016300D02*
X0116300Y0022300D01*
X0147550Y0022300D02*
X0147550Y0016300D01*
X0157550Y0016300D02*
X0157550Y0022300D01*
X0167550Y0022300D02*
X0167550Y0016300D01*
X0177550Y0016300D02*
X0177550Y0022300D01*
X0183300Y0031800D02*
X0189300Y0031800D01*
X0189300Y0041800D02*
X0183300Y0041800D01*
X0183300Y0051800D02*
X0189300Y0051800D01*
X0189300Y0061800D02*
X0183300Y0061800D01*
X0212050Y0044300D02*
X0218050Y0044300D01*
X0218050Y0034300D02*
X0212050Y0034300D01*
X0212050Y0024300D02*
X0218050Y0024300D01*
X0218050Y0014300D02*
X0212050Y0014300D01*
X0067550Y0095050D02*
X0067550Y0101050D01*
X0057550Y0101050D02*
X0057550Y0095050D01*
X0047550Y0095050D02*
X0047550Y0101050D01*
X0037550Y0101050D02*
X0037550Y0095050D01*
X0024300Y0094300D02*
X0018300Y0094300D01*
X0018300Y0104300D02*
X0024300Y0104300D01*
X0024300Y0114300D02*
X0018300Y0114300D01*
X0018300Y0124300D02*
X0024300Y0124300D01*
X0037550Y0130050D02*
X0037550Y0136050D01*
X0047550Y0136050D02*
X0047550Y0130050D01*
X0057550Y0130050D02*
X0057550Y0136050D01*
X0067550Y0136050D02*
X0067550Y0130050D01*
X0024300Y0134300D02*
X0018300Y0134300D01*
D13*
X0045001Y0039753D03*
X0045001Y0037784D03*
X0045001Y0035816D03*
X0045001Y0033847D03*
X0057206Y0033847D03*
X0057206Y0035816D03*
X0057206Y0037784D03*
X0057206Y0039753D03*
D14*
X0067550Y0036810D03*
X0067550Y0044290D03*
X0086300Y0045560D03*
X0086300Y0053040D03*
X0107550Y0053040D03*
X0107550Y0045560D03*
X0151300Y0054310D03*
X0151300Y0061790D03*
X0161300Y0086810D03*
X0161300Y0094290D03*
X0153800Y0104310D03*
X0153800Y0111790D03*
X0091300Y0115560D03*
X0091300Y0123040D03*
X0035050Y0050540D03*
X0023800Y0050540D03*
X0023800Y0043060D03*
X0035050Y0043060D03*
D15*
X0103318Y0092223D03*
X0103318Y0094192D03*
X0103318Y0096160D03*
X0103318Y0098129D03*
X0103318Y0100097D03*
X0103318Y0102066D03*
X0103318Y0104034D03*
X0103318Y0106003D03*
X0103318Y0107971D03*
X0103318Y0109940D03*
X0103318Y0111908D03*
X0103318Y0113877D03*
X0136782Y0113877D03*
X0136782Y0111908D03*
X0136782Y0109940D03*
X0136782Y0107971D03*
X0136782Y0106003D03*
X0136782Y0104034D03*
X0136782Y0102066D03*
X0136782Y0100097D03*
X0136782Y0098129D03*
X0136782Y0096160D03*
X0136782Y0094192D03*
X0136782Y0092223D03*
D16*
X0130877Y0086318D03*
X0128908Y0086318D03*
X0126940Y0086318D03*
X0124971Y0086318D03*
X0123003Y0086318D03*
X0121034Y0086318D03*
X0119066Y0086318D03*
X0117097Y0086318D03*
X0115129Y0086318D03*
X0113160Y0086318D03*
X0111192Y0086318D03*
X0109223Y0086318D03*
X0109223Y0119782D03*
X0111192Y0119782D03*
X0113160Y0119782D03*
X0115129Y0119782D03*
X0117097Y0119782D03*
X0119066Y0119782D03*
X0121034Y0119782D03*
X0123003Y0119782D03*
X0124971Y0119782D03*
X0126940Y0119782D03*
X0128908Y0119782D03*
X0130877Y0119782D03*
D17*
X0127560Y0133050D03*
X0135040Y0133050D03*
X0116290Y0133050D03*
X0108810Y0133050D03*
X0097540Y0133050D03*
X0090060Y0133050D03*
X0066290Y0118050D03*
X0058810Y0118050D03*
X0047540Y0118050D03*
X0040060Y0118050D03*
X0115060Y0070550D03*
X0122540Y0070550D03*
X0155060Y0073050D03*
X0162540Y0073050D03*
D18*
X0166300Y0062381D03*
X0162560Y0053719D03*
X0170040Y0053719D03*
D19*
X0075896Y0065550D03*
X0069204Y0065550D03*
X0069204Y0075550D03*
X0075896Y0075550D03*
X0054646Y0075550D03*
X0047954Y0075550D03*
X0047954Y0065550D03*
X0054646Y0065550D03*
D20*
X0172550Y0128050D03*
X0193800Y0128050D03*
X0215050Y0128050D03*
D21*
X0182550Y0111800D02*
X0153810Y0111800D01*
X0153800Y0111790D02*
X0148013Y0106003D01*
X0136782Y0106003D01*
X0136782Y0104034D02*
X0153524Y0104034D01*
X0153810Y0104300D02*
X0163800Y0104300D01*
X0175050Y0093050D01*
X0175050Y0073060D01*
X0162540Y0073050D01*
X0175050Y0073060D02*
X0175050Y0054300D01*
X0174469Y0053719D01*
X0170040Y0053719D01*
X0125600Y0058796D02*
X0125600Y0044476D01*
X0118800Y0037676D01*
X0097550Y0037676D01*
X0107550Y0045560D02*
X0122560Y0045560D01*
X0123800Y0046800D01*
X0123800Y0058050D01*
X0115060Y0066790D01*
X0115060Y0070550D01*
X0121034Y0076524D01*
X0121034Y0086318D01*
X0123003Y0086318D02*
X0123003Y0071013D01*
X0122540Y0070550D01*
X0122540Y0061855D01*
X0125600Y0058796D01*
X0103318Y0111908D02*
X0094952Y0111908D01*
X0091300Y0115560D01*
X0081300Y0125560D01*
X0081300Y0129300D01*
X0090050Y0133060D02*
X0090050Y0144300D01*
X0090050Y0133060D02*
X0090060Y0133050D01*
X0090060Y0124280D01*
X0091300Y0123040D02*
X0093810Y0123040D01*
X0102973Y0113877D01*
X0119066Y0119782D02*
X0119066Y0126534D01*
X0117550Y0128050D01*
X0113810Y0128050D01*
X0108810Y0133050D01*
X0109223Y0133050D02*
X0108800Y0133473D01*
X0108800Y0139300D01*
X0108800Y0148050D01*
X0127550Y0144300D02*
X0127560Y0144290D01*
X0127560Y0133050D01*
X0123003Y0128493D01*
X0123003Y0119782D01*
X0121034Y0119782D02*
X0121034Y0128306D01*
X0116290Y0133050D01*
X0135040Y0133050D02*
X0135050Y0133060D01*
X0135050Y0148050D01*
D22*
X0129745Y0145767D02*
X0130139Y0144815D01*
X0130139Y0143785D01*
X0129745Y0142833D01*
X0129360Y0142448D01*
X0129360Y0137303D01*
X0130657Y0137303D01*
X0131338Y0136622D01*
X0131441Y0136801D01*
X0131683Y0137043D01*
X0131979Y0137214D01*
X0132310Y0137303D01*
X0134740Y0137303D01*
X0134740Y0133350D01*
X0135340Y0133350D01*
X0135340Y0137303D01*
X0137770Y0137303D01*
X0138101Y0137214D01*
X0138397Y0137043D01*
X0138639Y0136801D01*
X0138811Y0136505D01*
X0138899Y0136174D01*
X0138899Y0133350D01*
X0135340Y0133350D01*
X0135340Y0132750D01*
X0138899Y0132750D01*
X0138899Y0129926D01*
X0138825Y0129650D01*
X0159387Y0129650D01*
X0161300Y0131563D01*
X0161300Y0132297D01*
X0161681Y0133216D01*
X0162384Y0133919D01*
X0163303Y0134300D01*
X0164297Y0134300D01*
X0165216Y0133919D01*
X0165736Y0133400D01*
X0190713Y0133400D01*
X0192492Y0131621D01*
X0193044Y0131850D01*
X0194556Y0131850D01*
X0195953Y0131271D01*
X0197021Y0130203D01*
X0197600Y0128806D01*
X0197600Y0127294D01*
X0197021Y0125897D01*
X0195953Y0124829D01*
X0194556Y0124250D01*
X0193044Y0124250D01*
X0191647Y0124829D01*
X0190579Y0125897D01*
X0190000Y0127294D01*
X0190000Y0128806D01*
X0190229Y0129358D01*
X0189387Y0130200D01*
X0175773Y0130200D01*
X0176350Y0128806D01*
X0176350Y0127294D01*
X0175771Y0125897D01*
X0174703Y0124829D01*
X0173306Y0124250D01*
X0171794Y0124250D01*
X0171242Y0124479D01*
X0170913Y0124150D01*
X0141986Y0124150D01*
X0141466Y0123631D01*
X0140547Y0123250D01*
X0139553Y0123250D01*
X0138634Y0123631D01*
X0138114Y0124150D01*
X0129663Y0124150D01*
X0129548Y0124035D01*
X0131966Y0124035D01*
X0132728Y0123274D01*
X0132728Y0118400D01*
X0164463Y0118400D01*
X0165400Y0117463D01*
X0165400Y0106236D01*
X0165919Y0105716D01*
X0166300Y0104797D01*
X0166300Y0104346D01*
X0175796Y0094850D01*
X0176850Y0093796D01*
X0176850Y0073056D01*
X0176851Y0072316D01*
X0176850Y0072315D01*
X0176850Y0067150D01*
X0223137Y0067150D01*
X0224463Y0067150D01*
X0225400Y0066213D01*
X0225400Y0006137D01*
X0224463Y0005200D01*
X0124387Y0005200D01*
X0123450Y0006137D01*
X0123450Y0030050D01*
X0112813Y0030050D01*
X0116263Y0026600D01*
X0117155Y0026600D01*
X0118736Y0025945D01*
X0119945Y0024736D01*
X0120600Y0023155D01*
X0120600Y0015445D01*
X0119945Y0013864D01*
X0118736Y0012655D01*
X0117155Y0012000D01*
X0115445Y0012000D01*
X0113864Y0012655D01*
X0112655Y0013864D01*
X0112000Y0015445D01*
X0112000Y0023155D01*
X0112655Y0024736D01*
X0113128Y0025209D01*
X0110676Y0027661D01*
X0086452Y0027661D01*
X0087765Y0026347D01*
X0088736Y0025945D01*
X0089945Y0024736D01*
X0090600Y0023155D01*
X0090600Y0015445D01*
X0090012Y0014024D01*
X0092000Y0016013D01*
X0092000Y0023155D01*
X0092655Y0024736D01*
X0093864Y0025945D01*
X0095445Y0026600D01*
X0097155Y0026600D01*
X0098736Y0025945D01*
X0099945Y0024736D01*
X0100600Y0023155D01*
X0100600Y0015445D01*
X0099945Y0013864D01*
X0098736Y0012655D01*
X0097155Y0012000D01*
X0095445Y0012000D01*
X0093864Y0012655D01*
X0093516Y0013003D01*
X0090713Y0010200D01*
X0083137Y0010200D01*
X0082200Y0011137D01*
X0079709Y0013628D01*
X0078736Y0012655D01*
X0077155Y0012000D01*
X0075445Y0012000D01*
X0073864Y0012655D01*
X0072655Y0013864D01*
X0072000Y0015445D01*
X0072000Y0023155D01*
X0072655Y0024736D01*
X0073864Y0025945D01*
X0075083Y0026450D01*
X0067517Y0026450D01*
X0068736Y0025945D01*
X0069945Y0024736D01*
X0070600Y0023155D01*
X0070600Y0015445D01*
X0069945Y0013864D01*
X0068736Y0012655D01*
X0067155Y0012000D01*
X0065445Y0012000D01*
X0063864Y0012655D01*
X0062655Y0013864D01*
X0062000Y0015445D01*
X0062000Y0023155D01*
X0062655Y0024736D01*
X0063864Y0025945D01*
X0065083Y0026450D01*
X0057517Y0026450D01*
X0058736Y0025945D01*
X0059945Y0024736D01*
X0060600Y0023155D01*
X0060600Y0015445D01*
X0059945Y0013864D01*
X0058736Y0012655D01*
X0057155Y0012000D01*
X0055445Y0012000D01*
X0053864Y0012655D01*
X0052655Y0013864D01*
X0052000Y0015445D01*
X0052000Y0023155D01*
X0052655Y0024736D01*
X0053864Y0025945D01*
X0055083Y0026450D01*
X0053137Y0026450D01*
X0052200Y0027387D01*
X0047340Y0032247D01*
X0047208Y0032247D01*
X0047016Y0032055D01*
X0042986Y0032055D01*
X0042224Y0032817D01*
X0042224Y0034216D01*
X0039122Y0034216D01*
X0038184Y0035153D01*
X0038184Y0035153D01*
X0035637Y0037700D01*
X0026887Y0037700D01*
X0025386Y0039201D01*
X0020309Y0039201D01*
X0019547Y0039962D01*
X0019547Y0046157D01*
X0020190Y0046800D01*
X0019547Y0047443D01*
X0019547Y0048940D01*
X0012578Y0048940D01*
X0012014Y0048376D01*
X0012014Y0047535D01*
X0011620Y0046583D01*
X0010892Y0045855D01*
X0009940Y0045461D01*
X0008910Y0045461D01*
X0007958Y0045855D01*
X0007230Y0046583D01*
X0006836Y0047535D01*
X0006836Y0048565D01*
X0007230Y0049517D01*
X0007958Y0050245D01*
X0008910Y0050639D01*
X0009751Y0050639D01*
X0011252Y0052140D01*
X0019547Y0052140D01*
X0019547Y0053638D01*
X0020309Y0054399D01*
X0027291Y0054399D01*
X0028053Y0053638D01*
X0028053Y0048550D01*
X0030797Y0045806D01*
X0030797Y0046157D01*
X0031478Y0046838D01*
X0031299Y0046941D01*
X0031057Y0047183D01*
X0030886Y0047479D01*
X0030797Y0047810D01*
X0030797Y0050240D01*
X0034750Y0050240D01*
X0034750Y0050840D01*
X0030797Y0050840D01*
X0030797Y0053270D01*
X0030886Y0053601D01*
X0031057Y0053897D01*
X0031299Y0054139D01*
X0031595Y0054311D01*
X0031926Y0054399D01*
X0034750Y0054399D01*
X0034750Y0050840D01*
X0035350Y0050840D01*
X0039303Y0050840D01*
X0039303Y0053270D01*
X0039214Y0053601D01*
X0039043Y0053897D01*
X0038801Y0054139D01*
X0038505Y0054311D01*
X0038174Y0054399D01*
X0035350Y0054399D01*
X0035350Y0050840D01*
X0035350Y0050240D01*
X0039303Y0050240D01*
X0039303Y0047810D01*
X0039214Y0047479D01*
X0039043Y0047183D01*
X0038801Y0046941D01*
X0038622Y0046838D01*
X0039303Y0046157D01*
X0039303Y0041070D01*
X0040988Y0039384D01*
X0042224Y0039384D01*
X0042224Y0040266D01*
X0040637Y0041854D01*
X0039700Y0042791D01*
X0039700Y0069559D01*
X0040637Y0070496D01*
X0044685Y0074544D01*
X0044685Y0078254D01*
X0045447Y0079015D01*
X0046354Y0079015D01*
X0046354Y0081616D01*
X0054700Y0089963D01*
X0055637Y0090900D01*
X0056333Y0090900D01*
X0055114Y0091405D01*
X0053905Y0092614D01*
X0053250Y0094195D01*
X0053250Y0101905D01*
X0053905Y0103486D01*
X0055114Y0104695D01*
X0056695Y0105350D01*
X0058405Y0105350D01*
X0059986Y0104695D01*
X0061195Y0103486D01*
X0061850Y0101905D01*
X0061850Y0094195D01*
X0061195Y0092614D01*
X0059986Y0091405D01*
X0058767Y0090900D01*
X0066333Y0090900D01*
X0065114Y0091405D01*
X0063905Y0092614D01*
X0063250Y0094195D01*
X0063250Y0101905D01*
X0063905Y0103486D01*
X0065114Y0104695D01*
X0066695Y0105350D01*
X0068405Y0105350D01*
X0069986Y0104695D01*
X0071195Y0103486D01*
X0071850Y0101905D01*
X0071850Y0094195D01*
X0071195Y0092614D01*
X0069986Y0091405D01*
X0068767Y0090900D01*
X0080637Y0090900D01*
X0085950Y0096213D01*
X0085950Y0104963D01*
X0087359Y0106371D01*
X0084150Y0106371D01*
X0084150Y0106361D01*
X0084745Y0105767D01*
X0085139Y0104815D01*
X0085139Y0103785D01*
X0084745Y0102833D01*
X0084017Y0102105D01*
X0083065Y0101711D01*
X0082035Y0101711D01*
X0081083Y0102105D01*
X0080355Y0102833D01*
X0079961Y0103785D01*
X0079961Y0104815D01*
X0080355Y0105767D01*
X0080950Y0106361D01*
X0080950Y0106371D01*
X0028096Y0106371D01*
X0028600Y0105155D01*
X0028600Y0103445D01*
X0027945Y0101864D01*
X0026736Y0100655D01*
X0025155Y0100000D01*
X0017445Y0100000D01*
X0015864Y0100655D01*
X0014655Y0101864D01*
X0014000Y0103445D01*
X0014000Y0105155D01*
X0014655Y0106736D01*
X0015864Y0107945D01*
X0017445Y0108600D01*
X0023337Y0108600D01*
X0023787Y0109050D01*
X0022837Y0110000D01*
X0017445Y0110000D01*
X0015864Y0110655D01*
X0014655Y0111864D01*
X0014000Y0113445D01*
X0014000Y0115155D01*
X0014655Y0116736D01*
X0015864Y0117945D01*
X0017445Y0118600D01*
X0025155Y0118600D01*
X0026736Y0117945D01*
X0027945Y0116736D01*
X0028600Y0115155D01*
X0028600Y0113445D01*
X0027945Y0111864D01*
X0027621Y0111540D01*
X0065134Y0111540D01*
X0065050Y0111742D01*
X0065050Y0112737D01*
X0065431Y0113656D01*
X0065572Y0113797D01*
X0063887Y0113797D01*
X0063425Y0113334D01*
X0062487Y0112397D01*
X0043863Y0112397D01*
X0042925Y0113334D01*
X0042925Y0113335D01*
X0042463Y0113797D01*
X0036962Y0113797D01*
X0036201Y0114559D01*
X0036201Y0121541D01*
X0036962Y0122303D01*
X0043157Y0122303D01*
X0043800Y0121660D01*
X0044443Y0122303D01*
X0045950Y0122303D01*
X0045950Y0126058D01*
X0045114Y0126405D01*
X0043905Y0127614D01*
X0043250Y0129195D01*
X0043250Y0136905D01*
X0043905Y0138486D01*
X0045114Y0139695D01*
X0046695Y0140350D01*
X0048405Y0140350D01*
X0049986Y0139695D01*
X0051195Y0138486D01*
X0051850Y0136905D01*
X0051850Y0129195D01*
X0051195Y0127614D01*
X0049986Y0126405D01*
X0049150Y0126058D01*
X0049150Y0122303D01*
X0050638Y0122303D01*
X0051399Y0121541D01*
X0051399Y0115597D01*
X0054951Y0115597D01*
X0054951Y0121541D01*
X0055712Y0122303D01*
X0057210Y0122303D01*
X0057210Y0125750D01*
X0056695Y0125750D01*
X0055114Y0126405D01*
X0053905Y0127614D01*
X0053250Y0129195D01*
X0053250Y0136905D01*
X0053905Y0138486D01*
X0055114Y0139695D01*
X0056695Y0140350D01*
X0058405Y0140350D01*
X0059986Y0139695D01*
X0061195Y0138486D01*
X0061850Y0136905D01*
X0061850Y0129195D01*
X0061195Y0127614D01*
X0060410Y0126829D01*
X0060410Y0122303D01*
X0061907Y0122303D01*
X0062550Y0121660D01*
X0063193Y0122303D01*
X0064690Y0122303D01*
X0064690Y0126829D01*
X0063905Y0127614D01*
X0063250Y0129195D01*
X0063250Y0136905D01*
X0063905Y0138486D01*
X0065114Y0139695D01*
X0066695Y0140350D01*
X0068405Y0140350D01*
X0069986Y0139695D01*
X0071195Y0138486D01*
X0071850Y0136905D01*
X0071850Y0134650D01*
X0086201Y0134650D01*
X0086201Y0136541D01*
X0086962Y0137303D01*
X0088250Y0137303D01*
X0088250Y0142439D01*
X0087855Y0142833D01*
X0087461Y0143785D01*
X0087461Y0144815D01*
X0087855Y0145767D01*
X0088583Y0146495D01*
X0089535Y0146889D01*
X0090565Y0146889D01*
X0091517Y0146495D01*
X0092245Y0145767D01*
X0092639Y0144815D01*
X0092639Y0143785D01*
X0092245Y0142833D01*
X0091850Y0142439D01*
X0091850Y0137303D01*
X0093157Y0137303D01*
X0093800Y0136660D01*
X0094443Y0137303D01*
X0100638Y0137303D01*
X0101399Y0136541D01*
X0101399Y0131454D01*
X0104453Y0128400D01*
X0111865Y0128400D01*
X0112802Y0127463D01*
X0115791Y0124473D01*
X0116230Y0124035D01*
X0118187Y0124035D01*
X0118220Y0124002D01*
X0118343Y0124035D01*
X0119066Y0124035D01*
X0119066Y0119782D01*
X0119066Y0115530D01*
X0119788Y0115530D01*
X0119912Y0115563D01*
X0119945Y0115530D01*
X0128450Y0115530D01*
X0128450Y0101137D01*
X0129387Y0100200D01*
X0129859Y0099729D01*
X0128283Y0099729D01*
X0127767Y0100245D01*
X0126815Y0100639D01*
X0125785Y0100639D01*
X0124833Y0100245D01*
X0124105Y0099517D01*
X0123711Y0098565D01*
X0123711Y0097535D01*
X0124105Y0096583D01*
X0124833Y0095855D01*
X0124987Y0095792D01*
X0111375Y0095792D01*
X0107570Y0091987D01*
X0107570Y0102434D01*
X0117004Y0102434D01*
X0117333Y0102105D01*
X0118285Y0101711D01*
X0119315Y0101711D01*
X0120267Y0102105D01*
X0120995Y0102833D01*
X0121389Y0103785D01*
X0121389Y0104815D01*
X0120995Y0105767D01*
X0120267Y0106495D01*
X0119315Y0106889D01*
X0118285Y0106889D01*
X0117333Y0106495D01*
X0116605Y0105767D01*
X0116550Y0105634D01*
X0112369Y0105634D01*
X0112639Y0106285D01*
X0112639Y0107315D01*
X0112245Y0108267D01*
X0111517Y0108995D01*
X0110565Y0109389D01*
X0109535Y0109389D01*
X0108583Y0108995D01*
X0107855Y0108267D01*
X0107580Y0107603D01*
X0107570Y0107603D01*
X0107570Y0111029D01*
X0107537Y0111062D01*
X0107570Y0111186D01*
X0107570Y0111908D01*
X0103318Y0111908D01*
X0103318Y0111908D01*
X0107570Y0111908D01*
X0107570Y0112631D01*
X0107537Y0112754D01*
X0107570Y0112787D01*
X0107570Y0114966D01*
X0106809Y0115728D01*
X0103668Y0115728D01*
X0095553Y0123843D01*
X0095553Y0124012D01*
X0096134Y0123431D01*
X0097053Y0123050D01*
X0097787Y0123050D01*
X0101718Y0119120D01*
X0102655Y0118182D01*
X0107372Y0118182D01*
X0107372Y0116291D01*
X0108134Y0115530D01*
X0112757Y0115530D01*
X0112461Y0114815D01*
X0112461Y0113785D01*
X0112855Y0112833D01*
X0113583Y0112105D01*
X0114535Y0111711D01*
X0115565Y0111711D01*
X0116517Y0112105D01*
X0117245Y0112833D01*
X0117639Y0113785D01*
X0117639Y0114815D01*
X0117343Y0115530D01*
X0118187Y0115530D01*
X0118220Y0115563D01*
X0118343Y0115530D01*
X0119066Y0115530D01*
X0119066Y0119782D01*
X0119066Y0119782D01*
X0119066Y0119782D01*
X0119066Y0124035D01*
X0119234Y0124035D01*
X0119234Y0127560D01*
X0117997Y0128797D01*
X0113193Y0128797D01*
X0112512Y0129478D01*
X0112409Y0129299D01*
X0112167Y0129057D01*
X0111871Y0128886D01*
X0111540Y0128797D01*
X0109110Y0128797D01*
X0109110Y0132750D01*
X0109110Y0133350D01*
X0112431Y0133350D01*
X0112431Y0132750D01*
X0109110Y0132750D01*
X0108510Y0132750D01*
X0108510Y0128797D01*
X0106080Y0128797D01*
X0105749Y0128886D01*
X0105453Y0129057D01*
X0105211Y0129299D01*
X0105039Y0129595D01*
X0104951Y0129926D01*
X0104951Y0132750D01*
X0108510Y0132750D01*
X0108510Y0133350D01*
X0108510Y0137303D01*
X0106080Y0137303D01*
X0105749Y0137214D01*
X0105453Y0137043D01*
X0105211Y0136801D01*
X0105039Y0136505D01*
X0104951Y0136174D01*
X0104951Y0133350D01*
X0108510Y0133350D01*
X0109110Y0133350D01*
X0109110Y0137303D01*
X0111540Y0137303D01*
X0111871Y0137214D01*
X0112167Y0137043D01*
X0112409Y0136801D01*
X0112512Y0136622D01*
X0113193Y0137303D01*
X0119388Y0137303D01*
X0120149Y0136541D01*
X0120149Y0131737D01*
X0121780Y0130106D01*
X0121780Y0130106D01*
X0121925Y0129961D01*
X0123701Y0131737D01*
X0123701Y0136541D01*
X0124462Y0137303D01*
X0125760Y0137303D01*
X0125760Y0142429D01*
X0125355Y0142833D01*
X0124961Y0143785D01*
X0124961Y0144815D01*
X0125355Y0145767D01*
X0126083Y0146495D01*
X0127035Y0146889D01*
X0128065Y0146889D01*
X0129017Y0146495D01*
X0129745Y0145767D01*
X0129497Y0146014D02*
X0232451Y0146014D01*
X0232451Y0145416D02*
X0129890Y0145416D01*
X0130138Y0144817D02*
X0232451Y0144817D01*
X0232451Y0144219D02*
X0130139Y0144219D01*
X0130071Y0143620D02*
X0232451Y0143620D01*
X0232451Y0143022D02*
X0129823Y0143022D01*
X0129360Y0142423D02*
X0232451Y0142423D01*
X0232451Y0141824D02*
X0129360Y0141824D01*
X0129360Y0141226D02*
X0232451Y0141226D01*
X0232451Y0140627D02*
X0129360Y0140627D01*
X0129360Y0140029D02*
X0232451Y0140029D01*
X0232451Y0139430D02*
X0129360Y0139430D01*
X0129360Y0138832D02*
X0232451Y0138832D01*
X0232451Y0138233D02*
X0129360Y0138233D01*
X0129360Y0137635D02*
X0232451Y0137635D01*
X0232451Y0137036D02*
X0138404Y0137036D01*
X0138828Y0136438D02*
X0232451Y0136438D01*
X0232451Y0135839D02*
X0138899Y0135839D01*
X0138899Y0135241D02*
X0232451Y0135241D01*
X0232451Y0134642D02*
X0138899Y0134642D01*
X0138899Y0134044D02*
X0162684Y0134044D01*
X0161910Y0133445D02*
X0138899Y0133445D01*
X0138899Y0132248D02*
X0161300Y0132248D01*
X0161300Y0131650D02*
X0138899Y0131650D01*
X0138899Y0131051D02*
X0160789Y0131051D01*
X0160190Y0130453D02*
X0138899Y0130453D01*
X0138880Y0129854D02*
X0159592Y0129854D01*
X0160050Y0128050D02*
X0163800Y0131800D01*
X0190050Y0131800D01*
X0193800Y0128050D01*
X0190000Y0128059D02*
X0176350Y0128059D01*
X0176350Y0128657D02*
X0190000Y0128657D01*
X0190186Y0129256D02*
X0176164Y0129256D01*
X0175916Y0129854D02*
X0189733Y0129854D01*
X0191864Y0132248D02*
X0203711Y0132248D01*
X0203711Y0132315D02*
X0203711Y0131285D01*
X0204105Y0130333D01*
X0204833Y0129605D01*
X0205785Y0129211D01*
X0206815Y0129211D01*
X0207767Y0129605D01*
X0208361Y0130200D01*
X0210637Y0130200D01*
X0211479Y0129358D01*
X0211250Y0128806D01*
X0211250Y0127294D01*
X0211829Y0125897D01*
X0212897Y0124829D01*
X0214294Y0124250D01*
X0215806Y0124250D01*
X0217203Y0124829D01*
X0218271Y0125897D01*
X0218850Y0127294D01*
X0218850Y0128806D01*
X0218271Y0130203D01*
X0217203Y0131271D01*
X0215806Y0131850D01*
X0214294Y0131850D01*
X0213742Y0131621D01*
X0211963Y0133400D01*
X0208361Y0133400D01*
X0207767Y0133995D01*
X0206815Y0134389D01*
X0205785Y0134389D01*
X0204833Y0133995D01*
X0204105Y0133267D01*
X0203711Y0132315D01*
X0203931Y0132847D02*
X0191266Y0132847D01*
X0192463Y0131650D02*
X0192561Y0131650D01*
X0195039Y0131650D02*
X0203711Y0131650D01*
X0203808Y0131051D02*
X0196173Y0131051D01*
X0196771Y0130453D02*
X0204056Y0130453D01*
X0204584Y0129854D02*
X0197166Y0129854D01*
X0197414Y0129256D02*
X0205677Y0129256D01*
X0206923Y0129256D02*
X0211436Y0129256D01*
X0211250Y0128657D02*
X0197600Y0128657D01*
X0197600Y0128059D02*
X0211250Y0128059D01*
X0211250Y0127460D02*
X0197600Y0127460D01*
X0197421Y0126862D02*
X0211429Y0126862D01*
X0211677Y0126263D02*
X0197173Y0126263D01*
X0196789Y0125665D02*
X0212061Y0125665D01*
X0212660Y0125066D02*
X0196190Y0125066D01*
X0195081Y0124468D02*
X0213769Y0124468D01*
X0216331Y0124468D02*
X0232451Y0124468D01*
X0232451Y0125066D02*
X0217440Y0125066D01*
X0218039Y0125665D02*
X0232451Y0125665D01*
X0232451Y0126263D02*
X0218423Y0126263D01*
X0218671Y0126862D02*
X0232451Y0126862D01*
X0232451Y0127460D02*
X0218850Y0127460D01*
X0218850Y0128059D02*
X0232451Y0128059D01*
X0232451Y0128657D02*
X0218850Y0128657D01*
X0218664Y0129256D02*
X0232451Y0129256D01*
X0232451Y0129854D02*
X0218416Y0129854D01*
X0218021Y0130453D02*
X0232451Y0130453D01*
X0232451Y0131051D02*
X0217423Y0131051D01*
X0216289Y0131650D02*
X0232451Y0131650D01*
X0232451Y0132248D02*
X0213114Y0132248D01*
X0212516Y0132847D02*
X0232451Y0132847D01*
X0232451Y0133445D02*
X0208316Y0133445D01*
X0207648Y0134044D02*
X0232451Y0134044D01*
X0232451Y0123869D02*
X0141705Y0123869D01*
X0140597Y0123271D02*
X0232451Y0123271D01*
X0232451Y0122672D02*
X0132728Y0122672D01*
X0132728Y0122074D02*
X0232451Y0122074D01*
X0232451Y0121475D02*
X0132728Y0121475D01*
X0132728Y0120877D02*
X0232451Y0120877D01*
X0232451Y0120278D02*
X0132728Y0120278D01*
X0132728Y0119680D02*
X0232451Y0119680D01*
X0232451Y0119081D02*
X0132728Y0119081D01*
X0132728Y0118483D02*
X0232451Y0118483D01*
X0232451Y0117884D02*
X0164979Y0117884D01*
X0165400Y0117286D02*
X0232451Y0117286D01*
X0232451Y0116687D02*
X0165400Y0116687D01*
X0165400Y0116089D02*
X0232451Y0116089D01*
X0232451Y0115490D02*
X0165400Y0115490D01*
X0165400Y0114891D02*
X0232451Y0114891D01*
X0232451Y0114293D02*
X0165400Y0114293D01*
X0165400Y0113694D02*
X0232451Y0113694D01*
X0232451Y0113096D02*
X0165400Y0113096D01*
X0165400Y0112497D02*
X0232451Y0112497D01*
X0232451Y0111899D02*
X0165400Y0111899D01*
X0165400Y0111300D02*
X0232451Y0111300D01*
X0232451Y0110702D02*
X0165400Y0110702D01*
X0165400Y0110103D02*
X0232451Y0110103D01*
X0232451Y0109505D02*
X0165400Y0109505D01*
X0165400Y0108906D02*
X0232451Y0108906D01*
X0232451Y0108308D02*
X0165400Y0108308D01*
X0165400Y0107709D02*
X0232451Y0107709D01*
X0232451Y0107111D02*
X0165400Y0107111D01*
X0165400Y0106512D02*
X0232451Y0106512D01*
X0232451Y0105914D02*
X0165722Y0105914D01*
X0166085Y0105315D02*
X0232451Y0105315D01*
X0232451Y0104717D02*
X0166300Y0104717D01*
X0166527Y0104118D02*
X0232451Y0104118D01*
X0232451Y0103520D02*
X0167126Y0103520D01*
X0167724Y0102921D02*
X0232451Y0102921D01*
X0232451Y0102323D02*
X0168323Y0102323D01*
X0168921Y0101724D02*
X0232451Y0101724D01*
X0232451Y0101126D02*
X0169520Y0101126D01*
X0170118Y0100527D02*
X0232451Y0100527D01*
X0232451Y0099929D02*
X0170717Y0099929D01*
X0171315Y0099330D02*
X0232451Y0099330D01*
X0232451Y0098732D02*
X0171914Y0098732D01*
X0172512Y0098133D02*
X0232451Y0098133D01*
X0232451Y0097535D02*
X0173111Y0097535D01*
X0173709Y0096936D02*
X0232451Y0096936D01*
X0232451Y0096338D02*
X0174308Y0096338D01*
X0174906Y0095739D02*
X0232451Y0095739D01*
X0232451Y0095141D02*
X0175505Y0095141D01*
X0176103Y0094542D02*
X0232451Y0094542D01*
X0232451Y0093944D02*
X0176702Y0093944D01*
X0176850Y0093345D02*
X0232451Y0093345D01*
X0232451Y0092747D02*
X0176850Y0092747D01*
X0176850Y0092148D02*
X0232451Y0092148D01*
X0232451Y0091550D02*
X0176850Y0091550D01*
X0176850Y0090951D02*
X0232451Y0090951D01*
X0232451Y0090353D02*
X0176850Y0090353D01*
X0176850Y0089754D02*
X0232451Y0089754D01*
X0232451Y0089155D02*
X0176850Y0089155D01*
X0176850Y0088557D02*
X0232451Y0088557D01*
X0232451Y0087958D02*
X0176850Y0087958D01*
X0176850Y0087360D02*
X0232451Y0087360D01*
X0232451Y0086761D02*
X0176850Y0086761D01*
X0176850Y0086163D02*
X0232451Y0086163D01*
X0232451Y0085564D02*
X0176850Y0085564D01*
X0176850Y0084966D02*
X0232451Y0084966D01*
X0232451Y0084367D02*
X0176850Y0084367D01*
X0176850Y0083769D02*
X0232451Y0083769D01*
X0232451Y0083170D02*
X0176850Y0083170D01*
X0176850Y0082572D02*
X0232451Y0082572D01*
X0232451Y0081973D02*
X0176850Y0081973D01*
X0176850Y0081375D02*
X0232451Y0081375D01*
X0232451Y0080776D02*
X0176850Y0080776D01*
X0176850Y0080178D02*
X0232451Y0080178D01*
X0232451Y0079579D02*
X0176850Y0079579D01*
X0176850Y0078981D02*
X0232451Y0078981D01*
X0232451Y0078382D02*
X0176850Y0078382D01*
X0176850Y0077784D02*
X0232451Y0077784D01*
X0232451Y0077185D02*
X0176850Y0077185D01*
X0176850Y0076587D02*
X0232451Y0076587D01*
X0232451Y0075988D02*
X0176850Y0075988D01*
X0176850Y0075390D02*
X0232451Y0075390D01*
X0232451Y0074791D02*
X0176850Y0074791D01*
X0176850Y0074193D02*
X0232451Y0074193D01*
X0232451Y0073594D02*
X0176850Y0073594D01*
X0176850Y0072996D02*
X0232451Y0072996D01*
X0232451Y0072397D02*
X0176851Y0072397D01*
X0176850Y0071799D02*
X0232451Y0071799D01*
X0232451Y0071200D02*
X0176850Y0071200D01*
X0176850Y0070602D02*
X0232451Y0070602D01*
X0232451Y0070003D02*
X0176850Y0070003D01*
X0176850Y0069405D02*
X0232451Y0069405D01*
X0232451Y0068806D02*
X0176850Y0068806D01*
X0176850Y0068208D02*
X0232451Y0068208D01*
X0232451Y0067609D02*
X0176850Y0067609D01*
X0176650Y0065550D02*
X0181640Y0065550D01*
X0180978Y0065276D01*
X0179824Y0064122D01*
X0179200Y0062616D01*
X0179200Y0060984D01*
X0179824Y0059478D01*
X0180978Y0058324D01*
X0182484Y0057700D01*
X0190116Y0057700D01*
X0191622Y0058324D01*
X0192776Y0059478D01*
X0193400Y0060984D01*
X0193400Y0062616D01*
X0192776Y0064122D01*
X0191622Y0065276D01*
X0190960Y0065550D01*
X0223800Y0065550D01*
X0223800Y0006800D01*
X0169650Y0006800D01*
X0169650Y0012732D01*
X0169872Y0012824D01*
X0171026Y0013978D01*
X0171650Y0015484D01*
X0171650Y0023116D01*
X0171026Y0024622D01*
X0169872Y0025776D01*
X0168366Y0026400D01*
X0166734Y0026400D01*
X0165228Y0025776D01*
X0164074Y0024622D01*
X0163450Y0023116D01*
X0163450Y0015484D01*
X0164074Y0013978D01*
X0165228Y0012824D01*
X0165450Y0012732D01*
X0165450Y0006800D01*
X0128400Y0006800D01*
X0128400Y0027283D01*
X0128689Y0027572D01*
X0128689Y0029551D01*
X0127990Y0030250D01*
X0139470Y0030250D01*
X0144586Y0025134D01*
X0144074Y0024622D01*
X0143450Y0023116D01*
X0143450Y0015484D01*
X0144074Y0013978D01*
X0145228Y0012824D01*
X0146734Y0012200D01*
X0148366Y0012200D01*
X0149872Y0012824D01*
X0151026Y0013978D01*
X0151650Y0015484D01*
X0151650Y0023116D01*
X0151026Y0024622D01*
X0149872Y0025776D01*
X0148366Y0026400D01*
X0147280Y0026400D01*
X0142030Y0031650D01*
X0150720Y0031650D01*
X0156150Y0026220D01*
X0156150Y0026158D01*
X0155228Y0025776D01*
X0154074Y0024622D01*
X0153450Y0023116D01*
X0153450Y0015484D01*
X0154074Y0013978D01*
X0155228Y0012824D01*
X0156734Y0012200D01*
X0158366Y0012200D01*
X0159872Y0012824D01*
X0161026Y0013978D01*
X0161650Y0015484D01*
X0161650Y0023116D01*
X0161026Y0024622D01*
X0159872Y0025776D01*
X0158950Y0026158D01*
X0158950Y0027380D01*
X0151880Y0034450D01*
X0125050Y0034450D01*
X0125050Y0041663D01*
X0126263Y0042876D01*
X0127200Y0043813D01*
X0127200Y0051420D01*
X0138220Y0040400D01*
X0179442Y0040400D01*
X0179824Y0039478D01*
X0180978Y0038324D01*
X0182484Y0037700D01*
X0188420Y0037700D01*
X0190294Y0035826D01*
X0190116Y0035900D01*
X0182484Y0035900D01*
X0180978Y0035276D01*
X0179824Y0034122D01*
X0179200Y0032616D01*
X0179200Y0030984D01*
X0179824Y0029478D01*
X0180978Y0028324D01*
X0182484Y0027700D01*
X0190116Y0027700D01*
X0191622Y0028324D01*
X0192776Y0029478D01*
X0193400Y0030984D01*
X0193400Y0032616D01*
X0193326Y0032794D01*
X0203220Y0022900D01*
X0208192Y0022900D01*
X0208574Y0021978D01*
X0209728Y0020824D01*
X0211234Y0020200D01*
X0218866Y0020200D01*
X0220372Y0020824D01*
X0221526Y0021978D01*
X0222150Y0023484D01*
X0222150Y0025116D01*
X0221526Y0026622D01*
X0220372Y0027776D01*
X0218866Y0028400D01*
X0211234Y0028400D01*
X0209728Y0027776D01*
X0208574Y0026622D01*
X0208192Y0025700D01*
X0204380Y0025700D01*
X0191689Y0038391D01*
X0192776Y0039478D01*
X0193400Y0040984D01*
X0193400Y0042616D01*
X0193326Y0042794D01*
X0203220Y0032900D01*
X0208192Y0032900D01*
X0208574Y0031978D01*
X0209728Y0030824D01*
X0211234Y0030200D01*
X0218866Y0030200D01*
X0220372Y0030824D01*
X0221526Y0031978D01*
X0222150Y0033484D01*
X0222150Y0035116D01*
X0221526Y0036622D01*
X0220372Y0037776D01*
X0218866Y0038400D01*
X0211234Y0038400D01*
X0209728Y0037776D01*
X0208574Y0036622D01*
X0208192Y0035700D01*
X0204380Y0035700D01*
X0192700Y0047380D01*
X0191880Y0048200D01*
X0191689Y0048391D01*
X0192776Y0049478D01*
X0193400Y0050984D01*
X0193400Y0052616D01*
X0192776Y0054122D01*
X0191622Y0055276D01*
X0190116Y0055900D01*
X0182484Y0055900D01*
X0180978Y0055276D01*
X0179824Y0054122D01*
X0179200Y0052616D01*
X0179200Y0050984D01*
X0179824Y0049478D01*
X0180978Y0048324D01*
X0181277Y0048200D01*
X0166501Y0048200D01*
X0167021Y0048720D01*
X0168164Y0049863D01*
X0172464Y0049863D01*
X0173109Y0050508D01*
X0173109Y0052119D01*
X0175132Y0052119D01*
X0176650Y0053637D01*
X0176650Y0065550D01*
X0176650Y0065215D02*
X0180917Y0065215D01*
X0180318Y0064617D02*
X0176650Y0064617D01*
X0176650Y0064018D02*
X0179781Y0064018D01*
X0179533Y0063420D02*
X0176650Y0063420D01*
X0176650Y0062821D02*
X0179285Y0062821D01*
X0179200Y0062222D02*
X0176650Y0062222D01*
X0176650Y0061624D02*
X0179200Y0061624D01*
X0179200Y0061025D02*
X0176650Y0061025D01*
X0176650Y0060427D02*
X0179431Y0060427D01*
X0179679Y0059828D02*
X0176650Y0059828D01*
X0176650Y0059230D02*
X0180072Y0059230D01*
X0180670Y0058631D02*
X0176650Y0058631D01*
X0176650Y0058033D02*
X0181681Y0058033D01*
X0181854Y0055639D02*
X0176650Y0055639D01*
X0176650Y0056237D02*
X0223800Y0056237D01*
X0223800Y0055639D02*
X0190746Y0055639D01*
X0191858Y0055040D02*
X0223800Y0055040D01*
X0223800Y0054442D02*
X0192456Y0054442D01*
X0192891Y0053843D02*
X0223800Y0053843D01*
X0223800Y0053245D02*
X0193139Y0053245D01*
X0193387Y0052646D02*
X0223800Y0052646D01*
X0223800Y0052048D02*
X0193400Y0052048D01*
X0193400Y0051449D02*
X0223800Y0051449D01*
X0223800Y0050851D02*
X0193345Y0050851D01*
X0193097Y0050252D02*
X0223800Y0050252D01*
X0223800Y0049654D02*
X0192849Y0049654D01*
X0192353Y0049055D02*
X0223800Y0049055D01*
X0223800Y0048457D02*
X0191755Y0048457D01*
X0192222Y0047858D02*
X0209927Y0047858D01*
X0209728Y0047776D02*
X0208574Y0046622D01*
X0207950Y0045116D01*
X0207950Y0043484D01*
X0208574Y0041978D01*
X0209728Y0040824D01*
X0211234Y0040200D01*
X0218866Y0040200D01*
X0220372Y0040824D01*
X0221526Y0041978D01*
X0222150Y0043484D01*
X0222150Y0045116D01*
X0221526Y0046622D01*
X0220372Y0047776D01*
X0218866Y0048400D01*
X0211234Y0048400D01*
X0209728Y0047776D01*
X0209211Y0047260D02*
X0192820Y0047260D01*
X0193419Y0046661D02*
X0208613Y0046661D01*
X0208342Y0046063D02*
X0194017Y0046063D01*
X0194616Y0045464D02*
X0208094Y0045464D01*
X0207950Y0044866D02*
X0195214Y0044866D01*
X0195813Y0044267D02*
X0207950Y0044267D01*
X0207950Y0043669D02*
X0196411Y0043669D01*
X0197010Y0043070D02*
X0208122Y0043070D01*
X0208370Y0042472D02*
X0197608Y0042472D01*
X0198207Y0041873D02*
X0208679Y0041873D01*
X0209277Y0041275D02*
X0198805Y0041275D01*
X0199404Y0040676D02*
X0210085Y0040676D01*
X0210950Y0038282D02*
X0201798Y0038282D01*
X0202396Y0037684D02*
X0209635Y0037684D01*
X0209037Y0037085D02*
X0202995Y0037085D01*
X0203593Y0036487D02*
X0208518Y0036487D01*
X0208270Y0035888D02*
X0204192Y0035888D01*
X0201429Y0034691D02*
X0195389Y0034691D01*
X0195987Y0034092D02*
X0202028Y0034092D01*
X0202626Y0033494D02*
X0196586Y0033494D01*
X0197184Y0032895D02*
X0208194Y0032895D01*
X0208442Y0032297D02*
X0197783Y0032297D01*
X0198381Y0031698D02*
X0208853Y0031698D01*
X0209452Y0031100D02*
X0198980Y0031100D01*
X0199578Y0030501D02*
X0210507Y0030501D01*
X0210528Y0028107D02*
X0201973Y0028107D01*
X0202571Y0027509D02*
X0209461Y0027509D01*
X0208862Y0026910D02*
X0203170Y0026910D01*
X0203768Y0026312D02*
X0208446Y0026312D01*
X0208198Y0025713D02*
X0204367Y0025713D01*
X0203800Y0024300D02*
X0186300Y0041800D01*
X0138800Y0041800D01*
X0127550Y0053050D01*
X0127550Y0075550D01*
X0124971Y0078129D01*
X0124971Y0086318D01*
X0126940Y0086318D02*
X0126940Y0078660D01*
X0130050Y0075550D01*
X0130050Y0053050D01*
X0136300Y0046800D01*
X0191300Y0046800D01*
X0186300Y0051800D01*
X0180845Y0048457D02*
X0166757Y0048457D01*
X0167356Y0049055D02*
X0180246Y0049055D01*
X0179751Y0049654D02*
X0167955Y0049654D01*
X0165621Y0049300D02*
X0155050Y0049300D01*
X0151300Y0053050D01*
X0151300Y0054310D01*
X0155353Y0054442D02*
X0159491Y0054442D01*
X0159491Y0055040D02*
X0155353Y0055040D01*
X0155353Y0055639D02*
X0159491Y0055639D01*
X0159491Y0056237D02*
X0155353Y0056237D01*
X0155353Y0056836D02*
X0159491Y0056836D01*
X0159491Y0056931D02*
X0159491Y0050700D01*
X0155630Y0050700D01*
X0155194Y0051136D01*
X0155353Y0051295D01*
X0155353Y0057325D01*
X0154708Y0057969D01*
X0147892Y0057969D01*
X0147247Y0057325D01*
X0147247Y0051295D01*
X0147892Y0050651D01*
X0151719Y0050651D01*
X0154170Y0048200D01*
X0136880Y0048200D01*
X0131450Y0053630D01*
X0131450Y0065550D01*
X0156820Y0065550D01*
X0156970Y0065400D01*
X0163231Y0065400D01*
X0163231Y0063781D01*
X0155353Y0063781D01*
X0155353Y0064805D01*
X0154708Y0065449D01*
X0147892Y0065449D01*
X0147247Y0064805D01*
X0147247Y0063200D01*
X0142029Y0063200D01*
X0141040Y0064189D01*
X0139060Y0064189D01*
X0137661Y0062790D01*
X0137661Y0060810D01*
X0139060Y0059411D01*
X0141040Y0059411D01*
X0142029Y0060400D01*
X0147247Y0060400D01*
X0147247Y0058775D01*
X0147892Y0058131D01*
X0154708Y0058131D01*
X0155353Y0058775D01*
X0155353Y0060981D01*
X0163231Y0060981D01*
X0163231Y0059450D01*
X0163220Y0059450D01*
X0161980Y0058210D01*
X0161345Y0057575D01*
X0160136Y0057575D01*
X0159491Y0056931D01*
X0159995Y0057434D02*
X0155243Y0057434D01*
X0155209Y0058631D02*
X0162402Y0058631D01*
X0163000Y0059230D02*
X0155353Y0059230D01*
X0155353Y0059828D02*
X0163231Y0059828D01*
X0163231Y0060427D02*
X0155353Y0060427D01*
X0151891Y0062381D02*
X0151300Y0061790D01*
X0151290Y0061800D01*
X0140050Y0061800D01*
X0141809Y0063420D02*
X0147247Y0063420D01*
X0147247Y0064018D02*
X0141210Y0064018D01*
X0138890Y0064018D02*
X0131450Y0064018D01*
X0131450Y0063420D02*
X0138291Y0063420D01*
X0137692Y0062821D02*
X0131450Y0062821D01*
X0131450Y0062222D02*
X0137661Y0062222D01*
X0137661Y0061624D02*
X0131450Y0061624D01*
X0131450Y0061025D02*
X0137661Y0061025D01*
X0138045Y0060427D02*
X0131450Y0060427D01*
X0131450Y0059828D02*
X0138643Y0059828D01*
X0141457Y0059828D02*
X0147247Y0059828D01*
X0147247Y0059230D02*
X0131450Y0059230D01*
X0131450Y0058631D02*
X0147391Y0058631D01*
X0147357Y0057434D02*
X0131450Y0057434D01*
X0131450Y0056836D02*
X0147247Y0056836D01*
X0147247Y0056237D02*
X0131450Y0056237D01*
X0131450Y0055639D02*
X0147247Y0055639D01*
X0147247Y0055040D02*
X0131450Y0055040D01*
X0131450Y0054442D02*
X0147247Y0054442D01*
X0147247Y0053843D02*
X0131450Y0053843D01*
X0131835Y0053245D02*
X0147247Y0053245D01*
X0147247Y0052646D02*
X0132434Y0052646D01*
X0133032Y0052048D02*
X0147247Y0052048D01*
X0147247Y0051449D02*
X0133631Y0051449D01*
X0134229Y0050851D02*
X0147692Y0050851D01*
X0152118Y0050252D02*
X0134828Y0050252D01*
X0135426Y0049654D02*
X0152716Y0049654D01*
X0153315Y0049055D02*
X0136025Y0049055D01*
X0136623Y0048457D02*
X0153913Y0048457D01*
X0155479Y0050851D02*
X0159491Y0050851D01*
X0159491Y0051449D02*
X0155353Y0051449D01*
X0155353Y0052048D02*
X0159491Y0052048D01*
X0159491Y0052646D02*
X0155353Y0052646D01*
X0155353Y0053245D02*
X0159491Y0053245D01*
X0159491Y0053843D02*
X0155353Y0053843D01*
X0162560Y0053719D02*
X0162560Y0056810D01*
X0163800Y0058050D01*
X0168249Y0058050D01*
X0171300Y0061101D01*
X0171300Y0063661D01*
X0168161Y0066800D01*
X0157550Y0066800D01*
X0155060Y0069290D01*
X0155060Y0073050D01*
X0150050Y0078060D01*
X0150050Y0093050D01*
X0146940Y0096160D01*
X0136782Y0096160D01*
X0136782Y0094192D02*
X0112038Y0094192D01*
X0107550Y0089704D01*
X0107550Y0053040D01*
X0118416Y0053040D01*
X0118800Y0053424D01*
X0122862Y0055639D02*
X0123450Y0055639D01*
X0123450Y0056237D02*
X0122492Y0056237D01*
X0122700Y0056030D02*
X0121406Y0057324D01*
X0119715Y0058024D01*
X0117885Y0058024D01*
X0116194Y0057324D01*
X0114900Y0056030D01*
X0114325Y0054640D01*
X0111803Y0054640D01*
X0111803Y0056138D01*
X0111041Y0056899D01*
X0109150Y0056899D01*
X0109150Y0082065D01*
X0110313Y0082065D01*
X0110404Y0082065D01*
X0110355Y0082017D01*
X0109961Y0081065D01*
X0109961Y0080035D01*
X0110355Y0079083D01*
X0111083Y0078355D01*
X0112035Y0077961D01*
X0113065Y0077961D01*
X0114017Y0078355D01*
X0114425Y0078764D01*
X0114833Y0078355D01*
X0115785Y0077961D01*
X0116815Y0077961D01*
X0117767Y0078355D01*
X0118495Y0079083D01*
X0118889Y0080035D01*
X0118889Y0081065D01*
X0118495Y0082017D01*
X0118446Y0082065D01*
X0120155Y0082065D01*
X0120188Y0082098D01*
X0120312Y0082065D01*
X0121034Y0082065D01*
X0121034Y0086318D01*
X0121034Y0090570D01*
X0120312Y0090570D01*
X0120188Y0090537D01*
X0120155Y0090570D01*
X0118723Y0090570D01*
X0118745Y0090623D01*
X0133040Y0090623D01*
X0133291Y0090372D01*
X0140274Y0090372D01*
X0141035Y0091134D01*
X0141035Y0094560D01*
X0146277Y0094560D01*
X0148450Y0092387D01*
X0148450Y0077397D01*
X0149387Y0076460D01*
X0151201Y0074646D01*
X0151201Y0069559D01*
X0151962Y0068797D01*
X0153460Y0068797D01*
X0153460Y0068627D01*
X0154397Y0067690D01*
X0154937Y0067150D01*
X0131650Y0067150D01*
X0131650Y0076213D01*
X0130713Y0077150D01*
X0128540Y0079323D01*
X0128540Y0082065D01*
X0131966Y0082065D01*
X0132728Y0082826D01*
X0132728Y0089809D01*
X0131966Y0090570D01*
X0121913Y0090570D01*
X0121880Y0090537D01*
X0121757Y0090570D01*
X0121034Y0090570D01*
X0121034Y0086318D01*
X0121034Y0086318D01*
X0121034Y0086318D01*
X0121034Y0082065D01*
X0121203Y0082065D01*
X0121203Y0074803D01*
X0119443Y0074803D01*
X0118762Y0074122D01*
X0118659Y0074301D01*
X0118417Y0074543D01*
X0118121Y0074714D01*
X0117790Y0074803D01*
X0115360Y0074803D01*
X0115360Y0070850D01*
X0114760Y0070850D01*
X0114760Y0074803D01*
X0112330Y0074803D01*
X0111999Y0074714D01*
X0111703Y0074543D01*
X0111461Y0074301D01*
X0111289Y0074005D01*
X0111201Y0073674D01*
X0111201Y0070850D01*
X0114760Y0070850D01*
X0114760Y0070250D01*
X0115360Y0070250D01*
X0115360Y0066297D01*
X0117790Y0066297D01*
X0118121Y0066386D01*
X0118417Y0066557D01*
X0118659Y0066799D01*
X0118762Y0066978D01*
X0119443Y0066297D01*
X0120740Y0066297D01*
X0120740Y0061110D01*
X0123450Y0058400D01*
X0123450Y0044872D01*
X0120521Y0041942D01*
X0119715Y0042276D01*
X0117885Y0042276D01*
X0116194Y0041576D01*
X0114900Y0040282D01*
X0114567Y0039476D01*
X0101783Y0039476D01*
X0101450Y0040282D01*
X0100156Y0041576D01*
X0098465Y0042276D01*
X0096635Y0042276D01*
X0094944Y0041576D01*
X0093650Y0040282D01*
X0092950Y0038591D01*
X0092950Y0036761D01*
X0093650Y0035070D01*
X0094071Y0034650D01*
X0088213Y0034650D01*
X0079150Y0043713D01*
X0079150Y0058870D01*
X0075935Y0062085D01*
X0078403Y0062085D01*
X0079165Y0062846D01*
X0079165Y0064024D01*
X0079833Y0063355D01*
X0080785Y0062961D01*
X0081815Y0062961D01*
X0082767Y0063355D01*
X0083495Y0064083D01*
X0083889Y0065035D01*
X0083889Y0066065D01*
X0083495Y0067017D01*
X0082767Y0067745D01*
X0081815Y0068139D01*
X0080974Y0068139D01*
X0080861Y0068252D01*
X0102981Y0090372D01*
X0105955Y0090372D01*
X0105950Y0090367D01*
X0105950Y0056899D01*
X0104059Y0056899D01*
X0103297Y0056138D01*
X0103297Y0049943D01*
X0103978Y0049262D01*
X0103799Y0049159D01*
X0103557Y0048917D01*
X0103386Y0048621D01*
X0103297Y0048290D01*
X0103297Y0045860D01*
X0107250Y0045860D01*
X0107250Y0045260D01*
X0103297Y0045260D01*
X0103297Y0042830D01*
X0103386Y0042499D01*
X0103557Y0042203D01*
X0103799Y0041961D01*
X0104095Y0041789D01*
X0104426Y0041701D01*
X0107250Y0041701D01*
X0107250Y0045260D01*
X0107850Y0045260D01*
X0107850Y0045860D01*
X0111803Y0045860D01*
X0111803Y0048290D01*
X0111714Y0048621D01*
X0111543Y0048917D01*
X0111301Y0049159D01*
X0111122Y0049262D01*
X0111803Y0049943D01*
X0111803Y0051440D01*
X0114643Y0051440D01*
X0114900Y0050818D01*
X0116194Y0049524D01*
X0117885Y0048824D01*
X0119715Y0048824D01*
X0121406Y0049524D01*
X0122700Y0050818D01*
X0123400Y0052509D01*
X0123400Y0054339D01*
X0122700Y0056030D01*
X0123109Y0055040D02*
X0123450Y0055040D01*
X0123450Y0054442D02*
X0123357Y0054442D01*
X0123400Y0053843D02*
X0123450Y0053843D01*
X0123450Y0053245D02*
X0123400Y0053245D01*
X0123400Y0052646D02*
X0123450Y0052646D01*
X0123450Y0052048D02*
X0123209Y0052048D01*
X0123450Y0051449D02*
X0122961Y0051449D01*
X0122713Y0050851D02*
X0123450Y0050851D01*
X0123450Y0050252D02*
X0122134Y0050252D01*
X0121535Y0049654D02*
X0123450Y0049654D01*
X0123450Y0049055D02*
X0120273Y0049055D01*
X0117327Y0049055D02*
X0111405Y0049055D01*
X0111514Y0049654D02*
X0116065Y0049654D01*
X0115466Y0050252D02*
X0111803Y0050252D01*
X0111803Y0050851D02*
X0114887Y0050851D01*
X0111758Y0048457D02*
X0123450Y0048457D01*
X0123450Y0047858D02*
X0111803Y0047858D01*
X0111803Y0047260D02*
X0123450Y0047260D01*
X0123450Y0046661D02*
X0111803Y0046661D01*
X0111803Y0046063D02*
X0123450Y0046063D01*
X0123450Y0045464D02*
X0107850Y0045464D01*
X0107850Y0045260D02*
X0111803Y0045260D01*
X0111803Y0042830D01*
X0111714Y0042499D01*
X0111543Y0042203D01*
X0111301Y0041961D01*
X0111005Y0041789D01*
X0110674Y0041701D01*
X0107850Y0041701D01*
X0107850Y0045260D01*
X0107850Y0044866D02*
X0107250Y0044866D01*
X0107250Y0045464D02*
X0086600Y0045464D01*
X0086600Y0045260D02*
X0086600Y0045860D01*
X0090553Y0045860D01*
X0090553Y0048290D01*
X0090464Y0048621D01*
X0090293Y0048917D01*
X0090051Y0049159D01*
X0089872Y0049262D01*
X0090553Y0049943D01*
X0090553Y0051440D01*
X0093393Y0051440D01*
X0093650Y0050818D01*
X0094944Y0049524D01*
X0096635Y0048824D01*
X0098465Y0048824D01*
X0100156Y0049524D01*
X0101450Y0050818D01*
X0102150Y0052509D01*
X0102150Y0054339D01*
X0101450Y0056030D01*
X0100156Y0057324D01*
X0098465Y0058024D01*
X0096635Y0058024D01*
X0094944Y0057324D01*
X0093650Y0056030D01*
X0093075Y0054640D01*
X0090553Y0054640D01*
X0090553Y0056138D01*
X0089791Y0056899D01*
X0082809Y0056899D01*
X0082047Y0056138D01*
X0082047Y0049943D01*
X0082728Y0049262D01*
X0082549Y0049159D01*
X0082307Y0048917D01*
X0082136Y0048621D01*
X0082047Y0048290D01*
X0082047Y0045860D01*
X0086000Y0045860D01*
X0086000Y0045260D01*
X0082047Y0045260D01*
X0082047Y0042830D01*
X0082136Y0042499D01*
X0082307Y0042203D01*
X0082549Y0041961D01*
X0082845Y0041789D01*
X0083176Y0041701D01*
X0086000Y0041701D01*
X0086000Y0045260D01*
X0086600Y0045260D01*
X0090553Y0045260D01*
X0090553Y0042830D01*
X0090464Y0042499D01*
X0090293Y0042203D01*
X0090051Y0041961D01*
X0089755Y0041789D01*
X0089424Y0041701D01*
X0086600Y0041701D01*
X0086600Y0045260D01*
X0086600Y0044866D02*
X0086000Y0044866D01*
X0086000Y0045464D02*
X0079150Y0045464D01*
X0079150Y0044866D02*
X0082047Y0044866D01*
X0082047Y0044267D02*
X0079150Y0044267D01*
X0079194Y0043669D02*
X0082047Y0043669D01*
X0082047Y0043070D02*
X0079793Y0043070D01*
X0080391Y0042472D02*
X0082152Y0042472D01*
X0082700Y0041873D02*
X0080990Y0041873D01*
X0081588Y0041275D02*
X0094643Y0041275D01*
X0094045Y0040676D02*
X0082187Y0040676D01*
X0082785Y0040078D02*
X0093566Y0040078D01*
X0093318Y0039479D02*
X0083384Y0039479D01*
X0083982Y0038881D02*
X0093070Y0038881D01*
X0092950Y0038282D02*
X0084581Y0038282D01*
X0085179Y0037684D02*
X0092950Y0037684D01*
X0092950Y0037085D02*
X0085778Y0037085D01*
X0086376Y0036487D02*
X0093064Y0036487D01*
X0093312Y0035888D02*
X0086975Y0035888D01*
X0087573Y0035289D02*
X0093560Y0035289D01*
X0094030Y0034691D02*
X0088172Y0034691D01*
X0087550Y0033050D02*
X0151300Y0033050D01*
X0157550Y0026800D01*
X0157550Y0019300D01*
X0161650Y0019130D02*
X0163450Y0019130D01*
X0163450Y0019728D02*
X0161650Y0019728D01*
X0161650Y0020327D02*
X0163450Y0020327D01*
X0163450Y0020925D02*
X0161650Y0020925D01*
X0161650Y0021524D02*
X0163450Y0021524D01*
X0163450Y0022122D02*
X0161650Y0022122D01*
X0161650Y0022721D02*
X0163450Y0022721D01*
X0163534Y0023319D02*
X0161566Y0023319D01*
X0161318Y0023918D02*
X0163782Y0023918D01*
X0164030Y0024516D02*
X0161070Y0024516D01*
X0160533Y0025115D02*
X0164567Y0025115D01*
X0165165Y0025713D02*
X0159935Y0025713D01*
X0158950Y0026312D02*
X0166522Y0026312D01*
X0168578Y0026312D02*
X0176522Y0026312D01*
X0176734Y0026400D02*
X0175228Y0025776D01*
X0174074Y0024622D01*
X0173450Y0023116D01*
X0173450Y0015484D01*
X0174074Y0013978D01*
X0175228Y0012824D01*
X0176734Y0012200D01*
X0178366Y0012200D01*
X0179872Y0012824D01*
X0181026Y0013978D01*
X0181650Y0015484D01*
X0181650Y0023116D01*
X0181026Y0024622D01*
X0179872Y0025776D01*
X0178366Y0026400D01*
X0176734Y0026400D01*
X0175165Y0025713D02*
X0169935Y0025713D01*
X0170533Y0025115D02*
X0174567Y0025115D01*
X0174030Y0024516D02*
X0171070Y0024516D01*
X0171318Y0023918D02*
X0173782Y0023918D01*
X0173534Y0023319D02*
X0171566Y0023319D01*
X0171650Y0022721D02*
X0173450Y0022721D01*
X0173450Y0022122D02*
X0171650Y0022122D01*
X0171650Y0021524D02*
X0173450Y0021524D01*
X0173450Y0020925D02*
X0171650Y0020925D01*
X0171650Y0020327D02*
X0173450Y0020327D01*
X0173450Y0019728D02*
X0171650Y0019728D01*
X0171650Y0019130D02*
X0173450Y0019130D01*
X0173450Y0018531D02*
X0171650Y0018531D01*
X0171650Y0017933D02*
X0173450Y0017933D01*
X0173450Y0017334D02*
X0171650Y0017334D01*
X0171650Y0016736D02*
X0173450Y0016736D01*
X0173450Y0016137D02*
X0171650Y0016137D01*
X0171650Y0015539D02*
X0173450Y0015539D01*
X0173675Y0014940D02*
X0171425Y0014940D01*
X0171177Y0014342D02*
X0173923Y0014342D01*
X0174309Y0013743D02*
X0170791Y0013743D01*
X0170193Y0013145D02*
X0174907Y0013145D01*
X0175899Y0012546D02*
X0169650Y0012546D01*
X0169650Y0011948D02*
X0208604Y0011948D01*
X0208574Y0011978D02*
X0209728Y0010824D01*
X0211234Y0010200D01*
X0218866Y0010200D01*
X0220372Y0010824D01*
X0221526Y0011978D01*
X0222150Y0013484D01*
X0222150Y0015116D01*
X0221526Y0016622D01*
X0220372Y0017776D01*
X0218866Y0018400D01*
X0211234Y0018400D01*
X0209728Y0017776D01*
X0208574Y0016622D01*
X0207950Y0015116D01*
X0207950Y0013484D01*
X0208574Y0011978D01*
X0208339Y0012546D02*
X0179201Y0012546D01*
X0180193Y0013145D02*
X0208091Y0013145D01*
X0207950Y0013743D02*
X0180791Y0013743D01*
X0181177Y0014342D02*
X0207950Y0014342D01*
X0207950Y0014940D02*
X0181425Y0014940D01*
X0181650Y0015539D02*
X0208125Y0015539D01*
X0208373Y0016137D02*
X0181650Y0016137D01*
X0181650Y0016736D02*
X0208687Y0016736D01*
X0209286Y0017334D02*
X0181650Y0017334D01*
X0181650Y0017933D02*
X0210106Y0017933D01*
X0210929Y0020327D02*
X0181650Y0020327D01*
X0181650Y0020925D02*
X0209627Y0020925D01*
X0209028Y0021524D02*
X0181650Y0021524D01*
X0181650Y0022122D02*
X0208514Y0022122D01*
X0208266Y0022721D02*
X0181650Y0022721D01*
X0181566Y0023319D02*
X0202801Y0023319D01*
X0202202Y0023918D02*
X0181318Y0023918D01*
X0181070Y0024516D02*
X0201604Y0024516D01*
X0201005Y0025115D02*
X0180533Y0025115D01*
X0179935Y0025713D02*
X0200407Y0025713D01*
X0199808Y0026312D02*
X0178578Y0026312D01*
X0180596Y0028706D02*
X0157624Y0028706D01*
X0157026Y0029304D02*
X0179997Y0029304D01*
X0179648Y0029903D02*
X0156427Y0029903D01*
X0155828Y0030501D02*
X0179400Y0030501D01*
X0179200Y0031100D02*
X0155230Y0031100D01*
X0154631Y0031698D02*
X0179200Y0031698D01*
X0179200Y0032297D02*
X0154033Y0032297D01*
X0153434Y0032895D02*
X0179316Y0032895D01*
X0179564Y0033494D02*
X0152836Y0033494D01*
X0152237Y0034092D02*
X0179812Y0034092D01*
X0180393Y0034691D02*
X0125050Y0034691D01*
X0125050Y0035289D02*
X0181011Y0035289D01*
X0182455Y0035888D02*
X0125050Y0035888D01*
X0125050Y0036487D02*
X0189634Y0036487D01*
X0190145Y0035888D02*
X0190232Y0035888D01*
X0189035Y0037085D02*
X0125050Y0037085D01*
X0125050Y0037684D02*
X0188437Y0037684D01*
X0191798Y0038282D02*
X0197838Y0038282D01*
X0197240Y0038881D02*
X0192179Y0038881D01*
X0192776Y0039479D02*
X0196641Y0039479D01*
X0196043Y0040078D02*
X0193024Y0040078D01*
X0193272Y0040676D02*
X0195444Y0040676D01*
X0194845Y0041275D02*
X0193400Y0041275D01*
X0193400Y0041873D02*
X0194247Y0041873D01*
X0193648Y0042472D02*
X0193400Y0042472D01*
X0191300Y0046800D02*
X0203800Y0034300D01*
X0215050Y0034300D01*
X0219593Y0030501D02*
X0223800Y0030501D01*
X0223800Y0029903D02*
X0200177Y0029903D01*
X0200776Y0029304D02*
X0223800Y0029304D01*
X0223800Y0028706D02*
X0201374Y0028706D01*
X0199210Y0026910D02*
X0158950Y0026910D01*
X0158821Y0027509D02*
X0198611Y0027509D01*
X0198013Y0028107D02*
X0191099Y0028107D01*
X0192004Y0028706D02*
X0197414Y0028706D01*
X0196816Y0029304D02*
X0192603Y0029304D01*
X0192952Y0029903D02*
X0196217Y0029903D01*
X0195619Y0030501D02*
X0193200Y0030501D01*
X0193400Y0031100D02*
X0195020Y0031100D01*
X0194422Y0031698D02*
X0193400Y0031698D01*
X0193400Y0032297D02*
X0193823Y0032297D01*
X0194790Y0035289D02*
X0200831Y0035289D01*
X0200232Y0035888D02*
X0194192Y0035888D01*
X0193593Y0036487D02*
X0199634Y0036487D01*
X0199035Y0037085D02*
X0192995Y0037085D01*
X0192396Y0037684D02*
X0198437Y0037684D01*
X0200601Y0039479D02*
X0223800Y0039479D01*
X0223800Y0038881D02*
X0201199Y0038881D01*
X0200002Y0040078D02*
X0223800Y0040078D01*
X0223800Y0040676D02*
X0220015Y0040676D01*
X0220823Y0041275D02*
X0223800Y0041275D01*
X0223800Y0041873D02*
X0221421Y0041873D01*
X0221730Y0042472D02*
X0223800Y0042472D01*
X0223800Y0043070D02*
X0221978Y0043070D01*
X0222150Y0043669D02*
X0223800Y0043669D01*
X0223800Y0044267D02*
X0222150Y0044267D01*
X0222150Y0044866D02*
X0223800Y0044866D01*
X0223800Y0045464D02*
X0222006Y0045464D01*
X0221758Y0046063D02*
X0223800Y0046063D01*
X0223800Y0046661D02*
X0221487Y0046661D01*
X0220889Y0047260D02*
X0223800Y0047260D01*
X0223800Y0047858D02*
X0220173Y0047858D01*
X0225400Y0047858D02*
X0232451Y0047858D01*
X0232451Y0047260D02*
X0225400Y0047260D01*
X0225400Y0046661D02*
X0232451Y0046661D01*
X0232451Y0046063D02*
X0225400Y0046063D01*
X0225400Y0045464D02*
X0232451Y0045464D01*
X0232451Y0044866D02*
X0225400Y0044866D01*
X0225400Y0044267D02*
X0232451Y0044267D01*
X0232451Y0043669D02*
X0225400Y0043669D01*
X0225400Y0043070D02*
X0232451Y0043070D01*
X0232451Y0042472D02*
X0225400Y0042472D01*
X0225400Y0041873D02*
X0232451Y0041873D01*
X0232451Y0041275D02*
X0225400Y0041275D01*
X0225400Y0040676D02*
X0232451Y0040676D01*
X0232451Y0040078D02*
X0225400Y0040078D01*
X0225400Y0039479D02*
X0232451Y0039479D01*
X0232451Y0038881D02*
X0225400Y0038881D01*
X0225400Y0038282D02*
X0232451Y0038282D01*
X0232451Y0037684D02*
X0225400Y0037684D01*
X0225400Y0037085D02*
X0232451Y0037085D01*
X0232451Y0036487D02*
X0225400Y0036487D01*
X0225400Y0035888D02*
X0232451Y0035888D01*
X0232451Y0035289D02*
X0225400Y0035289D01*
X0225400Y0034691D02*
X0232451Y0034691D01*
X0232451Y0034092D02*
X0225400Y0034092D01*
X0225400Y0033494D02*
X0232451Y0033494D01*
X0232451Y0032895D02*
X0225400Y0032895D01*
X0225400Y0032297D02*
X0232451Y0032297D01*
X0232451Y0031698D02*
X0225400Y0031698D01*
X0225400Y0031100D02*
X0232451Y0031100D01*
X0232451Y0030501D02*
X0225400Y0030501D01*
X0225400Y0029903D02*
X0232451Y0029903D01*
X0232451Y0029304D02*
X0225400Y0029304D01*
X0225400Y0028706D02*
X0232451Y0028706D01*
X0232451Y0028107D02*
X0225400Y0028107D01*
X0225400Y0027509D02*
X0232451Y0027509D01*
X0232451Y0026910D02*
X0225400Y0026910D01*
X0225400Y0026312D02*
X0232451Y0026312D01*
X0232451Y0025713D02*
X0225400Y0025713D01*
X0225400Y0025115D02*
X0232451Y0025115D01*
X0232451Y0024516D02*
X0225400Y0024516D01*
X0225400Y0023918D02*
X0232451Y0023918D01*
X0232451Y0023319D02*
X0225400Y0023319D01*
X0225400Y0022721D02*
X0232451Y0022721D01*
X0232451Y0022122D02*
X0225400Y0022122D01*
X0225400Y0021524D02*
X0232451Y0021524D01*
X0232451Y0020925D02*
X0225400Y0020925D01*
X0225400Y0020327D02*
X0232451Y0020327D01*
X0232451Y0019728D02*
X0225400Y0019728D01*
X0225400Y0019130D02*
X0232451Y0019130D01*
X0232451Y0018531D02*
X0225400Y0018531D01*
X0225400Y0017933D02*
X0232451Y0017933D01*
X0232451Y0017334D02*
X0225400Y0017334D01*
X0225400Y0016736D02*
X0232451Y0016736D01*
X0232451Y0016137D02*
X0225400Y0016137D01*
X0225400Y0015539D02*
X0232451Y0015539D01*
X0232451Y0014940D02*
X0225400Y0014940D01*
X0225400Y0014342D02*
X0232451Y0014342D01*
X0232451Y0013743D02*
X0225400Y0013743D01*
X0225400Y0013145D02*
X0232451Y0013145D01*
X0232451Y0012546D02*
X0225400Y0012546D01*
X0225400Y0011948D02*
X0232451Y0011948D01*
X0232451Y0011349D02*
X0225400Y0011349D01*
X0225400Y0010751D02*
X0232451Y0010751D01*
X0232451Y0010152D02*
X0225400Y0010152D01*
X0225400Y0009553D02*
X0232451Y0009553D01*
X0232451Y0008955D02*
X0225400Y0008955D01*
X0225400Y0008356D02*
X0232451Y0008356D01*
X0232451Y0007758D02*
X0225400Y0007758D01*
X0225400Y0007159D02*
X0232451Y0007159D01*
X0232451Y0006561D02*
X0225400Y0006561D01*
X0225225Y0005962D02*
X0232451Y0005962D01*
X0232451Y0005364D02*
X0224627Y0005364D01*
X0223800Y0007159D02*
X0169650Y0007159D01*
X0169650Y0007758D02*
X0223800Y0007758D01*
X0223800Y0008356D02*
X0169650Y0008356D01*
X0169650Y0008955D02*
X0223800Y0008955D01*
X0223800Y0009553D02*
X0169650Y0009553D01*
X0169650Y0010152D02*
X0223800Y0010152D01*
X0223800Y0010751D02*
X0220195Y0010751D01*
X0220897Y0011349D02*
X0223800Y0011349D01*
X0223800Y0011948D02*
X0221496Y0011948D01*
X0221761Y0012546D02*
X0223800Y0012546D01*
X0223800Y0013145D02*
X0222009Y0013145D01*
X0222150Y0013743D02*
X0223800Y0013743D01*
X0223800Y0014342D02*
X0222150Y0014342D01*
X0222150Y0014940D02*
X0223800Y0014940D01*
X0223800Y0015539D02*
X0221975Y0015539D01*
X0221727Y0016137D02*
X0223800Y0016137D01*
X0223800Y0016736D02*
X0221413Y0016736D01*
X0220814Y0017334D02*
X0223800Y0017334D01*
X0223800Y0017933D02*
X0219994Y0017933D01*
X0223800Y0018531D02*
X0181650Y0018531D01*
X0181650Y0019130D02*
X0223800Y0019130D01*
X0223800Y0019728D02*
X0181650Y0019728D01*
X0169650Y0011349D02*
X0209203Y0011349D01*
X0209905Y0010751D02*
X0169650Y0010751D01*
X0165450Y0010751D02*
X0128400Y0010751D01*
X0128400Y0011349D02*
X0165450Y0011349D01*
X0165450Y0011948D02*
X0128400Y0011948D01*
X0128400Y0012546D02*
X0145899Y0012546D01*
X0144907Y0013145D02*
X0128400Y0013145D01*
X0128400Y0013743D02*
X0144309Y0013743D01*
X0143923Y0014342D02*
X0128400Y0014342D01*
X0128400Y0014940D02*
X0143675Y0014940D01*
X0143450Y0015539D02*
X0128400Y0015539D01*
X0128400Y0016137D02*
X0143450Y0016137D01*
X0143450Y0016736D02*
X0128400Y0016736D01*
X0128400Y0017334D02*
X0143450Y0017334D01*
X0143450Y0017933D02*
X0128400Y0017933D01*
X0128400Y0018531D02*
X0143450Y0018531D01*
X0143450Y0019130D02*
X0128400Y0019130D01*
X0128400Y0019728D02*
X0143450Y0019728D01*
X0143450Y0020327D02*
X0128400Y0020327D01*
X0128400Y0020925D02*
X0143450Y0020925D01*
X0143450Y0021524D02*
X0128400Y0021524D01*
X0128400Y0022122D02*
X0143450Y0022122D01*
X0143450Y0022721D02*
X0128400Y0022721D01*
X0128400Y0023319D02*
X0143534Y0023319D01*
X0143782Y0023918D02*
X0128400Y0023918D01*
X0128400Y0024516D02*
X0144030Y0024516D01*
X0144567Y0025115D02*
X0128400Y0025115D01*
X0128400Y0025713D02*
X0144007Y0025713D01*
X0143408Y0026312D02*
X0128400Y0026312D01*
X0128400Y0026910D02*
X0142810Y0026910D01*
X0142211Y0027509D02*
X0128626Y0027509D01*
X0128689Y0028107D02*
X0141613Y0028107D01*
X0141014Y0028706D02*
X0128689Y0028706D01*
X0128689Y0029304D02*
X0140416Y0029304D01*
X0139817Y0029903D02*
X0128337Y0029903D01*
X0123450Y0029903D02*
X0112960Y0029903D01*
X0113558Y0029304D02*
X0123450Y0029304D01*
X0123450Y0028706D02*
X0114157Y0028706D01*
X0114755Y0028107D02*
X0123450Y0028107D01*
X0123450Y0027509D02*
X0115354Y0027509D01*
X0115952Y0026910D02*
X0123450Y0026910D01*
X0123450Y0026312D02*
X0117851Y0026312D01*
X0118968Y0025713D02*
X0123450Y0025713D01*
X0123450Y0025115D02*
X0119566Y0025115D01*
X0120036Y0024516D02*
X0123450Y0024516D01*
X0123450Y0023918D02*
X0120284Y0023918D01*
X0120532Y0023319D02*
X0123450Y0023319D01*
X0123450Y0022721D02*
X0120600Y0022721D01*
X0120600Y0022122D02*
X0123450Y0022122D01*
X0123450Y0021524D02*
X0120600Y0021524D01*
X0120600Y0020925D02*
X0123450Y0020925D01*
X0123450Y0020327D02*
X0120600Y0020327D01*
X0120600Y0019728D02*
X0123450Y0019728D01*
X0123450Y0019130D02*
X0120600Y0019130D01*
X0120600Y0018531D02*
X0123450Y0018531D01*
X0123450Y0017933D02*
X0120600Y0017933D01*
X0120600Y0017334D02*
X0123450Y0017334D01*
X0123450Y0016736D02*
X0120600Y0016736D01*
X0120600Y0016137D02*
X0123450Y0016137D01*
X0123450Y0015539D02*
X0120600Y0015539D01*
X0120391Y0014940D02*
X0123450Y0014940D01*
X0123450Y0014342D02*
X0120143Y0014342D01*
X0119824Y0013743D02*
X0123450Y0013743D01*
X0123450Y0013145D02*
X0119226Y0013145D01*
X0118474Y0012546D02*
X0123450Y0012546D01*
X0123450Y0011948D02*
X0092460Y0011948D01*
X0093059Y0012546D02*
X0094126Y0012546D01*
X0091862Y0011349D02*
X0123450Y0011349D01*
X0123450Y0010751D02*
X0091263Y0010751D01*
X0090050Y0011800D02*
X0096300Y0018050D01*
X0096300Y0019300D01*
X0100600Y0019130D02*
X0106000Y0019130D01*
X0106000Y0019000D02*
X0102000Y0019000D01*
X0102000Y0015962D01*
X0102106Y0015293D01*
X0102315Y0014649D01*
X0102622Y0014046D01*
X0103020Y0013499D01*
X0103499Y0013020D01*
X0104046Y0012622D01*
X0104649Y0012315D01*
X0105293Y0012106D01*
X0105962Y0012000D01*
X0106000Y0012000D01*
X0106000Y0019000D01*
X0106000Y0019600D01*
X0106000Y0026600D01*
X0105962Y0026600D01*
X0105293Y0026494D01*
X0104649Y0026285D01*
X0104046Y0025978D01*
X0103499Y0025580D01*
X0103020Y0025101D01*
X0102622Y0024554D01*
X0102315Y0023951D01*
X0102106Y0023307D01*
X0102000Y0022638D01*
X0102000Y0019600D01*
X0106000Y0019600D01*
X0106600Y0019600D01*
X0106600Y0026600D01*
X0106638Y0026600D01*
X0107307Y0026494D01*
X0107951Y0026285D01*
X0108554Y0025978D01*
X0109101Y0025580D01*
X0109580Y0025101D01*
X0109978Y0024554D01*
X0110285Y0023951D01*
X0110494Y0023307D01*
X0110600Y0022638D01*
X0110600Y0019600D01*
X0106600Y0019600D01*
X0106600Y0019000D01*
X0110600Y0019000D01*
X0110600Y0015962D01*
X0110494Y0015293D01*
X0110285Y0014649D01*
X0109978Y0014046D01*
X0109580Y0013499D01*
X0109101Y0013020D01*
X0108554Y0012622D01*
X0107951Y0012315D01*
X0107307Y0012106D01*
X0106638Y0012000D01*
X0106600Y0012000D01*
X0106600Y0019000D01*
X0106000Y0019000D01*
X0106000Y0018531D02*
X0106600Y0018531D01*
X0106600Y0017933D02*
X0106000Y0017933D01*
X0106000Y0017334D02*
X0106600Y0017334D01*
X0106600Y0016736D02*
X0106000Y0016736D01*
X0106000Y0016137D02*
X0106600Y0016137D01*
X0106600Y0015539D02*
X0106000Y0015539D01*
X0106000Y0014940D02*
X0106600Y0014940D01*
X0106600Y0014342D02*
X0106000Y0014342D01*
X0106000Y0013743D02*
X0106600Y0013743D01*
X0106600Y0013145D02*
X0106000Y0013145D01*
X0106000Y0012546D02*
X0106600Y0012546D01*
X0108404Y0012546D02*
X0114126Y0012546D01*
X0113374Y0013145D02*
X0109226Y0013145D01*
X0109757Y0013743D02*
X0112776Y0013743D01*
X0112457Y0014342D02*
X0110128Y0014342D01*
X0110379Y0014940D02*
X0112209Y0014940D01*
X0112000Y0015539D02*
X0110533Y0015539D01*
X0110600Y0016137D02*
X0112000Y0016137D01*
X0112000Y0016736D02*
X0110600Y0016736D01*
X0110600Y0017334D02*
X0112000Y0017334D01*
X0112000Y0017933D02*
X0110600Y0017933D01*
X0110600Y0018531D02*
X0112000Y0018531D01*
X0112000Y0019130D02*
X0106600Y0019130D01*
X0106600Y0019728D02*
X0106000Y0019728D01*
X0106000Y0020327D02*
X0106600Y0020327D01*
X0106600Y0020925D02*
X0106000Y0020925D01*
X0106000Y0021524D02*
X0106600Y0021524D01*
X0106600Y0022122D02*
X0106000Y0022122D01*
X0106000Y0022721D02*
X0106600Y0022721D01*
X0106600Y0023319D02*
X0106000Y0023319D01*
X0106000Y0023918D02*
X0106600Y0023918D01*
X0106600Y0024516D02*
X0106000Y0024516D01*
X0106000Y0025115D02*
X0106600Y0025115D01*
X0106600Y0025713D02*
X0106000Y0025713D01*
X0106000Y0026312D02*
X0106600Y0026312D01*
X0107868Y0026312D02*
X0112025Y0026312D01*
X0111427Y0026910D02*
X0087202Y0026910D01*
X0086604Y0027509D02*
X0110828Y0027509D01*
X0111339Y0029261D02*
X0116300Y0024300D01*
X0116300Y0019300D01*
X0112000Y0019728D02*
X0110600Y0019728D01*
X0110600Y0020327D02*
X0112000Y0020327D01*
X0112000Y0020925D02*
X0110600Y0020925D01*
X0110600Y0021524D02*
X0112000Y0021524D01*
X0112000Y0022122D02*
X0110600Y0022122D01*
X0110587Y0022721D02*
X0112000Y0022721D01*
X0112068Y0023319D02*
X0110490Y0023319D01*
X0110296Y0023918D02*
X0112316Y0023918D01*
X0112564Y0024516D02*
X0109997Y0024516D01*
X0109566Y0025115D02*
X0113034Y0025115D01*
X0112624Y0025713D02*
X0108918Y0025713D01*
X0104732Y0026312D02*
X0097851Y0026312D01*
X0098968Y0025713D02*
X0103682Y0025713D01*
X0103034Y0025115D02*
X0099566Y0025115D01*
X0100036Y0024516D02*
X0102603Y0024516D01*
X0102304Y0023918D02*
X0100284Y0023918D01*
X0100532Y0023319D02*
X0102110Y0023319D01*
X0102013Y0022721D02*
X0100600Y0022721D01*
X0100600Y0022122D02*
X0102000Y0022122D01*
X0102000Y0021524D02*
X0100600Y0021524D01*
X0100600Y0020925D02*
X0102000Y0020925D01*
X0102000Y0020327D02*
X0100600Y0020327D01*
X0100600Y0019728D02*
X0102000Y0019728D01*
X0102000Y0018531D02*
X0100600Y0018531D01*
X0100600Y0017933D02*
X0102000Y0017933D01*
X0102000Y0017334D02*
X0100600Y0017334D01*
X0100600Y0016736D02*
X0102000Y0016736D01*
X0102000Y0016137D02*
X0100600Y0016137D01*
X0100600Y0015539D02*
X0102067Y0015539D01*
X0102221Y0014940D02*
X0100391Y0014940D01*
X0100143Y0014342D02*
X0102472Y0014342D01*
X0102843Y0013743D02*
X0099824Y0013743D01*
X0099226Y0013145D02*
X0103374Y0013145D01*
X0104196Y0012546D02*
X0098474Y0012546D01*
X0092000Y0016137D02*
X0090600Y0016137D01*
X0090600Y0015539D02*
X0091526Y0015539D01*
X0090927Y0014940D02*
X0090391Y0014940D01*
X0090329Y0014342D02*
X0090143Y0014342D01*
X0090600Y0016736D02*
X0092000Y0016736D01*
X0092000Y0017334D02*
X0090600Y0017334D01*
X0090600Y0017933D02*
X0092000Y0017933D01*
X0092000Y0018531D02*
X0090600Y0018531D01*
X0090600Y0019130D02*
X0092000Y0019130D01*
X0092000Y0019728D02*
X0090600Y0019728D01*
X0090600Y0020327D02*
X0092000Y0020327D01*
X0092000Y0020925D02*
X0090600Y0020925D01*
X0090600Y0021524D02*
X0092000Y0021524D01*
X0092000Y0022122D02*
X0090600Y0022122D01*
X0090600Y0022721D02*
X0092000Y0022721D01*
X0092068Y0023319D02*
X0090532Y0023319D01*
X0090284Y0023918D02*
X0092316Y0023918D01*
X0092564Y0024516D02*
X0090036Y0024516D01*
X0089566Y0025115D02*
X0093034Y0025115D01*
X0093632Y0025713D02*
X0088968Y0025713D01*
X0087851Y0026312D02*
X0094749Y0026312D01*
X0086300Y0025550D02*
X0086300Y0019300D01*
X0081300Y0014300D02*
X0083800Y0011800D01*
X0090050Y0011800D01*
X0082587Y0010751D02*
X0003850Y0010751D01*
X0003850Y0011349D02*
X0081988Y0011349D01*
X0081390Y0011948D02*
X0003850Y0011948D01*
X0003850Y0012546D02*
X0024126Y0012546D01*
X0023864Y0012655D02*
X0025445Y0012000D01*
X0027155Y0012000D01*
X0028736Y0012655D01*
X0029945Y0013864D01*
X0030600Y0015445D01*
X0030600Y0023155D01*
X0029945Y0024736D01*
X0028736Y0025945D01*
X0027155Y0026600D01*
X0025445Y0026600D01*
X0023864Y0025945D01*
X0022655Y0024736D01*
X0022000Y0023155D01*
X0022000Y0015445D01*
X0022655Y0013864D01*
X0023864Y0012655D01*
X0023374Y0013145D02*
X0003850Y0013145D01*
X0003850Y0013743D02*
X0022776Y0013743D01*
X0022457Y0014342D02*
X0003850Y0014342D01*
X0003850Y0014940D02*
X0022209Y0014940D01*
X0022000Y0015539D02*
X0003850Y0015539D01*
X0003850Y0016137D02*
X0022000Y0016137D01*
X0022000Y0016736D02*
X0003850Y0016736D01*
X0003850Y0017334D02*
X0022000Y0017334D01*
X0022000Y0017933D02*
X0003850Y0017933D01*
X0003850Y0018531D02*
X0022000Y0018531D01*
X0022000Y0019130D02*
X0003850Y0019130D01*
X0003850Y0019728D02*
X0022000Y0019728D01*
X0022000Y0020327D02*
X0003850Y0020327D01*
X0003850Y0020925D02*
X0022000Y0020925D01*
X0022000Y0021524D02*
X0003850Y0021524D01*
X0003850Y0022122D02*
X0022000Y0022122D01*
X0022000Y0022721D02*
X0003850Y0022721D01*
X0003850Y0023319D02*
X0022068Y0023319D01*
X0022316Y0023918D02*
X0003850Y0023918D01*
X0003850Y0024516D02*
X0022564Y0024516D01*
X0023034Y0025115D02*
X0003850Y0025115D01*
X0003850Y0025713D02*
X0023632Y0025713D01*
X0024749Y0026312D02*
X0003850Y0026312D01*
X0003850Y0026910D02*
X0052677Y0026910D01*
X0052078Y0027509D02*
X0003850Y0027509D01*
X0003850Y0028107D02*
X0051480Y0028107D01*
X0050881Y0028706D02*
X0003850Y0028706D01*
X0003850Y0029304D02*
X0050283Y0029304D01*
X0049684Y0029903D02*
X0003850Y0029903D01*
X0003850Y0030501D02*
X0049086Y0030501D01*
X0048487Y0031100D02*
X0003850Y0031100D01*
X0003850Y0031698D02*
X0047889Y0031698D01*
X0048003Y0033847D02*
X0045001Y0033847D01*
X0045001Y0035816D02*
X0039784Y0035816D01*
X0036300Y0039300D01*
X0027550Y0039300D01*
X0023800Y0043050D01*
X0023800Y0043060D01*
X0019547Y0043070D02*
X0003850Y0043070D01*
X0003850Y0042472D02*
X0019547Y0042472D01*
X0019547Y0041873D02*
X0003850Y0041873D01*
X0003850Y0041275D02*
X0019547Y0041275D01*
X0019547Y0040676D02*
X0003850Y0040676D01*
X0003850Y0040078D02*
X0019547Y0040078D01*
X0020030Y0039479D02*
X0003850Y0039479D01*
X0003850Y0038881D02*
X0025707Y0038881D01*
X0026305Y0038282D02*
X0003850Y0038282D01*
X0003850Y0037684D02*
X0035654Y0037684D01*
X0036252Y0037085D02*
X0003850Y0037085D01*
X0003850Y0036487D02*
X0036851Y0036487D01*
X0037449Y0035888D02*
X0003850Y0035888D01*
X0003850Y0035289D02*
X0038048Y0035289D01*
X0038646Y0034691D02*
X0003850Y0034691D01*
X0003850Y0034092D02*
X0042224Y0034092D01*
X0042224Y0033494D02*
X0003850Y0033494D01*
X0003850Y0032895D02*
X0042224Y0032895D01*
X0042744Y0032297D02*
X0003850Y0032297D01*
X0003850Y0043669D02*
X0019547Y0043669D01*
X0019547Y0044267D02*
X0003850Y0044267D01*
X0003850Y0044866D02*
X0019547Y0044866D01*
X0019547Y0045464D02*
X0009948Y0045464D01*
X0008902Y0045464D02*
X0003850Y0045464D01*
X0003850Y0046063D02*
X0007751Y0046063D01*
X0007198Y0046661D02*
X0003850Y0046661D01*
X0003850Y0047260D02*
X0006950Y0047260D01*
X0006836Y0047858D02*
X0003850Y0047858D01*
X0003850Y0048457D02*
X0006836Y0048457D01*
X0007039Y0049055D02*
X0003850Y0049055D01*
X0003850Y0049654D02*
X0007367Y0049654D01*
X0007976Y0050252D02*
X0003850Y0050252D01*
X0003850Y0050851D02*
X0009963Y0050851D01*
X0010562Y0051449D02*
X0003850Y0051449D01*
X0003850Y0052048D02*
X0011160Y0052048D01*
X0011915Y0050540D02*
X0009425Y0048050D01*
X0011099Y0046063D02*
X0019547Y0046063D01*
X0020051Y0046661D02*
X0011652Y0046661D01*
X0011900Y0047260D02*
X0019730Y0047260D01*
X0019547Y0047858D02*
X0012014Y0047858D01*
X0012094Y0048457D02*
X0019547Y0048457D01*
X0019547Y0052646D02*
X0003850Y0052646D01*
X0003850Y0053245D02*
X0019547Y0053245D01*
X0019753Y0053843D02*
X0003850Y0053843D01*
X0003850Y0054442D02*
X0039700Y0054442D01*
X0039700Y0055040D02*
X0003850Y0055040D01*
X0003850Y0055639D02*
X0039700Y0055639D01*
X0039700Y0056237D02*
X0003850Y0056237D01*
X0003850Y0056836D02*
X0039700Y0056836D01*
X0039700Y0057434D02*
X0003850Y0057434D01*
X0003850Y0058033D02*
X0039700Y0058033D01*
X0039700Y0058631D02*
X0003850Y0058631D01*
X0003850Y0059230D02*
X0039700Y0059230D01*
X0039700Y0059828D02*
X0003850Y0059828D01*
X0003850Y0060427D02*
X0039700Y0060427D01*
X0039700Y0061025D02*
X0003850Y0061025D01*
X0003850Y0061624D02*
X0039700Y0061624D01*
X0039700Y0062222D02*
X0003850Y0062222D01*
X0003850Y0062821D02*
X0039700Y0062821D01*
X0039700Y0063420D02*
X0003850Y0063420D01*
X0003850Y0064018D02*
X0039700Y0064018D01*
X0039700Y0064617D02*
X0003850Y0064617D01*
X0003850Y0065215D02*
X0039700Y0065215D01*
X0039700Y0065814D02*
X0003850Y0065814D01*
X0003850Y0066412D02*
X0039700Y0066412D01*
X0039700Y0067011D02*
X0003850Y0067011D01*
X0003850Y0067609D02*
X0039700Y0067609D01*
X0039700Y0068208D02*
X0003850Y0068208D01*
X0003850Y0068806D02*
X0039700Y0068806D01*
X0039700Y0069405D02*
X0003850Y0069405D01*
X0003850Y0070003D02*
X0040144Y0070003D01*
X0040742Y0070602D02*
X0003850Y0070602D01*
X0003850Y0071200D02*
X0041341Y0071200D01*
X0041939Y0071799D02*
X0003850Y0071799D01*
X0003850Y0072397D02*
X0042538Y0072397D01*
X0043137Y0072996D02*
X0003850Y0072996D01*
X0003850Y0073594D02*
X0043735Y0073594D01*
X0044334Y0074193D02*
X0003850Y0074193D01*
X0003850Y0074791D02*
X0044685Y0074791D01*
X0044685Y0075390D02*
X0003850Y0075390D01*
X0003850Y0075988D02*
X0044685Y0075988D01*
X0044685Y0076587D02*
X0003850Y0076587D01*
X0003850Y0077185D02*
X0044685Y0077185D01*
X0044685Y0077784D02*
X0003850Y0077784D01*
X0003850Y0078382D02*
X0044814Y0078382D01*
X0045412Y0078981D02*
X0003850Y0078981D01*
X0003850Y0079579D02*
X0046354Y0079579D01*
X0046354Y0080178D02*
X0003850Y0080178D01*
X0003850Y0080776D02*
X0046354Y0080776D01*
X0046354Y0081375D02*
X0003850Y0081375D01*
X0003850Y0081973D02*
X0046711Y0081973D01*
X0047309Y0082572D02*
X0003850Y0082572D01*
X0003850Y0083170D02*
X0047908Y0083170D01*
X0048506Y0083769D02*
X0003850Y0083769D01*
X0003850Y0084367D02*
X0049105Y0084367D01*
X0049703Y0084966D02*
X0003850Y0084966D01*
X0003850Y0085564D02*
X0050302Y0085564D01*
X0050900Y0086163D02*
X0003850Y0086163D01*
X0003850Y0086761D02*
X0051499Y0086761D01*
X0052097Y0087360D02*
X0003850Y0087360D01*
X0003850Y0087958D02*
X0052696Y0087958D01*
X0053294Y0088557D02*
X0003850Y0088557D01*
X0003850Y0089155D02*
X0053893Y0089155D01*
X0054491Y0089754D02*
X0003850Y0089754D01*
X0003850Y0090353D02*
X0016594Y0090353D01*
X0015864Y0090655D02*
X0017445Y0090000D01*
X0025155Y0090000D01*
X0026736Y0090655D01*
X0027945Y0091864D01*
X0028600Y0093445D01*
X0028600Y0095155D01*
X0027945Y0096736D01*
X0026736Y0097945D01*
X0025155Y0098600D01*
X0017445Y0098600D01*
X0015864Y0097945D01*
X0014655Y0096736D01*
X0014000Y0095155D01*
X0014000Y0093445D01*
X0014655Y0091864D01*
X0015864Y0090655D01*
X0015568Y0090951D02*
X0003850Y0090951D01*
X0003850Y0091550D02*
X0014969Y0091550D01*
X0014537Y0092148D02*
X0003850Y0092148D01*
X0003850Y0092747D02*
X0014289Y0092747D01*
X0014041Y0093345D02*
X0003850Y0093345D01*
X0003850Y0093944D02*
X0014000Y0093944D01*
X0014000Y0094542D02*
X0003850Y0094542D01*
X0003850Y0095141D02*
X0014000Y0095141D01*
X0014242Y0095739D02*
X0003850Y0095739D01*
X0003850Y0096338D02*
X0014490Y0096338D01*
X0014855Y0096936D02*
X0003850Y0096936D01*
X0003850Y0097535D02*
X0015454Y0097535D01*
X0016318Y0098133D02*
X0003850Y0098133D01*
X0003850Y0098732D02*
X0033250Y0098732D01*
X0033250Y0098350D02*
X0037250Y0098350D01*
X0037250Y0105350D01*
X0037212Y0105350D01*
X0036543Y0105244D01*
X0035899Y0105035D01*
X0035296Y0104728D01*
X0034749Y0104330D01*
X0034270Y0103851D01*
X0033872Y0103304D01*
X0033565Y0102701D01*
X0033356Y0102057D01*
X0033250Y0101388D01*
X0033250Y0098350D01*
X0033250Y0097750D02*
X0033250Y0094712D01*
X0033356Y0094043D01*
X0033565Y0093399D01*
X0033872Y0092796D01*
X0034270Y0092249D01*
X0034749Y0091770D01*
X0035296Y0091372D01*
X0035899Y0091065D01*
X0036543Y0090856D01*
X0037212Y0090750D01*
X0037250Y0090750D01*
X0037250Y0097750D01*
X0033250Y0097750D01*
X0033250Y0097535D02*
X0027146Y0097535D01*
X0027745Y0096936D02*
X0033250Y0096936D01*
X0033250Y0096338D02*
X0028110Y0096338D01*
X0028358Y0095739D02*
X0033250Y0095739D01*
X0033250Y0095141D02*
X0028600Y0095141D01*
X0028600Y0094542D02*
X0033277Y0094542D01*
X0033388Y0093944D02*
X0028600Y0093944D01*
X0028559Y0093345D02*
X0033593Y0093345D01*
X0033908Y0092747D02*
X0028311Y0092747D01*
X0028063Y0092148D02*
X0034371Y0092148D01*
X0035052Y0091550D02*
X0027631Y0091550D01*
X0027032Y0090951D02*
X0036250Y0090951D01*
X0037250Y0090951D02*
X0037850Y0090951D01*
X0037850Y0090750D02*
X0037888Y0090750D01*
X0038557Y0090856D01*
X0039201Y0091065D01*
X0039804Y0091372D01*
X0040351Y0091770D01*
X0040830Y0092249D01*
X0041228Y0092796D01*
X0041535Y0093399D01*
X0041744Y0094043D01*
X0041850Y0094712D01*
X0041850Y0097750D01*
X0037850Y0097750D01*
X0037850Y0098350D01*
X0037250Y0098350D01*
X0037250Y0097750D01*
X0037850Y0097750D01*
X0037850Y0090750D01*
X0037850Y0091550D02*
X0037250Y0091550D01*
X0037250Y0092148D02*
X0037850Y0092148D01*
X0037850Y0092747D02*
X0037250Y0092747D01*
X0037250Y0093345D02*
X0037850Y0093345D01*
X0037850Y0093944D02*
X0037250Y0093944D01*
X0037250Y0094542D02*
X0037850Y0094542D01*
X0037850Y0095141D02*
X0037250Y0095141D01*
X0037250Y0095739D02*
X0037850Y0095739D01*
X0037850Y0096338D02*
X0037250Y0096338D01*
X0037250Y0096936D02*
X0037850Y0096936D01*
X0037850Y0097535D02*
X0037250Y0097535D01*
X0037250Y0098133D02*
X0026282Y0098133D01*
X0026428Y0100527D02*
X0033250Y0100527D01*
X0033250Y0099929D02*
X0003850Y0099929D01*
X0003850Y0100527D02*
X0016172Y0100527D01*
X0015393Y0101126D02*
X0003850Y0101126D01*
X0003850Y0101724D02*
X0014795Y0101724D01*
X0014465Y0102323D02*
X0003850Y0102323D01*
X0003850Y0102921D02*
X0014217Y0102921D01*
X0014000Y0103520D02*
X0003850Y0103520D01*
X0003850Y0104118D02*
X0014000Y0104118D01*
X0014000Y0104717D02*
X0003850Y0104717D01*
X0003850Y0105315D02*
X0014066Y0105315D01*
X0014314Y0105914D02*
X0003850Y0105914D01*
X0003850Y0106512D02*
X0014562Y0106512D01*
X0015030Y0107111D02*
X0003850Y0107111D01*
X0003850Y0107709D02*
X0015628Y0107709D01*
X0016739Y0108308D02*
X0003850Y0108308D01*
X0003850Y0108906D02*
X0023644Y0108906D01*
X0023332Y0109505D02*
X0003850Y0109505D01*
X0003850Y0110103D02*
X0017195Y0110103D01*
X0015817Y0110702D02*
X0003850Y0110702D01*
X0003850Y0111300D02*
X0015218Y0111300D01*
X0014640Y0111899D02*
X0003850Y0111899D01*
X0003850Y0112497D02*
X0014392Y0112497D01*
X0014144Y0113096D02*
X0003850Y0113096D01*
X0003850Y0113694D02*
X0014000Y0113694D01*
X0014000Y0114293D02*
X0003850Y0114293D01*
X0003850Y0114891D02*
X0014000Y0114891D01*
X0014139Y0115490D02*
X0003850Y0115490D01*
X0003850Y0116089D02*
X0014387Y0116089D01*
X0014634Y0116687D02*
X0003850Y0116687D01*
X0003850Y0117286D02*
X0015204Y0117286D01*
X0015803Y0117884D02*
X0003850Y0117884D01*
X0003850Y0118483D02*
X0017161Y0118483D01*
X0017445Y0120000D02*
X0015864Y0120655D01*
X0014655Y0121864D01*
X0014000Y0123445D01*
X0014000Y0125155D01*
X0014655Y0126736D01*
X0015864Y0127945D01*
X0017445Y0128600D01*
X0025155Y0128600D01*
X0026736Y0127945D01*
X0027945Y0126736D01*
X0028600Y0125155D01*
X0028600Y0123445D01*
X0027945Y0121864D01*
X0026736Y0120655D01*
X0025155Y0120000D01*
X0017445Y0120000D01*
X0016773Y0120278D02*
X0003850Y0120278D01*
X0003850Y0119680D02*
X0036201Y0119680D01*
X0036201Y0120278D02*
X0025827Y0120278D01*
X0026958Y0120877D02*
X0036201Y0120877D01*
X0036201Y0121475D02*
X0027556Y0121475D01*
X0028032Y0122074D02*
X0036733Y0122074D01*
X0036201Y0119081D02*
X0003850Y0119081D01*
X0003850Y0120877D02*
X0015642Y0120877D01*
X0015044Y0121475D02*
X0003850Y0121475D01*
X0003850Y0122074D02*
X0014568Y0122074D01*
X0014320Y0122672D02*
X0003850Y0122672D01*
X0003850Y0123271D02*
X0014072Y0123271D01*
X0014000Y0123869D02*
X0003850Y0123869D01*
X0003850Y0124468D02*
X0014000Y0124468D01*
X0014000Y0125066D02*
X0003850Y0125066D01*
X0003850Y0125665D02*
X0014211Y0125665D01*
X0014459Y0126263D02*
X0003850Y0126263D01*
X0003850Y0126862D02*
X0014781Y0126862D01*
X0015379Y0127460D02*
X0003850Y0127460D01*
X0003850Y0128059D02*
X0016138Y0128059D01*
X0016649Y0130315D02*
X0016046Y0130622D01*
X0015499Y0131020D01*
X0015020Y0131499D01*
X0014622Y0132046D01*
X0014315Y0132649D01*
X0014106Y0133293D01*
X0014000Y0133962D01*
X0014000Y0134000D01*
X0021000Y0134000D01*
X0021600Y0134000D01*
X0021600Y0134600D01*
X0021000Y0134600D01*
X0021000Y0138600D01*
X0017962Y0138600D01*
X0017293Y0138494D01*
X0016649Y0138285D01*
X0016046Y0137978D01*
X0015499Y0137580D01*
X0015020Y0137101D01*
X0014622Y0136554D01*
X0014315Y0135951D01*
X0014106Y0135307D01*
X0014000Y0134638D01*
X0014000Y0134600D01*
X0021000Y0134600D01*
X0021000Y0134000D01*
X0021000Y0130000D01*
X0017962Y0130000D01*
X0017293Y0130106D01*
X0016649Y0130315D01*
X0016379Y0130453D02*
X0003850Y0130453D01*
X0003850Y0131051D02*
X0015468Y0131051D01*
X0014910Y0131650D02*
X0003850Y0131650D01*
X0003850Y0132248D02*
X0014519Y0132248D01*
X0014251Y0132847D02*
X0003850Y0132847D01*
X0003850Y0133445D02*
X0014082Y0133445D01*
X0014001Y0134642D02*
X0003850Y0134642D01*
X0003850Y0134044D02*
X0021000Y0134044D01*
X0021000Y0134642D02*
X0021600Y0134642D01*
X0021600Y0134600D02*
X0021600Y0138600D01*
X0024638Y0138600D01*
X0025307Y0138494D01*
X0025951Y0138285D01*
X0026554Y0137978D01*
X0027101Y0137580D01*
X0027580Y0137101D01*
X0027978Y0136554D01*
X0028285Y0135951D01*
X0028494Y0135307D01*
X0028600Y0134638D01*
X0028600Y0134600D01*
X0021600Y0134600D01*
X0021600Y0134044D02*
X0033250Y0134044D01*
X0033250Y0134642D02*
X0028599Y0134642D01*
X0028505Y0135241D02*
X0033250Y0135241D01*
X0033250Y0135839D02*
X0028321Y0135839D01*
X0028037Y0136438D02*
X0033258Y0136438D01*
X0033250Y0136388D02*
X0033250Y0133350D01*
X0037250Y0133350D01*
X0037250Y0140350D01*
X0037212Y0140350D01*
X0036543Y0140244D01*
X0035899Y0140035D01*
X0035296Y0139728D01*
X0034749Y0139330D01*
X0034270Y0138851D01*
X0033872Y0138304D01*
X0033565Y0137701D01*
X0033356Y0137057D01*
X0033250Y0136388D01*
X0033353Y0137036D02*
X0027627Y0137036D01*
X0027025Y0137635D02*
X0033544Y0137635D01*
X0033837Y0138233D02*
X0026052Y0138233D01*
X0021600Y0138233D02*
X0021000Y0138233D01*
X0021000Y0137635D02*
X0021600Y0137635D01*
X0021600Y0137036D02*
X0021000Y0137036D01*
X0021000Y0136438D02*
X0021600Y0136438D01*
X0021600Y0135839D02*
X0021000Y0135839D01*
X0021000Y0135241D02*
X0021600Y0135241D01*
X0021600Y0134000D02*
X0028600Y0134000D01*
X0028600Y0133962D01*
X0028494Y0133293D01*
X0028285Y0132649D01*
X0027978Y0132046D01*
X0027580Y0131499D01*
X0027101Y0131020D01*
X0026554Y0130622D01*
X0025951Y0130315D01*
X0025307Y0130106D01*
X0024638Y0130000D01*
X0021600Y0130000D01*
X0021600Y0134000D01*
X0021600Y0133445D02*
X0021000Y0133445D01*
X0021000Y0132847D02*
X0021600Y0132847D01*
X0021600Y0132248D02*
X0021000Y0132248D01*
X0021000Y0131650D02*
X0021600Y0131650D01*
X0021600Y0131051D02*
X0021000Y0131051D01*
X0021000Y0130453D02*
X0021600Y0130453D01*
X0026221Y0130453D02*
X0033250Y0130453D01*
X0033250Y0131051D02*
X0027132Y0131051D01*
X0027690Y0131650D02*
X0033250Y0131650D01*
X0033250Y0132248D02*
X0028081Y0132248D01*
X0028349Y0132847D02*
X0037250Y0132847D01*
X0037250Y0132750D02*
X0033250Y0132750D01*
X0033250Y0129712D01*
X0033356Y0129043D01*
X0033565Y0128399D01*
X0033872Y0127796D01*
X0034270Y0127249D01*
X0034749Y0126770D01*
X0035296Y0126372D01*
X0035899Y0126065D01*
X0036543Y0125856D01*
X0037212Y0125750D01*
X0037250Y0125750D01*
X0037250Y0132750D01*
X0037250Y0133350D01*
X0037850Y0133350D01*
X0037850Y0140350D01*
X0037888Y0140350D01*
X0038557Y0140244D01*
X0039201Y0140035D01*
X0039804Y0139728D01*
X0040351Y0139330D01*
X0040830Y0138851D01*
X0041228Y0138304D01*
X0041535Y0137701D01*
X0041744Y0137057D01*
X0041850Y0136388D01*
X0041850Y0133350D01*
X0037850Y0133350D01*
X0037850Y0132750D01*
X0041850Y0132750D01*
X0041850Y0129712D01*
X0041744Y0129043D01*
X0041535Y0128399D01*
X0041228Y0127796D01*
X0040830Y0127249D01*
X0040351Y0126770D01*
X0039804Y0126372D01*
X0039201Y0126065D01*
X0038557Y0125856D01*
X0037888Y0125750D01*
X0037850Y0125750D01*
X0037850Y0132750D01*
X0037250Y0132750D01*
X0037250Y0132248D02*
X0037850Y0132248D01*
X0037850Y0131650D02*
X0037250Y0131650D01*
X0037250Y0131051D02*
X0037850Y0131051D01*
X0037850Y0130453D02*
X0037250Y0130453D01*
X0037250Y0129854D02*
X0037850Y0129854D01*
X0037850Y0129256D02*
X0037250Y0129256D01*
X0037250Y0128657D02*
X0037850Y0128657D01*
X0037850Y0128059D02*
X0037250Y0128059D01*
X0037250Y0127460D02*
X0037850Y0127460D01*
X0037850Y0126862D02*
X0037250Y0126862D01*
X0037250Y0126263D02*
X0037850Y0126263D01*
X0039590Y0126263D02*
X0045456Y0126263D01*
X0045950Y0125665D02*
X0028389Y0125665D01*
X0028600Y0125066D02*
X0045950Y0125066D01*
X0045950Y0124468D02*
X0028600Y0124468D01*
X0028600Y0123869D02*
X0045950Y0123869D01*
X0045950Y0123271D02*
X0028528Y0123271D01*
X0028280Y0122672D02*
X0045950Y0122672D01*
X0044213Y0122074D02*
X0043386Y0122074D01*
X0049150Y0122672D02*
X0057210Y0122672D01*
X0057210Y0123271D02*
X0049150Y0123271D01*
X0049150Y0123869D02*
X0057210Y0123869D01*
X0057210Y0124468D02*
X0049150Y0124468D01*
X0049150Y0125066D02*
X0057210Y0125066D01*
X0057210Y0125665D02*
X0049150Y0125665D01*
X0049644Y0126263D02*
X0055456Y0126263D01*
X0054657Y0126862D02*
X0050443Y0126862D01*
X0051041Y0127460D02*
X0054059Y0127460D01*
X0053721Y0128059D02*
X0051379Y0128059D01*
X0051627Y0128657D02*
X0053473Y0128657D01*
X0053250Y0129256D02*
X0051850Y0129256D01*
X0051850Y0129854D02*
X0053250Y0129854D01*
X0053250Y0130453D02*
X0051850Y0130453D01*
X0051850Y0131051D02*
X0053250Y0131051D01*
X0053250Y0131650D02*
X0051850Y0131650D01*
X0051850Y0132248D02*
X0053250Y0132248D01*
X0053250Y0132847D02*
X0051850Y0132847D01*
X0051850Y0133445D02*
X0053250Y0133445D01*
X0053250Y0134044D02*
X0051850Y0134044D01*
X0051850Y0134642D02*
X0053250Y0134642D01*
X0053250Y0135241D02*
X0051850Y0135241D01*
X0051850Y0135839D02*
X0053250Y0135839D01*
X0053250Y0136438D02*
X0051850Y0136438D01*
X0051796Y0137036D02*
X0053304Y0137036D01*
X0053552Y0137635D02*
X0051548Y0137635D01*
X0051300Y0138233D02*
X0053800Y0138233D01*
X0054251Y0138832D02*
X0050849Y0138832D01*
X0050251Y0139430D02*
X0054849Y0139430D01*
X0055920Y0140029D02*
X0049180Y0140029D01*
X0045920Y0140029D02*
X0039212Y0140029D01*
X0040213Y0139430D02*
X0044849Y0139430D01*
X0044251Y0138832D02*
X0040844Y0138832D01*
X0041263Y0138233D02*
X0043800Y0138233D01*
X0043552Y0137635D02*
X0041556Y0137635D01*
X0041747Y0137036D02*
X0043304Y0137036D01*
X0043250Y0136438D02*
X0041842Y0136438D01*
X0041850Y0135839D02*
X0043250Y0135839D01*
X0043250Y0135241D02*
X0041850Y0135241D01*
X0041850Y0134642D02*
X0043250Y0134642D01*
X0043250Y0134044D02*
X0041850Y0134044D01*
X0041850Y0133445D02*
X0043250Y0133445D01*
X0043250Y0132847D02*
X0037850Y0132847D01*
X0037850Y0133445D02*
X0037250Y0133445D01*
X0037250Y0134044D02*
X0037850Y0134044D01*
X0037850Y0134642D02*
X0037250Y0134642D01*
X0037250Y0135241D02*
X0037850Y0135241D01*
X0037850Y0135839D02*
X0037250Y0135839D01*
X0037250Y0136438D02*
X0037850Y0136438D01*
X0037850Y0137036D02*
X0037250Y0137036D01*
X0037250Y0137635D02*
X0037850Y0137635D01*
X0037850Y0138233D02*
X0037250Y0138233D01*
X0037250Y0138832D02*
X0037850Y0138832D01*
X0037850Y0139430D02*
X0037250Y0139430D01*
X0037250Y0140029D02*
X0037850Y0140029D01*
X0035888Y0140029D02*
X0003850Y0140029D01*
X0003850Y0140627D02*
X0088250Y0140627D01*
X0088250Y0140029D02*
X0069180Y0140029D01*
X0070251Y0139430D02*
X0088250Y0139430D01*
X0088250Y0138832D02*
X0070849Y0138832D01*
X0071300Y0138233D02*
X0088250Y0138233D01*
X0088250Y0137635D02*
X0071548Y0137635D01*
X0071796Y0137036D02*
X0086696Y0137036D01*
X0086201Y0136438D02*
X0071850Y0136438D01*
X0071850Y0135839D02*
X0086201Y0135839D01*
X0086201Y0135241D02*
X0071850Y0135241D01*
X0071850Y0131450D02*
X0086201Y0131450D01*
X0086201Y0129559D01*
X0086962Y0128797D01*
X0088260Y0128797D01*
X0088260Y0126899D01*
X0087809Y0126899D01*
X0087047Y0126138D01*
X0087047Y0119943D01*
X0087728Y0119262D01*
X0087549Y0119159D01*
X0087307Y0118917D01*
X0087136Y0118621D01*
X0087047Y0118290D01*
X0087047Y0115860D01*
X0091000Y0115860D01*
X0091000Y0115260D01*
X0087047Y0115260D01*
X0087047Y0112830D01*
X0087136Y0112499D01*
X0087307Y0112203D01*
X0087549Y0111961D01*
X0087845Y0111789D01*
X0088176Y0111701D01*
X0091000Y0111701D01*
X0091000Y0115260D01*
X0091600Y0115260D01*
X0091600Y0115860D01*
X0095553Y0115860D01*
X0095553Y0118290D01*
X0095464Y0118621D01*
X0095293Y0118917D01*
X0095051Y0119159D01*
X0094872Y0119262D01*
X0094957Y0119347D01*
X0099201Y0115103D01*
X0099065Y0114966D01*
X0099065Y0112787D01*
X0099098Y0112754D01*
X0099065Y0112631D01*
X0099065Y0111908D01*
X0099065Y0111540D01*
X0084150Y0111540D01*
X0084150Y0112239D01*
X0084745Y0112833D01*
X0085139Y0113785D01*
X0085139Y0114815D01*
X0084745Y0115767D01*
X0084017Y0116495D01*
X0083065Y0116889D01*
X0082035Y0116889D01*
X0081083Y0116495D01*
X0080355Y0115767D01*
X0079961Y0114815D01*
X0079961Y0113785D01*
X0080355Y0112833D01*
X0080950Y0112239D01*
X0080950Y0111540D01*
X0069966Y0111540D01*
X0070050Y0111742D01*
X0070050Y0112737D01*
X0069669Y0113656D01*
X0069458Y0113867D01*
X0070149Y0114559D01*
X0070149Y0121541D01*
X0069388Y0122303D01*
X0067890Y0122303D01*
X0067890Y0125750D01*
X0068405Y0125750D01*
X0069986Y0126405D01*
X0071195Y0127614D01*
X0071850Y0129195D01*
X0071850Y0131450D01*
X0071850Y0131051D02*
X0086201Y0131051D01*
X0086201Y0130453D02*
X0071850Y0130453D01*
X0071850Y0129854D02*
X0086201Y0129854D01*
X0086504Y0129256D02*
X0071850Y0129256D01*
X0071627Y0128657D02*
X0088260Y0128657D01*
X0088260Y0128059D02*
X0071379Y0128059D01*
X0071041Y0127460D02*
X0088260Y0127460D01*
X0087771Y0126862D02*
X0070443Y0126862D01*
X0069644Y0126263D02*
X0087173Y0126263D01*
X0087047Y0125665D02*
X0067890Y0125665D01*
X0067890Y0125066D02*
X0087047Y0125066D01*
X0087047Y0124468D02*
X0067890Y0124468D01*
X0067890Y0123869D02*
X0087047Y0123869D01*
X0087047Y0123271D02*
X0067890Y0123271D01*
X0067890Y0122672D02*
X0087047Y0122672D01*
X0087047Y0122074D02*
X0069617Y0122074D01*
X0070149Y0121475D02*
X0087047Y0121475D01*
X0087047Y0120877D02*
X0070149Y0120877D01*
X0070149Y0120278D02*
X0087047Y0120278D01*
X0087310Y0119680D02*
X0070149Y0119680D01*
X0070149Y0119081D02*
X0087471Y0119081D01*
X0087099Y0118483D02*
X0070149Y0118483D01*
X0070149Y0117884D02*
X0087047Y0117884D01*
X0087047Y0117286D02*
X0070149Y0117286D01*
X0070149Y0116687D02*
X0081547Y0116687D01*
X0080677Y0116089D02*
X0070149Y0116089D01*
X0070149Y0115490D02*
X0080241Y0115490D01*
X0079993Y0114891D02*
X0070149Y0114891D01*
X0069883Y0114293D02*
X0079961Y0114293D01*
X0079999Y0113694D02*
X0069631Y0113694D01*
X0069901Y0113096D02*
X0080246Y0113096D01*
X0080691Y0112497D02*
X0070050Y0112497D01*
X0070050Y0111899D02*
X0080950Y0111899D01*
X0082550Y0109940D02*
X0082550Y0114300D01*
X0083553Y0116687D02*
X0087047Y0116687D01*
X0087047Y0116089D02*
X0084423Y0116089D01*
X0084859Y0115490D02*
X0091000Y0115490D01*
X0091000Y0114891D02*
X0091600Y0114891D01*
X0091600Y0115260D02*
X0091600Y0111701D01*
X0094424Y0111701D01*
X0094755Y0111789D01*
X0095051Y0111961D01*
X0095293Y0112203D01*
X0095464Y0112499D01*
X0095553Y0112830D01*
X0095553Y0115260D01*
X0091600Y0115260D01*
X0091600Y0115490D02*
X0098814Y0115490D01*
X0099065Y0114891D02*
X0095553Y0114891D01*
X0095553Y0114293D02*
X0099065Y0114293D01*
X0099065Y0113694D02*
X0095553Y0113694D01*
X0095553Y0113096D02*
X0099065Y0113096D01*
X0099065Y0112497D02*
X0095463Y0112497D01*
X0094944Y0111899D02*
X0099065Y0111899D01*
X0099065Y0111908D02*
X0103318Y0111908D01*
X0103318Y0111908D01*
X0099065Y0111908D01*
X0102973Y0113877D02*
X0103318Y0113877D01*
X0103307Y0116089D02*
X0107575Y0116089D01*
X0107372Y0116687D02*
X0102709Y0116687D01*
X0102110Y0117286D02*
X0107372Y0117286D01*
X0107372Y0117884D02*
X0101512Y0117884D01*
X0100913Y0118483D02*
X0102355Y0118483D01*
X0101756Y0119081D02*
X0100315Y0119081D01*
X0099716Y0119680D02*
X0101158Y0119680D01*
X0100559Y0120278D02*
X0099117Y0120278D01*
X0098519Y0120877D02*
X0099961Y0120877D01*
X0099362Y0121475D02*
X0097920Y0121475D01*
X0097322Y0122074D02*
X0098764Y0122074D01*
X0098165Y0122672D02*
X0096723Y0122672D01*
X0096520Y0123271D02*
X0096125Y0123271D01*
X0095695Y0123869D02*
X0095553Y0123869D01*
X0097550Y0125550D02*
X0103318Y0119782D01*
X0109223Y0119782D01*
X0111192Y0119782D02*
X0111192Y0122873D01*
X0108665Y0125400D01*
X0106150Y0125400D01*
X0103800Y0123050D01*
X0103790Y0126800D02*
X0097540Y0133050D01*
X0101399Y0132847D02*
X0108510Y0132847D01*
X0108810Y0133050D02*
X0109223Y0133050D01*
X0109110Y0132847D02*
X0112431Y0132847D01*
X0109110Y0133445D02*
X0108510Y0133445D01*
X0108510Y0134044D02*
X0109110Y0134044D01*
X0109110Y0134642D02*
X0108510Y0134642D01*
X0108510Y0135241D02*
X0109110Y0135241D01*
X0109110Y0135839D02*
X0108510Y0135839D01*
X0108510Y0136438D02*
X0109110Y0136438D01*
X0109110Y0137036D02*
X0108510Y0137036D01*
X0105446Y0137036D02*
X0100904Y0137036D01*
X0101399Y0136438D02*
X0105022Y0136438D01*
X0104951Y0135839D02*
X0101399Y0135839D01*
X0101399Y0135241D02*
X0104951Y0135241D01*
X0104951Y0134642D02*
X0101399Y0134642D01*
X0101399Y0134044D02*
X0104951Y0134044D01*
X0104951Y0133445D02*
X0101399Y0133445D01*
X0101399Y0132248D02*
X0104951Y0132248D01*
X0104951Y0131650D02*
X0101399Y0131650D01*
X0101802Y0131051D02*
X0104951Y0131051D01*
X0104951Y0130453D02*
X0102400Y0130453D01*
X0102999Y0129854D02*
X0104970Y0129854D01*
X0105254Y0129256D02*
X0103597Y0129256D01*
X0104196Y0128657D02*
X0118137Y0128657D01*
X0118736Y0128059D02*
X0112206Y0128059D01*
X0112805Y0127460D02*
X0119234Y0127460D01*
X0119234Y0126862D02*
X0113403Y0126862D01*
X0114002Y0126263D02*
X0119234Y0126263D01*
X0119234Y0125665D02*
X0114600Y0125665D01*
X0115199Y0125066D02*
X0119234Y0125066D01*
X0119234Y0124468D02*
X0115797Y0124468D01*
X0115129Y0122873D02*
X0115129Y0119782D01*
X0115129Y0114379D01*
X0115050Y0114300D01*
X0117639Y0114293D02*
X0128450Y0114293D01*
X0128450Y0114891D02*
X0117607Y0114891D01*
X0117359Y0115490D02*
X0128450Y0115490D01*
X0130050Y0115490D02*
X0133053Y0115490D01*
X0133291Y0115728D02*
X0132530Y0114966D01*
X0132530Y0100550D01*
X0131300Y0100550D01*
X0130050Y0101800D01*
X0130050Y0115530D01*
X0131966Y0115530D01*
X0132728Y0116291D01*
X0132728Y0116800D01*
X0163800Y0116800D01*
X0163800Y0113600D01*
X0158053Y0113600D01*
X0158053Y0114888D01*
X0157291Y0115649D01*
X0150309Y0115649D01*
X0149547Y0114888D01*
X0149547Y0110083D01*
X0147267Y0107803D01*
X0141035Y0107803D01*
X0141035Y0114966D01*
X0140274Y0115728D01*
X0133291Y0115728D01*
X0132525Y0116089D02*
X0163800Y0116089D01*
X0163800Y0116687D02*
X0132728Y0116687D01*
X0132530Y0114891D02*
X0130050Y0114891D01*
X0130050Y0114293D02*
X0132530Y0114293D01*
X0132530Y0113694D02*
X0130050Y0113694D01*
X0130050Y0113096D02*
X0132530Y0113096D01*
X0132530Y0112497D02*
X0130050Y0112497D01*
X0130050Y0111899D02*
X0132530Y0111899D01*
X0132530Y0111300D02*
X0130050Y0111300D01*
X0130050Y0110702D02*
X0132530Y0110702D01*
X0132530Y0110103D02*
X0130050Y0110103D01*
X0130050Y0109505D02*
X0132530Y0109505D01*
X0132530Y0108906D02*
X0130050Y0108906D01*
X0130050Y0108308D02*
X0132530Y0108308D01*
X0132530Y0107709D02*
X0130050Y0107709D01*
X0130050Y0107111D02*
X0132530Y0107111D01*
X0132530Y0106512D02*
X0130050Y0106512D01*
X0130050Y0105914D02*
X0132530Y0105914D01*
X0132530Y0105315D02*
X0130050Y0105315D01*
X0130050Y0104717D02*
X0132530Y0104717D01*
X0132530Y0104118D02*
X0130050Y0104118D01*
X0130050Y0103520D02*
X0132530Y0103520D01*
X0132530Y0102921D02*
X0130050Y0102921D01*
X0130050Y0102323D02*
X0132530Y0102323D01*
X0132530Y0101724D02*
X0130126Y0101724D01*
X0130724Y0101126D02*
X0132530Y0101126D01*
X0129659Y0099929D02*
X0128083Y0099929D01*
X0129060Y0100527D02*
X0127085Y0100527D01*
X0128462Y0101126D02*
X0107570Y0101126D01*
X0107570Y0101724D02*
X0118253Y0101724D01*
X0119347Y0101724D02*
X0128450Y0101724D01*
X0128450Y0102323D02*
X0120484Y0102323D01*
X0121031Y0102921D02*
X0128450Y0102921D01*
X0128450Y0103520D02*
X0121279Y0103520D01*
X0121389Y0104118D02*
X0128450Y0104118D01*
X0128450Y0104717D02*
X0121389Y0104717D01*
X0121182Y0105315D02*
X0128450Y0105315D01*
X0128450Y0105914D02*
X0120848Y0105914D01*
X0120224Y0106512D02*
X0128450Y0106512D01*
X0128450Y0107111D02*
X0112639Y0107111D01*
X0112639Y0106512D02*
X0117376Y0106512D01*
X0116752Y0105914D02*
X0112485Y0105914D01*
X0110050Y0106800D02*
X0109253Y0106003D01*
X0103318Y0106003D01*
X0089253Y0106003D01*
X0087550Y0104300D01*
X0087550Y0095550D01*
X0081300Y0089300D01*
X0056300Y0089300D01*
X0047954Y0080954D01*
X0047954Y0075550D01*
X0041300Y0068896D01*
X0041300Y0043454D01*
X0045001Y0039753D01*
X0045471Y0041545D02*
X0042900Y0044116D01*
X0042900Y0068234D01*
X0046751Y0072085D01*
X0049322Y0072085D01*
X0046354Y0069116D01*
X0046354Y0069015D01*
X0045447Y0069015D01*
X0044685Y0068254D01*
X0044685Y0062846D01*
X0045447Y0062085D01*
X0046354Y0062085D01*
X0046354Y0048342D01*
X0047291Y0047405D01*
X0054429Y0040266D01*
X0054429Y0038722D01*
X0054487Y0038664D01*
X0054429Y0038448D01*
X0054429Y0037784D01*
X0054429Y0037121D01*
X0054487Y0036904D01*
X0054429Y0036846D01*
X0054429Y0032817D01*
X0055191Y0032055D01*
X0059220Y0032055D01*
X0059412Y0032247D01*
X0059840Y0032247D01*
X0062437Y0029650D01*
X0054463Y0029650D01*
X0048665Y0035447D01*
X0047777Y0035447D01*
X0047777Y0040783D01*
X0047016Y0041545D01*
X0045471Y0041545D01*
X0045143Y0041873D02*
X0052822Y0041873D01*
X0052224Y0042472D02*
X0044545Y0042472D01*
X0043946Y0043070D02*
X0051625Y0043070D01*
X0051027Y0043669D02*
X0043348Y0043669D01*
X0042900Y0044267D02*
X0050428Y0044267D01*
X0049830Y0044866D02*
X0042900Y0044866D01*
X0042900Y0045464D02*
X0049231Y0045464D01*
X0048633Y0046063D02*
X0042900Y0046063D01*
X0042900Y0046661D02*
X0048034Y0046661D01*
X0047436Y0047260D02*
X0042900Y0047260D01*
X0042900Y0047858D02*
X0046837Y0047858D01*
X0046354Y0048457D02*
X0042900Y0048457D01*
X0042900Y0049055D02*
X0046354Y0049055D01*
X0046354Y0049654D02*
X0042900Y0049654D01*
X0042900Y0050252D02*
X0046354Y0050252D01*
X0046354Y0050851D02*
X0042900Y0050851D01*
X0042900Y0051449D02*
X0046354Y0051449D01*
X0046354Y0052048D02*
X0042900Y0052048D01*
X0042900Y0052646D02*
X0046354Y0052646D01*
X0046354Y0053245D02*
X0042900Y0053245D01*
X0042900Y0053843D02*
X0046354Y0053843D01*
X0046354Y0054442D02*
X0042900Y0054442D01*
X0042900Y0055040D02*
X0046354Y0055040D01*
X0046354Y0055639D02*
X0042900Y0055639D01*
X0042900Y0056237D02*
X0046354Y0056237D01*
X0046354Y0056836D02*
X0042900Y0056836D01*
X0042900Y0057434D02*
X0046354Y0057434D01*
X0046354Y0058033D02*
X0042900Y0058033D01*
X0042900Y0058631D02*
X0046354Y0058631D01*
X0046354Y0059230D02*
X0042900Y0059230D01*
X0042900Y0059828D02*
X0046354Y0059828D01*
X0046354Y0060427D02*
X0042900Y0060427D01*
X0042900Y0061025D02*
X0046354Y0061025D01*
X0046354Y0061624D02*
X0042900Y0061624D01*
X0042900Y0062222D02*
X0045309Y0062222D01*
X0044710Y0062821D02*
X0042900Y0062821D01*
X0042900Y0063420D02*
X0044685Y0063420D01*
X0044685Y0064018D02*
X0042900Y0064018D01*
X0042900Y0064617D02*
X0044685Y0064617D01*
X0044685Y0065215D02*
X0042900Y0065215D01*
X0042900Y0065814D02*
X0044685Y0065814D01*
X0044685Y0066412D02*
X0042900Y0066412D01*
X0042900Y0067011D02*
X0044685Y0067011D01*
X0044685Y0067609D02*
X0042900Y0067609D01*
X0042900Y0068208D02*
X0044685Y0068208D01*
X0045237Y0068806D02*
X0043472Y0068806D01*
X0044071Y0069405D02*
X0046642Y0069405D01*
X0047240Y0070003D02*
X0044669Y0070003D01*
X0045268Y0070602D02*
X0047839Y0070602D01*
X0048437Y0071200D02*
X0045866Y0071200D01*
X0046465Y0071799D02*
X0049036Y0071799D01*
X0051300Y0071800D02*
X0051300Y0080550D01*
X0056300Y0085550D01*
X0081300Y0085550D01*
X0090050Y0094300D01*
X0090050Y0101800D01*
X0092284Y0104034D01*
X0103318Y0104034D01*
X0118534Y0104034D01*
X0118800Y0104300D01*
X0117116Y0102323D02*
X0107570Y0102323D01*
X0107570Y0100527D02*
X0125515Y0100527D01*
X0124517Y0099929D02*
X0107570Y0099929D01*
X0107570Y0099330D02*
X0124028Y0099330D01*
X0123780Y0098732D02*
X0107570Y0098732D01*
X0107570Y0098133D02*
X0123711Y0098133D01*
X0123711Y0097535D02*
X0107570Y0097535D01*
X0107570Y0096936D02*
X0123959Y0096936D01*
X0124351Y0096338D02*
X0107570Y0096338D01*
X0107570Y0095739D02*
X0111322Y0095739D01*
X0110724Y0095141D02*
X0107570Y0095141D01*
X0107570Y0094542D02*
X0110125Y0094542D01*
X0109527Y0093944D02*
X0107570Y0093944D01*
X0107570Y0093345D02*
X0108928Y0093345D01*
X0108330Y0092747D02*
X0107570Y0092747D01*
X0107570Y0092148D02*
X0107731Y0092148D01*
X0105950Y0090353D02*
X0102962Y0090353D01*
X0102363Y0089754D02*
X0105950Y0089754D01*
X0105950Y0089155D02*
X0101765Y0089155D01*
X0101166Y0088557D02*
X0105950Y0088557D01*
X0105950Y0087958D02*
X0100568Y0087958D01*
X0099969Y0087360D02*
X0105950Y0087360D01*
X0105950Y0086761D02*
X0099371Y0086761D01*
X0098772Y0086163D02*
X0105950Y0086163D01*
X0105950Y0085564D02*
X0098174Y0085564D01*
X0097575Y0084966D02*
X0105950Y0084966D01*
X0105950Y0084367D02*
X0096977Y0084367D01*
X0096378Y0083769D02*
X0105950Y0083769D01*
X0105950Y0083170D02*
X0095780Y0083170D01*
X0095181Y0082572D02*
X0105950Y0082572D01*
X0105950Y0081973D02*
X0094583Y0081973D01*
X0093984Y0081375D02*
X0105950Y0081375D01*
X0105950Y0080776D02*
X0093386Y0080776D01*
X0092787Y0080178D02*
X0105950Y0080178D01*
X0105950Y0079579D02*
X0092188Y0079579D01*
X0091590Y0078981D02*
X0105950Y0078981D01*
X0105950Y0078382D02*
X0090991Y0078382D01*
X0090393Y0077784D02*
X0105950Y0077784D01*
X0105950Y0077185D02*
X0089794Y0077185D01*
X0089196Y0076587D02*
X0105950Y0076587D01*
X0105950Y0075988D02*
X0088597Y0075988D01*
X0087999Y0075390D02*
X0105950Y0075390D01*
X0105950Y0074791D02*
X0087400Y0074791D01*
X0086802Y0074193D02*
X0105950Y0074193D01*
X0105950Y0073594D02*
X0086203Y0073594D01*
X0085605Y0072996D02*
X0105950Y0072996D01*
X0105950Y0072397D02*
X0085006Y0072397D01*
X0084408Y0071799D02*
X0105950Y0071799D01*
X0105950Y0071200D02*
X0083809Y0071200D01*
X0083211Y0070602D02*
X0105950Y0070602D01*
X0105950Y0070003D02*
X0082612Y0070003D01*
X0082014Y0069405D02*
X0105950Y0069405D01*
X0105950Y0068806D02*
X0081415Y0068806D01*
X0080905Y0068208D02*
X0105950Y0068208D01*
X0105950Y0067609D02*
X0082902Y0067609D01*
X0083497Y0067011D02*
X0105950Y0067011D01*
X0105950Y0066412D02*
X0083745Y0066412D01*
X0083889Y0065814D02*
X0105950Y0065814D01*
X0105950Y0065215D02*
X0083889Y0065215D01*
X0083716Y0064617D02*
X0105950Y0064617D01*
X0105950Y0064018D02*
X0083429Y0064018D01*
X0082831Y0063420D02*
X0105950Y0063420D01*
X0105950Y0062821D02*
X0079140Y0062821D01*
X0079165Y0063420D02*
X0079769Y0063420D01*
X0079171Y0064018D02*
X0079165Y0064018D01*
X0081300Y0065550D02*
X0078598Y0068252D01*
X0102570Y0092223D01*
X0103318Y0092223D01*
X0103318Y0094192D02*
X0099942Y0094192D01*
X0081300Y0075550D01*
X0075896Y0075550D01*
X0072828Y0071926D02*
X0072828Y0062929D01*
X0077550Y0058207D01*
X0077550Y0043050D01*
X0087550Y0033050D01*
X0086970Y0031650D02*
X0140050Y0031650D01*
X0147550Y0024150D01*
X0147550Y0019300D01*
X0151650Y0019130D02*
X0153450Y0019130D01*
X0153450Y0019728D02*
X0151650Y0019728D01*
X0151650Y0020327D02*
X0153450Y0020327D01*
X0153450Y0020925D02*
X0151650Y0020925D01*
X0151650Y0021524D02*
X0153450Y0021524D01*
X0153450Y0022122D02*
X0151650Y0022122D01*
X0151650Y0022721D02*
X0153450Y0022721D01*
X0153534Y0023319D02*
X0151566Y0023319D01*
X0151318Y0023918D02*
X0153782Y0023918D01*
X0154030Y0024516D02*
X0151070Y0024516D01*
X0150533Y0025115D02*
X0154567Y0025115D01*
X0155165Y0025713D02*
X0149935Y0025713D01*
X0148578Y0026312D02*
X0156058Y0026312D01*
X0155460Y0026910D02*
X0146770Y0026910D01*
X0146171Y0027509D02*
X0154861Y0027509D01*
X0154263Y0028107D02*
X0145573Y0028107D01*
X0144974Y0028706D02*
X0153664Y0028706D01*
X0153066Y0029304D02*
X0144376Y0029304D01*
X0143777Y0029903D02*
X0152467Y0029903D01*
X0151869Y0030501D02*
X0143178Y0030501D01*
X0142580Y0031100D02*
X0151270Y0031100D01*
X0158223Y0028107D02*
X0181501Y0028107D01*
X0181079Y0038282D02*
X0125050Y0038282D01*
X0125050Y0038881D02*
X0180421Y0038881D01*
X0179824Y0039479D02*
X0125050Y0039479D01*
X0125050Y0040078D02*
X0179576Y0040078D01*
X0179442Y0043200D02*
X0139380Y0043200D01*
X0137180Y0045400D01*
X0181277Y0045400D01*
X0180978Y0045276D01*
X0179824Y0044122D01*
X0179442Y0043200D01*
X0179636Y0043669D02*
X0138911Y0043669D01*
X0138313Y0044267D02*
X0179969Y0044267D01*
X0180567Y0044866D02*
X0137714Y0044866D01*
X0135550Y0043070D02*
X0126457Y0043070D01*
X0126263Y0042876D02*
X0126263Y0042876D01*
X0125858Y0042472D02*
X0136148Y0042472D01*
X0136747Y0041873D02*
X0125260Y0041873D01*
X0125050Y0041275D02*
X0137345Y0041275D01*
X0137944Y0040676D02*
X0125050Y0040676D01*
X0121649Y0043070D02*
X0111803Y0043070D01*
X0111803Y0043669D02*
X0122247Y0043669D01*
X0122846Y0044267D02*
X0111803Y0044267D01*
X0111803Y0044866D02*
X0123444Y0044866D01*
X0121050Y0042472D02*
X0111698Y0042472D01*
X0111150Y0041873D02*
X0116912Y0041873D01*
X0115893Y0041275D02*
X0100457Y0041275D01*
X0101055Y0040676D02*
X0115295Y0040676D01*
X0114816Y0040078D02*
X0101534Y0040078D01*
X0101782Y0039479D02*
X0114568Y0039479D01*
X0107850Y0041873D02*
X0107250Y0041873D01*
X0107250Y0042472D02*
X0107850Y0042472D01*
X0107850Y0043070D02*
X0107250Y0043070D01*
X0107250Y0043669D02*
X0107850Y0043669D01*
X0107850Y0044267D02*
X0107250Y0044267D01*
X0107550Y0045560D02*
X0102550Y0045560D01*
X0086300Y0045560D01*
X0086290Y0045550D01*
X0086000Y0044267D02*
X0086600Y0044267D01*
X0086600Y0043669D02*
X0086000Y0043669D01*
X0086000Y0043070D02*
X0086600Y0043070D01*
X0086600Y0042472D02*
X0086000Y0042472D01*
X0086000Y0041873D02*
X0086600Y0041873D01*
X0089900Y0041873D02*
X0095662Y0041873D01*
X0099438Y0041873D02*
X0103950Y0041873D01*
X0103402Y0042472D02*
X0090448Y0042472D01*
X0090553Y0043070D02*
X0103297Y0043070D01*
X0103297Y0043669D02*
X0090553Y0043669D01*
X0090553Y0044267D02*
X0103297Y0044267D01*
X0103297Y0044866D02*
X0090553Y0044866D01*
X0090553Y0046063D02*
X0103297Y0046063D01*
X0103297Y0046661D02*
X0090553Y0046661D01*
X0090553Y0047260D02*
X0103297Y0047260D01*
X0103297Y0047858D02*
X0090553Y0047858D01*
X0090508Y0048457D02*
X0103342Y0048457D01*
X0103695Y0049055D02*
X0099023Y0049055D01*
X0100285Y0049654D02*
X0103586Y0049654D01*
X0103297Y0050252D02*
X0100884Y0050252D01*
X0101463Y0050851D02*
X0103297Y0050851D01*
X0103297Y0051449D02*
X0101711Y0051449D01*
X0101959Y0052048D02*
X0103297Y0052048D01*
X0103297Y0052646D02*
X0102150Y0052646D01*
X0102150Y0053245D02*
X0103297Y0053245D01*
X0103297Y0053843D02*
X0102150Y0053843D01*
X0102107Y0054442D02*
X0103297Y0054442D01*
X0103297Y0055040D02*
X0101859Y0055040D01*
X0101612Y0055639D02*
X0103297Y0055639D01*
X0103397Y0056237D02*
X0101242Y0056237D01*
X0100643Y0056836D02*
X0103995Y0056836D01*
X0105950Y0057434D02*
X0099888Y0057434D01*
X0097550Y0053424D02*
X0097166Y0053040D01*
X0086300Y0053040D01*
X0082047Y0053245D02*
X0079150Y0053245D01*
X0079150Y0053843D02*
X0082047Y0053843D01*
X0082047Y0054442D02*
X0079150Y0054442D01*
X0079150Y0055040D02*
X0082047Y0055040D01*
X0082047Y0055639D02*
X0079150Y0055639D01*
X0079150Y0056237D02*
X0082147Y0056237D01*
X0082745Y0056836D02*
X0079150Y0056836D01*
X0079150Y0057434D02*
X0095212Y0057434D01*
X0094456Y0056836D02*
X0089855Y0056836D01*
X0090453Y0056237D02*
X0093858Y0056237D01*
X0093488Y0055639D02*
X0090553Y0055639D01*
X0090553Y0055040D02*
X0093241Y0055040D01*
X0093637Y0050851D02*
X0090553Y0050851D01*
X0090553Y0050252D02*
X0094216Y0050252D01*
X0094815Y0049654D02*
X0090264Y0049654D01*
X0090155Y0049055D02*
X0096077Y0049055D01*
X0105950Y0058033D02*
X0079150Y0058033D01*
X0079150Y0058631D02*
X0105950Y0058631D01*
X0105950Y0059230D02*
X0078790Y0059230D01*
X0078191Y0059828D02*
X0105950Y0059828D01*
X0105950Y0060427D02*
X0077593Y0060427D01*
X0076994Y0061025D02*
X0105950Y0061025D01*
X0105950Y0061624D02*
X0076396Y0061624D01*
X0078541Y0062222D02*
X0105950Y0062222D01*
X0109150Y0062222D02*
X0120740Y0062222D01*
X0120740Y0061624D02*
X0109150Y0061624D01*
X0109150Y0061025D02*
X0120825Y0061025D01*
X0121423Y0060427D02*
X0109150Y0060427D01*
X0109150Y0059828D02*
X0122022Y0059828D01*
X0122620Y0059230D02*
X0109150Y0059230D01*
X0109150Y0058631D02*
X0123219Y0058631D01*
X0123450Y0058033D02*
X0109150Y0058033D01*
X0109150Y0057434D02*
X0116462Y0057434D01*
X0115706Y0056836D02*
X0111105Y0056836D01*
X0111703Y0056237D02*
X0115108Y0056237D01*
X0114738Y0055639D02*
X0111803Y0055639D01*
X0111803Y0055040D02*
X0114491Y0055040D01*
X0121138Y0057434D02*
X0123450Y0057434D01*
X0123450Y0056836D02*
X0121893Y0056836D01*
X0126150Y0060508D02*
X0125050Y0061608D01*
X0125050Y0065550D01*
X0126150Y0065550D01*
X0126150Y0060508D01*
X0126150Y0061025D02*
X0125633Y0061025D01*
X0126150Y0061624D02*
X0125050Y0061624D01*
X0125050Y0062222D02*
X0126150Y0062222D01*
X0126150Y0062821D02*
X0125050Y0062821D01*
X0125050Y0063420D02*
X0126150Y0063420D01*
X0126150Y0064018D02*
X0125050Y0064018D01*
X0125050Y0064617D02*
X0126150Y0064617D01*
X0126150Y0065215D02*
X0125050Y0065215D01*
X0120740Y0065215D02*
X0109150Y0065215D01*
X0109150Y0064617D02*
X0120740Y0064617D01*
X0120740Y0064018D02*
X0109150Y0064018D01*
X0109150Y0063420D02*
X0120740Y0063420D01*
X0120740Y0062821D02*
X0109150Y0062821D01*
X0109150Y0065814D02*
X0120740Y0065814D01*
X0119328Y0066412D02*
X0118166Y0066412D01*
X0115360Y0066412D02*
X0114760Y0066412D01*
X0114760Y0066297D02*
X0114760Y0070250D01*
X0111201Y0070250D01*
X0111201Y0067426D01*
X0111289Y0067095D01*
X0111461Y0066799D01*
X0111703Y0066557D01*
X0111999Y0066386D01*
X0112330Y0066297D01*
X0114760Y0066297D01*
X0114760Y0067011D02*
X0115360Y0067011D01*
X0115360Y0067609D02*
X0114760Y0067609D01*
X0114760Y0068208D02*
X0115360Y0068208D01*
X0115360Y0068806D02*
X0114760Y0068806D01*
X0114760Y0069405D02*
X0115360Y0069405D01*
X0115360Y0070003D02*
X0114760Y0070003D01*
X0114760Y0070602D02*
X0109150Y0070602D01*
X0109150Y0071200D02*
X0111201Y0071200D01*
X0111201Y0071799D02*
X0109150Y0071799D01*
X0109150Y0072397D02*
X0111201Y0072397D01*
X0111201Y0072996D02*
X0109150Y0072996D01*
X0109150Y0073594D02*
X0111201Y0073594D01*
X0111398Y0074193D02*
X0109150Y0074193D01*
X0109150Y0074791D02*
X0112287Y0074791D01*
X0114760Y0074791D02*
X0115360Y0074791D01*
X0115360Y0074193D02*
X0114760Y0074193D01*
X0114760Y0073594D02*
X0115360Y0073594D01*
X0115360Y0072996D02*
X0114760Y0072996D01*
X0114760Y0072397D02*
X0115360Y0072397D01*
X0115360Y0071799D02*
X0114760Y0071799D01*
X0114760Y0071200D02*
X0115360Y0071200D01*
X0111201Y0070003D02*
X0109150Y0070003D01*
X0109150Y0069405D02*
X0111201Y0069405D01*
X0111201Y0068806D02*
X0109150Y0068806D01*
X0109150Y0068208D02*
X0111201Y0068208D01*
X0111201Y0067609D02*
X0109150Y0067609D01*
X0109150Y0067011D02*
X0111338Y0067011D01*
X0111954Y0066412D02*
X0109150Y0066412D01*
X0117833Y0074791D02*
X0119431Y0074791D01*
X0118833Y0074193D02*
X0118722Y0074193D01*
X0121203Y0075390D02*
X0109150Y0075390D01*
X0109150Y0075988D02*
X0121203Y0075988D01*
X0121203Y0076587D02*
X0109150Y0076587D01*
X0109150Y0077185D02*
X0121203Y0077185D01*
X0121203Y0077784D02*
X0109150Y0077784D01*
X0109150Y0078382D02*
X0111056Y0078382D01*
X0110458Y0078981D02*
X0109150Y0078981D01*
X0109150Y0079579D02*
X0110150Y0079579D01*
X0109961Y0080178D02*
X0109150Y0080178D01*
X0109150Y0080776D02*
X0109961Y0080776D01*
X0110089Y0081375D02*
X0109150Y0081375D01*
X0109150Y0081973D02*
X0110337Y0081973D01*
X0112550Y0080550D02*
X0113160Y0081160D01*
X0113160Y0086318D01*
X0115129Y0086318D02*
X0115129Y0081721D01*
X0116300Y0080550D01*
X0118700Y0079579D02*
X0121203Y0079579D01*
X0121203Y0078981D02*
X0118392Y0078981D01*
X0117794Y0078382D02*
X0121203Y0078382D01*
X0121203Y0080178D02*
X0118889Y0080178D01*
X0118889Y0080776D02*
X0121203Y0080776D01*
X0121203Y0081375D02*
X0118761Y0081375D01*
X0118513Y0081973D02*
X0121203Y0081973D01*
X0121034Y0082572D02*
X0121034Y0082572D01*
X0121034Y0083170D02*
X0121034Y0083170D01*
X0121034Y0083769D02*
X0121034Y0083769D01*
X0121034Y0084367D02*
X0121034Y0084367D01*
X0121034Y0084966D02*
X0121034Y0084966D01*
X0121034Y0085564D02*
X0121034Y0085564D01*
X0121034Y0086163D02*
X0121034Y0086163D01*
X0121034Y0086761D02*
X0121034Y0086761D01*
X0121034Y0087360D02*
X0121034Y0087360D01*
X0121034Y0087958D02*
X0121034Y0087958D01*
X0121034Y0088557D02*
X0121034Y0088557D01*
X0121034Y0089155D02*
X0121034Y0089155D01*
X0121034Y0089754D02*
X0121034Y0089754D01*
X0121034Y0090353D02*
X0121034Y0090353D01*
X0117038Y0092223D02*
X0136782Y0092223D01*
X0141035Y0092148D02*
X0148450Y0092148D01*
X0148450Y0091550D02*
X0141035Y0091550D01*
X0140852Y0090951D02*
X0148450Y0090951D01*
X0148450Y0090353D02*
X0132184Y0090353D01*
X0132728Y0089754D02*
X0148450Y0089754D01*
X0148450Y0089155D02*
X0132728Y0089155D01*
X0132728Y0088557D02*
X0148450Y0088557D01*
X0148450Y0087958D02*
X0132728Y0087958D01*
X0132728Y0087360D02*
X0148450Y0087360D01*
X0148450Y0086761D02*
X0132728Y0086761D01*
X0132728Y0086163D02*
X0148450Y0086163D01*
X0148450Y0085564D02*
X0132728Y0085564D01*
X0132728Y0084966D02*
X0148450Y0084966D01*
X0148450Y0084367D02*
X0132728Y0084367D01*
X0132728Y0083769D02*
X0148450Y0083769D01*
X0148450Y0083170D02*
X0132728Y0083170D01*
X0132473Y0082572D02*
X0148450Y0082572D01*
X0148450Y0081973D02*
X0128540Y0081973D01*
X0128540Y0081375D02*
X0148450Y0081375D01*
X0148450Y0080776D02*
X0128540Y0080776D01*
X0128540Y0080178D02*
X0148450Y0080178D01*
X0148450Y0079579D02*
X0128540Y0079579D01*
X0128882Y0078981D02*
X0148450Y0078981D01*
X0148450Y0078382D02*
X0129480Y0078382D01*
X0130079Y0077784D02*
X0148450Y0077784D01*
X0148662Y0077185D02*
X0130677Y0077185D01*
X0131276Y0076587D02*
X0149260Y0076587D01*
X0149859Y0075988D02*
X0131650Y0075988D01*
X0131650Y0075390D02*
X0150457Y0075390D01*
X0151056Y0074791D02*
X0131650Y0074791D01*
X0131650Y0074193D02*
X0151201Y0074193D01*
X0151201Y0073594D02*
X0131650Y0073594D01*
X0131650Y0072996D02*
X0151201Y0072996D01*
X0151201Y0072397D02*
X0131650Y0072397D01*
X0131650Y0071799D02*
X0151201Y0071799D01*
X0151201Y0071200D02*
X0131650Y0071200D01*
X0131650Y0070602D02*
X0151201Y0070602D01*
X0151201Y0070003D02*
X0131650Y0070003D01*
X0131650Y0069405D02*
X0151355Y0069405D01*
X0151953Y0068806D02*
X0131650Y0068806D01*
X0131650Y0068208D02*
X0153880Y0068208D01*
X0154478Y0067609D02*
X0131650Y0067609D01*
X0131450Y0065215D02*
X0147657Y0065215D01*
X0147247Y0064617D02*
X0131450Y0064617D01*
X0131450Y0058033D02*
X0161803Y0058033D01*
X0165628Y0056650D02*
X0166972Y0056650D01*
X0166972Y0052631D01*
X0165628Y0051287D01*
X0165628Y0056650D01*
X0165628Y0056237D02*
X0166972Y0056237D01*
X0166972Y0055639D02*
X0165628Y0055639D01*
X0165628Y0055040D02*
X0166972Y0055040D01*
X0166972Y0054442D02*
X0165628Y0054442D01*
X0165628Y0053843D02*
X0166972Y0053843D01*
X0166972Y0053245D02*
X0165628Y0053245D01*
X0165628Y0052646D02*
X0166972Y0052646D01*
X0166389Y0052048D02*
X0165628Y0052048D01*
X0165628Y0051449D02*
X0165790Y0051449D01*
X0165621Y0049300D02*
X0170040Y0053719D01*
X0173109Y0055319D02*
X0173109Y0056931D01*
X0172464Y0057575D01*
X0169754Y0057575D01*
X0171880Y0059701D01*
X0172700Y0060521D01*
X0172700Y0063081D01*
X0172700Y0064241D01*
X0171391Y0065550D01*
X0173450Y0065550D01*
X0173450Y0055319D01*
X0173109Y0055319D01*
X0173109Y0055639D02*
X0173450Y0055639D01*
X0173450Y0056237D02*
X0173109Y0056237D01*
X0173109Y0056836D02*
X0173450Y0056836D01*
X0173450Y0057434D02*
X0172605Y0057434D01*
X0173450Y0058033D02*
X0170212Y0058033D01*
X0170811Y0058631D02*
X0173450Y0058631D01*
X0173450Y0059230D02*
X0171409Y0059230D01*
X0171880Y0059701D02*
X0171880Y0059701D01*
X0172008Y0059828D02*
X0173450Y0059828D01*
X0173450Y0060427D02*
X0172606Y0060427D01*
X0172700Y0061025D02*
X0173450Y0061025D01*
X0173450Y0061624D02*
X0172700Y0061624D01*
X0172700Y0062222D02*
X0173450Y0062222D01*
X0173450Y0062821D02*
X0172700Y0062821D01*
X0172700Y0063420D02*
X0173450Y0063420D01*
X0173450Y0064018D02*
X0172700Y0064018D01*
X0172324Y0064617D02*
X0173450Y0064617D01*
X0173450Y0065215D02*
X0171726Y0065215D01*
X0169900Y0063081D02*
X0169900Y0061681D01*
X0169368Y0061149D01*
X0169368Y0063612D01*
X0169900Y0063081D01*
X0169900Y0062821D02*
X0169368Y0062821D01*
X0169368Y0063420D02*
X0169561Y0063420D01*
X0169368Y0062222D02*
X0169900Y0062222D01*
X0169843Y0061624D02*
X0169368Y0061624D01*
X0166300Y0062381D02*
X0151891Y0062381D01*
X0155353Y0064018D02*
X0163231Y0064018D01*
X0163231Y0064617D02*
X0155353Y0064617D01*
X0154943Y0065215D02*
X0163231Y0065215D01*
X0162540Y0073050D02*
X0162540Y0085570D01*
X0161300Y0086810D01*
X0161300Y0094290D02*
X0157461Y0098129D01*
X0136782Y0098129D01*
X0126379Y0098129D01*
X0126300Y0098050D01*
X0117038Y0092223D02*
X0116300Y0091485D01*
X0103318Y0100097D02*
X0100227Y0100097D01*
X0096859Y0096730D01*
X0096859Y0094362D01*
X0095924Y0093426D01*
X0092550Y0091800D02*
X0092550Y0099300D01*
X0095316Y0102066D01*
X0103318Y0102066D01*
X0103318Y0107971D02*
X0082550Y0107971D01*
X0082550Y0104300D01*
X0080168Y0105315D02*
X0068489Y0105315D01*
X0069934Y0104717D02*
X0079961Y0104717D01*
X0079961Y0104118D02*
X0070563Y0104118D01*
X0071161Y0103520D02*
X0080071Y0103520D01*
X0080319Y0102921D02*
X0071429Y0102921D01*
X0071677Y0102323D02*
X0080866Y0102323D01*
X0082003Y0101724D02*
X0071850Y0101724D01*
X0071850Y0101126D02*
X0085950Y0101126D01*
X0085950Y0101724D02*
X0083097Y0101724D01*
X0084234Y0102323D02*
X0085950Y0102323D01*
X0085950Y0102921D02*
X0084781Y0102921D01*
X0085029Y0103520D02*
X0085950Y0103520D01*
X0085950Y0104118D02*
X0085139Y0104118D01*
X0085139Y0104717D02*
X0085950Y0104717D01*
X0086303Y0105315D02*
X0084932Y0105315D01*
X0084598Y0105914D02*
X0086901Y0105914D01*
X0082550Y0107971D02*
X0024971Y0107971D01*
X0021300Y0104300D01*
X0027207Y0101126D02*
X0033250Y0101126D01*
X0033303Y0101724D02*
X0027805Y0101724D01*
X0028135Y0102323D02*
X0033442Y0102323D01*
X0033677Y0102921D02*
X0028383Y0102921D01*
X0028600Y0103520D02*
X0034029Y0103520D01*
X0034537Y0104118D02*
X0028600Y0104118D01*
X0028600Y0104717D02*
X0035281Y0104717D01*
X0036993Y0105315D02*
X0028534Y0105315D01*
X0028286Y0105914D02*
X0080502Y0105914D01*
X0082550Y0109940D02*
X0025160Y0109940D01*
X0021300Y0113800D01*
X0021300Y0114300D01*
X0025439Y0118483D02*
X0036201Y0118483D01*
X0036201Y0117884D02*
X0026797Y0117884D01*
X0027396Y0117286D02*
X0036201Y0117286D01*
X0036201Y0116687D02*
X0027966Y0116687D01*
X0028213Y0116089D02*
X0036201Y0116089D01*
X0036201Y0115490D02*
X0028461Y0115490D01*
X0028600Y0114891D02*
X0036201Y0114891D01*
X0036467Y0114293D02*
X0028600Y0114293D01*
X0028600Y0113694D02*
X0042566Y0113694D01*
X0043164Y0113096D02*
X0028456Y0113096D01*
X0028208Y0112497D02*
X0043763Y0112497D01*
X0044525Y0113997D02*
X0040473Y0118050D01*
X0040060Y0118050D01*
X0044525Y0113997D02*
X0061825Y0113997D01*
X0065877Y0118050D01*
X0066290Y0118050D01*
X0067550Y0116790D01*
X0067550Y0112240D01*
X0065199Y0113096D02*
X0063186Y0113096D01*
X0063784Y0113694D02*
X0065469Y0113694D01*
X0065050Y0112497D02*
X0062587Y0112497D01*
X0065050Y0111899D02*
X0027960Y0111899D01*
X0037250Y0105315D02*
X0037850Y0105315D01*
X0037850Y0105350D02*
X0037850Y0098350D01*
X0041850Y0098350D01*
X0041850Y0101388D01*
X0041744Y0102057D01*
X0041535Y0102701D01*
X0041228Y0103304D01*
X0040830Y0103851D01*
X0040351Y0104330D01*
X0039804Y0104728D01*
X0039201Y0105035D01*
X0038557Y0105244D01*
X0037888Y0105350D01*
X0037850Y0105350D01*
X0038107Y0105315D02*
X0046611Y0105315D01*
X0046695Y0105350D02*
X0045114Y0104695D01*
X0043905Y0103486D01*
X0043250Y0101905D01*
X0043250Y0094195D01*
X0043905Y0092614D01*
X0045114Y0091405D01*
X0046695Y0090750D01*
X0048405Y0090750D01*
X0049986Y0091405D01*
X0051195Y0092614D01*
X0051850Y0094195D01*
X0051850Y0101905D01*
X0051195Y0103486D01*
X0049986Y0104695D01*
X0048405Y0105350D01*
X0046695Y0105350D01*
X0045166Y0104717D02*
X0039819Y0104717D01*
X0040563Y0104118D02*
X0044537Y0104118D01*
X0043939Y0103520D02*
X0041071Y0103520D01*
X0041423Y0102921D02*
X0043671Y0102921D01*
X0043423Y0102323D02*
X0041658Y0102323D01*
X0041797Y0101724D02*
X0043250Y0101724D01*
X0043250Y0101126D02*
X0041850Y0101126D01*
X0041850Y0100527D02*
X0043250Y0100527D01*
X0043250Y0099929D02*
X0041850Y0099929D01*
X0041850Y0099330D02*
X0043250Y0099330D01*
X0043250Y0098732D02*
X0041850Y0098732D01*
X0041850Y0097535D02*
X0043250Y0097535D01*
X0043250Y0098133D02*
X0037850Y0098133D01*
X0037850Y0098732D02*
X0037250Y0098732D01*
X0037250Y0099330D02*
X0037850Y0099330D01*
X0037850Y0099929D02*
X0037250Y0099929D01*
X0037250Y0100527D02*
X0037850Y0100527D01*
X0037850Y0101126D02*
X0037250Y0101126D01*
X0037250Y0101724D02*
X0037850Y0101724D01*
X0037850Y0102323D02*
X0037250Y0102323D01*
X0037250Y0102921D02*
X0037850Y0102921D01*
X0037850Y0103520D02*
X0037250Y0103520D01*
X0037250Y0104118D02*
X0037850Y0104118D01*
X0037850Y0104717D02*
X0037250Y0104717D01*
X0033250Y0099330D02*
X0003850Y0099330D01*
X0026006Y0090353D02*
X0055090Y0090353D01*
X0054969Y0091550D02*
X0050131Y0091550D01*
X0050729Y0092148D02*
X0054371Y0092148D01*
X0053850Y0092747D02*
X0051250Y0092747D01*
X0051498Y0093345D02*
X0053602Y0093345D01*
X0053354Y0093944D02*
X0051746Y0093944D01*
X0051850Y0094542D02*
X0053250Y0094542D01*
X0053250Y0095141D02*
X0051850Y0095141D01*
X0051850Y0095739D02*
X0053250Y0095739D01*
X0053250Y0096338D02*
X0051850Y0096338D01*
X0051850Y0096936D02*
X0053250Y0096936D01*
X0053250Y0097535D02*
X0051850Y0097535D01*
X0051850Y0098133D02*
X0053250Y0098133D01*
X0053250Y0098732D02*
X0051850Y0098732D01*
X0051850Y0099330D02*
X0053250Y0099330D01*
X0053250Y0099929D02*
X0051850Y0099929D01*
X0051850Y0100527D02*
X0053250Y0100527D01*
X0053250Y0101126D02*
X0051850Y0101126D01*
X0051850Y0101724D02*
X0053250Y0101724D01*
X0053423Y0102323D02*
X0051677Y0102323D01*
X0051429Y0102921D02*
X0053671Y0102921D01*
X0053939Y0103520D02*
X0051161Y0103520D01*
X0050563Y0104118D02*
X0054537Y0104118D01*
X0055166Y0104717D02*
X0049934Y0104717D01*
X0048489Y0105315D02*
X0056611Y0105315D01*
X0058489Y0105315D02*
X0066611Y0105315D01*
X0065166Y0104717D02*
X0059934Y0104717D01*
X0060563Y0104118D02*
X0064537Y0104118D01*
X0063939Y0103520D02*
X0061161Y0103520D01*
X0061429Y0102921D02*
X0063671Y0102921D01*
X0063423Y0102323D02*
X0061677Y0102323D01*
X0061850Y0101724D02*
X0063250Y0101724D01*
X0063250Y0101126D02*
X0061850Y0101126D01*
X0061850Y0100527D02*
X0063250Y0100527D01*
X0063250Y0099929D02*
X0061850Y0099929D01*
X0061850Y0099330D02*
X0063250Y0099330D01*
X0063250Y0098732D02*
X0061850Y0098732D01*
X0061850Y0098133D02*
X0063250Y0098133D01*
X0063250Y0097535D02*
X0061850Y0097535D01*
X0061850Y0096936D02*
X0063250Y0096936D01*
X0063250Y0096338D02*
X0061850Y0096338D01*
X0061850Y0095739D02*
X0063250Y0095739D01*
X0063250Y0095141D02*
X0061850Y0095141D01*
X0061850Y0094542D02*
X0063250Y0094542D01*
X0063354Y0093944D02*
X0061746Y0093944D01*
X0061498Y0093345D02*
X0063602Y0093345D01*
X0063850Y0092747D02*
X0061250Y0092747D01*
X0060729Y0092148D02*
X0064371Y0092148D01*
X0064969Y0091550D02*
X0060131Y0091550D01*
X0058891Y0090951D02*
X0066209Y0090951D01*
X0068891Y0090951D02*
X0080688Y0090951D01*
X0081287Y0091550D02*
X0070131Y0091550D01*
X0070729Y0092148D02*
X0081885Y0092148D01*
X0082484Y0092747D02*
X0071250Y0092747D01*
X0071498Y0093345D02*
X0083082Y0093345D01*
X0083681Y0093944D02*
X0071746Y0093944D01*
X0071850Y0094542D02*
X0084279Y0094542D01*
X0084878Y0095141D02*
X0071850Y0095141D01*
X0071850Y0095739D02*
X0085476Y0095739D01*
X0085950Y0096338D02*
X0071850Y0096338D01*
X0071850Y0096936D02*
X0085950Y0096936D01*
X0085950Y0097535D02*
X0071850Y0097535D01*
X0071850Y0098133D02*
X0085950Y0098133D01*
X0085950Y0098732D02*
X0071850Y0098732D01*
X0071850Y0099330D02*
X0085950Y0099330D01*
X0085950Y0099929D02*
X0071850Y0099929D01*
X0071850Y0100527D02*
X0085950Y0100527D01*
X0082550Y0109940D02*
X0103318Y0109940D01*
X0107570Y0110103D02*
X0128450Y0110103D01*
X0128450Y0109505D02*
X0107570Y0109505D01*
X0107570Y0108906D02*
X0108495Y0108906D01*
X0107896Y0108308D02*
X0107570Y0108308D01*
X0107570Y0107709D02*
X0107624Y0107709D01*
X0107570Y0110702D02*
X0128450Y0110702D01*
X0128450Y0111300D02*
X0107570Y0111300D01*
X0107570Y0111899D02*
X0114081Y0111899D01*
X0113191Y0112497D02*
X0107570Y0112497D01*
X0107570Y0113096D02*
X0112746Y0113096D01*
X0112499Y0113694D02*
X0107570Y0113694D01*
X0107570Y0114293D02*
X0112461Y0114293D01*
X0112493Y0114891D02*
X0107570Y0114891D01*
X0107047Y0115490D02*
X0112741Y0115490D01*
X0116909Y0112497D02*
X0128450Y0112497D01*
X0128450Y0111899D02*
X0116019Y0111899D01*
X0117354Y0113096D02*
X0128450Y0113096D01*
X0128450Y0113694D02*
X0117601Y0113694D01*
X0119066Y0116089D02*
X0119066Y0116089D01*
X0119066Y0116687D02*
X0119066Y0116687D01*
X0119066Y0117286D02*
X0119066Y0117286D01*
X0119066Y0117884D02*
X0119066Y0117884D01*
X0119066Y0118483D02*
X0119066Y0118483D01*
X0119066Y0119081D02*
X0119066Y0119081D01*
X0119066Y0119680D02*
X0119066Y0119680D01*
X0119066Y0120278D02*
X0119066Y0120278D01*
X0119066Y0120877D02*
X0119066Y0120877D01*
X0119066Y0121475D02*
X0119066Y0121475D01*
X0119066Y0122074D02*
X0119066Y0122074D01*
X0119066Y0122672D02*
X0119066Y0122672D01*
X0119066Y0123271D02*
X0119066Y0123271D01*
X0119066Y0123869D02*
X0119066Y0123869D01*
X0115129Y0122873D02*
X0111202Y0126800D01*
X0103790Y0126800D01*
X0108510Y0129256D02*
X0109110Y0129256D01*
X0109110Y0129854D02*
X0108510Y0129854D01*
X0108510Y0130453D02*
X0109110Y0130453D01*
X0109110Y0131051D02*
X0108510Y0131051D01*
X0108510Y0131650D02*
X0109110Y0131650D01*
X0109110Y0132248D02*
X0108510Y0132248D01*
X0112366Y0129256D02*
X0112734Y0129256D01*
X0120236Y0131650D02*
X0123614Y0131650D01*
X0123701Y0132248D02*
X0120149Y0132248D01*
X0120149Y0132847D02*
X0123701Y0132847D01*
X0123701Y0133445D02*
X0120149Y0133445D01*
X0120149Y0134044D02*
X0123701Y0134044D01*
X0123701Y0134642D02*
X0120149Y0134642D01*
X0120149Y0135241D02*
X0123701Y0135241D01*
X0123701Y0135839D02*
X0120149Y0135839D01*
X0120149Y0136438D02*
X0123701Y0136438D01*
X0124196Y0137036D02*
X0119654Y0137036D01*
X0120834Y0131051D02*
X0123016Y0131051D01*
X0122417Y0130453D02*
X0121433Y0130453D01*
X0124971Y0125471D02*
X0127550Y0128050D01*
X0160050Y0128050D01*
X0161528Y0132847D02*
X0135340Y0132847D01*
X0135340Y0133445D02*
X0134740Y0133445D01*
X0134740Y0134044D02*
X0135340Y0134044D01*
X0135340Y0134642D02*
X0134740Y0134642D01*
X0134740Y0135241D02*
X0135340Y0135241D01*
X0135340Y0135839D02*
X0134740Y0135839D01*
X0134740Y0136438D02*
X0135340Y0136438D01*
X0135340Y0137036D02*
X0134740Y0137036D01*
X0131676Y0137036D02*
X0130924Y0137036D01*
X0125760Y0137635D02*
X0091850Y0137635D01*
X0091850Y0138233D02*
X0125760Y0138233D01*
X0125760Y0138832D02*
X0091850Y0138832D01*
X0091850Y0139430D02*
X0125760Y0139430D01*
X0125760Y0140029D02*
X0091850Y0140029D01*
X0091850Y0140627D02*
X0125760Y0140627D01*
X0125760Y0141226D02*
X0091850Y0141226D01*
X0091850Y0141824D02*
X0125760Y0141824D01*
X0125760Y0142423D02*
X0091850Y0142423D01*
X0092323Y0143022D02*
X0125277Y0143022D01*
X0125029Y0143620D02*
X0092571Y0143620D01*
X0092639Y0144219D02*
X0124961Y0144219D01*
X0124962Y0144817D02*
X0092638Y0144817D01*
X0092390Y0145416D02*
X0125210Y0145416D01*
X0125603Y0146014D02*
X0091997Y0146014D01*
X0091232Y0146613D02*
X0126368Y0146613D01*
X0128732Y0146613D02*
X0232451Y0146613D01*
X0232451Y0147211D02*
X0003850Y0147211D01*
X0003850Y0146613D02*
X0088868Y0146613D01*
X0088103Y0146014D02*
X0003850Y0146014D01*
X0003850Y0145416D02*
X0087710Y0145416D01*
X0087462Y0144817D02*
X0003850Y0144817D01*
X0003850Y0144219D02*
X0087461Y0144219D01*
X0087529Y0143620D02*
X0003850Y0143620D01*
X0003850Y0143022D02*
X0087777Y0143022D01*
X0088250Y0142423D02*
X0003850Y0142423D01*
X0003850Y0141824D02*
X0088250Y0141824D01*
X0088250Y0141226D02*
X0003850Y0141226D01*
X0003850Y0139430D02*
X0034887Y0139430D01*
X0034256Y0138832D02*
X0003850Y0138832D01*
X0003850Y0138233D02*
X0016548Y0138233D01*
X0015575Y0137635D02*
X0003850Y0137635D01*
X0003850Y0137036D02*
X0014973Y0137036D01*
X0014563Y0136438D02*
X0003850Y0136438D01*
X0003850Y0135839D02*
X0014279Y0135839D01*
X0014095Y0135241D02*
X0003850Y0135241D01*
X0003850Y0129854D02*
X0033250Y0129854D01*
X0033322Y0129256D02*
X0003850Y0129256D01*
X0003850Y0128657D02*
X0033481Y0128657D01*
X0033739Y0128059D02*
X0026462Y0128059D01*
X0027221Y0127460D02*
X0034116Y0127460D01*
X0034657Y0126862D02*
X0027819Y0126862D01*
X0028141Y0126263D02*
X0035510Y0126263D01*
X0040443Y0126862D02*
X0044657Y0126862D01*
X0044059Y0127460D02*
X0040984Y0127460D01*
X0041361Y0128059D02*
X0043721Y0128059D01*
X0043473Y0128657D02*
X0041619Y0128657D01*
X0041778Y0129256D02*
X0043250Y0129256D01*
X0043250Y0129854D02*
X0041850Y0129854D01*
X0041850Y0130453D02*
X0043250Y0130453D01*
X0043250Y0131051D02*
X0041850Y0131051D01*
X0041850Y0131650D02*
X0043250Y0131650D01*
X0043250Y0132248D02*
X0041850Y0132248D01*
X0047550Y0133050D02*
X0047550Y0118060D01*
X0047540Y0118050D01*
X0051399Y0117884D02*
X0054951Y0117884D01*
X0054951Y0117286D02*
X0051399Y0117286D01*
X0051399Y0116687D02*
X0054951Y0116687D01*
X0054951Y0116089D02*
X0051399Y0116089D01*
X0051399Y0118483D02*
X0054951Y0118483D01*
X0054951Y0119081D02*
X0051399Y0119081D01*
X0051399Y0119680D02*
X0054951Y0119680D01*
X0054951Y0120278D02*
X0051399Y0120278D01*
X0051399Y0120877D02*
X0054951Y0120877D01*
X0054951Y0121475D02*
X0051399Y0121475D01*
X0050867Y0122074D02*
X0055483Y0122074D01*
X0060410Y0122672D02*
X0064690Y0122672D01*
X0064690Y0123271D02*
X0060410Y0123271D01*
X0060410Y0123869D02*
X0064690Y0123869D01*
X0064690Y0124468D02*
X0060410Y0124468D01*
X0060410Y0125066D02*
X0064690Y0125066D01*
X0064690Y0125665D02*
X0060410Y0125665D01*
X0060410Y0126263D02*
X0064690Y0126263D01*
X0064657Y0126862D02*
X0060443Y0126862D01*
X0061041Y0127460D02*
X0064059Y0127460D01*
X0063721Y0128059D02*
X0061379Y0128059D01*
X0061627Y0128657D02*
X0063473Y0128657D01*
X0063250Y0129256D02*
X0061850Y0129256D01*
X0061850Y0129854D02*
X0063250Y0129854D01*
X0063250Y0130453D02*
X0061850Y0130453D01*
X0061850Y0131051D02*
X0063250Y0131051D01*
X0063250Y0131650D02*
X0061850Y0131650D01*
X0061850Y0132248D02*
X0063250Y0132248D01*
X0063250Y0132847D02*
X0061850Y0132847D01*
X0061850Y0133445D02*
X0063250Y0133445D01*
X0063250Y0134044D02*
X0061850Y0134044D01*
X0061850Y0134642D02*
X0063250Y0134642D01*
X0063250Y0135241D02*
X0061850Y0135241D01*
X0061850Y0135839D02*
X0063250Y0135839D01*
X0063250Y0136438D02*
X0061850Y0136438D01*
X0061796Y0137036D02*
X0063304Y0137036D01*
X0063552Y0137635D02*
X0061548Y0137635D01*
X0061300Y0138233D02*
X0063800Y0138233D01*
X0064251Y0138832D02*
X0060849Y0138832D01*
X0060251Y0139430D02*
X0064849Y0139430D01*
X0065920Y0140029D02*
X0059180Y0140029D01*
X0057550Y0133050D02*
X0058810Y0131790D01*
X0058810Y0118050D01*
X0062136Y0122074D02*
X0062964Y0122074D01*
X0066290Y0118050D02*
X0066290Y0131790D01*
X0067550Y0133050D01*
X0090060Y0133050D01*
X0093424Y0137036D02*
X0094176Y0137036D01*
X0090060Y0124280D02*
X0091300Y0123040D01*
X0095129Y0119081D02*
X0095223Y0119081D01*
X0095501Y0118483D02*
X0095822Y0118483D01*
X0095553Y0117884D02*
X0096420Y0117884D01*
X0097019Y0117286D02*
X0095553Y0117286D01*
X0095553Y0116687D02*
X0097617Y0116687D01*
X0098216Y0116089D02*
X0095553Y0116089D01*
X0091600Y0114293D02*
X0091000Y0114293D01*
X0091000Y0113694D02*
X0091600Y0113694D01*
X0091600Y0113096D02*
X0091000Y0113096D01*
X0091000Y0112497D02*
X0091600Y0112497D01*
X0091600Y0111899D02*
X0091000Y0111899D01*
X0087656Y0111899D02*
X0084150Y0111899D01*
X0084409Y0112497D02*
X0087137Y0112497D01*
X0087047Y0113096D02*
X0084854Y0113096D01*
X0085101Y0113694D02*
X0087047Y0113694D01*
X0087047Y0114293D02*
X0085139Y0114293D01*
X0085107Y0114891D02*
X0087047Y0114891D01*
X0111605Y0108906D02*
X0128450Y0108906D01*
X0128450Y0108308D02*
X0112203Y0108308D01*
X0112476Y0107709D02*
X0128450Y0107709D01*
X0141035Y0108308D02*
X0147772Y0108308D01*
X0148371Y0108906D02*
X0141035Y0108906D01*
X0141035Y0109505D02*
X0148969Y0109505D01*
X0149547Y0110103D02*
X0141035Y0110103D01*
X0141035Y0110702D02*
X0149547Y0110702D01*
X0149547Y0111300D02*
X0141035Y0111300D01*
X0141035Y0111899D02*
X0149547Y0111899D01*
X0149547Y0112497D02*
X0141035Y0112497D01*
X0141035Y0113096D02*
X0149547Y0113096D01*
X0149547Y0113694D02*
X0141035Y0113694D01*
X0141035Y0114293D02*
X0149547Y0114293D01*
X0149551Y0114891D02*
X0141035Y0114891D01*
X0140511Y0115490D02*
X0150150Y0115490D01*
X0153800Y0111790D02*
X0153810Y0111800D01*
X0158053Y0110000D02*
X0163800Y0110000D01*
X0163800Y0106800D01*
X0163303Y0106800D01*
X0162384Y0106419D01*
X0162064Y0106100D01*
X0158053Y0106100D01*
X0158053Y0107407D01*
X0157410Y0108050D01*
X0158053Y0108693D01*
X0158053Y0110000D01*
X0158053Y0109505D02*
X0163800Y0109505D01*
X0163800Y0108906D02*
X0158053Y0108906D01*
X0157668Y0108308D02*
X0163800Y0108308D01*
X0163800Y0107709D02*
X0157751Y0107709D01*
X0158053Y0107111D02*
X0163800Y0107111D01*
X0162608Y0106512D02*
X0158053Y0106512D01*
X0153810Y0104300D02*
X0153800Y0104310D01*
X0153524Y0104034D01*
X0149547Y0102234D02*
X0149547Y0101212D01*
X0150210Y0100550D01*
X0141035Y0100550D01*
X0141035Y0102234D01*
X0149547Y0102234D01*
X0149547Y0101724D02*
X0141035Y0101724D01*
X0141035Y0101126D02*
X0149634Y0101126D01*
X0157390Y0100550D02*
X0158053Y0101212D01*
X0158053Y0102500D01*
X0162064Y0102500D01*
X0162384Y0102181D01*
X0163303Y0101800D01*
X0163754Y0101800D01*
X0163800Y0101754D01*
X0163800Y0100550D01*
X0157390Y0100550D01*
X0157966Y0101126D02*
X0163800Y0101126D01*
X0163800Y0101724D02*
X0158053Y0101724D01*
X0158053Y0102323D02*
X0162242Y0102323D01*
X0148091Y0092747D02*
X0141035Y0092747D01*
X0141035Y0093345D02*
X0147492Y0093345D01*
X0146894Y0093944D02*
X0141035Y0093944D01*
X0141035Y0094542D02*
X0146295Y0094542D01*
X0158053Y0113694D02*
X0163800Y0113694D01*
X0163800Y0114293D02*
X0158053Y0114293D01*
X0158049Y0114891D02*
X0163800Y0114891D01*
X0163800Y0115490D02*
X0157450Y0115490D01*
X0170250Y0125750D02*
X0172550Y0128050D01*
X0176171Y0126862D02*
X0190179Y0126862D01*
X0190000Y0127460D02*
X0176350Y0127460D01*
X0175923Y0126263D02*
X0190427Y0126263D01*
X0190811Y0125665D02*
X0175539Y0125665D01*
X0174940Y0125066D02*
X0191410Y0125066D01*
X0192519Y0124468D02*
X0173831Y0124468D01*
X0171269Y0124468D02*
X0171230Y0124468D01*
X0170250Y0125750D02*
X0140050Y0125750D01*
X0129000Y0125750D01*
X0126940Y0123690D01*
X0126940Y0119782D01*
X0124971Y0119782D02*
X0124971Y0125471D01*
X0132132Y0123869D02*
X0138395Y0123869D01*
X0139503Y0123271D02*
X0132728Y0123271D01*
X0112926Y0137036D02*
X0112174Y0137036D01*
X0164916Y0134044D02*
X0204952Y0134044D01*
X0204284Y0133445D02*
X0165690Y0133445D01*
X0182550Y0111800D02*
X0230050Y0111800D01*
X0215050Y0128050D02*
X0211300Y0131800D01*
X0206300Y0131800D01*
X0208016Y0129854D02*
X0210983Y0129854D01*
X0213713Y0131650D02*
X0213811Y0131650D01*
X0232451Y0147810D02*
X0003850Y0147810D01*
X0003850Y0148408D02*
X0232451Y0148408D01*
X0232451Y0149007D02*
X0003850Y0149007D01*
X0003850Y0149605D02*
X0232451Y0149605D01*
X0232451Y0150204D02*
X0003850Y0150204D01*
X0003850Y0150461D02*
X0232451Y0150461D01*
X0232451Y0003100D01*
X0003850Y0003100D01*
X0003850Y0150461D01*
X0028518Y0133445D02*
X0033250Y0133445D01*
X0041850Y0096936D02*
X0043250Y0096936D01*
X0043250Y0096338D02*
X0041850Y0096338D01*
X0041850Y0095739D02*
X0043250Y0095739D01*
X0043250Y0095141D02*
X0041850Y0095141D01*
X0041823Y0094542D02*
X0043250Y0094542D01*
X0043354Y0093944D02*
X0041712Y0093944D01*
X0041507Y0093345D02*
X0043602Y0093345D01*
X0043850Y0092747D02*
X0041192Y0092747D01*
X0040729Y0092148D02*
X0044371Y0092148D01*
X0044969Y0091550D02*
X0040048Y0091550D01*
X0038850Y0090951D02*
X0046209Y0090951D01*
X0048891Y0090951D02*
X0056209Y0090951D01*
X0054646Y0075550D02*
X0069204Y0075550D01*
X0072828Y0071926D01*
X0071228Y0071263D02*
X0071228Y0069015D01*
X0066697Y0069015D01*
X0065935Y0068254D01*
X0065935Y0067150D01*
X0057915Y0067150D01*
X0057915Y0068254D01*
X0057153Y0069015D01*
X0052139Y0069015D01*
X0051378Y0068254D01*
X0051378Y0062846D01*
X0052139Y0062085D01*
X0057153Y0062085D01*
X0057915Y0062846D01*
X0057915Y0063950D01*
X0065935Y0063950D01*
X0065935Y0062846D01*
X0066697Y0062085D01*
X0069430Y0062085D01*
X0074550Y0056964D01*
X0074550Y0041807D01*
X0077957Y0038400D01*
X0075861Y0038400D01*
X0075267Y0038995D01*
X0074315Y0039389D01*
X0073285Y0039389D01*
X0072333Y0038995D01*
X0071803Y0038464D01*
X0071803Y0039907D01*
X0071122Y0040588D01*
X0071301Y0040691D01*
X0071543Y0040933D01*
X0071714Y0041229D01*
X0071803Y0041560D01*
X0071803Y0043990D01*
X0067850Y0043990D01*
X0067850Y0044590D01*
X0071803Y0044590D01*
X0071803Y0047020D01*
X0071714Y0047351D01*
X0071543Y0047647D01*
X0071301Y0047889D01*
X0071005Y0048061D01*
X0070674Y0048149D01*
X0067850Y0048149D01*
X0067850Y0044590D01*
X0067250Y0044590D01*
X0067250Y0043990D01*
X0063297Y0043990D01*
X0063297Y0041560D01*
X0063386Y0041229D01*
X0063557Y0040933D01*
X0063799Y0040691D01*
X0063978Y0040588D01*
X0063297Y0039907D01*
X0063297Y0037416D01*
X0059982Y0037416D01*
X0059982Y0037784D01*
X0057206Y0037784D01*
X0057206Y0037784D01*
X0059982Y0037784D01*
X0059982Y0038448D01*
X0059924Y0038664D01*
X0059982Y0038722D01*
X0059982Y0040783D01*
X0059220Y0041545D01*
X0057676Y0041545D01*
X0049554Y0049667D01*
X0049554Y0062085D01*
X0050461Y0062085D01*
X0051222Y0062846D01*
X0051222Y0068254D01*
X0050619Y0068857D01*
X0051963Y0070200D01*
X0052900Y0071137D01*
X0052900Y0072085D01*
X0057153Y0072085D01*
X0057915Y0072846D01*
X0057915Y0073950D01*
X0065935Y0073950D01*
X0065935Y0072846D01*
X0066697Y0072085D01*
X0070406Y0072085D01*
X0071228Y0071263D01*
X0071228Y0071200D02*
X0052900Y0071200D01*
X0052900Y0071799D02*
X0070692Y0071799D01*
X0071228Y0070602D02*
X0052364Y0070602D01*
X0051766Y0070003D02*
X0071228Y0070003D01*
X0071228Y0069405D02*
X0051167Y0069405D01*
X0050670Y0068806D02*
X0051930Y0068806D01*
X0051378Y0068208D02*
X0051222Y0068208D01*
X0051222Y0067609D02*
X0051378Y0067609D01*
X0051378Y0067011D02*
X0051222Y0067011D01*
X0051222Y0066412D02*
X0051378Y0066412D01*
X0051378Y0065814D02*
X0051222Y0065814D01*
X0051222Y0065215D02*
X0051378Y0065215D01*
X0051378Y0064617D02*
X0051222Y0064617D01*
X0051222Y0064018D02*
X0051378Y0064018D01*
X0051378Y0063420D02*
X0051222Y0063420D01*
X0051197Y0062821D02*
X0051403Y0062821D01*
X0052002Y0062222D02*
X0050598Y0062222D01*
X0049554Y0061624D02*
X0069890Y0061624D01*
X0070489Y0061025D02*
X0049554Y0061025D01*
X0049554Y0060427D02*
X0071087Y0060427D01*
X0071686Y0059828D02*
X0049554Y0059828D01*
X0049554Y0059230D02*
X0072284Y0059230D01*
X0072883Y0058631D02*
X0049554Y0058631D01*
X0049554Y0058033D02*
X0073481Y0058033D01*
X0074080Y0057434D02*
X0049554Y0057434D01*
X0049554Y0056836D02*
X0074550Y0056836D01*
X0074550Y0056237D02*
X0049554Y0056237D01*
X0049554Y0055639D02*
X0074550Y0055639D01*
X0074550Y0055040D02*
X0049554Y0055040D01*
X0049554Y0054442D02*
X0074550Y0054442D01*
X0074550Y0053843D02*
X0049554Y0053843D01*
X0049554Y0053245D02*
X0074550Y0053245D01*
X0074550Y0052646D02*
X0049554Y0052646D01*
X0049554Y0052048D02*
X0074550Y0052048D01*
X0074550Y0051449D02*
X0049554Y0051449D01*
X0049554Y0050851D02*
X0074550Y0050851D01*
X0074550Y0050252D02*
X0049554Y0050252D01*
X0049567Y0049654D02*
X0074550Y0049654D01*
X0074550Y0049055D02*
X0050166Y0049055D01*
X0050764Y0048457D02*
X0074550Y0048457D01*
X0074550Y0047858D02*
X0071332Y0047858D01*
X0071739Y0047260D02*
X0074550Y0047260D01*
X0074550Y0046661D02*
X0071803Y0046661D01*
X0071803Y0046063D02*
X0074550Y0046063D01*
X0074550Y0045464D02*
X0071803Y0045464D01*
X0071803Y0044866D02*
X0074550Y0044866D01*
X0074550Y0044267D02*
X0067850Y0044267D01*
X0067550Y0044290D02*
X0057560Y0044290D01*
X0051300Y0050550D01*
X0051300Y0058050D01*
X0057291Y0062222D02*
X0066559Y0062222D01*
X0065960Y0062821D02*
X0057890Y0062821D01*
X0057915Y0063420D02*
X0065935Y0063420D01*
X0069204Y0064573D02*
X0069204Y0065550D01*
X0054646Y0065550D01*
X0057915Y0067609D02*
X0065935Y0067609D01*
X0065935Y0068208D02*
X0057915Y0068208D01*
X0057363Y0068806D02*
X0066487Y0068806D01*
X0066384Y0072397D02*
X0057466Y0072397D01*
X0057915Y0072996D02*
X0065935Y0072996D01*
X0065935Y0073594D02*
X0057915Y0073594D01*
X0051300Y0071800D02*
X0047954Y0068454D01*
X0047954Y0065550D01*
X0047954Y0049005D01*
X0057206Y0039753D01*
X0057205Y0037784D02*
X0054429Y0037784D01*
X0057205Y0037784D01*
X0057205Y0037784D01*
X0057206Y0037784D02*
X0062081Y0037784D01*
X0062550Y0038253D01*
X0062550Y0040550D01*
X0066290Y0044290D01*
X0067550Y0044290D01*
X0067250Y0044267D02*
X0054954Y0044267D01*
X0055552Y0043669D02*
X0063297Y0043669D01*
X0063297Y0043070D02*
X0056151Y0043070D01*
X0056749Y0042472D02*
X0063297Y0042472D01*
X0063297Y0041873D02*
X0057348Y0041873D01*
X0059491Y0041275D02*
X0063374Y0041275D01*
X0063825Y0040676D02*
X0059982Y0040676D01*
X0059982Y0040078D02*
X0063467Y0040078D01*
X0063297Y0039479D02*
X0059982Y0039479D01*
X0059982Y0038881D02*
X0063297Y0038881D01*
X0063297Y0038282D02*
X0059982Y0038282D01*
X0059982Y0037684D02*
X0063297Y0037684D01*
X0066556Y0035816D02*
X0057206Y0035816D01*
X0057206Y0033847D02*
X0060503Y0033847D01*
X0063800Y0030550D01*
X0081300Y0030550D01*
X0086300Y0025550D01*
X0085089Y0029261D02*
X0077550Y0036800D01*
X0073800Y0036800D01*
X0067540Y0036800D01*
X0066556Y0035816D01*
X0067540Y0036800D02*
X0067550Y0036810D01*
X0071803Y0038881D02*
X0072219Y0038881D01*
X0071803Y0039479D02*
X0076878Y0039479D01*
X0076280Y0040078D02*
X0071633Y0040078D01*
X0071275Y0040676D02*
X0075681Y0040676D01*
X0075083Y0041275D02*
X0071726Y0041275D01*
X0071803Y0041873D02*
X0074550Y0041873D01*
X0074550Y0042472D02*
X0071803Y0042472D01*
X0071803Y0043070D02*
X0074550Y0043070D01*
X0074550Y0043669D02*
X0071803Y0043669D01*
X0067850Y0044866D02*
X0067250Y0044866D01*
X0067250Y0044590D02*
X0067250Y0048149D01*
X0064426Y0048149D01*
X0064095Y0048061D01*
X0063799Y0047889D01*
X0063557Y0047647D01*
X0063386Y0047351D01*
X0063297Y0047020D01*
X0063297Y0044590D01*
X0067250Y0044590D01*
X0067250Y0045464D02*
X0067850Y0045464D01*
X0067850Y0046063D02*
X0067250Y0046063D01*
X0067250Y0046661D02*
X0067850Y0046661D01*
X0067850Y0047260D02*
X0067250Y0047260D01*
X0067250Y0047858D02*
X0067850Y0047858D01*
X0063768Y0047858D02*
X0051363Y0047858D01*
X0051961Y0047260D02*
X0063361Y0047260D01*
X0063297Y0046661D02*
X0052560Y0046661D01*
X0053158Y0046063D02*
X0063297Y0046063D01*
X0063297Y0045464D02*
X0053757Y0045464D01*
X0054355Y0044866D02*
X0063297Y0044866D01*
X0054429Y0040078D02*
X0047777Y0040078D01*
X0047777Y0040676D02*
X0054019Y0040676D01*
X0053421Y0041275D02*
X0047286Y0041275D01*
X0047777Y0039479D02*
X0054429Y0039479D01*
X0054429Y0038881D02*
X0047777Y0038881D01*
X0047777Y0038282D02*
X0054429Y0038282D01*
X0054429Y0037684D02*
X0047777Y0037684D01*
X0047777Y0037085D02*
X0054439Y0037085D01*
X0054429Y0036487D02*
X0047777Y0036487D01*
X0047777Y0035888D02*
X0054429Y0035888D01*
X0054429Y0035289D02*
X0048823Y0035289D01*
X0049422Y0034691D02*
X0054429Y0034691D01*
X0054429Y0034092D02*
X0050020Y0034092D01*
X0050619Y0033494D02*
X0054429Y0033494D01*
X0054429Y0032895D02*
X0051217Y0032895D01*
X0051816Y0032297D02*
X0054949Y0032297D01*
X0053611Y0030501D02*
X0061586Y0030501D01*
X0062184Y0029903D02*
X0054210Y0029903D01*
X0053013Y0031100D02*
X0060987Y0031100D01*
X0060389Y0031698D02*
X0052414Y0031698D01*
X0053800Y0028050D02*
X0048003Y0033847D01*
X0045001Y0037784D02*
X0040326Y0037784D01*
X0035050Y0043060D01*
X0031280Y0043060D01*
X0023800Y0050540D01*
X0011915Y0050540D01*
X0005050Y0055550D02*
X0030040Y0055550D01*
X0035050Y0050540D01*
X0035350Y0050252D02*
X0039700Y0050252D01*
X0039700Y0049654D02*
X0039303Y0049654D01*
X0039303Y0049055D02*
X0039700Y0049055D01*
X0039700Y0048457D02*
X0039303Y0048457D01*
X0039303Y0047858D02*
X0039700Y0047858D01*
X0039700Y0047260D02*
X0039087Y0047260D01*
X0038799Y0046661D02*
X0039700Y0046661D01*
X0039700Y0046063D02*
X0039303Y0046063D01*
X0039303Y0045464D02*
X0039700Y0045464D01*
X0039700Y0044866D02*
X0039303Y0044866D01*
X0039303Y0044267D02*
X0039700Y0044267D01*
X0039700Y0043669D02*
X0039303Y0043669D01*
X0039303Y0043070D02*
X0039700Y0043070D01*
X0040019Y0042472D02*
X0039303Y0042472D01*
X0039303Y0041873D02*
X0040618Y0041873D01*
X0041216Y0041275D02*
X0039303Y0041275D01*
X0039696Y0040676D02*
X0041815Y0040676D01*
X0042224Y0040078D02*
X0040295Y0040078D01*
X0040894Y0039479D02*
X0042224Y0039479D01*
X0031301Y0046661D02*
X0029942Y0046661D01*
X0030540Y0046063D02*
X0030797Y0046063D01*
X0031013Y0047260D02*
X0029343Y0047260D01*
X0028745Y0047858D02*
X0030797Y0047858D01*
X0030797Y0048457D02*
X0028146Y0048457D01*
X0028053Y0049055D02*
X0030797Y0049055D01*
X0030797Y0049654D02*
X0028053Y0049654D01*
X0028053Y0050252D02*
X0034750Y0050252D01*
X0034750Y0050851D02*
X0035350Y0050851D01*
X0035350Y0051449D02*
X0034750Y0051449D01*
X0034750Y0052048D02*
X0035350Y0052048D01*
X0035350Y0052646D02*
X0034750Y0052646D01*
X0034750Y0053245D02*
X0035350Y0053245D01*
X0035350Y0053843D02*
X0034750Y0053843D01*
X0031026Y0053843D02*
X0027847Y0053843D01*
X0028053Y0053245D02*
X0030797Y0053245D01*
X0030797Y0052646D02*
X0028053Y0052646D01*
X0028053Y0052048D02*
X0030797Y0052048D01*
X0030797Y0051449D02*
X0028053Y0051449D01*
X0028053Y0050851D02*
X0030797Y0050851D01*
X0039303Y0050851D02*
X0039700Y0050851D01*
X0039700Y0051449D02*
X0039303Y0051449D01*
X0039303Y0052048D02*
X0039700Y0052048D01*
X0039700Y0052646D02*
X0039303Y0052646D01*
X0039303Y0053245D02*
X0039700Y0053245D01*
X0039700Y0053843D02*
X0039074Y0053843D01*
X0069204Y0064573D02*
X0076150Y0057627D01*
X0076150Y0042470D01*
X0086970Y0031650D01*
X0085089Y0029261D02*
X0111339Y0029261D01*
X0127055Y0043669D02*
X0134951Y0043669D01*
X0134353Y0044267D02*
X0127200Y0044267D01*
X0127200Y0044866D02*
X0133754Y0044866D01*
X0133156Y0045464D02*
X0127200Y0045464D01*
X0127200Y0046063D02*
X0132557Y0046063D01*
X0131959Y0046661D02*
X0127200Y0046661D01*
X0127200Y0047260D02*
X0131360Y0047260D01*
X0130762Y0047858D02*
X0127200Y0047858D01*
X0127200Y0048457D02*
X0130163Y0048457D01*
X0129565Y0049055D02*
X0127200Y0049055D01*
X0127200Y0049654D02*
X0128966Y0049654D01*
X0128368Y0050252D02*
X0127200Y0050252D01*
X0127200Y0050851D02*
X0127769Y0050851D01*
X0114806Y0078382D02*
X0114044Y0078382D01*
X0092550Y0091800D02*
X0091300Y0090550D01*
X0091300Y0089300D01*
X0078598Y0068252D02*
X0075896Y0065550D01*
X0079150Y0052646D02*
X0082047Y0052646D01*
X0082047Y0052048D02*
X0079150Y0052048D01*
X0079150Y0051449D02*
X0082047Y0051449D01*
X0082047Y0050851D02*
X0079150Y0050851D01*
X0079150Y0050252D02*
X0082047Y0050252D01*
X0082336Y0049654D02*
X0079150Y0049654D01*
X0079150Y0049055D02*
X0082445Y0049055D01*
X0082092Y0048457D02*
X0079150Y0048457D01*
X0079150Y0047858D02*
X0082047Y0047858D01*
X0082047Y0047260D02*
X0079150Y0047260D01*
X0079150Y0046661D02*
X0082047Y0046661D01*
X0082047Y0046063D02*
X0079150Y0046063D01*
X0077477Y0038881D02*
X0075381Y0038881D01*
X0078800Y0028050D02*
X0053800Y0028050D01*
X0054749Y0026312D02*
X0047851Y0026312D01*
X0047155Y0026600D02*
X0048736Y0025945D01*
X0049945Y0024736D01*
X0050600Y0023155D01*
X0050600Y0015445D01*
X0049945Y0013864D01*
X0048736Y0012655D01*
X0047155Y0012000D01*
X0045445Y0012000D01*
X0043864Y0012655D01*
X0042655Y0013864D01*
X0042000Y0015445D01*
X0042000Y0023155D01*
X0042655Y0024736D01*
X0043864Y0025945D01*
X0045445Y0026600D01*
X0047155Y0026600D01*
X0048968Y0025713D02*
X0053632Y0025713D01*
X0053034Y0025115D02*
X0049566Y0025115D01*
X0050036Y0024516D02*
X0052564Y0024516D01*
X0052316Y0023918D02*
X0050284Y0023918D01*
X0050532Y0023319D02*
X0052068Y0023319D01*
X0052000Y0022721D02*
X0050600Y0022721D01*
X0050600Y0022122D02*
X0052000Y0022122D01*
X0052000Y0021524D02*
X0050600Y0021524D01*
X0050600Y0020925D02*
X0052000Y0020925D01*
X0052000Y0020327D02*
X0050600Y0020327D01*
X0050600Y0019728D02*
X0052000Y0019728D01*
X0052000Y0019130D02*
X0050600Y0019130D01*
X0050600Y0018531D02*
X0052000Y0018531D01*
X0052000Y0017933D02*
X0050600Y0017933D01*
X0050600Y0017334D02*
X0052000Y0017334D01*
X0052000Y0016736D02*
X0050600Y0016736D01*
X0050600Y0016137D02*
X0052000Y0016137D01*
X0052000Y0015539D02*
X0050600Y0015539D01*
X0050391Y0014940D02*
X0052209Y0014940D01*
X0052457Y0014342D02*
X0050143Y0014342D01*
X0049824Y0013743D02*
X0052776Y0013743D01*
X0053374Y0013145D02*
X0049226Y0013145D01*
X0048474Y0012546D02*
X0054126Y0012546D01*
X0058474Y0012546D02*
X0064126Y0012546D01*
X0063374Y0013145D02*
X0059226Y0013145D01*
X0059824Y0013743D02*
X0062776Y0013743D01*
X0062457Y0014342D02*
X0060143Y0014342D01*
X0060391Y0014940D02*
X0062209Y0014940D01*
X0062000Y0015539D02*
X0060600Y0015539D01*
X0060600Y0016137D02*
X0062000Y0016137D01*
X0062000Y0016736D02*
X0060600Y0016736D01*
X0060600Y0017334D02*
X0062000Y0017334D01*
X0062000Y0017933D02*
X0060600Y0017933D01*
X0060600Y0018531D02*
X0062000Y0018531D01*
X0062000Y0019130D02*
X0060600Y0019130D01*
X0060600Y0019728D02*
X0062000Y0019728D01*
X0062000Y0020327D02*
X0060600Y0020327D01*
X0060600Y0020925D02*
X0062000Y0020925D01*
X0062000Y0021524D02*
X0060600Y0021524D01*
X0060600Y0022122D02*
X0062000Y0022122D01*
X0062000Y0022721D02*
X0060600Y0022721D01*
X0060532Y0023319D02*
X0062068Y0023319D01*
X0062316Y0023918D02*
X0060284Y0023918D01*
X0060036Y0024516D02*
X0062564Y0024516D01*
X0063034Y0025115D02*
X0059566Y0025115D01*
X0058968Y0025713D02*
X0063632Y0025713D01*
X0064749Y0026312D02*
X0057851Y0026312D01*
X0067851Y0026312D02*
X0074749Y0026312D01*
X0073632Y0025713D02*
X0068968Y0025713D01*
X0069566Y0025115D02*
X0073034Y0025115D01*
X0072564Y0024516D02*
X0070036Y0024516D01*
X0070284Y0023918D02*
X0072316Y0023918D01*
X0072068Y0023319D02*
X0070532Y0023319D01*
X0070600Y0022721D02*
X0072000Y0022721D01*
X0072000Y0022122D02*
X0070600Y0022122D01*
X0070600Y0021524D02*
X0072000Y0021524D01*
X0072000Y0020925D02*
X0070600Y0020925D01*
X0070600Y0020327D02*
X0072000Y0020327D01*
X0072000Y0019728D02*
X0070600Y0019728D01*
X0070600Y0019130D02*
X0072000Y0019130D01*
X0072000Y0018531D02*
X0070600Y0018531D01*
X0070600Y0017933D02*
X0072000Y0017933D01*
X0072000Y0017334D02*
X0070600Y0017334D01*
X0070600Y0016736D02*
X0072000Y0016736D01*
X0072000Y0016137D02*
X0070600Y0016137D01*
X0070600Y0015539D02*
X0072000Y0015539D01*
X0072209Y0014940D02*
X0070391Y0014940D01*
X0070143Y0014342D02*
X0072457Y0014342D01*
X0072776Y0013743D02*
X0069824Y0013743D01*
X0069226Y0013145D02*
X0073374Y0013145D01*
X0074126Y0012546D02*
X0068474Y0012546D01*
X0078474Y0012546D02*
X0080791Y0012546D01*
X0080193Y0013145D02*
X0079226Y0013145D01*
X0081300Y0014300D02*
X0081300Y0025550D01*
X0078800Y0028050D01*
X0044749Y0026312D02*
X0037851Y0026312D01*
X0037155Y0026600D02*
X0038736Y0025945D01*
X0039945Y0024736D01*
X0040600Y0023155D01*
X0040600Y0015445D01*
X0039945Y0013864D01*
X0038736Y0012655D01*
X0037155Y0012000D01*
X0035445Y0012000D01*
X0033864Y0012655D01*
X0032655Y0013864D01*
X0032000Y0015445D01*
X0032000Y0023155D01*
X0032655Y0024736D01*
X0033864Y0025945D01*
X0035445Y0026600D01*
X0037155Y0026600D01*
X0038968Y0025713D02*
X0043632Y0025713D01*
X0043034Y0025115D02*
X0039566Y0025115D01*
X0040036Y0024516D02*
X0042564Y0024516D01*
X0042316Y0023918D02*
X0040284Y0023918D01*
X0040532Y0023319D02*
X0042068Y0023319D01*
X0042000Y0022721D02*
X0040600Y0022721D01*
X0040600Y0022122D02*
X0042000Y0022122D01*
X0042000Y0021524D02*
X0040600Y0021524D01*
X0040600Y0020925D02*
X0042000Y0020925D01*
X0042000Y0020327D02*
X0040600Y0020327D01*
X0040600Y0019728D02*
X0042000Y0019728D01*
X0042000Y0019130D02*
X0040600Y0019130D01*
X0040600Y0018531D02*
X0042000Y0018531D01*
X0042000Y0017933D02*
X0040600Y0017933D01*
X0040600Y0017334D02*
X0042000Y0017334D01*
X0042000Y0016736D02*
X0040600Y0016736D01*
X0040600Y0016137D02*
X0042000Y0016137D01*
X0042000Y0015539D02*
X0040600Y0015539D01*
X0040391Y0014940D02*
X0042209Y0014940D01*
X0042457Y0014342D02*
X0040143Y0014342D01*
X0039824Y0013743D02*
X0042776Y0013743D01*
X0043374Y0013145D02*
X0039226Y0013145D01*
X0038474Y0012546D02*
X0044126Y0012546D01*
X0034126Y0012546D02*
X0028474Y0012546D01*
X0029226Y0013145D02*
X0033374Y0013145D01*
X0032776Y0013743D02*
X0029824Y0013743D01*
X0030143Y0014342D02*
X0032457Y0014342D01*
X0032209Y0014940D02*
X0030391Y0014940D01*
X0030600Y0015539D02*
X0032000Y0015539D01*
X0032000Y0016137D02*
X0030600Y0016137D01*
X0030600Y0016736D02*
X0032000Y0016736D01*
X0032000Y0017334D02*
X0030600Y0017334D01*
X0030600Y0017933D02*
X0032000Y0017933D01*
X0032000Y0018531D02*
X0030600Y0018531D01*
X0030600Y0019130D02*
X0032000Y0019130D01*
X0032000Y0019728D02*
X0030600Y0019728D01*
X0030600Y0020327D02*
X0032000Y0020327D01*
X0032000Y0020925D02*
X0030600Y0020925D01*
X0030600Y0021524D02*
X0032000Y0021524D01*
X0032000Y0022122D02*
X0030600Y0022122D01*
X0030600Y0022721D02*
X0032000Y0022721D01*
X0032068Y0023319D02*
X0030532Y0023319D01*
X0030284Y0023918D02*
X0032316Y0023918D01*
X0032564Y0024516D02*
X0030036Y0024516D01*
X0029566Y0025115D02*
X0033034Y0025115D01*
X0033632Y0025713D02*
X0028968Y0025713D01*
X0027851Y0026312D02*
X0034749Y0026312D01*
X0003850Y0010152D02*
X0123450Y0010152D01*
X0123450Y0009553D02*
X0003850Y0009553D01*
X0003850Y0008955D02*
X0123450Y0008955D01*
X0123450Y0008356D02*
X0003850Y0008356D01*
X0003850Y0007758D02*
X0123450Y0007758D01*
X0123450Y0007159D02*
X0003850Y0007159D01*
X0003850Y0006561D02*
X0123450Y0006561D01*
X0123625Y0005962D02*
X0003850Y0005962D01*
X0003850Y0005364D02*
X0124223Y0005364D01*
X0128400Y0007159D02*
X0165450Y0007159D01*
X0165450Y0007758D02*
X0128400Y0007758D01*
X0128400Y0008356D02*
X0165450Y0008356D01*
X0165450Y0008955D02*
X0128400Y0008955D01*
X0128400Y0009553D02*
X0165450Y0009553D01*
X0165450Y0010152D02*
X0128400Y0010152D01*
X0149201Y0012546D02*
X0155899Y0012546D01*
X0154907Y0013145D02*
X0150193Y0013145D01*
X0150791Y0013743D02*
X0154309Y0013743D01*
X0153923Y0014342D02*
X0151177Y0014342D01*
X0151425Y0014940D02*
X0153675Y0014940D01*
X0153450Y0015539D02*
X0151650Y0015539D01*
X0151650Y0016137D02*
X0153450Y0016137D01*
X0153450Y0016736D02*
X0151650Y0016736D01*
X0151650Y0017334D02*
X0153450Y0017334D01*
X0153450Y0017933D02*
X0151650Y0017933D01*
X0151650Y0018531D02*
X0153450Y0018531D01*
X0159201Y0012546D02*
X0165450Y0012546D01*
X0164907Y0013145D02*
X0160193Y0013145D01*
X0160791Y0013743D02*
X0164309Y0013743D01*
X0163923Y0014342D02*
X0161177Y0014342D01*
X0161425Y0014940D02*
X0163675Y0014940D01*
X0163450Y0015539D02*
X0161650Y0015539D01*
X0161650Y0016137D02*
X0163450Y0016137D01*
X0163450Y0016736D02*
X0161650Y0016736D01*
X0161650Y0017334D02*
X0163450Y0017334D01*
X0163450Y0017933D02*
X0161650Y0017933D01*
X0161650Y0018531D02*
X0163450Y0018531D01*
X0203800Y0024300D02*
X0215050Y0024300D01*
X0219171Y0020327D02*
X0223800Y0020327D01*
X0223800Y0020925D02*
X0220473Y0020925D01*
X0221072Y0021524D02*
X0223800Y0021524D01*
X0223800Y0022122D02*
X0221586Y0022122D01*
X0221834Y0022721D02*
X0223800Y0022721D01*
X0223800Y0023319D02*
X0222082Y0023319D01*
X0222150Y0023918D02*
X0223800Y0023918D01*
X0223800Y0024516D02*
X0222150Y0024516D01*
X0222150Y0025115D02*
X0223800Y0025115D01*
X0223800Y0025713D02*
X0221902Y0025713D01*
X0221654Y0026312D02*
X0223800Y0026312D01*
X0223800Y0026910D02*
X0221238Y0026910D01*
X0220639Y0027509D02*
X0223800Y0027509D01*
X0223800Y0028107D02*
X0219572Y0028107D01*
X0220648Y0031100D02*
X0223800Y0031100D01*
X0223800Y0031698D02*
X0221247Y0031698D01*
X0221658Y0032297D02*
X0223800Y0032297D01*
X0223800Y0032895D02*
X0221906Y0032895D01*
X0222150Y0033494D02*
X0223800Y0033494D01*
X0223800Y0034092D02*
X0222150Y0034092D01*
X0222150Y0034691D02*
X0223800Y0034691D01*
X0223800Y0035289D02*
X0222078Y0035289D01*
X0221830Y0035888D02*
X0223800Y0035888D01*
X0223800Y0036487D02*
X0221582Y0036487D01*
X0221063Y0037085D02*
X0223800Y0037085D01*
X0223800Y0037684D02*
X0220465Y0037684D01*
X0219150Y0038282D02*
X0223800Y0038282D01*
X0225400Y0048457D02*
X0232451Y0048457D01*
X0232451Y0049055D02*
X0225400Y0049055D01*
X0225400Y0049654D02*
X0232451Y0049654D01*
X0232451Y0050252D02*
X0225400Y0050252D01*
X0225400Y0050851D02*
X0232451Y0050851D01*
X0232451Y0051449D02*
X0225400Y0051449D01*
X0225400Y0052048D02*
X0232451Y0052048D01*
X0232451Y0052646D02*
X0225400Y0052646D01*
X0225400Y0053245D02*
X0232451Y0053245D01*
X0232451Y0053843D02*
X0225400Y0053843D01*
X0225400Y0054442D02*
X0232451Y0054442D01*
X0232451Y0055040D02*
X0225400Y0055040D01*
X0225400Y0055639D02*
X0232451Y0055639D01*
X0232451Y0056237D02*
X0225400Y0056237D01*
X0225400Y0056836D02*
X0232451Y0056836D01*
X0232451Y0057434D02*
X0225400Y0057434D01*
X0225400Y0058033D02*
X0232451Y0058033D01*
X0232451Y0058631D02*
X0225400Y0058631D01*
X0225400Y0059230D02*
X0232451Y0059230D01*
X0232451Y0059828D02*
X0225400Y0059828D01*
X0225400Y0060427D02*
X0232451Y0060427D01*
X0232451Y0061025D02*
X0225400Y0061025D01*
X0225400Y0061624D02*
X0232451Y0061624D01*
X0232451Y0062222D02*
X0225400Y0062222D01*
X0225400Y0062821D02*
X0232451Y0062821D01*
X0232451Y0063420D02*
X0225400Y0063420D01*
X0225400Y0064018D02*
X0232451Y0064018D01*
X0232451Y0064617D02*
X0225400Y0064617D01*
X0225400Y0065215D02*
X0232451Y0065215D01*
X0232451Y0065814D02*
X0225400Y0065814D01*
X0225201Y0066412D02*
X0232451Y0066412D01*
X0232451Y0067011D02*
X0224602Y0067011D01*
X0223800Y0065215D02*
X0191683Y0065215D01*
X0192282Y0064617D02*
X0223800Y0064617D01*
X0223800Y0064018D02*
X0192819Y0064018D01*
X0193067Y0063420D02*
X0223800Y0063420D01*
X0223800Y0062821D02*
X0193315Y0062821D01*
X0193400Y0062222D02*
X0223800Y0062222D01*
X0223800Y0061624D02*
X0193400Y0061624D01*
X0193400Y0061025D02*
X0223800Y0061025D01*
X0223800Y0060427D02*
X0193169Y0060427D01*
X0192921Y0059828D02*
X0223800Y0059828D01*
X0223800Y0059230D02*
X0192528Y0059230D01*
X0191930Y0058631D02*
X0223800Y0058631D01*
X0223800Y0058033D02*
X0190919Y0058033D01*
X0180742Y0055040D02*
X0176650Y0055040D01*
X0176650Y0054442D02*
X0180144Y0054442D01*
X0179709Y0053843D02*
X0176650Y0053843D01*
X0176258Y0053245D02*
X0179461Y0053245D01*
X0179213Y0052646D02*
X0175659Y0052646D01*
X0173109Y0052048D02*
X0179200Y0052048D01*
X0179200Y0051449D02*
X0173109Y0051449D01*
X0173109Y0050851D02*
X0179255Y0050851D01*
X0179503Y0050252D02*
X0172853Y0050252D01*
X0176650Y0056836D02*
X0223800Y0056836D01*
X0223800Y0057434D02*
X0176650Y0057434D01*
X0232451Y0004765D02*
X0003850Y0004765D01*
X0003850Y0004167D02*
X0232451Y0004167D01*
X0232451Y0003568D02*
X0003850Y0003568D01*
D23*
X0091300Y0089300D03*
X0095924Y0093426D03*
X0067550Y0112240D03*
X0097550Y0125550D03*
X0103800Y0123050D03*
X0140050Y0125750D03*
X0163800Y0131800D03*
X0182550Y0111800D03*
X0163800Y0104300D03*
X0190050Y0084300D03*
X0193800Y0084300D03*
X0197550Y0084300D03*
X0197550Y0080550D03*
X0193800Y0080550D03*
X0190050Y0080550D03*
X0201300Y0076800D03*
X0205050Y0076800D03*
X0208800Y0076800D03*
X0208800Y0073050D03*
X0208800Y0069300D03*
D24*
X0230050Y0111800D03*
X0206300Y0131800D03*
X0226300Y0143050D03*
X0231300Y0143050D03*
X0231300Y0148050D03*
X0226300Y0148050D03*
X0145050Y0148050D03*
X0140050Y0148050D03*
X0135050Y0148050D03*
X0130050Y0148050D03*
X0127550Y0144300D03*
X0125050Y0148050D03*
X0120050Y0148050D03*
X0116300Y0148050D03*
X0112550Y0148050D03*
X0108800Y0148050D03*
X0108800Y0139300D03*
X0090050Y0144300D03*
X0081300Y0129300D03*
X0082550Y0114300D03*
X0082550Y0104300D03*
X0110050Y0106800D03*
X0118800Y0104300D03*
X0126300Y0098050D03*
X0116300Y0091485D03*
X0116300Y0080550D03*
X0112550Y0080550D03*
X0140050Y0061800D03*
X0102550Y0045560D03*
X0118800Y0028550D03*
X0122550Y0028550D03*
X0126300Y0028562D03*
X0122550Y0024800D03*
X0122550Y0021050D03*
X0122550Y0016050D03*
X0122550Y0005050D03*
X0126300Y0005050D03*
X0106300Y0005050D03*
X0073800Y0036800D03*
X0051300Y0058050D03*
X0081300Y0065550D03*
X0081300Y0075550D03*
X0115050Y0114300D03*
X0011300Y0143050D03*
X0006300Y0143050D03*
X0006300Y0148050D03*
X0011300Y0148050D03*
X0005050Y0055550D03*
X0009425Y0048050D03*
X0006300Y0008800D03*
X0006300Y0005050D03*
X0010050Y0005050D03*
X0167550Y0005050D03*
D25*
X0167550Y0019300D01*
X0126300Y0028562D02*
X0126300Y0005050D01*
X0122550Y0005050D02*
X0122550Y0028550D01*
X0106300Y0019300D02*
X0106300Y0005050D01*
M02*
